<svg width="299" height="335" viewBox="0 0 299 335" fill="none" xmlns="http://www.w3.org/2000/svg">
<path d="M294.408 151.576H24.714C22.8506 151.576 21.3401 153.086 21.3401 154.95V330.101C21.3401 331.964 22.8506 333.475 24.714 333.475H294.408C296.271 333.475 297.782 331.964 297.782 330.101V154.95C297.782 153.086 296.271 151.576 294.408 151.576Z" fill="#245A7C"/>
<path d="M294.408 334.681H24.714C22.1805 334.681 20.1221 332.622 20.1221 330.089V154.95C20.1221 152.416 22.1805 150.358 24.714 150.358H294.408C296.942 150.358 299 152.416 299 154.95V330.089C299 332.622 296.942 334.681 294.408 334.681ZM24.714 152.794C23.5203 152.794 22.5581 153.756 22.5581 154.95V330.089C22.5581 331.282 23.5203 332.245 24.714 332.245H294.408C295.602 332.245 296.564 331.282 296.564 330.089V154.95C296.564 153.756 295.602 152.794 294.408 152.794H24.714Z" fill="#303030"/>
<path d="M294.408 142.964H24.714C22.8504 142.964 21.3401 144.475 21.3401 146.338V158.384H297.782V146.338C297.782 144.475 296.272 142.964 294.408 142.964Z" fill="white"/>
<path d="M297.782 159.602H21.3401C20.6702 159.602 20.1221 159.054 20.1221 158.384V146.338C20.1221 143.805 22.1805 141.746 24.714 141.746H294.408C296.942 141.746 299 143.805 299 146.338V158.384C299 159.054 298.452 159.602 297.782 159.602ZM22.5581 157.166H296.564V146.338C296.564 145.144 295.602 144.182 294.408 144.182H24.714C23.5203 144.182 22.5581 145.144 22.5581 146.338V157.166Z" fill="#303030"/>
<path d="M211.278 224.754L191.156 182.599C181.424 187.239 173.276 195.217 168.611 205.717L211.29 224.754H211.278Z" fill="white"/>
<path d="M211.278 225.972C211.108 225.972 210.937 225.936 210.779 225.863L168.099 206.825C167.49 206.557 167.21 205.826 167.478 205.217C172.107 194.827 180.316 186.399 190.62 181.49C191.229 181.198 191.96 181.454 192.24 182.063L212.362 224.218C212.581 224.681 212.496 225.229 212.131 225.595C211.899 225.838 211.583 225.96 211.254 225.96L211.278 225.972ZM170.231 205.107L208.757 222.294L190.584 184.231C181.68 188.774 174.518 196.118 170.219 205.107H170.231Z" fill="#303030"/>
<path d="M211.278 224.754L257.161 216.118C254.859 200.625 244.372 188.007 228.927 181.368C216.662 176.094 202.533 177.714 191.156 182.599L211.278 224.754Z" fill="white"/>
<path d="M211.278 225.972C210.815 225.972 210.389 225.704 210.182 225.278L190.06 183.122C189.914 182.818 189.902 182.477 190.024 182.172C190.146 181.868 190.377 181.612 190.681 181.478C203.897 175.802 218.014 175.351 229.402 180.248C245.456 187.154 256.016 200.162 258.367 215.936C258.464 216.581 258.026 217.19 257.392 217.312L211.51 225.948C211.437 225.96 211.363 225.972 211.278 225.972ZM192.813 183.22L211.985 223.378L255.772 215.144C253.215 200.735 243.312 188.883 228.452 182.489C218.002 177.994 205.078 178.274 192.825 183.232L192.813 183.22Z" fill="#303030"/>
<path d="M167.661 208.007C165.627 213.305 164.628 218.749 164.555 224.109L211.29 224.742L168.611 205.704C168.282 206.46 167.953 207.215 167.661 207.994V208.007Z" fill="white"/>
<path d="M211.278 225.972H211.266L164.531 225.339C163.861 225.339 163.325 224.779 163.325 224.109C163.398 218.457 164.47 212.903 166.516 207.58C166.82 206.788 167.149 205.997 167.49 205.229C167.624 204.937 167.868 204.706 168.172 204.584C168.477 204.474 168.806 204.474 169.11 204.608L211.79 223.646C212.313 223.877 212.606 224.45 212.484 225.022C212.362 225.582 211.863 225.984 211.29 225.984L211.278 225.972ZM165.797 222.915L205.383 223.451L169.244 207.324C169.086 207.69 168.94 208.067 168.806 208.433C167.015 213.098 166.004 217.958 165.809 222.903L165.797 222.915Z" fill="#303030"/>
<path d="M184.494 263.037L211.278 224.742L164.543 224.109C164.336 239.444 171.753 254.145 184.494 263.037Z" fill="white"/>
<path d="M184.494 264.254C184.25 264.254 184.007 264.181 183.8 264.035C170.767 254.937 163.118 240.004 163.337 224.096C163.337 223.78 163.471 223.463 163.702 223.244C163.934 223.025 164.251 222.927 164.567 222.903L211.303 223.536C211.753 223.536 212.167 223.792 212.374 224.194C212.582 224.596 212.545 225.083 212.289 225.448L185.505 263.743C185.273 264.084 184.896 264.267 184.506 264.267L184.494 264.254ZM165.761 225.351C165.944 239.59 172.752 252.878 184.202 261.331L208.964 225.936L165.761 225.351Z" fill="#303030"/>
<path d="M184.518 263C187.576 265.132 190.901 266.983 194.531 268.372C218.623 277.616 245.651 265.582 254.896 241.49C258.123 233.086 258.708 224.352 257.149 216.119L211.266 224.754L184.506 263H184.518Z" fill="#EBEBEB"/>
<path d="M211.23 272.696C205.529 272.696 199.731 271.672 194.104 269.504C190.584 268.152 187.125 266.301 183.824 263.987C183.556 263.804 183.373 263.524 183.325 263.195C183.264 262.878 183.337 262.549 183.532 262.281L210.292 224.036C210.474 223.78 210.754 223.597 211.059 223.536L256.942 214.9C257.612 214.779 258.233 215.205 258.367 215.875C260.023 224.645 259.232 233.646 256.053 241.916C248.745 260.966 230.523 272.683 211.242 272.683L211.23 272.696ZM186.224 262.683C189.049 264.559 191.997 266.094 194.969 267.239C218.391 276.228 244.774 264.486 253.763 241.064C256.625 233.597 257.453 225.497 256.162 217.544L211.985 225.85L186.211 262.683H186.224Z" fill="#303030"/>
<path d="M258.038 292.622H64.2023V302.306H258.038V292.622Z" fill="white"/>
<path d="M258.038 303.524H64.2023C63.5324 303.524 62.9843 302.976 62.9843 302.306V292.622C62.9843 291.952 63.5324 291.404 64.2023 291.404H258.038C258.708 291.404 259.256 291.952 259.256 292.622V302.306C259.256 302.976 258.708 303.524 258.038 303.524ZM65.4203 301.088H256.82V293.84H65.4203V301.088Z" fill="#303030"/>
<path d="M210.621 310.016H64.2023V319.906H210.621V310.016Z" fill="white"/>
<path d="M210.621 321.112H64.2023C63.5324 321.112 62.9843 320.564 62.9843 319.894V310.003C62.9843 309.334 63.5324 308.785 64.2023 308.785H210.621C211.29 308.785 211.839 309.334 211.839 310.003V319.894C211.839 320.564 211.29 321.112 210.621 321.112ZM65.4203 318.676H209.402V311.221H65.4203V318.676Z" fill="#303030"/>
<path d="M111.693 190.296C93.6418 172.574 64.6529 172.854 46.9307 190.906C31.7055 206.411 29.781 230.004 40.9868 247.568L4.16602 285.083C0.15873 289.163 0.219651 295.716 4.30002 299.711C8.38039 303.719 14.9333 303.658 18.9284 299.577L55.7492 262.062C73.5323 272.939 97.0766 270.564 112.29 255.059C130.012 237.008 129.732 208.019 111.681 190.296H111.693ZM56.212 246.825C43.0452 233.902 42.8503 212.745 55.7735 199.578C68.6967 186.411 89.8537 186.216 103.021 199.139C116.187 212.063 116.382 233.22 103.459 246.386C90.5358 259.553 69.3788 259.748 56.212 246.825Z" fill="white"/>
<path d="M11.5594 303.889C8.51432 303.889 5.6398 302.72 3.45955 300.576C1.25493 298.408 0.0247335 295.521 0.00037307 292.427C-0.0239873 289.334 1.14531 286.423 3.31339 284.218L39.452 247.397C28.2219 228.981 30.8772 205.522 46.0659 190.041C64.2266 171.539 94.0437 171.259 112.545 189.419C131.047 207.58 131.327 237.41 113.167 255.899C97.9779 271.38 74.5798 274.474 55.944 263.585L19.8054 300.406C17.6373 302.61 14.7506 303.84 11.6568 303.865H11.5472L11.5594 303.889ZM79.6223 178.421C68.0633 178.421 56.5165 182.879 47.8077 191.758C33.1914 206.654 30.8041 229.334 42.0221 246.922C42.3266 247.397 42.2657 248.031 41.8637 248.433L5.04296 285.948C3.33773 287.689 2.41204 289.991 2.42422 292.427C2.44858 294.864 3.423 297.153 5.16477 298.859C6.90654 300.564 9.18424 301.477 11.6446 301.477C14.0807 301.453 16.3706 300.479 18.0758 298.737L54.8965 261.222C55.2985 260.82 55.9197 260.735 56.4069 261.039C74.19 271.916 96.8329 269.115 111.449 254.218C128.672 236.679 128.404 208.396 110.865 191.173C102.204 182.672 90.9134 178.433 79.6467 178.433L79.6223 178.421ZM79.6102 257.604C70.4872 257.604 61.888 254.096 55.3594 247.69C48.7577 241.21 45.0793 232.55 44.994 223.293C44.9087 214.048 48.4288 205.315 54.9087 198.713C68.2826 185.083 90.2557 184.876 103.885 198.25C110.487 204.73 114.165 213.39 114.251 222.647C114.336 231.892 110.816 240.625 104.336 247.227C97.8561 253.828 89.196 257.507 79.939 257.592C79.8294 257.592 79.7198 257.592 79.6102 257.592V257.604ZM79.6223 190.796C71.2789 190.796 62.9355 194.011 56.6383 200.418C50.6091 206.557 47.3448 214.669 47.4179 223.268C47.5032 231.868 50.9258 239.919 57.0646 245.948C63.2034 251.977 71.3033 255.302 79.9147 255.168C88.5139 255.083 96.565 251.66 102.594 245.534C108.623 239.395 111.888 231.283 111.815 222.684C111.729 214.084 108.307 206.033 102.168 200.004C95.9073 193.865 87.7587 190.796 79.6223 190.796Z" fill="#303030"/>
<path d="M81.5591 213.646C78.4531 216.801 73.3861 216.849 70.2193 213.755C67.0524 210.649 67.0159 205.57 70.1096 202.416C73.2156 199.261 78.2825 199.212 81.4494 202.306C84.6041 205.412 84.6528 210.479 81.5591 213.646Z" fill="white"/>
<path d="M75.8343 217.263C73.3982 217.263 71.1084 216.325 69.3666 214.62C65.7369 211.051 65.676 205.193 69.2448 201.563C70.9744 199.797 73.2886 198.822 75.749 198.798C78.2094 198.798 80.548 199.712 82.302 201.441C84.0681 203.171 85.0425 205.485 85.0669 207.945C85.0913 210.418 84.1534 212.744 82.4238 214.498C80.6942 216.265 78.3799 217.239 75.9195 217.263H75.8343ZM75.8465 201.234C75.8465 201.234 75.7978 201.234 75.7856 201.234C73.9707 201.246 72.2655 201.977 70.9988 203.268C69.732 204.559 69.0377 206.277 69.0499 208.092C69.0621 209.906 69.7929 211.612 71.084 212.878C72.363 214.133 74.056 214.827 75.8465 214.827H75.9074C77.7222 214.815 79.4274 214.084 80.6942 212.793C81.9609 211.502 82.6552 209.785 82.643 207.97C82.6309 206.155 81.9 204.45 80.6089 203.183C79.33 201.928 77.637 201.234 75.8465 201.234Z" fill="#303030"/>
<path d="M103.325 13.8784C87.6978 29.2986 104.165 42.5993 102.01 52.5627C99.744 63.0134 84.0681 63.8416 87.2594 84.4627C93.6661 125.839 144.202 122.428 159.537 116.229C173.8 110.467 182.46 98.0802 183.861 91.2958C189.159 65.5712 163.373 53.1839 158.258 43.184C152.643 32.1974 167.478 12.2828 147.478 3.80539C129.793 -3.68544 123.252 7.38637 123.252 7.38637C115.651 5.5837 106.443 10.7968 103.325 13.8784Z" fill="#303030"/>
<path d="M136.455 121.21C126.187 121.21 114.933 119.274 105.688 114.024C94.7135 107.788 88.1118 97.9097 86.0534 84.6455C83.9584 71.0645 89.6831 65.6443 94.7257 60.8575C97.5759 58.1535 100.048 55.8149 100.816 52.2948C101.486 49.2132 100.048 45.4861 98.5381 41.5275C95.4809 33.5617 91.6684 23.6592 102.472 13.0015C105.724 9.79811 114.835 4.63369 122.728 6.02223C124.689 3.54965 132.265 -3.96553 147.953 2.67268C161.473 8.39737 160.06 19.1647 158.806 28.6531C158.111 33.9393 157.454 38.921 159.342 42.6116C160.718 45.3156 163.836 48.3241 167.442 51.7954C176.528 60.553 188.952 72.5505 185.054 91.5151C183.592 98.6283 174.847 111.332 159.999 117.337C154.531 119.542 145.907 121.186 136.455 121.186V121.21ZM104.178 14.7555C94.5186 24.2926 97.7098 32.6238 100.804 40.6749C102.46 44.9745 104.019 49.0305 103.191 52.8308C102.265 57.0938 99.4151 59.7857 96.3944 62.648C91.5467 67.2399 86.5406 71.9781 88.4529 84.2922C90.3895 96.7769 96.5892 106.07 106.882 111.917C124.543 121.941 149.585 118.945 159.074 115.108C172.935 109.505 181.339 97.4469 182.655 91.0523C186.296 73.4031 174.896 62.4044 165.736 53.5738C161.973 49.9441 158.72 46.8137 157.161 43.7443C154.932 39.3838 155.639 34.0245 156.382 28.3607C157.624 18.8967 158.806 9.94426 146.991 4.9382C130.572 -2.0167 124.531 7.60566 124.287 8.01979C124.019 8.47046 123.471 8.70189 122.959 8.58008C115.907 6.9114 107.101 11.8566 104.165 14.7555H104.178Z" fill="#303030"/>
<path d="M121.51 146.898C115.018 150.626 110.779 159.87 105.956 161.6C101.133 163.33 98.1119 164.316 97.6126 162.197C97.1132 160.077 98.9036 152.538 104.068 149.456C110.901 145.364 114.312 138.604 119.549 138.384C121.693 138.287 121.51 146.898 121.51 146.898Z" fill="#303030"/>
<path d="M159.537 61.9171C158.258 58.8112 145.992 54.8161 140.353 53.2327C134.092 51.4787 127.21 53.2327 127.21 53.2327C114.957 57.3374 109.671 60.6382 108.416 63.7076C102.509 75.2545 96.9913 108.409 97.3811 113.305C97.3811 113.391 97.4055 113.452 97.4176 113.537C97.1984 115.644 97.9657 117.897 103.081 116.277C111.693 113.549 119.062 106.582 119.062 106.582L117.308 101.832C117.308 101.832 113.447 102.014 109.062 103.354C110.402 99.1277 111.766 94.2921 112.85 90.1387C112.886 90.3457 112.923 90.5528 112.984 90.7599C114.494 96.1557 120.743 97.459 120.743 97.459C120.743 97.459 123.24 109.115 117.612 118.433C111.973 127.739 110.329 137.398 110.329 137.398C110.329 137.398 117.844 143.537 135.919 143.025C154.579 142.501 162.094 137.581 162.399 133.89C162.716 130.199 160.207 124.767 154.701 116.789C150.109 110.151 149.537 95.2787 149.537 95.2787C149.537 95.2787 154.75 92.6478 155.542 85.7903C155.615 85.1935 155.651 84.5723 155.675 83.9268C156.784 88.4334 158.879 95.5467 160.876 101.43C156.358 100.078 152.302 99.895 152.302 99.895L150.548 104.426C150.548 104.426 157.929 111.052 166.528 113.646C167.417 113.914 168.172 114.073 168.83 114.134C170.718 114.584 172.399 113.671 172.618 110.955C173.02 106.192 165.627 72.1363 159.561 61.9171H159.537Z" fill="#245A7C"/>
<path d="M133.763 144.28C116.991 144.28 109.841 138.604 109.525 138.348C109.184 138.068 109.025 137.629 109.098 137.203C109.171 136.801 110.852 127.215 116.54 117.812C118.55 114.487 119.476 110.808 119.841 107.52C119.232 108.092 111.997 114.743 103.422 117.459C100.645 118.336 98.6843 118.263 97.4176 117.24C96.7477 116.692 95.9925 115.62 96.163 113.586C96.163 113.525 96.1508 113.476 96.1386 113.427C95.7489 108.494 101.193 75.1449 107.308 63.1717C108.794 59.5542 114.823 56.1072 126.808 52.0877C127.186 51.9903 134.177 50.2485 140.669 52.0756C144.859 53.257 158.513 57.3496 160.548 61.2473C160.548 61.2594 160.572 61.2838 160.584 61.296C166.906 71.9415 174.214 106.156 173.812 111.052C173.641 113.147 172.74 114.207 172.009 114.743C171.083 115.413 169.878 115.62 168.611 115.34C167.868 115.254 167.064 115.084 166.163 114.816C160.45 113.098 155.334 109.712 152.375 107.483C153.118 110.711 154.177 113.902 155.688 116.095C161.498 124.499 163.934 130.017 163.605 134C163.239 138.372 155.773 143.683 135.944 144.243C135.201 144.267 134.482 144.28 133.775 144.28H133.763ZM111.656 136.862C113.703 138.165 121.242 142.209 135.87 141.819C153.848 141.308 160.937 136.631 161.169 133.805C161.449 130.48 159.074 125.291 153.678 117.495C148.94 110.638 148.319 95.9608 148.294 95.3396C148.27 94.8646 148.538 94.4261 148.964 94.2069C149.147 94.1094 153.605 91.7465 154.311 85.6685C154.372 85.1083 154.409 84.5114 154.433 83.9024C154.457 83.2934 154.92 82.794 155.529 82.7331C156.126 82.6722 156.686 83.062 156.833 83.6588C157.978 88.3238 160.109 95.4858 161.997 101.064C162.143 101.491 162.034 101.978 161.717 102.307C161.4 102.636 160.925 102.757 160.487 102.623C157.369 101.686 154.47 101.332 153.081 101.198L151.973 104.073C153.909 105.681 160.036 110.443 166.857 112.502C167.624 112.733 168.319 112.879 168.928 112.94C168.976 112.94 169.037 112.952 169.086 112.964C169.512 113.062 170.121 113.111 170.572 112.782C171.023 112.453 171.303 111.795 171.376 110.869C171.766 106.253 164.518 72.9037 158.574 62.6967C158.501 62.6114 158.453 62.514 158.404 62.4044C157.649 60.5895 149.744 57.1547 140.012 54.4263C134.141 52.782 127.564 54.4263 127.503 54.4263C116.638 58.0682 110.731 61.2716 109.525 64.1827C103.678 75.6321 98.2093 108.543 98.5747 113.22C98.5747 113.245 98.599 113.379 98.599 113.403C98.599 113.488 98.599 113.586 98.599 113.671C98.5503 114.146 98.5259 114.998 98.9522 115.34C99.208 115.547 100.085 115.949 102.679 115.132C109.549 112.952 115.712 107.897 117.6 106.241L116.455 103.123C115.103 103.257 112.363 103.61 109.391 104.524C108.964 104.657 108.489 104.536 108.173 104.219C107.856 103.902 107.746 103.427 107.88 103.001C109.135 99.0302 110.511 94.2312 111.656 89.8464C111.802 89.2861 112.277 88.9328 112.899 88.9328C113.471 88.9572 113.946 89.3835 114.044 89.956C114.068 90.1143 114.104 90.2849 114.141 90.4432C115.42 95.0473 120.925 96.2653 120.974 96.2775C121.449 96.375 121.815 96.7404 121.912 97.2154C122.022 97.7148 124.445 109.456 118.635 119.067C114.08 126.594 112.168 134.438 111.656 136.862ZM117.284 100.626C117.795 100.626 118.246 100.943 118.428 101.418L119.987 105.668C120.17 102.368 119.841 99.6758 119.646 98.4334C118.16 97.9706 115.03 96.7282 113.081 93.878C112.363 96.4968 111.595 99.152 110.852 101.6C114.348 100.76 117.089 100.626 117.223 100.614C117.247 100.614 117.259 100.614 117.284 100.614V100.626ZM152.277 98.677C152.277 98.677 152.314 98.677 152.326 98.677C152.472 98.677 155.347 98.8232 158.976 99.6758C157.904 96.3871 156.796 92.7574 155.87 89.4931C154.494 93.1228 151.985 95.1326 150.767 95.9365C150.816 96.6916 150.913 97.9827 151.084 99.5905L151.144 99.4444C151.327 98.9693 151.778 98.6648 152.277 98.6648V98.677Z" fill="#303030"/>
<path d="M127.576 39.7978C127.576 53.196 125.456 55.4981 125.456 55.4981C118.502 58.6771 123.215 64.3287 124.677 65.2788L125.798 66.0096C131.498 69.688 138.441 69.2983 143.824 65.0108C148.002 62.051 148.002 55.1692 141.851 54.8526C141.851 54.8526 139.269 51.5761 139.525 39.1888C139.939 18.7626 127.576 39.81 127.576 39.81V39.7978Z" fill="white"/>
<path d="M134.141 69.749C131.059 69.749 127.966 68.8477 125.14 67.0207L124.019 66.2899C122.704 65.4372 120.329 62.6236 120.548 59.6516C120.657 58.1657 121.461 56.0828 124.628 54.5359C124.969 53.866 126.358 50.5043 126.358 39.7857C126.358 39.5665 126.419 39.3594 126.528 39.1645C128.075 36.5214 133.459 27.9831 137.527 29.1402C139.841 29.798 140.864 32.9892 140.743 39.1889C140.548 48.5068 142.009 52.4775 142.594 53.6712C145.201 54 147.052 55.4616 147.722 57.7515C148.55 60.6139 147.21 64.073 144.531 65.9732C141.4 68.4701 137.783 69.7247 134.141 69.7247V69.749ZM128.794 40.1268C128.757 53.05 126.76 55.8758 126.358 56.3143C126.248 56.4361 126.114 56.5335 125.968 56.5944C124.08 57.4592 123.081 58.5432 122.984 59.8222C122.85 61.7345 124.64 63.7807 125.347 64.2436L126.467 64.9622C131.729 68.3605 138.087 68.0073 143.069 64.0365C144.957 62.6967 145.919 60.3094 145.383 58.4458C144.957 56.972 143.715 56.1437 141.79 56.0585C141.437 56.0463 141.108 55.8758 140.889 55.5956C140.597 55.2302 138.039 51.6127 138.294 39.1524C138.441 32.1366 137.016 31.5397 136.857 31.491C135.383 31.0769 131.461 35.6566 128.782 40.1268H128.794Z" fill="#303030"/>
<path d="M117.15 94.7183L120.341 105.595C120.487 106.156 120.962 106.533 121.498 106.533H146.346C146.906 106.533 147.405 106.107 147.515 105.51L149.902 94.4747C150.073 93.6587 149.476 92.1605 148.709 92.1727L118.331 92.4163C117.527 92.4163 116.906 93.8901 117.137 94.7305L117.15 94.7183Z" fill="white"/>
<path d="M117.198 95.0716L120.341 105.681C120.487 106.192 120.962 106.545 121.498 106.545H146.346C146.906 106.545 147.405 106.156 147.515 105.595L149.89 94.755C150.06 93.9998 149.476 93.2933 148.708 93.2933L118.331 93.5248C117.527 93.5248 116.955 94.3043 117.186 95.0716H117.198Z" fill="white"/>
<path d="M146.345 107.763H121.498C120.438 107.763 119.476 107.045 119.171 106.034L116.029 95.4249C115.81 94.6941 115.944 93.9146 116.407 93.2934C116.857 92.6722 117.564 92.319 118.331 92.319L148.708 92.0875H148.733C149.464 92.0875 150.158 92.4164 150.609 92.9889C151.071 93.5613 151.254 94.3043 151.096 95.0351L148.721 105.876C148.477 106.972 147.478 107.776 146.358 107.776L146.345 107.763ZM118.368 94.7428L121.498 105.34H146.333L148.696 94.4992L118.355 94.7428H118.368Z" fill="#303030"/>
<path d="M115.676 100.09C116.772 98.6648 118.161 98.3237 118.161 98.3237L118.806 99.968C118.806 99.968 125.554 98.7866 126.821 100.309C128.087 101.832 124.348 107.983 119.208 107.861C114.068 107.739 115.664 100.09 115.664 100.09H115.676Z" fill="white"/>
<path d="M119.366 109.079C119.306 109.079 119.245 109.079 119.184 109.079C117.661 109.042 116.407 108.445 115.554 107.374C113.52 104.804 114.373 100.346 114.482 99.8462C114.519 99.6635 114.592 99.493 114.714 99.3468C116.029 97.6294 117.686 97.1788 117.868 97.1422C118.465 96.9961 119.074 97.3127 119.293 97.873L119.586 98.616C122.131 98.2384 126.407 97.9096 127.759 99.5295C128.502 100.419 128.465 101.819 127.673 103.464C126.358 106.192 123.203 109.079 119.366 109.079ZM116.821 100.614C116.614 101.856 116.431 104.536 117.479 105.851C117.88 106.363 118.453 106.618 119.257 106.631C122.168 106.679 124.202 104.329 124.75 103.598C125.7 102.343 125.944 101.271 125.859 101.016C125.347 100.601 122.07 100.638 119.038 101.162C118.465 101.259 117.905 100.942 117.698 100.407L117.527 99.9802C117.308 100.139 117.064 100.346 116.833 100.614H116.821Z" fill="#303030"/>
<path d="M152.289 98.8354C151.802 98.0315 149.403 97.0205 149.403 97.0205L148.928 98.6527C148.928 98.6527 142.594 99.6758 141.449 101.198C140.292 102.721 143.922 106.667 148.587 106.533C153.252 106.411 152.302 98.8354 152.302 98.8354H152.289Z" fill="white"/>
<path d="M148.355 107.764C144.64 107.764 141.51 105.571 140.426 103.452C139.854 102.343 139.878 101.259 140.475 100.468C141.644 98.9207 145.871 97.9706 147.978 97.593L148.246 96.6917C148.343 96.3628 148.575 96.0827 148.891 95.9365C149.208 95.7904 149.561 95.7782 149.89 95.9122C150.718 96.2654 152.716 97.1789 153.349 98.2142C153.434 98.3604 153.495 98.5187 153.52 98.6893C153.581 99.2008 154.08 103.744 151.961 106.217C151.12 107.191 149.975 107.727 148.635 107.764C148.55 107.764 148.465 107.764 148.38 107.764H148.355ZM150.17 98.7502L150.097 99.0059C149.963 99.4566 149.585 99.7855 149.123 99.8707C146.005 100.37 142.874 101.345 142.411 101.954C142.436 101.966 142.509 102.404 143.094 103.062C144.056 104.158 146.029 105.413 148.55 105.34C149.208 105.327 149.707 105.096 150.097 104.645C151.193 103.379 151.218 100.638 151.12 99.3713C150.925 99.213 150.572 98.9938 150.17 98.7745V98.7502Z" fill="#303030"/>
<path d="M146.699 36.083C146.48 36.0586 146.26 36.0465 146.041 36.0465C146.796 30.2 144.701 25.4497 137.783 24.1099C134.969 31.4058 126.37 33.2937 121.242 37.8126C121.34 38.2754 121.461 38.7505 121.595 39.2255C124.506 49.5543 129.464 54.7187 133.495 54.7187C136.857 54.7187 141.425 50.0415 144.263 42.6847C145.018 42.3436 145.968 41.5154 146.942 40.1025C148.112 38.4094 149.11 36.3388 146.711 36.083H146.699Z" fill="white"/>
<path d="M133.483 55.9368C128.343 55.9368 123.203 49.5056 120.414 39.5544C120.268 39.055 120.158 38.5678 120.048 38.0806C119.951 37.6421 120.097 37.1914 120.438 36.8991C122.302 35.2548 124.604 33.9393 126.833 32.6726C131.011 30.2852 134.969 28.0441 136.65 23.6714C136.857 23.1233 137.442 22.8066 138.014 22.9162C144.506 24.1708 147.795 28.4217 147.381 34.9503C148.465 35.206 148.952 35.8029 149.183 36.3023C149.841 37.7273 148.867 39.4448 147.953 40.7846C147.076 42.0635 146.15 43.0136 145.237 43.5495C142.314 50.8698 137.527 55.9368 133.507 55.9368H133.483ZM122.594 38.2633C122.643 38.4703 122.704 38.6774 122.765 38.8967C125.59 48.9331 130.304 53.5007 133.495 53.5007C136.065 53.5007 140.304 49.5543 143.118 42.2462C143.239 41.9417 143.471 41.6981 143.763 41.5641C143.995 41.4667 144.835 41.0038 145.931 39.396C146.796 38.1293 146.93 37.5568 146.942 37.362C146.881 37.3376 146.76 37.3011 146.565 37.2889C146.382 37.2645 146.211 37.2645 146.029 37.2645C145.675 37.2645 145.347 37.1183 145.115 36.8504C144.884 36.5824 144.774 36.2414 144.823 35.8881C145.554 30.2852 143.422 26.8139 138.489 25.5228C136.333 30.066 132.107 32.4655 128.026 34.7919C126.053 35.9125 124.165 36.9844 122.594 38.2633Z" fill="#303030"/>
<path d="M135.895 146.326C154.555 145.802 170.803 145.218 170.803 145.218C208.245 133.342 160.803 126.204 156.76 119.907C148.197 124.024 131.449 129.542 117.588 118.421C111.949 127.727 110.304 137.386 110.304 137.386C110.304 137.386 117.82 146.825 135.895 146.314V146.326Z" fill="white"/>
<path d="M134.47 147.568C117.04 147.568 109.659 138.555 109.342 138.165C109.123 137.897 109.038 137.544 109.099 137.203C109.172 136.801 110.853 127.215 116.541 117.812C116.723 117.507 117.028 117.3 117.369 117.239C117.722 117.179 118.075 117.264 118.343 117.483C131.608 128.116 147.771 122.891 156.224 118.811C156.772 118.543 157.442 118.738 157.771 119.249C158.757 120.796 164.178 122.879 168.964 124.73C177.564 128.043 186.467 131.478 186.309 136.411C186.199 139.968 181.388 143.147 171.157 146.387C171.047 146.423 170.937 146.435 170.828 146.448C170.67 146.448 154.36 147.032 135.907 147.556C135.42 147.568 134.933 147.58 134.446 147.58L134.47 147.568ZM111.608 137.032C113.264 138.762 120.792 145.546 135.859 145.108C153.301 144.621 168.818 144.072 170.596 144.012C182.07 140.357 183.849 137.629 183.885 136.338C183.983 133.135 174.799 129.59 168.1 127.008C162.241 124.742 158.282 123.159 156.443 121.417C147.515 125.546 131.571 130.26 117.941 120.248C113.764 127.593 112.046 134.974 111.608 137.044V137.032Z" fill="#303030"/>
<path d="M139.622 214.365C140.584 221.259 135.505 229.346 137.088 233.914C138.672 238.482 139.744 241.295 141.839 240.564C143.934 239.821 149.123 234.499 148.465 228.944C147.588 221.6 151.437 215.193 148.002 211.356C144.007 206.898 139.622 214.353 139.622 214.353V214.365Z" fill="#303030"/>
<path d="M125.944 138.153C135.115 154.84 144.884 206.24 147.015 211.539C149.147 216.837 142.899 222.002 139.744 216.155C137.661 212.294 106.163 159.956 103.983 144.28C101.803 128.616 102.412 117.313 113.666 119.761C118.465 120.808 125.944 138.141 125.944 138.141V138.153Z" fill="white"/>
<path d="M143.264 219.943C141.693 219.943 139.939 219.103 138.66 216.728C138.38 216.216 137.588 214.852 136.419 212.842C128.575 199.346 104.689 158.263 102.765 144.45C100.877 130.833 101.62 123.586 105.262 120.212C107.296 118.324 110.207 117.776 113.91 118.58C119.025 119.688 125.676 134.499 127.028 137.617C133.605 149.615 140.475 179.188 144.579 196.874C146.236 203.999 147.539 209.627 148.124 211.076C149.598 214.742 147.758 218.311 145.201 219.505C144.628 219.773 143.958 219.943 143.252 219.943H143.264ZM110.816 120.65C109.184 120.65 107.905 121.101 106.93 122.002C103.142 125.51 104.007 135.656 105.189 144.121C107.04 157.459 130.743 198.226 138.538 211.624C139.732 213.67 140.536 215.059 140.816 215.583C141.729 217.288 142.935 217.897 144.19 217.312C145.749 216.581 146.796 214.267 145.883 211.989C145.225 210.357 143.97 204.937 142.229 197.422C138.136 179.834 131.303 150.406 124.884 138.738C124.86 138.701 124.847 138.665 124.835 138.628C121.827 131.661 116.297 121.576 113.41 120.955C112.46 120.748 111.608 120.65 110.828 120.65H110.816Z" fill="#303030"/>
<path d="M186.881 117.276C167.929 119.079 130.999 135.754 125.42 136.972L130.353 148.494C134.714 147.995 179.987 145.9 194.165 138.884C208.343 131.868 217.344 125.011 208.976 117.081C205.42 113.707 186.869 117.276 186.869 117.276H186.881Z" fill="white"/>
<path d="M130.353 149.712C129.866 149.712 129.427 149.42 129.232 148.969L124.299 137.447C124.153 137.118 124.165 136.728 124.336 136.411C124.507 136.082 124.799 135.851 125.164 135.778C126.699 135.437 131.096 133.732 136.662 131.563C150.304 126.253 173.118 117.374 186.711 116.058C190.036 115.425 206.029 112.587 209.829 116.18C212.569 118.786 213.763 121.503 213.349 124.243C212.606 129.152 207.04 133.853 194.725 139.956C182.509 145.997 148.075 148.421 135.103 149.334C132.813 149.493 131.157 149.615 130.511 149.688C130.463 149.688 130.414 149.688 130.365 149.688L130.353 149.712ZM127.077 137.775L131.12 147.203C131.973 147.13 133.252 147.045 134.908 146.923C147.746 146.021 181.839 143.622 193.617 137.788C201.266 134 210.146 128.993 210.913 123.902C211.205 121.953 210.292 120.017 208.136 117.97C205.992 115.936 194.543 117.045 187.101 118.482C187.064 118.482 187.028 118.494 186.991 118.494C173.739 119.761 151.084 128.579 137.539 133.841C132.887 135.656 129.257 137.069 127.077 137.763V137.775Z" fill="#303030"/>
<path d="M135.25 100.906C135.25 101.235 134.458 101.491 133.483 101.491C132.509 101.491 131.717 101.223 131.717 100.906C131.717 100.589 132.509 100.321 133.483 100.321C134.458 100.321 135.25 100.589 135.25 100.906Z" fill="white"/>
</svg>
