<svg width="383" height="464" viewBox="0 0 383 464" fill="none" xmlns="http://www.w3.org/2000/svg">
<path d="M12.1667 1.92725H147.823C154.031 1.92725 159.063 6.95947 159.063 13.167V268.835C159.063 275.043 154.031 280.075 147.823 280.075H12.1667C5.95914 280.075 0.92691 275.043 0.92691 268.835V13.167C0.92691 6.95947 5.95914 1.92725 12.1667 1.92725Z" fill="white"/>
<path d="M12.1671 281.002H147.833C154.538 281.002 160 275.549 160 268.835V13.1672C160 6.46224 154.547 1 147.833 1H12.1671C5.46217 1 -6.10352e-05 6.45296 -6.10352e-05 13.1672V268.845C-6.10352e-05 275.549 5.4529 281.012 12.1671 281.012V281.002ZM147.833 2.85475C153.518 2.85475 158.145 7.48235 158.145 13.1672V268.845C158.145 274.529 153.518 279.157 147.833 279.157H12.1671C6.48228 279.157 1.85469 274.529 1.85469 268.845V13.1672C1.85469 7.48235 6.48228 2.85475 12.1671 2.85475H147.833Z" fill="#303030"/>
<path d="M18.6954 18.7959H141.304C147.397 18.7959 152.339 23.7388 152.339 29.8317V264.485C152.339 268.826 148.815 272.35 144.475 272.35H15.5331C11.1929 272.35 7.66893 268.826 7.66893 264.485V29.8409C7.66893 23.7481 12.6118 18.8052 18.7047 18.8052L18.6954 18.7959Z" fill="#EBEBEB"/>
<path d="M15.5239 273.277H144.466C149.316 273.277 153.258 269.336 153.258 264.486V29.832C153.258 23.2384 147.888 17.8689 141.295 17.8689H18.6863C12.0927 17.8689 6.72313 23.2384 6.72313 29.832V264.477C6.72313 269.327 10.6645 273.268 15.5146 273.268L15.5239 273.277ZM141.304 19.7236C146.877 19.7236 151.412 24.2585 151.412 29.832V264.486C151.412 268.307 148.296 271.423 144.475 271.423H15.5332C11.7031 271.423 8.59644 268.307 8.59644 264.486V29.8413C8.59644 24.2678 13.1313 19.7329 18.7048 19.7329H141.304V19.7236Z" fill="#303030"/>
<path d="M71.4077 12.2673H88.5827C89.4729 12.2673 90.1963 11.544 90.1963 10.6537C90.1963 9.76339 89.4729 9.04004 88.5827 9.04004H71.4077C70.5174 9.04004 69.794 9.76339 69.794 10.6537C69.794 11.544 70.5174 12.2673 71.4077 12.2673Z" fill="white"/>
<path d="M71.4075 13.195H88.5825C89.9829 13.195 91.1235 12.0544 91.1235 10.654C91.1235 9.25371 89.9829 8.11304 88.5825 8.11304H71.4075C70.0072 8.11304 68.8665 9.25371 68.8665 10.654C68.8665 12.0544 70.0072 13.195 71.4075 13.195ZM88.5825 9.96779C88.9628 9.96779 89.2688 10.2738 89.2688 10.654C89.2688 11.0343 88.9628 11.3403 88.5825 11.3403H71.4075C71.0273 11.3403 70.7213 11.0343 70.7213 10.654C70.7213 10.2738 71.0273 9.96779 71.4075 9.96779H88.5825Z" fill="#303030"/>
<path d="M33.6823 257.196C25.4363 257.196 18.7516 250.512 18.7516 242.266C18.7516 234.02 25.4363 227.335 33.6823 227.335C41.9283 227.335 48.613 234.02 48.613 242.266C48.613 250.512 41.9283 257.196 33.6823 257.196Z" fill="#245A7C"/>
<path d="M33.6821 258.124C42.4272 258.124 49.5402 251.011 49.5402 242.266C49.5402 233.521 42.4272 226.408 33.6821 226.408C24.9369 226.408 17.8239 233.521 17.8239 242.266C17.8239 251.011 24.9369 258.124 33.6821 258.124ZM33.6821 228.253C41.4071 228.253 47.6854 234.541 47.6854 242.257C47.6854 249.973 41.3978 256.26 33.6821 256.26C25.9663 256.26 19.6787 249.973 19.6787 242.257C19.6787 234.541 25.9663 228.253 33.6821 228.253Z" fill="#303030"/>
<path d="M33.6078 246.328H36.2044L37.1596 251.873H39.645L38.6712 246.328H41.7408V244.046H38.2817L37.5955 240.123H40.73V237.814H37.1874L36.2044 232.194H33.7283L34.7114 237.814H32.1147L31.1131 232.194H28.637L29.6201 237.814H26.6432V240.123H30.0188L30.7051 244.046H27.6633V246.328H31.0946L32.0683 251.873H34.5537L33.58 246.328H33.6078ZM35.8056 244.037H33.2275L32.5413 240.114H35.1379L35.8149 244.037H35.8056Z" fill="white"/>
<path d="M28.6464 232.185L29.6294 237.805H26.6526V240.114H30.0282L30.7145 244.037H27.6727V246.319H31.104L32.0777 251.864H34.5631L33.5893 246.319H36.186L37.1412 251.864H39.6265L38.6528 246.319H41.7224V244.037H38.2633L37.577 240.114H40.7116V237.805H37.169L36.186 232.185H33.7099L34.6929 237.805H32.0962L31.0947 232.185H28.6186M32.5321 240.114H35.1288L35.8057 244.037H33.2276L32.5414 240.114M28.6464 230.331H31.1225C31.6233 230.331 32.087 230.535 32.4208 230.868C32.7547 230.535 33.2184 230.331 33.7192 230.331H36.1952C37.0948 230.331 37.8645 230.98 38.0222 231.861L38.7363 235.95H40.7208C41.741 235.95 42.5756 236.785 42.5756 237.805V240.114C42.5756 241.134 41.741 241.969 40.7208 241.969H39.7935L39.8306 242.182H41.7317C42.7518 242.182 43.5864 243.017 43.5864 244.037V246.319C43.5864 247.339 42.7518 248.173 41.7317 248.173H40.8692L41.4627 251.54C41.5555 252.078 41.4071 252.634 41.0547 253.051C40.7023 253.469 40.183 253.71 39.6358 253.71H37.1504C36.6497 253.71 36.1952 253.515 35.8614 253.19C35.5183 253.524 35.0546 253.71 34.5723 253.71H32.087C31.1874 253.71 30.4177 253.061 30.26 252.18L29.5552 248.173H27.6819C26.6618 248.173 25.8272 247.339 25.8272 246.319V244.037C25.8272 243.017 26.6618 242.182 27.6819 242.182H28.5166L28.4795 241.969H26.6618C25.6417 241.969 24.8071 241.134 24.8071 240.114V237.805C24.8071 236.785 25.6417 235.95 26.6618 235.95H27.4223L26.838 232.603C26.8102 232.473 26.7917 232.334 26.7917 232.185C26.7917 231.165 27.617 230.331 28.6464 230.331Z" fill="#303030"/>
<path d="M142.778 177.934L134.784 168.095C134.534 167.9 134.219 167.789 133.894 167.789H61.3919C60.5944 167.789 59.9545 167.149 59.9545 166.351V129.414C59.9545 128.616 60.5944 127.976 61.3919 127.976H143.669C144.466 127.976 145.106 128.616 145.106 129.414V176.803C145.106 177.999 143.724 178.676 142.778 177.934Z" fill="#245A7C"/>
<path d="M143.669 179.167C144.021 179.167 144.373 179.084 144.707 178.926C145.523 178.527 146.033 177.711 146.033 176.802V129.413C146.033 128.106 144.976 127.049 143.669 127.049H61.3919C60.0843 127.049 59.0271 128.106 59.0271 129.413V166.351C59.0271 167.658 60.0843 168.716 61.3919 168.716H133.894C133.978 168.716 134.07 168.734 134.144 168.78L142.055 178.518C142.101 178.574 142.148 178.62 142.203 178.666C142.63 179 143.14 179.176 143.659 179.176L143.669 179.167ZM143.669 128.903C143.947 128.903 144.179 129.135 144.179 129.413V176.802C144.179 177.09 143.975 177.22 143.891 177.257C143.817 177.294 143.622 177.359 143.418 177.247L135.498 167.51C135.452 167.454 135.406 167.408 135.35 167.362C134.933 167.037 134.413 166.861 133.894 166.861H61.3919C61.1137 166.861 60.8818 166.629 60.8818 166.351V129.413C60.8818 129.135 61.1137 128.903 61.3919 128.903H143.669Z" fill="#303030"/>
<path d="M109.541 139.243H69.2468C67.8465 139.243 66.7151 138.112 66.7151 136.712C66.7151 135.311 67.8465 134.18 69.2468 134.18H109.541C110.942 134.18 112.073 135.311 112.073 136.712C112.073 138.112 110.942 139.243 109.541 139.243Z" fill="white"/>
<path d="M69.2467 140.171H109.541C111.452 140.171 113 138.622 113 136.712C113 134.802 111.452 133.253 109.541 133.253H69.2467C67.3363 133.253 65.7876 134.802 65.7876 136.712C65.7876 138.622 67.3363 140.171 69.2467 140.171ZM109.541 135.108C110.422 135.108 111.145 135.831 111.145 136.712C111.145 137.593 110.422 138.316 109.541 138.316H69.2467C68.3657 138.316 67.6423 137.593 67.6423 136.712C67.6423 135.831 68.3657 135.108 69.2467 135.108H109.541Z" fill="#303030"/>
<path d="M109.541 149.955H69.2468C67.8465 149.955 66.7151 148.823 66.7151 147.423C66.7151 146.023 67.8465 144.891 69.2468 144.891H109.541C110.942 144.891 112.073 146.023 112.073 147.423C112.073 148.823 110.942 149.955 109.541 149.955Z" fill="white"/>
<path d="M69.2467 150.883H109.541C111.452 150.883 113 149.334 113 147.424C113 145.513 111.452 143.965 109.541 143.965H69.2467C67.3363 143.965 65.7876 145.513 65.7876 147.424C65.7876 149.334 67.3363 150.883 69.2467 150.883ZM109.541 145.819C110.422 145.819 111.145 146.543 111.145 147.424C111.145 148.305 110.422 149.028 109.541 149.028H69.2467C68.3657 149.028 67.6423 148.305 67.6423 147.424C67.6423 146.543 68.3657 145.819 69.2467 145.819H109.541Z" fill="#303030"/>
<path d="M69.2468 160.666H135.332C136.732 160.666 137.863 159.534 137.863 158.134C137.863 156.734 136.732 155.602 135.332 155.602H69.2375C67.8372 155.602 66.7058 156.734 66.7058 158.134C66.7058 159.534 67.8372 160.666 69.2375 160.666H69.2468Z" fill="white"/>
<path d="M69.2469 161.593H135.332C137.242 161.593 138.791 160.045 138.791 158.134C138.791 156.224 137.242 154.675 135.332 154.675H69.2376C67.3272 154.675 65.7785 156.224 65.7785 158.134C65.7785 160.045 67.3272 161.593 69.2376 161.593H69.2469ZM135.332 156.53C136.213 156.53 136.936 157.253 136.936 158.134C136.936 159.015 136.213 159.739 135.332 159.739H69.2376C68.3566 159.739 67.6333 159.015 67.6333 158.134C67.6333 157.253 68.3566 156.53 69.2376 156.53H135.332Z" fill="#303030"/>
<path d="M117.86 142.814C117.86 148.342 122.339 152.821 127.866 152.821C133.393 152.821 137.872 148.342 137.872 142.814C137.872 137.287 133.393 132.808 127.866 132.808C122.339 132.808 117.86 137.287 117.86 142.814Z" fill="white"/>
<path d="M127.866 153.739C133.894 153.739 138.8 148.833 138.8 142.805C138.8 136.777 133.894 131.871 127.866 131.871C121.838 131.871 116.932 136.777 116.932 142.805C116.932 148.833 121.838 153.739 127.866 153.739ZM127.866 133.735C132.874 133.735 136.945 137.807 136.945 142.814C136.945 147.822 132.874 151.893 127.866 151.893C122.858 151.893 118.787 147.822 118.787 142.814C118.787 137.807 122.858 133.735 127.866 133.735Z" fill="#303030"/>
<path d="M135.072 149.844C133.254 151.736 130.695 152.923 127.866 152.923C125.038 152.923 122.478 151.736 120.661 149.844C121.347 147.219 123.406 145.161 126.03 144.493C124.899 143.853 124.129 142.647 124.129 141.256C124.129 139.188 125.798 137.519 127.866 137.519C129.934 137.519 131.604 139.188 131.604 141.256C131.604 142.647 130.834 143.853 129.703 144.493C132.336 145.161 134.395 147.219 135.072 149.844Z" fill="white"/>
<path d="M127.866 153.85C130.862 153.85 133.662 152.654 135.74 150.484C135.962 150.252 136.046 149.918 135.971 149.603C135.341 147.191 133.69 145.216 131.492 144.159C132.151 143.343 132.522 142.323 132.522 141.256C132.522 138.687 130.426 136.592 127.857 136.592C125.288 136.592 123.192 138.687 123.192 141.256C123.192 142.323 123.572 143.352 124.222 144.159C122.033 145.216 120.373 147.191 119.742 149.603C119.659 149.918 119.742 150.243 119.974 150.484C122.061 152.654 124.852 153.85 127.848 153.85H127.866ZM134.024 149.575C132.336 151.142 130.175 151.995 127.866 151.995C125.557 151.995 123.396 151.142 121.708 149.575C122.432 147.516 124.129 145.94 126.262 145.392C126.633 145.3 126.902 144.994 126.957 144.613C127.004 144.242 126.827 143.871 126.494 143.686C125.613 143.185 125.065 142.249 125.065 141.256C125.065 139.708 126.327 138.446 127.875 138.446C129.424 138.446 130.685 139.708 130.685 141.256C130.685 142.249 130.138 143.185 129.257 143.686C128.933 143.871 128.747 144.242 128.793 144.613C128.84 144.984 129.118 145.29 129.489 145.392C131.622 145.93 133.319 147.516 134.042 149.575H134.024Z" fill="#303030"/>
<path d="M143.669 228.012C144.188 228.012 144.615 228.439 144.615 228.958V266.127C144.615 266.498 144.42 266.814 144.077 266.981C143.761 267.138 143.4 267.11 143.112 266.906L135.072 257.039C134.738 256.77 134.311 256.631 133.885 256.631H61.3826C60.8632 256.631 60.4366 256.204 60.4366 255.685V228.967C60.4366 228.448 60.8632 228.021 61.3826 228.021H143.669V228.012Z" fill="#245A7C"/>
<path d="M143.659 268.01C143.938 268.01 144.216 267.945 144.485 267.815C145.134 267.5 145.542 266.851 145.542 266.127V228.958C145.542 227.929 144.698 227.085 143.669 227.085H61.392C60.3533 227.085 59.5187 227.929 59.5187 228.958V255.676C59.5187 256.715 60.3626 257.549 61.392 257.549H133.894C134.089 257.549 134.274 257.605 134.441 257.716L142.398 267.491C142.454 267.556 142.509 267.611 142.574 267.658C142.899 267.889 143.27 268.01 143.65 268.01H143.659ZM143.669 228.94C143.669 228.94 143.687 228.949 143.687 228.958V266.127L135.805 256.446C135.758 256.39 135.712 256.344 135.656 256.297C135.155 255.908 134.534 255.685 133.894 255.685H61.392L61.3734 228.949L143.669 228.93V228.94Z" fill="#303030"/>
<path d="M109.541 238.789H69.2468C67.8465 238.789 66.7151 237.658 66.7151 236.257C66.7151 234.857 67.8465 233.726 69.2468 233.726H109.541C110.942 233.726 112.073 234.857 112.073 236.257C112.073 237.658 110.942 238.789 109.541 238.789Z" fill="white"/>
<path d="M69.2467 239.716H109.541C111.452 239.716 113 238.167 113 236.257C113 234.347 111.452 232.798 109.541 232.798H69.2467C67.3363 232.798 65.7876 234.347 65.7876 236.257C65.7876 238.167 67.3363 239.716 69.2467 239.716ZM109.541 234.653C110.422 234.653 111.145 235.376 111.145 236.257C111.145 237.138 110.422 237.861 109.541 237.861H69.2467C68.3657 237.861 67.6423 237.138 67.6423 236.257C67.6423 235.376 68.3657 234.653 69.2467 234.653H109.541Z" fill="#303030"/>
<path d="M109.541 249.499H69.2468C67.8465 249.499 66.7151 248.368 66.7151 246.968C66.7151 245.567 67.8465 244.436 69.2468 244.436H109.541C110.942 244.436 112.073 245.567 112.073 246.968C112.073 248.368 110.942 249.499 109.541 249.499Z" fill="white"/>
<path d="M69.2467 250.427H109.541C111.452 250.427 113 248.878 113 246.968C113 245.058 111.452 243.509 109.541 243.509H69.2467C67.3363 243.509 65.7876 245.058 65.7876 246.968C65.7876 248.878 67.3363 250.427 69.2467 250.427ZM109.541 245.364C110.422 245.364 111.145 246.087 111.145 246.968C111.145 247.849 110.422 248.572 109.541 248.572H69.2467C68.3657 248.572 67.6423 247.849 67.6423 246.968C67.6423 246.087 68.3657 245.364 69.2467 245.364H109.541Z" fill="#303030"/>
<path d="M117.86 242.359C117.86 247.886 122.339 252.365 127.866 252.365C133.393 252.365 137.872 247.886 137.872 242.359C137.872 236.832 133.393 232.352 127.866 232.352C122.339 232.352 117.86 236.832 117.86 242.359Z" fill="white"/>
<path d="M127.866 253.283C133.894 253.283 138.8 248.377 138.8 242.35C138.8 236.322 133.894 231.416 127.866 231.416C121.838 231.416 116.932 236.322 116.932 242.35C116.932 248.377 121.838 253.283 127.866 253.283ZM127.866 233.28C132.874 233.28 136.945 237.351 136.945 242.359C136.945 247.367 132.874 251.438 127.866 251.438C122.858 251.438 118.787 247.367 118.787 242.359C118.787 237.351 122.858 233.28 127.866 233.28Z" fill="#303030"/>
<path d="M135.072 249.37C133.254 251.262 130.695 252.449 127.866 252.449C125.038 252.449 122.478 251.262 120.661 249.37C121.347 246.745 123.406 244.687 126.03 244.019C124.899 243.379 124.129 242.173 124.129 240.782C124.129 238.714 125.798 237.045 127.866 237.045C129.934 237.045 131.604 238.714 131.604 240.782C131.604 242.173 130.834 243.379 129.703 244.019C132.336 244.687 134.395 246.745 135.072 249.37Z" fill="white"/>
<path d="M127.866 253.376C130.862 253.376 133.662 252.18 135.74 250.01C135.962 249.778 136.046 249.444 135.971 249.129C135.341 246.718 133.69 244.742 131.492 243.685C132.151 242.869 132.522 241.849 132.522 240.782C132.522 238.214 130.426 236.118 127.857 236.118C125.288 236.118 123.192 238.214 123.192 240.782C123.192 241.849 123.572 242.878 124.222 243.685C122.033 244.742 120.373 246.718 119.742 249.129C119.659 249.444 119.742 249.769 119.974 250.01C122.061 252.18 124.852 253.376 127.848 253.376H127.866ZM134.024 249.101C132.336 250.668 130.175 251.521 127.866 251.521C125.557 251.521 123.396 250.668 121.708 249.101C122.432 247.042 124.129 245.456 126.262 244.918C126.633 244.826 126.902 244.52 126.957 244.139C127.004 243.769 126.827 243.398 126.494 243.212C125.594 242.702 125.065 241.793 125.065 240.782C125.065 239.234 126.327 237.972 127.875 237.972C129.424 237.972 130.685 239.234 130.685 240.782C130.685 241.775 130.138 242.711 129.257 243.212C128.933 243.398 128.747 243.769 128.793 244.139C128.84 244.51 129.118 244.816 129.489 244.918C131.622 245.456 133.319 247.042 134.042 249.101H134.024Z" fill="#303030"/>
<path d="M132.679 89.833C139.041 89.833 144.216 95.0078 144.216 101.37C144.216 107.731 139.041 112.906 132.679 112.906C126.318 112.906 121.143 107.731 121.143 101.37C121.143 95.0078 126.318 89.833 132.679 89.833Z" fill="white"/>
<path d="M132.679 113.833C139.551 113.833 145.143 108.241 145.143 101.369C145.143 94.4976 139.551 88.9055 132.679 88.9055C125.808 88.9055 120.215 94.4976 120.215 101.369C120.215 108.241 125.808 113.833 132.679 113.833ZM132.679 90.7603C138.531 90.7603 143.289 95.5177 143.289 101.369C143.289 107.221 138.531 111.979 132.679 111.979C126.828 111.979 122.07 107.221 122.07 101.369C122.07 95.5177 126.828 90.7603 132.679 90.7603Z" fill="#303030"/>
<path d="M131.65 93.9411L130.519 97.4373C130.37 97.8825 129.953 98.1885 129.489 98.1885H125.817C124.769 98.1885 124.333 99.5332 125.177 100.155L128.154 102.315C128.534 102.594 128.692 103.085 128.543 103.53L127.403 107.026C127.078 108.028 128.219 108.853 129.072 108.241L132.049 106.08C132.429 105.802 132.948 105.802 133.329 106.08L136.306 108.241C137.159 108.863 138.299 108.028 137.975 107.026L136.843 103.53C136.695 103.085 136.853 102.594 137.242 102.315L140.219 100.155C141.072 99.5332 140.636 98.1885 139.579 98.1885H135.907C135.434 98.1885 135.016 97.8825 134.877 97.4373L133.737 93.9411C133.412 92.9396 131.993 92.9396 131.669 93.9411H131.65Z" fill="white"/>
<path d="M136.936 109.373C137.344 109.373 137.761 109.243 138.123 108.983C138.837 108.464 139.124 107.573 138.855 106.73L137.715 103.233C137.696 103.168 137.715 103.094 137.77 103.057L140.747 100.896C141.461 100.377 141.749 99.4867 141.48 98.6428C141.202 97.7989 140.451 97.2517 139.57 97.2517H135.897C135.832 97.2517 135.767 97.2053 135.749 97.1404L134.608 93.6442C134.33 92.8003 133.579 92.2532 132.698 92.2532C131.807 92.2532 131.056 92.8003 130.787 93.6442L129.647 97.1404C129.628 97.2053 129.563 97.2517 129.498 97.2517H125.826C124.936 97.2517 124.184 97.7989 123.915 98.6428C123.637 99.4867 123.925 100.368 124.648 100.896L127.625 103.057C127.681 103.094 127.699 103.168 127.681 103.233L126.54 106.73C126.262 107.573 126.549 108.454 127.273 108.983C127.996 109.502 128.923 109.502 129.637 108.983L132.614 106.822C132.67 106.785 132.744 106.785 132.8 106.822L135.777 108.983C136.138 109.243 136.546 109.373 136.964 109.373H136.936ZM139.56 99.1157C139.56 99.1157 139.672 99.1157 139.709 99.227C139.746 99.3383 139.681 99.3847 139.653 99.4032L136.676 101.564C135.971 102.074 135.675 102.983 135.944 103.818L137.084 107.314C137.084 107.314 137.121 107.425 137.029 107.49C136.936 107.555 136.871 107.508 136.843 107.49L133.866 105.329C133.161 104.819 132.206 104.819 131.501 105.329L128.525 107.49C128.525 107.49 128.432 107.555 128.339 107.49C128.246 107.425 128.274 107.342 128.283 107.314L129.424 103.818C129.693 102.983 129.396 102.083 128.691 101.564L125.715 99.4032C125.715 99.4032 125.622 99.3383 125.659 99.227C125.696 99.1157 125.77 99.1157 125.807 99.1157H129.48C130.351 99.1157 131.121 98.5593 131.39 97.7247L132.531 94.2285C132.531 94.2285 132.568 94.1172 132.679 94.1172C132.79 94.1172 132.818 94.1914 132.828 94.2285L133.968 97.7247C134.237 98.5593 135.007 99.1157 135.879 99.1157H139.551H139.56Z" fill="#303030"/>
<path d="M106.397 89.833C112.759 89.833 117.934 95.0078 117.934 101.37C117.934 107.731 112.759 112.906 106.397 112.906C100.036 112.906 94.8609 107.731 94.8609 101.37C94.8609 95.0078 100.036 89.833 106.397 89.833Z" fill="white"/>
<path d="M106.398 113.833C113.269 113.833 118.861 108.241 118.861 101.369C118.861 94.4976 113.269 88.9055 106.398 88.9055C99.5257 88.9055 93.9336 94.4976 93.9336 101.369C93.9336 108.241 99.5257 113.833 106.398 113.833ZM106.398 90.7603C112.249 90.7603 117.007 95.5177 117.007 101.369C117.007 107.221 112.249 111.979 106.398 111.979C100.546 111.979 95.7883 107.221 95.7883 101.369C95.7883 95.5177 100.546 90.7603 106.398 90.7603Z" fill="#303030"/>
<path d="M105.368 93.9411L104.227 97.4373C104.079 97.8825 103.662 98.1885 103.198 98.1885H99.5256C98.4777 98.1885 98.0418 99.5332 98.8857 100.155L101.863 102.315C102.243 102.594 102.4 103.085 102.261 103.53L101.121 107.026C100.796 108.028 101.937 108.853 102.79 108.241L105.767 106.08C106.147 105.802 106.666 105.802 107.047 106.08L110.024 108.241C110.877 108.863 112.017 108.028 111.693 107.026L110.561 103.53C110.413 103.085 110.571 102.594 110.951 102.315L113.928 100.155C114.781 99.5332 114.345 98.1885 113.288 98.1885H109.615C109.143 98.1885 108.725 97.8825 108.586 97.4373L107.445 93.9411C107.121 92.9396 105.702 92.9396 105.377 93.9411H105.368Z" fill="white"/>
<path d="M110.645 109.373C111.053 109.373 111.47 109.243 111.832 108.983C112.546 108.464 112.834 107.573 112.565 106.73L111.424 103.233C111.405 103.168 111.424 103.094 111.48 103.057L114.456 100.896C115.17 100.377 115.458 99.4867 115.189 98.6428C114.911 97.7989 114.16 97.2517 113.279 97.2517H109.606C109.541 97.2517 109.476 97.2053 109.458 97.1404L108.317 93.6442C108.039 92.8003 107.288 92.2532 106.407 92.2532C105.517 92.2532 104.765 92.8003 104.496 93.6442L103.356 97.1404C103.337 97.2053 103.272 97.2517 103.207 97.2517H99.535C98.6447 97.2517 97.8935 97.7989 97.6246 98.6428C97.3463 99.4867 97.6338 100.368 98.3572 100.896L101.334 103.057C101.39 103.094 101.408 103.168 101.39 103.233L100.249 106.73C99.9708 107.573 100.258 108.454 100.982 108.983C101.705 109.502 102.632 109.502 103.346 108.983L106.323 106.822C106.379 106.785 106.453 106.785 106.509 106.822L109.486 108.983C109.847 109.243 110.255 109.373 110.673 109.373H110.645ZM113.279 99.1157C113.279 99.1157 113.39 99.1157 113.427 99.227C113.464 99.3383 113.399 99.3847 113.371 99.4032L110.395 101.564C109.69 102.074 109.393 102.983 109.662 103.818L110.803 107.314C110.803 107.314 110.84 107.425 110.747 107.49C110.654 107.555 110.589 107.508 110.561 107.49L107.585 105.329C106.88 104.819 105.925 104.819 105.22 105.329L102.243 107.49C102.243 107.49 102.15 107.555 102.057 107.49C101.965 107.425 101.993 107.342 102.002 107.314L103.142 103.818C103.411 102.983 103.115 102.083 102.41 101.564L99.4329 99.4032C99.4329 99.4032 99.3402 99.3383 99.3773 99.227C99.4144 99.1157 99.4886 99.1157 99.5257 99.1157H103.198C104.07 99.1157 104.84 98.5593 105.108 97.7247L106.249 94.2285C106.249 94.2285 106.286 94.1172 106.398 94.1172C106.509 94.1172 106.537 94.1914 106.546 94.2285L107.687 97.7247C107.956 98.5593 108.725 99.1157 109.597 99.1157H113.269H113.279Z" fill="#303030"/>
<path d="M80.1158 89.833C86.4776 89.833 91.6523 95.0078 91.6523 101.37C91.6523 107.731 86.4776 112.906 80.1158 112.906C73.754 112.906 68.5793 107.731 68.5793 101.37C68.5793 95.0078 73.754 89.833 80.1158 89.833Z" fill="white"/>
<path d="M80.1159 113.833C86.9878 113.833 92.5798 108.241 92.5798 101.369C92.5798 94.4976 86.9878 88.9055 80.1159 88.9055C73.2441 88.9055 67.652 94.4976 67.652 101.369C67.652 108.241 73.2441 113.833 80.1159 113.833ZM80.1159 90.7603C85.9676 90.7603 90.7251 95.5177 90.7251 101.369C90.7251 107.221 85.9676 111.979 80.1159 111.979C74.2642 111.979 69.5067 107.221 69.5067 101.369C69.5067 95.5177 74.2642 90.7603 80.1159 90.7603Z" fill="#303030"/>
<path d="M79.0862 93.9411L77.9456 97.4373C77.7972 97.8825 77.3799 98.1885 76.9162 98.1885H73.2438C72.1958 98.1885 71.76 99.5332 72.6039 100.155L75.5808 102.315C75.961 102.594 76.1186 103.085 75.9702 103.53L74.8389 107.026C74.5143 108.028 75.6549 108.853 76.5081 108.241L79.485 106.08C79.8652 105.802 80.3846 105.802 80.7648 106.08L83.7417 108.241C84.5948 108.863 85.7355 108.028 85.4109 107.026L84.2703 103.53C84.1219 103.085 84.2795 102.594 84.669 102.315L87.6459 100.155C88.4991 99.5332 88.0632 98.1885 87.006 98.1885H83.3336C82.8606 98.1885 82.4433 97.8825 82.3042 97.4373L81.1636 93.9411C80.839 92.9396 79.4201 92.9396 79.0955 93.9411H79.0862Z" fill="white"/>
<path d="M75.8684 109.373C76.2765 109.373 76.6938 109.243 77.0555 108.983L80.0323 106.822C80.088 106.785 80.1622 106.785 80.2178 106.822L83.1947 108.983C83.918 109.502 84.8454 109.502 85.5595 108.983C86.2736 108.464 86.5611 107.573 86.2921 106.73L85.1514 103.233C85.1329 103.168 85.1514 103.094 85.2071 103.057L88.184 100.896C88.898 100.377 89.1855 99.4867 88.9166 98.6428C88.6384 97.7989 87.8872 97.2517 87.0062 97.2517H83.3338C83.2689 97.2517 83.204 97.2053 83.1854 97.1404L82.0447 93.6442C81.7665 92.8003 81.0153 92.2532 80.1343 92.2532C79.2533 92.2532 78.4929 92.8003 78.2239 93.6442L77.0833 97.1404C77.0647 97.2053 76.9998 97.2517 76.9349 97.2517H73.2625C72.3722 97.2517 71.621 97.7989 71.3521 98.6428C71.0739 99.4867 71.3614 100.368 72.0847 100.896L75.0616 103.057C75.1172 103.094 75.1358 103.168 75.1172 103.233L73.9858 106.73C73.7076 107.573 73.9951 108.454 74.7185 108.983C75.0801 109.243 75.4882 109.373 75.9055 109.373H75.8684ZM80.1158 104.94C79.6985 104.94 79.2904 105.069 78.938 105.329L75.9612 107.49C75.9612 107.49 75.8684 107.555 75.7757 107.49C75.6829 107.425 75.7108 107.342 75.72 107.314L76.8514 103.818C77.1204 102.983 76.8236 102.083 76.1188 101.564L73.1419 99.4032C73.1419 99.4032 73.0492 99.3383 73.0863 99.227C73.1234 99.1157 73.1976 99.1157 73.2347 99.1157H76.9071C77.7788 99.1157 78.5485 98.5593 78.8175 97.7247L79.9581 94.2285C79.9581 94.2285 79.9952 94.1172 80.1065 94.1172C80.2178 94.1172 80.2456 94.1914 80.2549 94.2285L81.3956 97.7247C81.6645 98.5593 82.4342 99.1157 83.306 99.1157H86.9784C86.9784 99.1157 87.0897 99.1157 87.1268 99.227C87.1638 99.3383 87.0989 99.3847 87.0711 99.4032L84.0942 101.564C83.3894 102.074 83.0927 102.983 83.3616 103.818L84.5023 107.314C84.5023 107.314 84.5394 107.425 84.4466 107.49C84.3539 107.555 84.289 107.508 84.2612 107.49L81.2843 105.329C80.9319 105.069 80.5146 104.94 80.0972 104.94H80.1158Z" fill="#303030"/>
<path d="M53.8337 89.833C60.1955 89.833 65.3702 95.0078 65.3702 101.37C65.3702 107.731 60.1955 112.906 53.8337 112.906C47.4719 112.906 42.2971 107.731 42.2971 101.37C42.2971 95.0078 47.4719 89.833 53.8337 89.833Z" fill="white"/>
<path d="M53.834 113.833C60.7059 113.833 66.298 108.241 66.298 101.369C66.298 94.4976 60.7059 88.9055 53.834 88.9055C46.9622 88.9055 41.3701 94.4976 41.3701 101.369C41.3701 108.241 46.9622 113.833 53.834 113.833ZM53.834 90.7603C59.6858 90.7603 64.4432 95.5177 64.4432 101.369C64.4432 107.221 59.6858 111.979 53.834 111.979C47.9823 111.979 43.2249 107.221 43.2249 101.369C43.2249 95.5177 47.9823 90.7603 53.834 90.7603Z" fill="#303030"/>
<path d="M52.8045 93.9411L51.6638 97.4373C51.5154 97.8825 51.0981 98.1885 50.6344 98.1885H46.962C45.9141 98.1885 45.4782 99.5332 46.3221 100.155L49.299 102.315C49.6792 102.594 49.8369 103.085 49.6885 103.53L48.5478 107.026C48.2233 108.028 49.3639 108.853 50.2171 108.241L53.194 106.08C53.5742 105.802 54.0935 105.802 54.4738 106.08L57.4506 108.241C58.3038 108.863 59.4445 108.028 59.1199 107.026L57.9792 103.53C57.8309 103.085 57.9885 102.594 58.3687 102.315L61.3456 100.155C62.1988 99.5332 61.7629 98.1885 60.7057 98.1885H57.0333C56.5604 98.1885 56.143 97.8825 56.0039 97.4373L54.8633 93.9411C54.5387 92.9396 53.1198 92.9396 52.7952 93.9411H52.8045Z" fill="white"/>
<path d="M58.0812 109.373C58.4892 109.373 58.9066 109.243 59.2682 108.983C59.9823 108.464 60.2698 107.573 60.0009 106.73L58.8602 103.233C58.8416 103.168 58.8602 103.094 58.9158 103.057L61.8927 100.896C62.6068 100.377 62.8943 99.4867 62.6253 98.6428C62.3471 97.7989 61.5959 97.2517 60.7149 97.2517H57.0425C56.9776 97.2517 56.9127 97.2053 56.8941 97.1404L55.7535 93.6442C55.4753 92.8003 54.7241 92.2532 53.8431 92.2532C52.9621 92.2532 52.2016 92.8003 51.9327 93.6442L50.792 97.1404C50.7735 97.2053 50.7086 97.2517 50.6436 97.2517H46.9712C46.081 97.2517 45.3298 97.7989 45.0608 98.6428C44.7826 99.4867 45.0701 100.368 45.7935 100.896L48.7703 103.057C48.826 103.094 48.8445 103.168 48.826 103.233L47.6853 106.73C47.4071 107.573 47.6946 108.454 48.4179 108.983C49.1413 109.502 50.0687 109.502 50.7827 108.983L53.7596 106.822C53.8153 106.785 53.8894 106.785 53.9451 106.822L56.922 108.983C57.2836 109.243 57.6917 109.373 58.109 109.373H58.0812ZM60.7149 99.1157C60.7149 99.1157 60.8262 99.1157 60.8633 99.227C60.9004 99.3383 60.8355 99.3847 60.8077 99.4032L57.8308 101.564C57.126 102.074 56.8292 102.983 57.0982 103.818L58.2388 107.314C58.2388 107.314 58.2759 107.425 58.1832 107.49C58.0905 107.555 58.0255 107.508 57.9977 107.49L55.0209 105.329C54.316 104.819 53.3608 104.819 52.656 105.329L49.6792 107.49C49.6792 107.49 49.5864 107.555 49.4937 107.49C49.4009 107.425 49.4288 107.342 49.438 107.314L50.5787 103.818C50.8477 102.983 50.5509 102.083 49.8461 101.564L46.8692 99.4032C46.8692 99.4032 46.7765 99.3383 46.8136 99.227C46.8507 99.1157 46.9249 99.1157 46.962 99.1157H50.6344C51.5061 99.1157 52.2758 98.5593 52.5448 97.7247L53.6854 94.2285C53.6854 94.2285 53.7225 94.1172 53.8338 94.1172C53.9451 94.1172 53.9729 94.1914 53.9822 94.2285L55.1229 97.7247C55.3918 98.5593 56.1615 99.1157 57.0333 99.1157H60.7057H60.7149Z" fill="#303030"/>
<path d="M27.5523 89.833C33.9141 89.833 39.0889 95.0078 39.0889 101.37C39.0889 107.731 33.9141 112.906 27.5523 112.906C21.1905 112.906 16.0158 107.731 16.0158 101.37C16.0158 95.0078 21.1905 89.833 27.5523 89.833Z" fill="white"/>
<path d="M27.5524 113.833C34.4243 113.833 40.0164 108.241 40.0164 101.369C40.0164 94.4976 34.4243 88.9055 27.5524 88.9055C20.6806 88.9055 15.0885 94.4976 15.0885 101.369C15.0885 108.241 20.6806 113.833 27.5524 113.833ZM27.5524 90.7603C33.4042 90.7603 38.1616 95.5177 38.1616 101.369C38.1616 107.221 33.4042 111.979 27.5524 111.979C21.7007 111.979 16.9433 107.221 16.9433 101.369C16.9433 95.5177 21.7007 90.7603 27.5524 90.7603Z" fill="#303030"/>
<path d="M26.523 93.9411L25.3823 97.4373C25.2339 97.8825 24.8166 98.1885 24.3529 98.1885H20.6805C19.6326 98.1885 19.1967 99.5332 20.0406 100.155L23.0175 102.315C23.3977 102.594 23.5554 103.085 23.407 103.53L22.2756 107.026C21.951 108.028 23.0917 108.853 23.9449 108.241L26.9218 106.08C27.302 105.802 27.8213 105.802 28.2016 106.08L31.1784 108.241C32.0316 108.863 33.1723 108.028 32.8477 107.026L31.707 103.53C31.5586 103.085 31.7163 102.594 32.1058 102.315L35.0827 100.155C35.9359 99.5332 35.5 98.1885 34.4428 98.1885H30.7704C30.2974 98.1885 29.8801 97.8825 29.741 97.4373L28.6096 93.9411C28.285 92.9396 26.8661 92.9396 26.5415 93.9411H26.523Z" fill="white"/>
<path d="M23.3049 109.373C23.713 109.373 24.1303 109.243 24.492 108.983L27.4689 106.822C27.5245 106.785 27.5987 106.785 27.6543 106.822L30.6312 108.983C31.3546 109.502 32.2819 109.502 32.996 108.983C33.7101 108.464 33.9976 107.573 33.7286 106.73L32.588 103.233C32.5694 103.168 32.588 103.094 32.6436 103.057L35.6205 100.896C36.3346 100.377 36.622 99.4867 36.3531 98.6428C36.0749 97.7989 35.3237 97.2517 34.4427 97.2517H30.7703C30.7054 97.2517 30.6405 97.2053 30.6219 97.1404L29.4813 93.6442C29.2031 92.8003 28.4519 92.2532 27.5709 92.2532C26.6806 92.2532 25.9294 92.8003 25.6605 93.6442L24.5291 97.1404C24.5105 97.2053 24.4456 97.2517 24.3807 97.2517H20.7083C19.818 97.2517 19.0668 97.7989 18.7979 98.6428C18.5197 99.4867 18.8072 100.368 19.5305 100.896L22.5074 103.057C22.563 103.094 22.5816 103.168 22.563 103.233L21.4224 106.73C21.1442 107.573 21.4316 108.454 22.155 108.983C22.5167 109.243 22.9247 109.373 23.342 109.373H23.3049ZM27.5523 104.94C27.135 104.94 26.727 105.069 26.3746 105.329L23.3977 107.49C23.3977 107.49 23.3049 107.555 23.2122 107.49C23.1195 107.425 23.1473 107.342 23.1566 107.314L24.2972 103.818C24.5662 102.983 24.2694 102.083 23.5646 101.564L20.5877 99.4032C20.5877 99.4032 20.495 99.3383 20.5321 99.227C20.5692 99.1157 20.6434 99.1157 20.6805 99.1157H24.3529C25.2246 99.1157 25.9943 98.5593 26.2633 97.7247L27.4039 94.2285C27.4039 94.2285 27.441 94.1172 27.5523 94.1172C27.6636 94.1172 27.6914 94.1914 27.7007 94.2285L28.8414 97.7247C29.1103 98.5593 29.88 99.1157 30.7518 99.1157H34.4242C34.4242 99.1157 34.5355 99.1157 34.5725 99.227C34.6096 99.3383 34.5447 99.3847 34.5169 99.4032L31.54 101.564C30.8352 102.074 30.5385 102.983 30.8074 103.818L31.9481 107.314C31.9481 107.314 31.9852 107.425 31.8924 107.49C31.7997 107.555 31.7348 107.508 31.707 107.49L28.7301 105.329C28.3777 105.069 27.9604 104.94 27.543 104.94H27.5523Z" fill="#303030"/>
<path d="M33.1721 164.292C23.4254 164.292 15.5242 156.391 15.5242 146.644C15.5242 136.898 23.4254 128.996 33.1721 128.996C42.9188 128.996 50.8201 136.898 50.8201 146.644C50.8201 156.391 42.9188 164.292 33.1721 164.292Z" fill="#245A7C"/>
<path d="M33.1716 165.22C43.4098 165.22 51.7469 156.883 51.7469 146.645C51.7469 136.406 43.4098 128.069 33.1716 128.069C22.9334 128.069 14.5963 136.406 14.5963 146.645C14.5963 156.883 22.9334 165.22 33.1716 165.22ZM33.1716 129.924C42.3897 129.924 49.8922 137.427 49.8922 146.645C49.8922 155.863 42.3897 163.365 33.1716 163.365C23.9535 163.365 16.451 155.863 16.451 146.645C16.451 137.427 23.9535 129.924 33.1716 129.924Z" fill="#303030"/>
<path d="M15.6978 63.7859C12.4977 53.1531 18.5231 41.9393 29.156 38.7391C39.7888 35.539 51.0026 41.5644 54.2027 52.1973C57.4029 62.8301 51.3774 74.0439 40.7446 77.244C30.1118 80.4442 18.898 74.4188 15.6978 63.7859Z" fill="white"/>
<path d="M34.9526 79.0201C46.5448 79.0201 55.9855 69.5887 55.9855 57.9872C55.9855 46.3858 46.5541 36.9543 34.9526 36.9543C23.3511 36.9543 13.9197 46.3858 13.9197 57.9872C13.9197 69.5887 23.3511 79.0201 34.9526 79.0201ZM34.9526 38.8091C45.5247 38.8091 54.1307 47.4151 54.1307 57.9872C54.1307 68.5593 45.5247 77.1653 34.9526 77.1653C24.3805 77.1653 15.7745 68.5593 15.7745 57.9872C15.7745 47.4151 24.3805 38.8091 34.9526 38.8091Z" fill="#303030"/>
<path d="M49.4381 71.9074C45.7843 75.7096 40.6466 78.093 34.9525 78.093C29.2584 78.093 24.13 75.7096 20.4669 71.9074C21.8394 66.6399 25.9755 62.5038 31.2616 61.1591C28.9895 59.8701 27.4408 57.4589 27.4408 54.6582C27.4408 50.5128 30.8071 47.1465 34.9525 47.1465C39.0979 47.1465 42.4643 50.5128 42.4643 54.6582C42.4643 57.4589 40.9155 59.8701 38.6435 61.1591C43.9295 62.5038 48.0656 66.6399 49.4381 71.9074Z" fill="#245A7C"/>
<path d="M34.9527 79.02C40.7117 79.02 46.0997 76.7201 50.106 72.5469C50.3286 72.3151 50.412 71.9812 50.3378 71.6659C49.0302 66.6674 45.4042 62.6518 40.656 60.8249C42.3717 59.2484 43.3918 57.0134 43.3918 54.6486C43.3918 49.9932 39.6081 46.2095 34.9527 46.2095C30.2973 46.2095 26.5136 49.9932 26.5136 54.6486C26.5136 57.0041 27.5244 59.2391 29.2493 60.8249C24.5104 62.6518 20.8751 66.6674 19.5675 71.6659C19.4841 71.9812 19.5675 72.3058 19.7994 72.5469C23.8056 76.7201 29.1937 79.02 34.9527 79.02ZM48.3996 71.6381C44.7829 75.2085 40.0347 77.1653 34.9527 77.1653C29.8707 77.1653 25.1225 75.2085 21.5057 71.6381C22.9246 66.9178 26.7083 63.2732 31.4936 62.0583C31.8645 61.9656 32.1335 61.6595 32.1891 61.2793C32.2355 60.9084 32.0593 60.5374 31.7254 60.3519C29.6574 59.1742 28.3776 56.9948 28.3776 54.6579C28.3776 51.0318 31.3266 48.0735 34.9619 48.0735C38.5973 48.0735 41.5463 51.0226 41.5463 54.6579C41.5463 56.9948 40.2573 59.1835 38.1892 60.3519C37.8646 60.5374 37.6792 60.9084 37.7255 61.2793C37.7719 61.6503 38.0501 61.9563 38.4211 62.0583C43.2063 63.2732 46.99 66.9178 48.4089 71.6381H48.3996Z" fill="#303030"/>
<path d="M80.774 54.4907H139.338C142.138 54.4907 144.411 52.2186 144.411 49.418C144.411 46.6173 142.138 44.3452 139.338 44.3452H80.774C77.9734 44.3452 75.7013 46.6173 75.7013 49.418C75.7013 52.2186 77.9734 54.4907 80.774 54.4907Z" fill="white"/>
<path d="M80.774 55.4185H139.338C142.649 55.4185 145.338 52.7291 145.338 49.4183C145.338 46.1076 142.649 43.4182 139.338 43.4182H80.774C77.4633 43.4182 74.7739 46.1076 74.7739 49.4183C74.7739 52.7291 77.4633 55.4185 80.774 55.4185ZM139.338 45.2637C141.628 45.2637 143.483 47.1277 143.483 49.4091C143.483 51.6904 141.619 53.5544 139.338 53.5544H80.774C78.4834 53.5544 76.6287 51.6904 76.6287 49.4091C76.6287 47.1277 78.4927 45.2637 80.774 45.2637H139.338Z" fill="#303030"/>
<path d="M80.774 73.0569H139.338C142.138 73.0569 144.411 70.7848 144.411 67.9841C144.411 65.1834 142.138 62.9114 139.338 62.9114H80.774C77.9734 62.9114 75.7013 65.1834 75.7013 67.9841C75.7013 70.7848 77.9734 73.0569 80.774 73.0569Z" fill="white"/>
<path d="M80.774 73.9849H139.338C142.649 73.9849 145.338 71.2955 145.338 67.9847C145.338 64.674 142.649 61.9846 139.338 61.9846H80.774C77.4633 61.9846 74.7739 64.674 74.7739 67.9847C74.7739 71.2955 77.4633 73.9849 80.774 73.9849ZM139.338 63.8394C141.628 63.8394 143.483 65.7034 143.483 67.9847C143.483 70.2661 141.619 72.1301 139.338 72.1301H80.774C78.4834 72.1301 76.6287 70.2661 76.6287 67.9847C76.6287 65.7034 78.4927 63.8394 80.774 63.8394H139.338Z" fill="#303030"/>
<path d="M47.7039 201.276H140.033C142.834 201.276 145.106 199.004 145.106 196.203C145.106 193.403 142.834 191.131 140.033 191.131H47.7131C44.9125 191.131 42.6404 193.403 42.6404 196.203C42.6404 199.004 44.9125 201.276 47.7131 201.276H47.7039Z" fill="white"/>
<path d="M47.7038 202.203H140.033C143.344 202.203 146.033 199.514 146.033 196.203C146.033 192.892 143.344 190.203 140.033 190.203H47.7131C44.4024 190.203 41.713 192.892 41.713 196.203C41.713 199.514 44.4024 202.203 47.7131 202.203H47.7038ZM140.033 192.049C142.324 192.049 144.179 193.913 144.179 196.194C144.179 198.475 142.315 200.339 140.033 200.339H47.7131C45.4225 200.339 43.5677 198.475 43.5677 196.194C43.5677 193.913 45.4318 192.049 47.7131 192.049H140.033Z" fill="#303030"/>
<path d="M81.0059 219.842H140.033C142.834 219.842 145.106 217.57 145.106 214.769C145.106 211.968 142.834 209.696 140.033 209.696H81.0059C78.2052 209.696 75.9332 211.968 75.9332 214.769C75.9332 217.57 78.2052 219.842 81.0059 219.842Z" fill="white"/>
<path d="M81.0059 220.769H140.033C143.344 220.769 146.033 218.08 146.033 214.769C146.033 211.458 143.344 208.769 140.033 208.769H81.0059C77.6952 208.769 75.0058 211.458 75.0058 214.769C75.0058 218.08 77.6952 220.769 81.0059 220.769ZM140.033 210.615C142.324 210.615 144.179 212.479 144.179 214.76C144.179 217.041 142.315 218.905 140.033 218.905H81.0059C78.7153 218.905 76.8605 217.041 76.8605 214.76C76.8605 212.479 78.7245 210.615 81.0059 210.615H140.033Z" fill="#303030"/>
<path d="M45.4225 148.564L41.2029 144.854L34.294 151.429L24.5102 138.984H21.9042L34.0992 158.134L45.4225 148.564Z" fill="white"/>
<path d="M34.0992 159.062C34.3125 159.062 34.5258 158.988 34.702 158.839L46.0253 149.269C46.2293 149.093 46.3499 148.842 46.3499 148.573C46.3499 148.304 46.2386 148.045 46.0345 147.868L41.815 144.159C41.4533 143.844 40.9154 143.853 40.563 144.187L34.3867 150.057L25.2428 138.419C25.0666 138.196 24.7977 138.066 24.5102 138.066H21.895C21.5518 138.066 21.2458 138.252 21.0789 138.548C20.912 138.845 20.9305 139.207 21.1067 139.494L33.3017 158.645C33.4408 158.867 33.6819 159.025 33.9416 159.062C33.988 159.062 34.0343 159.071 34.0807 159.071L34.0992 159.062ZM44.0036 148.545L34.3125 156.743L23.5921 139.912H24.065L33.5614 152.005C33.719 152.209 33.9601 152.338 34.2198 152.357C34.4887 152.376 34.7391 152.283 34.9246 152.107L41.2215 146.116L43.9943 148.555L44.0036 148.545Z" fill="#303030"/>
<path d="M338.183 101.678C332.015 104.075 315.922 150.851 311.527 160.263C299.19 159.896 286.15 158.713 273.269 159.209C272.007 159.257 270.504 166.065 270.504 166.065C287.332 171.45 313.893 178.29 315.634 177.986C323.721 176.26 346.557 131.642 350.936 121.925C356.418 109.748 346.685 98.3536 338.183 101.662V101.678Z" fill="#245A7C"/>
<path d="M315.667 179.569C315.778 179.569 315.858 179.569 315.922 179.553C326.23 177.347 352.151 123.124 352.391 122.581C356.082 114.399 353.285 107.16 349.77 103.436C346.366 99.8403 341.699 98.5937 337.608 100.192C333.277 101.87 326.885 116.652 315.874 145.13C313.669 150.819 311.735 155.821 310.505 158.65C306.957 158.538 303.393 158.362 299.654 158.17C291.008 157.739 282.059 157.292 273.205 157.643C272.342 157.675 270.728 157.739 268.954 165.745C268.779 166.544 269.242 167.343 270.025 167.599C284.951 172.377 311.943 179.585 315.651 179.585L315.667 179.569ZM341.268 102.669C343.441 102.669 345.647 103.692 347.468 105.625C350.313 108.63 352.55 114.527 349.498 121.287C343.585 134.391 322.203 174.583 315.411 176.421C312.902 176.309 289.426 170.396 272.374 165.01C272.854 163.156 273.429 161.463 273.829 160.775C282.378 160.472 291.072 160.903 299.494 161.319C303.441 161.51 307.532 161.718 311.464 161.83C312.135 161.83 312.678 161.494 312.95 160.919C314.18 158.282 316.226 152.977 318.831 146.265C324.056 132.745 334.923 104.619 338.759 103.132C339.574 102.813 340.421 102.653 341.268 102.653V102.669Z" fill="#303030"/>
<path d="M256.058 148.47C257.512 148.646 274.26 156.892 275.347 160.328C276.321 163.396 276.609 167.791 270.504 166.081C265.694 162.565 260.037 162.293 256.042 155.757C253.421 151.49 251.487 147.911 256.058 148.47Z" fill="white"/>
<path d="M272.902 168.031C274.324 168.031 275.458 167.615 276.258 166.768C277.999 164.962 277.536 162.006 276.849 159.832C275.443 155.422 257.816 147.08 256.249 146.888C255.514 146.792 253.245 146.52 252.174 148.182C250.928 150.116 252.43 152.881 254.699 156.588C257.576 161.303 261.22 163.013 264.719 164.675C266.429 165.49 268.059 166.257 269.578 167.359C269.737 167.471 269.897 167.551 270.089 167.599C271.128 167.887 272.071 168.031 272.918 168.031H272.902ZM255.818 150.036C258.455 150.691 273.013 158.506 273.844 160.807C274.5 162.837 274.388 164.163 273.988 164.579C273.621 164.962 272.582 164.978 271.192 164.627C269.514 163.444 267.756 162.613 266.062 161.814C262.834 160.28 259.765 158.842 257.384 154.942C256.713 153.855 255.035 151.107 254.891 150.02C255.067 150.004 255.355 149.988 255.818 150.052V150.036Z" fill="#303030"/>
<path d="M267.788 445.682C266.749 445.602 265.758 445.985 265.151 446.673C263.473 448.574 260.724 450.364 258.311 450.684C245.99 452.314 237.472 455.542 233.828 457.572C231.495 458.866 232.614 461.775 235.442 461.775H275.219C276.529 461.775 277.792 460.944 278.047 459.905C279.869 452.729 276.385 446.321 276.385 446.321L267.772 445.682H267.788Z" fill="#303030"/>
<path d="M275.235 463.373C277.28 463.373 279.15 462.046 279.597 460.305C281.547 452.618 277.951 445.858 277.808 445.57C277.552 445.091 277.072 444.787 276.529 444.739L267.915 444.1C266.381 443.988 264.911 444.563 263.984 445.618C262.418 447.392 259.957 448.862 258.119 449.102C246.197 450.668 237.376 453.784 233.077 456.181C231.463 457.076 230.696 458.706 231.111 460.337C231.575 462.142 233.333 463.357 235.458 463.357H275.235V463.373ZM275.362 447.823C276.13 449.629 277.824 454.408 276.529 459.505C276.465 459.745 275.922 460.193 275.235 460.193H235.458C234.643 460.193 234.244 459.793 234.18 459.537C234.116 459.282 234.372 459.074 234.611 458.946C238.463 456.805 247.028 453.768 258.519 452.25C261.523 451.851 264.607 449.693 266.349 447.712C266.621 447.392 267.148 447.216 267.676 447.248L275.362 447.823Z" fill="#303030"/>
<path d="M369.57 445.682C368.627 445.602 367.716 445.986 367.173 446.673C365.655 448.575 363.146 450.365 360.941 450.684C349.738 452.314 339.366 455.543 336.058 457.572C333.949 458.867 334.956 461.775 337.529 461.775H376.314C377.513 461.775 378.647 460.944 378.887 459.905C380.549 452.73 376.953 446.29 376.953 446.29L369.538 445.682H369.57Z" fill="#303030"/>
<path d="M376.346 463.373C378.28 463.373 380.054 462.031 380.469 460.257C382.243 452.57 378.535 445.794 378.376 445.506C378.12 445.043 377.641 444.739 377.113 444.691L369.698 444.084C368.228 443.988 366.821 444.563 365.943 445.666C364.536 447.424 362.347 448.862 360.733 449.102C349.354 450.748 338.839 454.008 335.259 456.198C333.725 457.14 333.038 458.802 333.501 460.433C333.997 462.158 335.627 463.325 337.561 463.325H376.346V463.373ZM375.963 447.776C376.762 449.565 378.567 454.392 377.385 459.538C377.321 459.793 376.857 460.193 376.362 460.193H337.576C336.953 460.193 336.634 459.857 336.554 459.586C336.474 459.33 336.602 459.106 336.921 458.898C339.75 457.172 349.754 453.896 361.196 452.234C363.977 451.835 366.837 449.629 368.436 447.648C368.659 447.36 369.059 447.216 369.458 447.248L375.963 447.776Z" fill="#303030"/>
<path d="M329.825 238.106L363.545 449.198C364.472 449.821 365.447 450.284 366.422 450.62C372.702 452.745 379.35 449.517 379.35 449.517C379.35 449.517 382.259 385.146 378.775 365.202C377.129 355.71 373.341 343.117 373.341 343.117C373.341 343.117 372.894 261.726 371.088 239.225C369.666 221.694 360.189 203.06 360.189 203.06L356.21 207.647L329.794 238.106H329.825Z" fill="white"/>
<path d="M329.825 238.107L363.545 449.198C364.472 449.822 365.447 450.285 366.421 450.621C370.145 450.253 372.99 448.879 372.99 448.879C372.99 448.879 375.898 384.508 372.414 364.564C370.768 355.071 366.981 342.478 366.981 342.478C366.981 342.478 366.533 261.088 364.728 238.586C363.769 226.761 359.134 214.423 356.226 207.647L329.809 238.107H329.825Z" fill="#EBEBEB"/>
<path d="M371.072 452.922C375.866 452.922 379.798 451.052 380.053 450.924C380.581 450.668 380.916 450.157 380.948 449.566C381.06 446.929 383.841 384.779 380.373 364.899C378.839 356.11 375.467 344.571 374.955 342.845C374.923 338.067 374.444 260.784 372.702 239.082C371.28 221.439 362.043 203.093 361.659 202.326C361.42 201.862 360.956 201.543 360.445 201.479C359.917 201.415 359.406 201.606 359.054 202.006L328.659 237.052C328.355 237.404 328.211 237.883 328.291 238.331L361.995 449.422C362.059 449.853 362.314 450.237 362.682 450.493C365.431 452.33 368.403 452.922 371.088 452.922H371.072ZM377.816 448.431C375.658 449.246 369.809 451.004 364.983 448.223L331.503 238.57L359.837 205.905C362.298 211.259 368.435 225.738 369.522 239.337C371.312 261.519 371.775 342.286 371.775 343.101C371.775 343.245 371.791 343.405 371.839 343.549C371.871 343.676 375.611 356.158 377.225 365.458C380.405 383.661 378.151 440.201 377.8 448.431H377.816Z" fill="#303030"/>
<path d="M262.705 446.673C266.541 448.83 270.009 449.949 272.709 450.508C276.241 451.243 278.478 451.051 278.478 451.051C278.478 451.051 312.038 384.827 316.305 366.96C318.527 357.595 318.543 345.849 318.543 345.849C318.543 345.849 368.659 262.221 373.229 242.948C378.167 222.046 367.044 207.854 367.044 207.854L332.238 208.638L332.094 209.133L262.737 446.705L262.705 446.673Z" fill="white"/>
<path d="M262.705 446.673C266.541 448.83 270.009 449.949 272.71 450.508C277.232 441.511 305.998 384.044 309.929 367.599C312.15 358.219 312.166 346.473 312.166 346.473C312.166 346.473 362.282 262.845 366.853 243.572C371.791 222.669 360.668 208.478 360.668 208.478L332.078 209.117L262.721 446.689L262.705 446.673Z" fill="#EBEBEB"/>
<path d="M277.68 452.65C278.239 452.65 278.559 452.618 278.623 452.618C279.166 452.57 279.645 452.25 279.901 451.755C281.275 449.038 313.605 385.147 317.84 367.312C319.869 358.778 320.093 348.55 320.109 346.281C324.2 339.441 370.289 262.142 374.764 243.284C379.829 221.902 368.755 207.455 368.275 206.848C367.972 206.448 367.508 206.257 366.997 206.241L332.175 207.008C331.487 207.008 330.88 207.487 330.688 208.142L261.187 446.21C260.98 446.913 261.283 447.664 261.923 448.031C269.29 452.202 275.41 452.634 277.68 452.634V452.65ZM366.23 209.437C368.195 212.345 375.818 225.098 371.679 242.565C367.221 261.407 317.68 344.204 317.168 345.035C317.025 345.274 316.945 345.562 316.945 345.85C316.945 345.962 316.913 357.516 314.755 366.593C310.856 382.989 281.419 441.719 277.488 449.502C275.57 449.47 270.6 449.054 264.575 445.906L333.389 210.172L366.214 209.453L366.23 209.437Z" fill="#303030"/>
<path d="M287.732 152.897C282.139 148.103 276.497 143.628 274.819 145.306C273.285 146.824 272.79 154.335 274.132 156.317C275.475 158.298 278.719 159.641 284.168 159.976C289.618 160.328 287.732 152.897 287.732 152.897Z" fill="white"/>
<path d="M284.536 161.559C286.533 161.559 287.7 160.68 288.339 159.913C290.433 157.388 289.394 152.993 289.282 152.497C289.202 152.178 289.026 151.89 288.771 151.682C280.716 144.779 276.178 141.726 273.717 144.171C271.655 146.217 271.096 154.623 272.838 157.196C274.548 159.721 278.335 161.191 284.072 161.559C284.232 161.559 284.376 161.559 284.536 161.559ZM286.294 153.744C286.517 154.958 286.629 157.004 285.894 157.899C285.686 158.139 285.319 158.458 284.28 158.394C278.095 157.995 276.098 156.365 275.459 155.422C274.5 154.016 274.995 147.799 275.874 146.521C276.721 146.505 279.326 147.799 286.31 153.744H286.294Z" fill="#303030"/>
<path d="M322.011 139.552C322.378 164.562 329.953 209.708 330.528 214.375C330.784 216.548 334.588 218.274 345.503 218.194C349.61 218.162 353.845 217.283 357.456 215.941C363.497 213.752 367.844 210.364 367.013 207.839C361.547 191.059 370.88 128.334 365.559 108.262C362.666 97.315 353.493 89.74 337.496 99.6482C336.681 100.144 335.85 100.687 334.987 101.294C332.926 102.732 321.643 114.415 322.011 139.552Z" fill="white"/>
<path d="M322.011 139.553C322.378 164.563 329.953 209.709 330.528 214.376C330.784 216.549 334.588 218.275 345.502 218.195C349.61 218.163 353.844 217.284 357.456 215.942C359.853 214.28 361.148 212.506 360.652 211.02C355.187 194.24 364.52 131.515 359.198 111.443C356.705 102.062 349.61 95.1263 337.496 99.6489C336.681 100.144 335.85 100.688 334.987 101.295C332.926 102.733 321.643 114.415 322.011 139.553Z" fill="#245A7C"/>
<path d="M344.911 219.777C345.103 219.777 345.311 219.777 345.519 219.777C354.116 219.729 364.472 215.782 367.684 211.323C368.915 209.629 368.835 208.223 368.547 207.344C365.91 199.226 366.885 178.978 367.844 159.385C368.835 139.105 369.841 118.123 367.125 107.831C365.319 101.023 361.468 96.2288 356.29 94.3431C350.105 92.0898 342.642 93.9915 334.092 99.9843C333.948 100.08 320.029 111.139 320.445 139.569C320.748 160.424 325.926 194.463 328.147 208.99C328.579 211.818 328.883 213.768 328.978 214.551C329.41 218.115 334.492 219.777 344.927 219.777H344.911ZM364.04 108.646C366.645 118.458 365.639 139.185 364.664 159.225C363.657 180.017 362.698 199.641 365.527 208.319C365.607 208.574 365.463 208.99 365.111 209.469C362.762 212.729 353.685 216.565 345.503 216.613C332.574 216.677 332.111 214.2 332.111 214.184C332.015 213.385 331.711 211.387 331.28 208.526C329.266 195.31 323.928 160.184 323.625 139.537C323.241 113.153 335.802 102.669 335.93 102.589C343.473 97.2995 350.137 95.4777 355.219 97.3315C359.39 98.8497 362.538 102.877 364.072 108.662L364.04 108.646Z" fill="#303030"/>
<path d="M346.75 76.2204L355.044 94.4386C355.044 94.4386 357.089 97.411 346.702 98.5936C336.314 99.7762 334.988 101.278 334.988 101.278L327.684 57.8424L340.517 52.5847L346.75 76.2204Z" fill="white"/>
<path d="M334.987 102.86C335.371 102.86 335.754 102.716 336.042 102.445C336.266 102.301 338.279 101.134 346.861 100.144C352.518 99.5043 355.587 98.2579 356.498 96.2443C356.945 95.2534 356.753 94.2786 356.418 93.6873L348.219 75.6769L342.019 52.169C341.907 51.7215 341.603 51.354 341.188 51.1622C340.772 50.9545 340.309 50.9385 339.877 51.1143L327.045 56.372C326.358 56.6596 325.958 57.3628 326.086 58.0979L333.389 101.534C333.485 102.141 333.933 102.621 334.524 102.796C334.668 102.844 334.811 102.86 334.955 102.86H334.987ZM353.573 95.0297C353.301 95.3333 351.975 96.3881 346.525 97.0113C341.204 97.6186 338.056 98.3218 336.218 98.945L329.458 58.817L339.446 54.7259L345.215 76.6197C345.231 76.6996 345.263 76.7955 345.311 76.8754L353.573 95.0297Z" fill="#303030"/>
<path d="M347.014 61.5668C344.22 81.0134 326.788 90.0467 324.023 86.6414C315.641 76.2876 318.296 47.8021 322.209 39.4998C326.127 31.2124 347.014 61.5668 347.014 61.5668Z" fill="white"/>
<path d="M329.666 88.1352C336.736 85.4159 346.535 76.0821 348.578 61.8043C348.63 61.4073 348.547 61.0115 348.319 60.6879C345.481 56.5575 330.931 35.9567 323.955 36.5167C322.559 36.6257 321.438 37.4507 320.778 38.8516C316.768 47.3455 313.817 76.578 322.79 87.6637C323.4 88.4049 324.928 89.5293 328.306 88.6068C328.741 88.4909 329.194 88.3337 329.657 88.1559L329.666 88.1352ZM345.347 61.9512C343.231 75.0586 334.207 82.9812 328.494 85.1785C328.45 85.1957 328.42 85.2072 328.375 85.2244C326.296 86.0069 325.359 85.751 325.247 85.6398C317.294 75.823 320.093 47.7104 323.636 40.1836C323.871 39.6823 324.073 39.6731 324.204 39.657C327.591 39.3816 337.54 50.6911 345.347 61.9512Z" fill="#303030"/>
<path d="M313.062 27.9157C314.793 29.1675 316.657 29.5633 317.797 29.81C317.214 29.452 316.681 29.0917 316.205 28.7441C314.146 27.1734 313.118 24.5895 313.345 22.0194L313.339 22.0045C315.398 24.1065 318.361 25.3123 321.297 26.1349C318.266 23.7737 315.08 21.2323 314.073 17.4587C314.893 17.6744 322.651 19.6386 331.52 17.7683C344.208 15.0972 357.174 19.3388 363.59 28.0518C372.233 39.795 360.225 63.8644 358.861 72.0256C358.484 74.2939 355.872 75.3839 351.433 74.2148C348.848 73.5482 343.481 66.9831 345.086 63.4549C350.136 52.3691 340.18 52.7914 338.313 57.4646C337.681 59.0262 337.172 60.6428 336.606 61.5286C336.09 62.326 334.424 62.6243 334.438 61.8143C334.49 52.8224 331.715 49.4377 323.184 48.2675C314.631 47.0881 312.987 36.4027 313.052 27.9364L313.062 27.9157Z" fill="#303030"/>
<path d="M357.475 75.8125C357.833 75.6748 358.15 75.5188 358.449 75.318C359.53 74.6112 360.227 73.5728 360.437 72.2935C360.756 70.4073 361.715 67.47 362.835 64.06C366.441 53.136 371.872 36.63 364.858 27.1196C357.99 17.81 344.462 13.4421 331.182 16.2211C322.673 18.0042 315.278 16.1398 314.459 15.9241C313.906 15.7772 313.331 15.9298 312.94 16.3371C312.543 16.7295 312.378 17.3239 312.534 17.8631C312.783 18.7776 313.131 19.6369 313.571 20.4263C313.337 20.3965 313.1 20.4022 312.855 20.4791C312.277 20.6673 311.873 21.1308 311.773 21.7171C311.761 21.7733 311.754 21.8445 311.756 21.895C311.61 23.4749 311.869 25.0364 312.479 26.4454C312.434 26.4626 312.375 26.4855 312.33 26.5028C311.801 26.7747 311.476 27.3105 311.462 27.8979C311.36 44.6827 317.656 49.0759 322.971 49.8056C330.688 50.8611 332.904 53.5528 332.863 61.7701C332.86 62.6961 333.431 63.4694 334.339 63.7367C335.574 64.1004 337.215 63.4694 337.933 62.3541C338.439 61.5773 338.855 60.4759 339.292 59.2975C339.455 58.8753 339.612 58.4381 339.79 58.0102C340.217 56.9385 341.397 56.0906 342.685 55.9208C343.157 55.8589 344.048 55.8589 344.523 56.5151C344.808 56.9018 345.594 58.5001 343.653 62.7568C342.916 64.3585 343.111 66.4237 344.197 68.7116C345.753 71.9999 348.83 75.1482 351.036 75.7208C353.621 76.3874 355.802 76.4045 357.458 75.7677L357.475 75.8125ZM316.802 19.6117C320.155 20.1371 325.761 20.6006 331.874 19.311C343.96 16.7683 356.207 20.6532 362.343 28.9944C368.386 37.1831 363.252 52.77 359.85 63.0676C358.69 66.5957 357.691 69.6512 357.322 71.7623C357.248 72.1501 357.069 72.4415 356.74 72.6538C356.312 72.9211 354.957 73.4937 351.854 72.6837C350.825 72.4118 348.346 70.0608 347.076 67.3818C346.426 66.0049 346.225 64.8151 346.552 64.1072C348.922 58.9154 348.152 56.1124 347.085 54.6736C346.023 53.2497 344.287 52.5648 342.296 52.8172C339.896 53.1236 337.714 54.7506 336.87 56.8732C336.683 57.3218 336.516 57.7796 336.359 58.2167C336.233 58.5564 336.098 58.9166 335.966 59.2413C335.403 51.3245 331.826 47.855 323.416 46.6893C316.869 45.783 314.979 37.9316 314.685 30.5793C315.736 30.9969 316.686 31.1966 317.382 31.3572C318.133 31.5304 318.94 31.1346 319.225 30.4083C319.517 29.697 319.267 28.8686 318.616 28.4681C318.08 28.1434 317.595 27.8164 317.16 27.4871C316.505 26.9857 315.965 26.3375 315.592 25.5906C317.065 26.3937 318.81 27.058 320.886 27.6466C321.613 27.8462 322.392 27.5124 322.731 26.8343C323.069 26.1562 322.89 25.3347 322.282 24.8665C320.326 23.3417 318.181 21.6838 316.802 19.6117Z" fill="#303030"/>
<path d="M289.457 177.364C288.914 177.364 288.371 177.188 287.939 176.804L241.563 136.772C240.588 135.925 240.476 134.455 241.323 133.48C242.17 132.505 243.64 132.394 244.615 133.241L290.992 173.273C291.966 174.12 292.078 175.59 291.231 176.565C290.768 177.092 290.129 177.364 289.473 177.364H289.457Z" fill="#303030"/>
<path d="M285.271 161.845C295.674 166.959 326.629 179.169 339.158 180.799C340.213 180.943 341.14 181.007 341.891 180.991C346.078 180.879 348.443 178.514 349.466 175.525C356.21 164.115 367.764 123.619 366.581 111.761C365.415 100.016 356.657 95.8125 349.801 98.6571C347.468 99.632 345.375 101.406 343.84 103.995C339.51 111.314 337.88 148.853 336.633 162.581C334.923 162.213 332.83 161.782 330.432 161.286C320.636 159.305 305.454 156.444 288.818 154.047C287.796 153.903 286.98 154.446 286.341 155.245C285.382 156.508 284.855 158.442 284.679 159.512C284.503 160.471 284.408 161.414 285.286 161.845H285.271Z" fill="white"/>
<path d="M285.271 161.191C295.674 166.305 326.629 178.514 339.158 180.144C341.156 179.217 342.434 177.491 343.105 175.51C349.849 164.115 361.403 123.604 360.221 111.746C359.39 103.5 354.819 98.9773 349.801 98.0024C347.468 98.9773 345.375 100.751 343.84 103.34C339.51 110.659 337.88 148.198 336.633 161.926C334.923 161.558 332.83 161.127 330.433 160.631C330.385 161.319 330.321 161.958 330.273 162.565C322.17 160.855 305.47 157.467 286.341 154.607C285.382 155.869 284.855 157.803 284.679 158.874C284.503 159.832 284.408 160.775 285.287 161.207L285.271 161.191Z" fill="#245A7C"/>
<path d="M341.651 182.573C341.747 182.573 341.843 182.573 341.955 182.573C346.253 182.461 349.514 180.144 350.92 176.181C357.951 164.147 369.394 123.732 368.179 111.586C367.236 102.11 361.691 97.5869 356.817 96.5002C351.239 95.2697 345.614 97.8746 342.482 103.164C339.158 108.774 337.48 128.973 335.93 150.947C335.674 154.671 335.434 157.979 335.211 160.647C325.622 158.65 308.283 155.23 289.042 152.465C285.59 151.97 283.688 155.805 283.113 159.241C282.969 160.072 282.602 162.278 284.583 163.252C296.026 168.894 330.88 182.557 341.667 182.557L341.651 182.573ZM354.068 99.3768C354.739 99.3768 355.426 99.4567 356.098 99.6005C361.004 100.687 364.328 105.29 364.999 111.906C366.15 123.396 354.755 163.46 348.091 174.711C348.027 174.807 347.995 174.902 347.947 175.014C347.292 176.964 345.694 179.313 341.843 179.409C341.763 179.409 341.683 179.409 341.603 179.409C331.919 179.409 297.608 166.129 286.117 160.504C286.117 160.376 286.133 160.152 286.197 159.769C286.501 157.963 287.524 155.438 288.546 155.598C308.938 158.522 327.188 162.198 336.265 164.115C336.713 164.211 337.176 164.115 337.528 163.844C337.895 163.572 338.119 163.156 338.167 162.709C338.439 159.769 338.71 155.773 339.046 151.171C340.133 135.845 341.939 110.212 345.151 104.778C347.18 101.358 350.52 99.3768 354.036 99.3768H354.068Z" fill="#303030"/>
</svg>
