<svg width="85" height="85" viewBox="0 0 85 85" fill="none" xmlns="http://www.w3.org/2000/svg">
<path d="M76.8001 40.0598L83.9301 37.9099C83.5801 35.2299 82.9801 32.6199 82.1201 30.0699L74.7201 31.0999C73.7001 28.4199 72.3401 25.8399 70.6501 23.4499L75.7001 18.0598C74.0701 15.9398 72.2201 13.9598 70.1601 12.1498L64.3201 16.6999C63.1901 15.7899 62.0301 14.9398 60.7701 14.1498C59.5201 13.3698 58.2401 12.6799 56.9301 12.0699L58.5601 4.87985C56.0301 3.81985 53.4301 3.00984 50.8001 2.45984L48.0701 9.29984C45.1501 8.80984 42.2301 8.69985 39.3601 8.93985L37.1201 1.85986C34.4301 2.18986 31.7901 2.77986 29.2001 3.60986L30.3101 10.9199C27.5901 11.9099 24.9901 13.2299 22.6001 14.8799L17.1001 9.84985C14.9801 11.4399 12.9801 13.2498 11.1601 15.2798L15.8101 21.0898C14.9001 22.1898 14.0301 23.3499 13.2501 24.5799C12.4701 25.8099 11.7901 27.0799 11.1801 28.3599L3.89013 26.6999C2.83013 29.1999 2.04013 31.7598 1.50013 34.3398L8.44012 37.1099C7.97012 39.9599 7.88013 42.8598 8.15013 45.7098L1.01013 47.8599C1.37013 50.5299 1.97013 53.1498 2.82013 55.6898L10.2301 54.6599C11.2501 57.3399 12.6001 59.9098 14.3001 62.2998L9.23013 67.6898C10.8601 69.8099 12.7101 71.7899 14.7701 73.5999L20.6201 69.0598C21.7301 69.9698 22.9101 70.8199 24.1601 71.5999C25.4201 72.3899 26.6901 73.0698 28.0101 73.6898L26.3701 80.8698C28.9001 81.9398 31.5001 82.7399 34.1301 83.2899L36.8701 76.4499C39.7601 76.9399 42.6901 77.0498 45.5801 76.8098L47.8201 83.8799C50.5101 83.5499 53.1501 82.9599 55.7301 82.1399L54.6301 74.8299C57.3401 73.8499 59.9301 72.5098 62.3301 70.8698L67.8301 75.8899C69.9501 74.2999 71.9501 72.4898 73.7601 70.4698L69.1101 64.6498C70.0301 63.5598 70.8801 62.3999 71.6601 61.1699C72.4401 59.9399 73.1401 58.6699 73.7401 57.3799L81.0301 59.0498C82.1001 56.5498 82.8901 53.9798 83.4301 51.3998L76.4901 48.6299C76.9601 45.7799 77.0501 42.8898 76.7901 40.0298L76.8001 40.0598ZM56.1201 51.4398C51.4001 58.8498 41.4601 61.0399 33.9201 56.3199C26.3801 51.5999 24.1001 41.7598 28.8201 34.3398C33.5501 26.9198 43.4901 24.7398 51.0301 29.4598C58.5701 34.1798 60.8501 44.0199 56.1201 51.4398Z" fill="#245A7C"/>
<path d="M47.8201 84.8999C47.3901 84.8999 47.0001 84.6199 46.8701 84.1999L44.8701 77.8799C42.4001 78.0299 39.9401 77.9299 37.5101 77.5699L35.0701 83.6699C34.8901 84.1199 34.4101 84.3799 33.9401 84.2799C31.2401 83.7199 28.5701 82.8799 26.0001 81.7999C25.5501 81.6099 25.3001 81.1299 25.4101 80.6599L26.8701 74.2599C25.7501 73.7099 24.6901 73.1199 23.6401 72.4699C22.6101 71.8199 21.6001 71.1099 20.6201 70.3499L15.3901 74.4099C15.0101 74.6999 14.4701 74.6899 14.1201 74.3699C12.0301 72.5299 10.1201 70.4899 8.4501 68.3199C8.1501 67.9299 8.18011 67.3799 8.51011 67.0299L13.0201 62.2299C11.6601 60.2199 10.5101 58.0599 9.58011 55.7799L2.9501 56.6999C2.4701 56.7699 2.02011 56.4799 1.86011 56.0299C1.00011 53.4499 0.380109 50.7499 0.0101086 48.0099C-0.0598914 47.5199 0.240106 47.0599 0.710106 46.9199L7.08011 44.9999C6.91011 42.5799 6.99011 40.1499 7.33011 37.7499L1.1301 35.2799C0.680104 35.0999 0.420103 34.6199 0.520103 34.1499C1.0901 31.4499 1.91011 28.8099 2.97011 26.3199C3.16011 25.8699 3.64011 25.6299 4.11011 25.7399L10.6301 27.2299C11.2001 26.0899 11.7901 25.0399 12.4101 24.0599C13.0401 23.0799 13.7301 22.1099 14.5301 21.1099L10.3801 15.9299C10.0701 15.5499 10.0901 14.9999 10.4201 14.6399C12.2401 12.6199 14.2801 10.7499 16.5001 9.07994C16.8801 8.78994 17.4201 8.81994 17.7801 9.13994L22.7001 13.6399C24.7201 12.3199 26.9001 11.1999 29.2001 10.2999L28.2101 3.78994C28.1401 3.29994 28.4201 2.83993 28.8901 2.68993C31.5201 1.83993 34.2501 1.23992 36.9901 0.899921C37.4701 0.839921 37.9201 1.12992 38.0701 1.58992L40.0801 7.90993C42.5501 7.75993 45.0201 7.85992 47.4501 8.20992L49.8801 2.10994C50.0601 1.65994 50.5401 1.39993 51.0101 1.49993C53.7001 2.05993 56.3801 2.89994 58.9501 3.97994C59.4001 4.16994 59.6401 4.64992 59.5401 5.11992L58.0901 11.5299C59.2301 12.0899 60.2901 12.6799 61.3101 13.3199C62.3201 13.9599 63.3201 14.6499 64.3401 15.4399L69.5601 11.3699C69.9401 11.0799 70.4701 11.0899 70.8401 11.4099C72.9301 13.2499 74.8401 15.2899 76.5101 17.4599C76.8101 17.8499 76.7801 18.3999 76.4501 18.7499L71.9501 23.5499C73.3101 25.5799 74.4601 27.7399 75.3801 29.9999L82.0001 29.0799C82.4701 29.0099 82.9301 29.2999 83.0901 29.7499C83.9501 32.3299 84.5801 35.0399 84.9401 37.7799C85.0001 38.2699 84.7101 38.7299 84.2401 38.8699L77.8801 40.7899C78.0401 43.2199 77.9601 45.6499 77.6301 48.0299L83.8301 50.4999C84.2801 50.6799 84.5401 51.1599 84.4401 51.6299C83.8701 54.3499 83.0401 56.9799 81.9801 59.4699C81.7901 59.9099 81.3101 60.1599 80.8401 60.0499L74.3301 58.5599C73.7901 59.6399 73.1901 60.7099 72.5401 61.7299C71.8901 62.7499 71.1801 63.7399 70.4301 64.6799L74.5701 69.8599C74.8701 70.2399 74.8601 70.7899 74.5301 71.1499C72.7301 73.1599 70.6801 75.0299 68.4601 76.7099C68.0801 76.9999 67.5401 76.9699 67.1801 76.6499L62.2601 72.1499C60.2201 73.4899 58.0401 74.6099 55.7601 75.4999L56.7401 82.0199C56.8101 82.5099 56.5201 82.9699 56.0501 83.1199C53.3801 83.9699 50.6601 84.5699 47.9601 84.8999C47.9201 84.8999 47.8801 84.8999 47.8401 84.8999H47.8201ZM45.5901 75.8299C46.0201 75.8299 46.4101 76.1099 46.5401 76.5299L48.5301 82.7999C50.5701 82.5099 52.6101 82.0599 54.6301 81.4599L53.6601 74.9999C53.5901 74.5299 53.8601 74.0699 54.3101 73.9099C56.9501 72.9499 59.4701 71.6599 61.7901 70.0599C62.1701 69.7999 62.6801 69.8299 63.0301 70.1499L67.9101 74.6099C69.5501 73.3299 71.0801 71.9299 72.4701 70.4499L68.3601 65.2999C68.0601 64.9299 68.0701 64.3999 68.3801 64.0299C69.2701 62.9699 70.1101 61.8299 70.8501 60.6599C71.6001 59.4799 72.2801 58.2399 72.8601 56.9899C73.0601 56.5599 73.5301 56.3299 73.9901 56.4399L80.4501 57.9199C81.2101 56.0399 81.8201 54.0699 82.2901 52.0499L76.1401 49.5999C75.7001 49.4299 75.4501 48.9699 75.5201 48.5099C75.9701 45.7799 76.0701 42.9699 75.8101 40.1699C75.7701 39.6999 76.0601 39.2599 76.5201 39.1199L82.8301 37.2199C82.5201 35.1699 82.0501 33.1499 81.4401 31.1899L74.8701 32.1099C74.4201 32.1799 73.9601 31.9099 73.8001 31.4799C72.8001 28.8499 71.4701 26.3499 69.8501 24.0499C69.5801 23.6599 69.6101 23.1399 69.9401 22.7899L74.4001 18.0299C73.1101 16.4199 71.6801 14.8999 70.1301 13.4799L64.9501 17.5199C64.5801 17.8099 64.0701 17.7999 63.7101 17.5099C62.5401 16.5599 61.4101 15.7499 60.2501 15.0299C59.0901 14.3099 57.8701 13.6499 56.5201 13.0099C56.1001 12.8099 55.8701 12.3399 55.9701 11.8799L57.4101 5.51992C55.4501 4.73992 53.4501 4.11992 51.4301 3.64992L49.0201 9.70992C48.8501 10.1499 48.3801 10.4099 47.9201 10.3299C45.1401 9.85994 42.3001 9.73994 39.4601 9.97994C39.0001 10.0199 38.5601 9.72994 38.4201 9.28994L36.4301 3.01992C34.3701 3.31992 32.3201 3.76992 30.3301 4.36992L31.3101 10.8299C31.3801 11.2999 31.1101 11.7599 30.6601 11.9199C27.9801 12.8999 25.4601 14.1899 23.1701 15.7599C22.7901 16.0199 22.2701 15.9899 21.9301 15.6699L17.0501 11.2099C15.4101 12.4899 13.8801 13.8899 12.4801 15.3799L16.6001 20.5199C16.9001 20.8899 16.8901 21.4199 16.6001 21.7799C15.6401 22.9399 14.8301 24.0499 14.1101 25.1699C13.4001 26.2799 12.7401 27.4799 12.1001 28.8399C11.9001 29.2599 11.4301 29.4899 10.9701 29.3899L4.50011 27.9099C3.75011 29.7999 3.1301 31.7599 2.6701 33.7699L8.82011 36.2199C9.26011 36.3899 9.5101 36.8499 9.4401 37.3099C8.9901 40.0599 8.8901 42.8699 9.1601 45.6599C9.2101 46.1299 8.9101 46.5699 8.4501 46.7099L2.1301 48.6099C2.4501 50.6599 2.9201 52.6699 3.5201 54.6299L10.1001 53.7199C10.5501 53.6599 11.0101 53.9199 11.1701 54.3599C12.1701 57.0099 13.5001 59.4999 15.1201 61.7799C15.4001 62.1699 15.3601 62.6999 15.0301 63.0499L10.5501 67.8099C11.8401 69.4199 13.2701 70.9399 14.8201 72.3599L20.0101 68.3299C20.3801 68.0399 20.8901 68.0499 21.2601 68.3399C22.3601 69.2399 23.5201 70.0699 24.7001 70.8099C25.9001 71.5599 27.1201 72.2199 28.4401 72.8399C28.8701 73.0399 29.1001 73.5099 28.9901 73.9699L27.5401 80.3299C29.4901 81.0999 31.5001 81.7299 33.5201 82.1999L35.9401 76.1399C36.1201 75.6999 36.5801 75.4499 37.0301 75.5299C39.8101 75.9999 42.6601 76.1199 45.4901 75.8799C45.5201 75.8799 45.5501 75.8799 45.5701 75.8799L45.5901 75.8299ZM42.5601 59.7999C39.4201 59.7999 36.2401 58.9499 33.3901 57.1599C29.4901 54.7099 26.7801 50.9099 25.7801 46.4599C24.7901 42.0799 25.5701 37.5799 27.9801 33.7999C32.9901 25.9299 43.5701 23.6099 51.5601 28.6099C55.4601 31.0499 58.1601 34.8499 59.1701 39.3099C60.1601 43.6899 59.3801 48.1899 56.9701 51.9799C53.7501 57.0399 48.2201 59.7999 42.5701 59.7999H42.5601ZM42.3801 27.9699C37.3801 27.9699 32.5101 30.4099 29.6701 34.8699C27.5501 38.1999 26.8601 42.1599 27.7301 46.0199C28.6201 49.9499 31.0001 53.2999 34.4501 55.4599C41.5101 59.8799 50.8601 57.8399 55.2801 50.8999C57.4001 47.5699 58.0901 43.6099 57.2201 39.7499C56.3301 35.8199 53.9501 32.4699 50.5001 30.3099C47.9801 28.7299 45.1601 27.9699 42.3801 27.9699Z" fill="#303030"/>
</svg>
