<svg width="236" height="155" viewBox="0 0 236 155" fill="none" xmlns="http://www.w3.org/2000/svg">
<path d="M220.501 71.9938L233.69 68.0094C233.033 63.0649 231.928 58.2125 230.35 53.4917L216.648 55.3984C214.754 50.4277 212.229 45.6674 209.126 41.249L218.476 31.2812C215.464 27.3493 212.032 23.6936 208.219 20.3404L197.409 28.7564C195.318 27.0732 193.175 25.4952 190.834 24.0355C188.52 22.589 186.14 21.3135 183.733 20.1826L186.744 6.87467C182.063 4.90216 177.25 3.40308 172.385 2.39053L167.335 15.054C161.93 14.1335 156.526 13.9363 151.2 14.3834L147.044 1.28589C142.074 1.90394 137.182 2.98225 132.382 4.53396L134.433 18.0654C129.397 19.9064 124.597 22.3392 120.166 25.39L109.988 16.0929C106.069 19.0385 102.374 22.3918 98.9941 26.1395L107.607 36.8831C105.924 38.9082 104.32 41.0649 102.873 43.3398C101.427 45.6148 100.164 47.9555 99.0335 50.3357L85.5416 47.2586C83.5822 51.8742 82.1225 56.6214 81.1231 61.408L93.9576 66.5366C93.0897 71.8097 92.9187 77.1881 93.4184 82.4613L80.2026 86.4457C80.8733 91.377 81.9779 96.2294 83.5559 100.95L97.2714 99.0435C99.1519 104.001 101.65 108.761 104.82 113.193L95.4436 123.161C98.4549 127.093 101.887 130.748 105.701 134.102L116.523 125.686C118.588 127.369 120.771 128.947 123.072 130.393C125.399 131.853 127.753 133.115 130.186 134.259L127.162 147.554C131.843 149.527 136.656 151.026 141.521 152.038L146.597 139.375C151.949 140.282 157.38 140.493 162.719 140.045L166.862 153.13C171.845 152.512 176.724 151.433 181.511 149.908L179.486 136.363C184.496 134.536 189.309 132.076 193.74 129.026L203.918 138.323C207.837 135.377 211.532 132.024 214.886 128.289L206.285 117.519C207.982 115.507 209.56 113.364 211.006 111.076C212.453 108.801 213.742 106.447 214.846 104.067L228.325 107.157C230.311 102.528 231.77 97.7811 232.77 92.9945L219.922 87.866C220.79 82.5928 220.961 77.2407 220.474 71.9544L220.501 71.9938ZM182.221 93.0471C173.476 106.763 155.079 110.813 141.127 102.068C127.175 93.3232 122.953 75.1104 131.685 61.3949C140.43 47.6662 158.827 43.6291 172.792 52.3739C186.744 61.1187 190.966 79.3184 182.221 93.0471Z" fill="#EBEBEB"/>
<path d="M166.861 154.458C166.296 154.458 165.783 154.09 165.612 153.537L161.785 141.439C156.986 141.755 152.173 141.558 147.439 140.848L142.757 152.538C142.521 153.13 141.889 153.472 141.271 153.34C136.314 152.301 131.396 150.776 126.662 148.777C126.07 148.527 125.741 147.896 125.886 147.278L128.687 135.009C126.491 133.944 124.413 132.8 122.388 131.524C120.376 130.262 118.403 128.868 116.523 127.382L106.516 135.154C106.016 135.535 105.319 135.522 104.846 135.101C101.006 131.721 97.4947 127.974 94.4176 123.976C94.0231 123.463 94.0626 122.74 94.4965 122.28L103.136 113.088C100.453 109.182 98.2048 104.961 96.4296 100.503L83.7529 102.265C83.1217 102.357 82.5299 101.976 82.3195 101.384C80.7415 96.637 79.5843 91.6663 78.9137 86.6429C78.8216 85.9986 79.2161 85.3937 79.8342 85.2096L92.0375 81.5276C91.6693 76.8067 91.8271 72.0595 92.524 67.3913L80.6495 62.6572C80.0577 62.4205 79.7158 61.7893 79.8473 61.1713C80.8862 56.2005 82.3985 51.3613 84.3447 46.7851C84.5945 46.1933 85.2257 45.8778 85.8438 46.0224L98.3232 48.8628C99.4278 46.601 100.572 44.5759 101.769 42.6691C102.991 40.7624 104.346 38.8688 105.924 36.9094L97.9813 26.9943C97.5736 26.4946 97.5999 25.7713 98.0339 25.2979C101.374 21.5896 105.135 18.1443 109.211 15.0671C109.711 14.6858 110.421 14.7252 110.895 15.146L120.31 23.7462C124.242 21.1425 128.503 18.9596 133 17.2369L131.106 4.75749C131.014 4.11314 131.382 3.50823 132.001 3.31098C136.853 1.74612 141.863 0.641502 146.9 0.0102985C147.531 -0.0686019 148.122 0.312753 148.32 0.917656L152.16 13.0157C156.972 12.687 161.799 12.8842 166.519 13.6075L171.175 1.91707C171.411 1.32532 172.042 0.983439 172.661 1.11494C177.605 2.14064 182.523 3.6792 187.27 5.67801C187.862 5.92787 188.178 6.55905 188.046 7.1771L185.271 19.4593C187.52 20.5507 189.585 21.6948 191.557 22.9309C193.53 24.167 195.463 25.5346 197.435 27.0863L207.416 19.3015C207.916 18.9201 208.626 18.9333 209.099 19.3541C212.952 22.7468 216.45 26.4814 219.527 30.479C219.922 30.9919 219.882 31.7151 219.448 32.1754L210.822 41.3673C213.505 45.2991 215.753 49.5335 217.515 53.9519L230.192 52.1898C230.81 52.0977 231.415 52.4791 231.625 53.0708C233.217 57.818 234.361 62.7756 235.018 67.8384C235.097 68.4827 234.716 69.0876 234.098 69.2717L221.921 72.9537C222.276 77.7009 222.105 82.4481 221.421 87.0769L233.282 91.8109C233.874 92.0476 234.216 92.6788 234.084 93.2969C233.046 98.2939 231.52 103.133 229.561 107.709C229.311 108.288 228.68 108.617 228.062 108.472L215.609 105.619C214.583 107.736 213.413 109.813 212.137 111.825C210.875 113.811 209.481 115.744 207.995 117.572L215.924 127.5C216.319 128 216.306 128.723 215.872 129.197C212.558 132.905 208.797 136.337 204.707 139.414C204.208 139.796 203.497 139.756 203.024 139.335L193.609 130.735C189.637 133.365 185.39 135.561 180.945 137.258L182.812 149.737C182.904 150.381 182.523 150.986 181.905 151.183C177 152.748 171.99 153.853 167.019 154.458C166.967 154.458 166.914 154.458 166.861 154.458ZM162.719 138.73C163.285 138.73 163.797 139.099 163.968 139.651L167.782 151.696C171.872 151.131 175.987 150.224 180.038 149.001L178.17 136.574C178.078 135.956 178.433 135.351 179.025 135.14C183.956 133.352 188.651 130.932 192.977 127.96C193.477 127.619 194.148 127.658 194.608 128.079L203.971 136.64C207.285 134.075 210.362 131.261 213.136 128.263L205.233 118.374C204.839 117.887 204.852 117.191 205.26 116.704C206.93 114.718 208.481 112.601 209.875 110.405C211.282 108.196 212.545 105.895 213.636 103.541C213.899 102.975 214.517 102.673 215.122 102.818L227.523 105.671C229.074 101.897 230.31 97.9257 231.231 93.8492L219.422 89.1414C218.844 88.9179 218.515 88.313 218.607 87.7081C219.448 82.619 219.633 77.3722 219.146 72.1253C219.093 71.5072 219.475 70.9286 220.08 70.7445L232.191 67.0888C231.586 62.9465 230.652 58.8832 229.403 54.9644L216.792 56.7265C216.187 56.8186 215.595 56.4635 215.385 55.8981C213.518 50.9931 211.046 46.3249 208.008 42.0379C207.653 41.5251 207.692 40.8413 208.126 40.381L216.713 31.2286C214.136 27.9805 211.256 24.9034 208.139 22.0761L198.198 29.8215C197.711 30.2029 197.041 30.1897 196.567 29.8084C194.384 28.0462 192.28 26.534 190.124 25.1795C187.967 23.8251 185.692 22.589 183.167 21.4055C182.615 21.1425 182.313 20.5244 182.444 19.9195L185.206 7.7031C181.287 6.11194 177.25 4.8627 173.173 3.9422L168.531 15.58C168.308 16.1586 167.69 16.5005 167.085 16.3953C161.904 15.5143 156.591 15.2907 151.292 15.7378C150.7 15.7904 150.108 15.4091 149.924 14.8304L146.097 2.78498C141.955 3.36359 137.839 4.27094 133.828 5.49389L135.722 17.9207C135.814 18.5388 135.459 19.1437 134.867 19.3541C129.87 21.1819 125.162 23.5884 120.889 26.5208C120.389 26.8627 119.705 26.8233 119.258 26.4025L109.895 17.8418C106.581 20.4061 103.491 23.2202 100.703 26.2315L108.607 36.0941C109.001 36.5806 108.988 37.2776 108.607 37.751C106.818 39.9208 105.293 41.9853 103.965 44.0762C102.65 46.1407 101.427 48.3894 100.204 50.9274C99.9406 51.4797 99.3226 51.7821 98.7177 51.6506L86.304 48.8234C84.7655 52.6106 83.5294 56.5687 82.6088 60.6321L94.4176 65.3399C94.9962 65.5634 95.325 66.1683 95.2329 66.7732C94.3913 71.9017 94.2072 77.1486 94.7069 82.356C94.7727 82.9741 94.3782 83.5527 93.7733 83.7368L81.6358 87.3925C82.2538 91.5085 83.1875 95.5718 84.4367 99.5037L97.0608 97.7548C97.6788 97.6759 98.2574 98.0177 98.4678 98.5963C100.335 103.541 102.821 108.196 105.845 112.443C106.213 112.956 106.161 113.653 105.727 114.113L97.1265 123.266C99.7039 126.514 102.584 129.591 105.7 132.418L115.655 124.686C116.142 124.305 116.812 124.318 117.299 124.712C119.35 126.382 121.507 127.934 123.716 129.328C125.951 130.722 128.226 131.971 130.686 133.115C131.251 133.378 131.553 133.996 131.409 134.601L128.621 146.804C132.54 148.382 136.577 149.645 140.653 150.565L145.308 138.928C145.545 138.349 146.15 138.02 146.742 138.125C151.936 139.006 157.249 139.217 162.535 138.783C162.574 138.783 162.601 138.783 162.64 138.783L162.719 138.73ZM157.117 107.999C151.397 107.999 145.611 106.447 140.43 103.199C133.329 98.7541 128.411 91.8372 126.57 83.7368C124.768 75.7678 126.188 67.5885 130.58 60.711C139.693 46.4037 158.945 42.1694 173.489 51.2824C180.59 55.7272 185.508 62.6441 187.336 70.7445C189.138 78.7135 187.717 86.906 183.325 93.7835C177.46 102.988 167.414 108.012 157.117 108.012V107.999ZM156.788 49.0864C147.36 49.0864 138.168 53.6889 132.803 62.1049C128.805 68.3906 127.503 75.8599 129.147 83.145C130.817 90.5617 135.327 96.8869 141.837 100.963C155.145 109.314 172.779 105.448 181.116 92.3501C185.127 86.0643 186.429 78.582 184.785 71.2968C183.115 63.8802 178.604 57.5682 172.108 53.4916C167.348 50.5066 162.035 49.0864 156.802 49.0864H156.788Z" fill="#303030"/>
<path d="M100.993 94.9012L110.369 92.0739C109.908 88.5497 109.119 85.1176 107.989 81.7643L98.2575 83.1187C96.9162 79.5945 95.1278 76.2018 92.9054 73.059L99.5462 65.9711C97.4028 63.1832 94.97 60.5795 92.2611 58.1994L84.5814 64.1827C83.0955 62.986 81.5701 61.8682 79.9132 60.8294C78.2694 59.8037 76.5862 58.8963 74.8635 58.0942L77.007 48.6393C73.68 47.2454 70.261 46.1802 66.8025 45.4569L63.2126 54.4516C59.3728 53.8072 55.5329 53.6626 51.7589 53.9782L48.8133 44.668C45.2759 45.1019 41.8043 45.8778 38.3984 46.9692L39.8581 56.5819C36.2812 57.8838 32.8622 59.6196 29.7194 61.7893L22.4868 55.1749C19.699 57.2657 17.069 59.6459 14.6757 62.3153L20.7905 69.9555C19.5938 71.402 18.4498 72.9275 17.424 74.5449C16.3983 76.1624 15.5041 77.8324 14.702 79.5156L5.11558 77.3327C3.72168 80.6202 2.68282 83.9866 1.97272 87.3794L11.0989 91.022C10.4808 94.7697 10.3625 98.5832 10.7175 102.331L1.32837 105.158C1.80177 108.669 2.59077 112.115 3.70853 115.455L13.4527 114.1C14.794 117.625 16.5693 121.004 18.8048 124.147L12.1377 131.235C14.2812 134.023 16.7139 136.626 19.4229 139.007L27.1156 133.036C28.5753 134.233 30.127 135.351 31.7708 136.377C33.4277 137.415 35.0977 138.31 36.8335 139.125L34.6769 148.567C38.0039 149.974 41.4229 151.026 44.8814 151.749L48.4845 142.754C52.2849 143.399 56.1378 143.543 59.9382 143.228L62.8838 152.525C66.4212 152.091 69.8928 151.315 73.2855 150.237L71.839 140.624C75.4027 139.335 78.8086 137.573 81.9646 135.417L89.1971 142.018C91.9849 139.927 94.6149 137.547 96.9951 134.891L90.8803 127.237C92.0901 125.804 93.2079 124.278 94.2336 122.661C95.2593 121.044 96.1798 119.373 96.9688 117.677L106.555 119.873C107.962 116.586 109.001 113.206 109.711 109.813L100.585 106.171C101.203 102.423 101.321 98.6227 100.98 94.8617L100.993 94.9012ZM73.7984 109.866C67.5916 119.61 54.5204 122.49 44.6052 116.283C34.6901 110.076 31.6919 97.1367 37.8987 87.3794C44.1187 77.622 57.1898 74.7553 67.105 80.9621C77.0201 87.1689 80.0184 100.109 73.7984 109.866Z" fill="#245A7C"/>
<path d="M62.8838 153.866C62.3183 153.866 61.8055 153.498 61.6345 152.946L59.0045 144.635C55.7564 144.832 52.5215 144.701 49.326 144.227L46.1174 152.249C45.8807 152.84 45.2495 153.182 44.6315 153.051C41.0809 152.314 37.5699 151.21 34.1903 149.79C33.5986 149.54 33.2698 148.909 33.4145 148.29L35.3344 139.874C33.8616 139.151 32.4677 138.375 31.0869 137.521C29.7324 136.666 28.4043 135.732 27.1156 134.733L20.2381 140.072C19.7384 140.453 19.0283 140.44 18.568 140.019C15.8197 137.599 13.308 134.917 11.1119 132.063C10.7174 131.55 10.7569 130.827 11.1908 130.367L17.1215 124.055C15.3331 121.412 13.8209 118.571 12.5979 115.573L3.87941 116.783C3.2482 116.875 2.65645 116.494 2.44605 115.902C1.31515 112.509 0.499845 108.959 0.0132929 105.356C-0.0787575 104.711 0.31574 104.106 0.933794 103.922L9.31039 101.397C9.08684 98.215 9.19204 95.0196 9.63914 91.8636L1.48609 88.6155C0.894341 88.3788 0.552438 87.7476 0.683939 87.1295C1.43349 83.579 2.5118 80.1074 3.90571 76.833C4.15556 76.2413 4.78676 75.9257 5.40482 76.0703L13.9787 78.0297C14.7282 76.5306 15.5041 75.1498 16.3194 73.8611C17.1478 72.5724 18.0552 71.2969 19.1072 69.9819L13.6499 63.1701C13.2423 62.6704 13.2686 61.9472 13.7025 61.4738C16.0958 58.8175 18.7784 56.3584 21.6978 54.1623C22.1975 53.781 22.9076 53.8204 23.381 54.2412L29.8508 60.1588C32.5071 58.423 35.3738 56.9501 38.3983 55.7666L37.0965 47.206C37.0044 46.5616 37.3726 45.9567 37.9907 45.7594C41.4492 44.6417 45.0391 43.8527 48.6422 43.4056C49.2734 43.3267 49.8652 43.708 50.0624 44.3129L52.7056 52.6238C55.9537 52.4265 59.2017 52.558 62.3972 53.0183L65.5927 44.9967C65.8294 44.405 66.4606 44.0631 67.0786 44.1946C70.616 44.931 74.1402 46.0356 77.5198 47.4558C78.1115 47.7057 78.4271 48.3368 78.2956 48.9549L76.3889 57.3841C77.888 58.1205 79.2819 58.8964 80.6232 59.738C81.9514 60.5796 83.2664 61.4869 84.6077 62.5258L91.472 57.1737C91.9717 56.7923 92.6687 56.8055 93.1552 57.2263C95.9036 59.6459 98.4152 62.3285 100.611 65.1821C101.006 65.6949 100.966 66.4182 100.532 66.8784L94.6149 73.1905C96.4033 75.8599 97.9155 78.7003 99.1253 81.6723L107.831 80.4625C108.449 80.3704 109.054 80.7518 109.264 81.3435C110.395 84.7362 111.223 88.2999 111.697 91.903C111.776 92.5474 111.394 93.1523 110.776 93.3364L102.413 95.8612C102.623 99.0567 102.518 102.252 102.084 105.382L110.237 108.63C110.829 108.867 111.171 109.498 111.039 110.116C110.29 113.693 109.198 117.151 107.804 120.426C107.555 121.004 106.923 121.333 106.305 121.188L97.7446 119.229C97.0345 120.649 96.2455 122.056 95.3907 123.397C94.536 124.739 93.6023 126.041 92.6161 127.277L98.0602 134.088C98.4547 134.588 98.4415 135.311 98.0076 135.785C95.6406 138.428 92.9448 140.887 90.0255 143.096C89.5258 143.478 88.8157 143.438 88.3423 143.017L81.8725 137.1C79.1898 138.862 76.3231 140.335 73.3249 141.505L74.6136 150.079C74.7057 150.723 74.3243 151.328 73.7063 151.525C70.1952 152.643 66.6184 153.432 63.0679 153.866C63.0153 153.866 62.9627 153.866 62.9101 153.866H62.8838ZM59.9513 141.939C60.5168 141.939 61.0296 142.307 61.2006 142.86L63.8174 151.105C66.5 150.723 69.1826 150.131 71.839 149.342L70.5634 140.848C70.4713 140.229 70.8264 139.625 71.4182 139.414C74.8898 138.152 78.2036 136.455 81.2544 134.351C81.7541 134.01 82.4247 134.049 82.885 134.47L89.3022 140.335C91.4588 138.652 93.4708 136.811 95.2987 134.864L89.894 128.092C89.4995 127.605 89.5126 126.908 89.9203 126.422C91.0906 125.028 92.1953 123.529 93.1684 121.99C94.1546 120.439 95.0488 118.808 95.8115 117.164C96.0745 116.599 96.6926 116.296 97.2975 116.441L105.792 118.387C106.792 115.915 107.594 113.324 108.212 110.668L100.125 107.446C99.5461 107.223 99.2174 106.618 99.3094 106.013C99.9012 102.423 100.033 98.7279 99.6908 95.0459C99.6382 94.4278 100.02 93.8492 100.624 93.6651L108.922 91.1666C108.514 88.4708 107.896 85.8145 107.094 83.2371L98.4547 84.4469C97.8629 84.539 97.258 84.1839 97.0476 83.6185C95.7326 80.16 93.9837 76.8725 91.8533 73.848C91.4983 73.3351 91.5377 72.6513 91.9717 72.1911L97.8366 65.9316C96.1403 63.8145 94.2598 61.8157 92.2215 59.9484L85.4098 65.261C84.9233 65.6423 84.2526 65.6292 83.7792 65.2478C82.2407 63.9986 80.7547 62.9334 79.2293 61.9866C77.7039 61.0398 76.0996 60.1719 74.3243 59.3303C73.772 59.0673 73.4696 58.4493 73.6011 57.8443L75.4947 49.4809C72.9173 48.4552 70.2872 47.6399 67.6309 47.0218L64.4618 54.9908C64.2382 55.5694 63.6202 55.9113 63.0153 55.8061C59.3595 55.1881 55.6249 55.0302 51.8903 55.3458C51.2854 55.3984 50.7068 55.0171 50.5227 54.4385L47.9058 46.1934C45.1969 46.5879 42.5012 47.1796 39.8843 47.9686L41.173 56.4636C41.265 57.0817 40.91 57.6866 40.3182 57.897C36.794 59.1857 33.4802 60.882 30.4688 62.9466C29.9691 63.2885 29.2853 63.249 28.8382 62.8282L22.421 56.9633C20.2644 58.6465 18.2524 60.4875 16.4114 62.4469L21.8292 69.206C22.2238 69.6925 22.2106 70.3895 21.8292 70.8629C20.5668 72.3883 19.5017 73.848 18.5549 75.3208C17.6212 76.7805 16.7533 78.3584 15.9117 80.1469C15.6487 80.6992 15.0307 81.0016 14.4258 80.8701L5.91767 78.9239C4.93141 81.4093 4.11611 83.9867 3.51121 86.6298L11.5985 89.8516C12.1771 90.0752 12.5058 90.6801 12.4138 91.285C11.822 94.9012 11.6905 98.5964 12.0456 102.265C12.1113 102.883 11.7168 103.462 11.1119 103.646L2.8011 106.145C3.2219 108.84 3.83996 111.483 4.62896 114.061L13.2817 112.864C13.8735 112.785 14.4784 113.127 14.6888 113.706C16.0038 117.191 17.7527 120.465 19.883 123.463C20.2512 123.976 20.1986 124.673 19.7647 125.133L13.8735 131.393C15.5698 133.51 17.4503 135.509 19.4885 137.376L26.3134 132.076C26.8 131.695 27.4706 131.708 27.9572 132.09C29.4037 133.273 30.9291 134.365 32.4808 135.338C34.0588 136.324 35.6631 137.192 37.3989 138.007C37.9644 138.27 38.2668 138.888 38.1222 139.493L36.2154 147.857C38.7797 148.869 41.4228 149.698 44.0792 150.316L47.2615 142.347C47.4982 141.768 48.1031 141.439 48.6948 141.545C52.3506 142.163 56.0983 142.32 59.8198 142.005C59.8592 142.005 59.8987 142.005 59.925 142.005L59.9513 141.939ZM55.9668 120.859C51.8377 120.859 47.656 119.742 43.9082 117.388C38.7797 114.166 35.216 109.169 33.901 103.317C32.5992 97.5575 33.6249 91.64 36.794 86.6693C43.3822 76.3202 57.295 73.2694 67.8019 79.8444C72.9304 83.053 76.4809 88.05 77.8091 93.915C79.1109 99.6747 78.0852 105.592 74.9161 110.576C70.6817 117.23 63.4098 120.859 55.98 120.859H55.9668ZM55.7301 79.0028C49.1551 79.0028 42.751 82.2114 39.0164 88.0763C36.2286 92.4553 35.3212 97.6627 36.4653 102.739C37.6356 107.907 40.7653 112.312 45.3021 115.152C54.5861 120.965 66.8814 118.282 72.6937 109.156C75.4815 104.777 76.3889 99.5695 75.2448 94.4936C74.0745 89.3256 70.9447 84.9203 66.408 82.0799C63.0941 80.0022 59.3858 79.0028 55.7301 79.0028Z" fill="#303030"/>
</svg>
