<svg width="612" height="513" viewBox="0 0 612 513" fill="none" xmlns="http://www.w3.org/2000/svg">
<path d="M466.125 509.602C421.339 494.337 392.42 459.297 392.42 420.296V337.703C392.42 333.51 396.501 328.438 400.864 327.228L470.487 307.769C471.578 307.47 472.598 307.437 473.46 307.669L549.222 328.835C550.894 329.3 551.879 330.758 551.879 332.78V420.296C551.879 459.281 522.942 494.337 478.157 509.602L474.199 510.945C472.862 511.409 471.595 511.459 470.575 511.11L466.125 509.602Z" fill="white"/>
<path d="M472.018 513C471.296 513 470.61 512.884 469.977 512.669L465.527 511.16C420.037 495.663 390.661 459.993 390.661 420.296V337.703C390.661 332.814 395.288 327.062 400.354 325.637L469.977 306.178C471.384 305.78 472.756 305.747 473.953 306.078L549.715 327.244C552.16 327.924 553.62 329.996 553.62 332.764V420.28C553.62 459.977 524.226 495.63 478.737 511.144L474.779 512.486C473.829 512.818 472.879 512.983 472 512.983L472.018 513ZM466.723 508.044L471.173 509.552C471.806 509.768 472.668 509.702 473.601 509.387L477.559 508.044C521.641 493.027 550.12 458.584 550.12 420.296V332.78C550.12 332.051 549.944 330.775 548.73 330.427L472.967 309.26C472.422 309.111 471.736 309.144 470.98 309.36L401.356 328.819C397.733 329.83 394.179 334.239 394.179 337.703V420.296C394.179 458.584 422.658 493.011 466.723 508.044Z" fill="#303030"/>
<path d="M472.141 493.922C437.047 481.955 410.116 454.325 410.116 420.313C410.116 349.206 407.249 342.841 418.56 339.692L470.487 325.189C473.143 324.443 531.931 341.433 531.526 341.317C533.197 341.781 534.182 343.239 534.182 345.261C534.182 416.468 546.355 468.662 472.158 493.939L472.141 493.922Z" fill="#245A7C"/>
<path d="M472.141 495.58C471.93 495.58 471.736 495.547 471.543 495.48C433.16 482.403 408.357 452.899 408.357 420.313C408.357 406.224 408.252 394.572 408.146 385.207C407.759 346.024 407.707 340.985 418.05 338.101L469.977 323.598C470.839 323.366 472.141 323.001 502.484 331.388C523.892 337.305 530.066 339.095 531.984 339.808V339.725C534.464 340.405 535.924 342.477 535.924 345.245C535.924 354.344 536.118 363.129 536.311 371.632C537.648 430.506 538.615 473.038 472.721 495.497C472.528 495.563 472.334 495.596 472.123 495.596L472.141 495.58ZM470.821 326.813L419.052 341.283C411.471 343.405 411.295 347.002 411.664 385.174C411.752 394.555 411.875 406.208 411.875 420.313C411.875 451.308 435.5 479.469 472.141 492.165C535.045 470.469 534.095 429.015 532.811 371.698C532.617 363.195 532.424 354.394 532.424 345.245C532.424 344.35 532.177 343.223 531.034 342.891H530.999C523.505 340.687 475.307 326.963 470.839 326.83L470.821 326.813Z" fill="#303030"/>
<path d="M519.354 355.372C515.115 357.394 468.992 415.407 468.992 415.407C468.992 415.407 427.039 384.411 423.609 383.583C424.119 386.881 424.805 390.03 425.596 393.097C426.335 396.213 472.774 450.827 472.774 450.827L519.16 368.35C519.336 364.09 519.53 359.831 519.336 355.372H519.354Z" fill="white"/>
<path d="M472.774 452.485C472.246 452.485 471.736 452.253 471.402 451.855C457.365 435.346 424.629 396.594 423.872 393.445C422.993 390.03 422.324 386.881 421.849 383.815C421.761 383.268 421.972 382.721 422.412 382.339C422.852 381.975 423.468 381.826 424.031 381.975C427.39 382.787 457.365 404.749 468.64 413.053C478.368 400.837 514.34 355.886 518.545 353.88C519.09 353.632 519.706 353.648 520.233 353.93C520.743 354.212 521.078 354.725 521.095 355.289C521.289 359.632 521.095 363.809 520.955 367.853V368.4C520.919 368.648 520.849 368.897 520.726 369.113L474.34 451.59C474.058 452.087 473.548 452.418 472.95 452.468C472.897 452.468 472.844 452.468 472.792 452.468L472.774 452.485ZM425.966 386.798C426.335 388.688 426.792 390.643 427.32 392.699C428.534 395.516 454.972 427.191 472.493 447.811L517.436 367.903V367.737C517.56 364.952 517.665 362.101 517.665 359.201C509.538 367.803 485.615 397.273 470.399 416.417C470.118 416.766 469.696 417.014 469.221 417.064C468.746 417.13 468.271 416.998 467.901 416.732C454.515 406.837 433.741 391.804 425.966 386.815V386.798Z" fill="#303030"/>
<path d="M-135.965 17.3916C-74.2747 37.4308 131.799 103.996 140.84 101.891C151.5 99.4212 244.66 84.1888 288.284 71.1277C329.376 58.8456 464.278 6.40243 480.021 2.07636C495.747 -2.24971 489.291 24.8172 469.942 34.5633C450.592 44.3094 426.141 58.1992 426.141 58.1992C426.141 58.1992 475.113 61.5308 488.201 65.0447C501.288 68.5586 575.116 99.5041 583.893 103.2C592.689 106.88 603.225 129.157 572.653 129.24C542.081 129.322 517.278 114.952 517.278 114.952C517.278 114.952 573.656 154.898 580.411 160.765C587.957 167.362 603.243 207.556 607.94 215.463C612.619 223.369 612.988 254.43 583.542 231.026C554.077 207.639 545.511 185.064 545.511 185.064L472.035 150.538L413.511 161.213C436.098 170.81 457.347 181.351 463.732 189.357C479.054 208.567 494.516 259.9 496.996 271.42C499.459 282.956 506.425 314.647 499.811 317.912C484.014 325.752 469.361 311.117 458.42 276.691C447.479 242.264 434.127 229.187 417.54 218.363C400.987 207.54 363.097 201.921 353.528 203.048C337.96 204.888 304.327 184.915 300.562 210.076C295.813 241.734 302.673 260.198 320.563 273.061C342.182 288.591 371.751 311.979 386.404 331.885C401.444 352.322 397.469 373.969 390.82 380.964C385.929 386.119 370.643 374.947 351.364 359.499C344.433 353.946 333.193 350.217 326.227 343.521C310.87 328.736 295.76 323.415 277.959 312.99C265.276 305.581 238.661 302.68 218.327 297.243C181.738 287.448 169.126 286.337 122.687 250.452C122.687 250.452 122.669 250.452 122.669 250.436C114.296 245.994 111.376 242.48 107.629 239.778C86.7668 224.761 -81.1175 206.413 -136 200.761V17.3916H-135.965Z" fill="white"/>
<path d="M-135.965 199.12C-80.836 204.772 87.3297 223.104 108.737 238.502C109.881 239.331 110.936 240.226 112.062 241.154C114.753 243.408 117.797 245.961 123.566 249.027C123.672 249.077 123.76 249.143 123.865 249.226C166.1 281.845 179.874 285.459 210.059 293.365C212.838 294.094 215.758 294.857 218.854 295.685C225.75 297.525 233.507 299.116 241.001 300.641C256.076 303.708 270.324 306.608 278.926 311.631C283.939 314.564 288.759 317.1 293.403 319.553C305.206 325.769 316.341 331.637 327.529 342.41C331.24 345.99 336.377 348.758 341.337 351.427C345.453 353.648 349.359 355.737 352.525 358.289C363.941 367.438 385.19 384.478 389.535 379.919C395.252 373.903 399.984 353.267 384.979 332.896C369.482 311.829 337.309 287.232 319.507 274.436C300.545 260.812 294.159 240.905 298.821 209.893C299.63 204.44 301.899 200.495 305.541 198.191C312.946 193.501 324.327 196.202 335.339 198.821C342.217 200.446 348.708 201.987 353.299 201.457C363.185 200.28 401.743 206.081 418.525 217.054C436.238 228.607 449.378 242.546 460.091 276.26C467.391 299.249 476.415 313.437 486.16 317.299C490.347 318.957 494.551 318.691 498.984 316.487C501.394 315.294 502.731 306.724 495.466 272.696L495.272 271.784C493.179 262.105 477.963 209.993 462.325 190.385C458.701 185.843 447.162 177.34 412.79 162.754C412.086 162.456 411.682 161.776 411.77 161.047C411.858 160.334 412.438 159.754 413.177 159.605L471.701 148.931C472.088 148.864 472.475 148.914 472.827 149.08L546.302 183.605C546.707 183.804 547.024 184.136 547.182 184.534C547.27 184.749 555.977 207.009 584.685 229.8C594.026 237.209 601.238 239.679 605.002 236.761C609.98 232.899 608.995 220.667 606.409 216.308C604.773 213.54 601.924 207.059 598.617 199.551C592.425 185.445 583.929 166.135 579.214 162.025C572.6 156.273 516.786 116.709 516.223 116.311C515.466 115.781 515.29 114.786 515.818 114.057C516.346 113.328 517.384 113.112 518.193 113.576C518.439 113.725 542.96 127.632 572.635 127.615C583.489 127.582 589.857 124.731 591.053 119.361C592.372 113.46 587.165 106.432 583.155 104.758C569.399 98.9902 500.162 70.0337 487.691 66.6856C474.92 63.2712 426.476 59.9396 425.983 59.9064C425.227 59.8567 424.576 59.3429 424.4 58.6467C424.224 57.9506 424.541 57.2213 425.209 56.8401C425.455 56.7075 449.924 42.8176 469.097 33.171C482.22 26.5576 489.168 11.4246 486.565 5.4245C486.248 4.67862 485.263 2.42443 480.496 3.73385C474.023 5.50737 446.353 15.817 414.32 27.7676C369.095 44.6243 312.823 65.5916 288.812 72.7686C255.812 82.6473 194.79 93.7028 162.002 99.6532C151.447 101.576 143.813 102.952 141.245 103.548C141.086 103.581 140.875 103.598 140.594 103.598C124.868 103.598 -71.3019 40.2154 -136 19.1817V15.6844C-23.6315 52.2488 131.922 101.493 140.4 100.316C143.057 99.7029 150.726 98.3106 161.333 96.388C194.052 90.4541 254.932 79.3986 287.739 69.6028C311.644 62.459 367.864 41.5082 413.019 24.668C446.458 12.2037 472.862 2.35813 479.511 0.534878C486.547 -1.40439 489.063 2.42443 489.819 4.14822C493.32 12.2202 485.035 28.8781 470.751 36.0716C456.731 43.1326 439.862 52.4643 431.788 56.9892C445.051 57.9837 478.051 60.6523 488.658 63.4866C501.359 66.9011 570.788 95.9239 584.579 101.709C590.384 104.128 596.084 112.847 594.483 120.024C593.568 124.068 589.54 130.88 572.618 130.914H572.354C556.47 130.914 542.257 127.151 532.107 123.455C549.293 135.704 576.875 155.494 581.554 159.555C586.831 164.163 595.134 183.058 601.818 198.258C605.073 205.667 607.887 212.081 609.435 214.667C612.601 220.037 613.833 234.126 607.183 239.297C601.801 243.474 593.463 241.121 582.363 232.303C555.256 210.788 545.722 190.186 544.068 186.257L471.736 152.279L419.193 161.859C444.365 172.815 459.792 181.732 465.087 188.362C481.077 208.418 496.556 261.276 498.667 271.088L498.861 272.016C505.492 302.978 505.985 316.702 500.585 319.388C495.219 322.04 489.907 322.355 484.753 320.316C473.847 316.006 464.401 301.487 456.679 277.171C446.265 244.386 433.582 230.894 416.484 219.739C400.318 209.164 363.202 203.595 353.703 204.705C348.461 205.319 341.654 203.711 334.459 202.004C324.186 199.567 313.579 197.048 307.475 200.91C304.661 202.7 302.955 205.783 302.269 210.324C297.748 240.408 303.535 258.79 321.601 271.768C339.561 284.68 372.05 309.542 387.829 330.974C402.693 351.162 399.791 374.019 392.121 382.107C390.943 383.35 389.43 383.964 387.548 383.964C380.582 383.964 368.655 375.577 350.221 360.792C347.301 358.455 343.536 356.433 339.561 354.295C334.389 351.51 329.042 348.642 324.978 344.731C314.16 334.305 303.219 328.554 291.662 322.454C286.965 319.984 282.11 317.432 277.044 314.448C268.97 309.724 254.352 306.758 240.244 303.873C232.698 302.332 224.888 300.757 217.869 298.868C214.791 298.039 211.871 297.277 209.092 296.547C178.431 288.508 164.429 284.845 121.684 251.828C115.686 248.629 112.379 245.861 109.705 243.623C108.632 242.728 107.612 241.866 106.574 241.121C86.2039 226.452 -80.9767 208.136 -135.982 202.451V199.103L-135.965 199.12Z" fill="#303030"/>
<path d="M517.278 114.952C517.278 114.952 542.081 129.323 572.653 129.24C593.304 129.19 595.169 119.013 591.528 111.289C582.521 115.947 570.982 117.737 563.735 116.908C545.651 114.836 515.871 98.3273 498.544 92.2112C475.377 84.0397 370.537 84.8851 339.086 84.4541C442.606 99.3053 517.295 114.952 517.295 114.952H517.278Z" fill="#EBEBEB"/>
<path d="M516.944 115.731C513.25 114.969 439.158 99.6532 338.927 85.2662L339.068 83.6252C343.835 83.6915 350.308 83.7247 357.925 83.7744C400.248 84.0065 479.036 84.454 498.826 91.432C504.806 93.5536 512.282 96.8852 520.18 100.432C535.132 107.129 552.09 114.736 563.823 116.079C570.349 116.825 581.677 115.416 591.088 110.56L591.932 110.129L592.319 110.957C594.465 115.515 594.395 120.04 592.108 123.355C589.047 127.798 582.504 130.052 572.653 130.085H572.407C543.189 130.085 518.949 116.858 516.961 115.748L516.944 115.731ZM563.629 117.72C551.615 116.344 534.517 108.687 519.442 101.924C511.579 98.3935 504.138 95.062 498.227 92.9735C478.719 86.0949 400.142 85.6474 357.925 85.4153C355.586 85.4153 353.369 85.3822 351.276 85.3822C447.426 99.5372 516.75 113.991 517.471 114.14L517.735 114.239C517.982 114.388 542.556 128.411 572.389 128.411H572.635C581.73 128.394 587.957 126.322 590.631 122.444C593.023 118.963 592.091 114.952 591.07 112.449C581.501 117.14 570.208 118.482 563.612 117.72H563.629Z" fill="#EBEBEB"/>
<path d="M516.61 116.51C511.473 115.449 437.927 100.316 338.804 86.0785C337.89 85.9459 337.239 85.1668 337.309 84.3049C337.379 83.443 338.241 82.78 339.086 82.78C343.853 82.8463 350.326 82.8795 357.925 82.9292C400.301 83.1613 479.194 83.6088 499.125 90.6531C505.141 92.7747 512.617 96.1395 520.532 99.6865C535.431 106.366 552.318 113.941 563.911 115.267C570.507 116.029 581.818 114.405 590.648 109.847C591.088 109.631 591.598 109.582 592.055 109.731C592.513 109.88 592.9 110.212 593.093 110.626C595.362 115.449 595.257 120.256 592.812 123.803C589.593 128.494 582.785 130.881 572.618 130.897H572.354C543.083 130.897 519.459 118.118 516.574 116.51H516.61ZM563.524 118.549C551.369 117.157 534.2 109.466 519.055 102.67C511.209 99.1561 503.804 95.8245 497.911 93.7527C479.3 87.1724 405.983 86.526 362.903 86.2773C453.073 99.8688 516.961 113.195 517.647 113.328C517.841 113.361 518.017 113.444 518.193 113.527C518.439 113.659 542.82 127.566 572.389 127.566H572.635C581.413 127.549 587.394 125.61 589.892 121.98C591.827 119.179 591.369 115.93 590.578 113.593C581.026 118.018 570.032 119.278 563.506 118.532L563.524 118.549Z" fill="#303030"/>
<path d="M345.418 63.5861C345.418 63.5861 400.142 57.702 426.282 58.133C427.707 57.3374 451.19 44.0442 469.942 34.5965C474.216 32.4417 477.805 29.4251 480.725 26.1101C479.247 26.856 477.805 27.5853 476.274 28.3146C458.226 36.8838 435.306 45.0221 414.408 47.3426C395.428 49.4642 364.996 58.6136 345.401 63.5695L345.418 63.5861Z" fill="#EBEBEB"/>
<path d="M345.189 62.774C349.992 61.564 355.427 60.0888 361.197 58.5474C379.35 53.6743 399.914 48.1383 414.303 46.5305C438.877 43.7956 463.416 33.486 475.87 27.5853C477.136 26.972 478.368 26.3588 479.599 25.7455L484.278 23.3918L481.411 26.6571C478.121 30.3865 474.41 33.3037 470.364 35.3424C453.407 43.8951 432.79 55.4478 426.739 58.8623L426.528 58.9783H426.282C400.477 58.5474 346.087 64.3652 345.541 64.4149L345.207 62.7906L345.189 62.774ZM426.053 57.2877C432.069 53.8898 452.615 42.3702 469.537 33.8507C471.982 32.6241 474.304 31.0495 476.468 29.1599C463.855 35.1269 439.229 45.42 414.531 48.1714C400.265 49.7626 379.772 55.2821 361.689 60.1386C359.737 60.669 357.819 61.1828 355.937 61.68C372.402 60.0888 404.153 57.2711 423.467 57.2711C424.347 57.2711 425.209 57.2711 426.036 57.2877H426.053Z" fill="#EBEBEB"/>
<path d="M343.694 63.8845C343.518 63.0392 344.081 62.1938 344.961 61.9784C349.745 60.7684 355.199 59.3098 360.968 57.7517C379.139 52.8621 399.755 47.3261 414.215 45.7017C438.648 42.9834 463.099 32.707 475.483 26.8394C476.732 26.2427 477.928 25.6294 479.142 25.0327L479.898 24.6515C480.637 24.2703 481.551 24.4526 482.097 25.0659C482.624 25.6792 482.624 26.5576 482.097 27.1709C478.737 30.9832 474.937 33.9667 470.786 36.0551C453.846 44.5912 433.248 56.144 427.197 59.5584C426.915 59.7242 426.563 59.807 426.264 59.7905C400.529 59.3761 346.175 65.1773 345.629 65.2271C345.559 65.2271 345.489 65.2271 345.436 65.2271C344.609 65.2271 343.87 64.6635 343.712 63.8845H343.694ZM425.807 56.4589C431.682 53.1439 449.783 43 465.808 34.7954C452.298 40.4143 433.494 46.8951 414.619 48.9836C401.391 50.4588 382.71 55.3484 365.63 59.9231C382.956 58.3484 407.46 56.4257 423.485 56.4257C424.277 56.4257 425.051 56.4257 425.807 56.4257V56.4589Z" fill="#303030"/>
<path d="M608.098 218.032C590.683 217.054 577.473 198.772 569.434 187.318C555.01 166.749 510.4 138.124 502.185 135.405C482.624 128.925 323.799 129.704 323.799 129.704C344.486 132.173 413.476 161.229 413.476 161.229L472 150.555L545.476 185.081C545.476 185.081 554.025 207.656 583.506 231.043C599.197 243.524 614.905 243.706 608.08 218.032H608.098Z" fill="#EBEBEB"/>
<path d="M582.961 231.673C555.537 209.91 545.986 188.512 544.807 185.661L471.894 151.417L413.388 162.091L413.142 161.992C412.456 161.693 344.029 132.952 323.712 130.532L323.817 128.875C330.308 128.842 483.012 128.179 502.484 134.626C510.154 137.162 555.485 165.937 570.19 186.871C577.385 197.131 590.771 216.242 608.168 217.219L608.819 217.253L608.978 217.849C612.672 231.756 609.505 236.977 606.198 238.916C604.826 239.712 603.208 240.11 601.378 240.11C596.4 240.11 589.892 237.192 582.979 231.689L582.961 231.673ZM568.713 187.766C554.201 167.08 509.468 138.687 501.904 136.184C485.281 130.682 364.961 130.449 332.102 130.516C357.573 136.93 408.92 158.395 413.617 160.367L472.158 149.693L545.915 184.335L546.232 184.484L546.355 184.799C546.443 185.031 555.203 207.457 584.122 230.413C592.829 237.342 600.939 240.043 605.284 237.507C609.171 235.22 609.927 228.606 607.43 218.827C589.487 217.385 576.013 198.158 568.748 187.782L568.713 187.766Z" fill="#EBEBEB"/>
<path d="M582.398 232.303C555.291 210.789 545.757 190.186 544.104 186.258L471.771 152.279L413.828 162.854C413.476 162.92 413.107 162.887 412.772 162.738C412.086 162.456 343.782 133.748 323.588 131.345C322.674 131.229 322.005 130.466 322.058 129.604C322.111 128.726 322.885 128.046 323.799 128.046C330.29 128.013 483.152 127.35 502.766 133.848C510.752 136.483 555.801 164.876 570.912 186.407C578.018 196.551 591.264 215.43 608.204 216.391C608.977 216.441 609.611 216.938 609.804 217.651C613.621 232.038 610.191 237.541 606.638 239.629C605.143 240.508 603.366 240.938 601.396 240.938C596.172 240.938 589.47 237.955 582.398 232.336V232.303ZM567.974 188.23C553.55 167.677 509.116 139.45 501.605 136.964C486.055 131.809 378.541 131.328 338.663 131.328H338.241C364.645 139.036 408.111 157.152 413.705 159.489L471.683 148.914C472.07 148.848 472.457 148.898 472.809 149.063L546.285 183.589C546.689 183.788 547.006 184.119 547.164 184.517C547.252 184.733 555.96 206.993 584.667 229.784C592.953 236.364 600.833 239.115 604.791 236.795C608.256 234.756 608.925 228.673 606.691 219.59C588.643 217.717 575.256 198.623 567.974 188.23Z" fill="#303030"/>
<path d="M-135.965 135.323C-86.9575 148.583 45.64 172.086 60.6096 177.009C82.5626 184.202 95.1047 181.368 113.205 169.6C125.36 178.186 126.574 199.832 131.887 212.86C142.195 238.121 165.01 257.364 188.423 271.569C209.285 284.232 225.767 292.536 250.939 291.111C273.35 289.835 290.975 289.022 306.139 306.592C316.253 318.31 354.97 356.797 354.97 356.797C355.515 344.88 368.532 347.068 376.747 355.869C371.329 352.538 361.056 348.957 358.594 354.145C356.588 358.372 359.385 363.842 364.275 369.593C360.247 366.577 355.937 363.195 351.381 359.532C344.451 353.98 333.21 350.25 326.245 343.554C310.888 328.769 295.778 323.449 277.976 313.023C265.293 305.614 238.679 302.713 218.344 297.277C181.756 287.481 169.143 286.37 122.704 250.486C122.704 250.486 122.687 250.486 122.687 250.469C114.314 246.027 111.394 242.513 107.647 239.811C86.7843 224.794 -81.0999 206.446 -135.982 200.794V135.323H-135.965Z" fill="#EBEBEB"/>
<path d="M-135.965 199.965C-81.5748 205.567 87.1362 224.015 108.192 239.165C109.318 239.977 110.356 240.855 111.482 241.784C114.19 244.054 117.251 246.624 123.021 249.69L123.285 249.856C165.66 282.591 179.504 286.221 209.813 294.177C212.592 294.906 215.512 295.669 218.608 296.498C225.539 298.354 233.296 299.929 240.807 301.454C255.812 304.503 269.972 307.387 278.451 312.343C283.482 315.294 288.302 317.83 292.963 320.283C304.696 326.465 315.796 332.316 326.878 342.99C330.677 346.654 335.867 349.438 340.898 352.14C344.979 354.344 348.849 356.416 351.962 358.902C354.9 361.256 357.521 363.328 359.913 365.184C357.028 360.61 356.342 356.864 357.785 353.814C358.453 352.422 359.614 351.477 361.267 351.013C362.041 350.797 362.886 350.698 363.783 350.698C365.982 350.698 368.497 351.278 370.942 352.156C367.108 349.77 363.079 348.775 360.159 349.753C357.521 350.632 356.025 353.085 355.867 356.831L355.779 358.786L354.354 357.361C353.967 356.98 315.497 318.708 305.47 307.106C290.43 289.685 273.033 290.663 250.992 291.923C225.046 293.398 207.807 284.315 187.948 272.265C159.046 254.729 139.908 234.839 131.077 213.159C129.424 209.114 128.193 204.341 126.891 199.269C123.988 188.081 121.016 176.511 113.205 170.627C94.1373 182.909 81.2082 184.633 60.3458 177.788C54.0308 175.716 25.7804 170.147 -6.93806 163.682C-51.9347 154.798 -107.644 143.809 -135.93 136.184V134.461C-107.873 142.069 -51.8116 153.141 -6.56866 162.058C27.557 168.787 54.5233 174.108 60.9439 176.213C81.6128 182.992 93.7151 181.285 112.748 168.903L113.276 168.572L113.786 168.937C122.476 175.069 125.747 187.716 128.632 198.888C129.934 203.893 131.148 208.634 132.766 212.579C141.473 233.927 160.383 253.535 188.95 270.889C209.18 283.171 225.468 291.757 250.939 290.299C272.593 289.072 291.275 288.011 306.877 306.095C315.796 316.437 347.459 348.079 354.354 354.941C355.076 350.648 357.556 348.908 359.632 348.228C364.662 346.554 371.998 349.488 377.468 355.355L381.725 359.93L376.325 356.598C371.998 353.93 365.436 351.643 361.83 352.637C360.687 352.952 359.913 353.565 359.456 354.51C357.802 357.974 359.632 362.748 365.032 369.096L363.8 370.256C360.089 367.472 355.99 364.273 350.889 360.179C347.899 357.792 344.117 355.753 340.106 353.582C334.987 350.83 329.692 347.98 325.717 344.151C314.811 333.642 303.817 327.857 292.207 321.725C287.528 319.255 282.673 316.703 277.624 313.736C269.41 308.929 255.39 306.078 240.543 303.061C232.997 301.536 225.204 299.945 218.221 298.072C215.125 297.243 212.223 296.481 209.443 295.752C178.924 287.746 164.992 284.1 122.458 251.265H122.317L122.194 251.082C116.301 247.933 113.047 245.198 110.409 242.994C109.318 242.082 108.298 241.22 107.225 240.458C86.5557 225.573 -81.3813 207.225 -135.859 201.606V199.932L-135.965 199.965Z" fill="#EBEBEB"/>
<path d="M-135.965 199.12C-80.836 204.772 87.3297 223.104 108.737 238.502C109.881 239.33 110.936 240.225 112.062 241.154C114.753 243.408 117.797 245.96 123.566 249.027C123.672 249.077 123.76 249.143 123.865 249.226C166.1 281.845 179.874 285.459 210.059 293.365C212.838 294.094 215.758 294.857 218.854 295.685C225.75 297.525 233.507 299.116 241.001 300.625C256.076 303.691 270.324 306.592 278.926 311.614C283.939 314.548 288.759 317.084 293.403 319.537C305.206 325.752 316.341 331.62 327.529 342.394C331.24 345.974 336.377 348.742 341.337 351.41C345.453 353.631 349.359 355.72 352.525 358.272C354.214 359.615 355.779 360.875 357.257 362.035C356.659 360.61 356.307 359.25 356.201 357.991C356.025 358.14 355.832 358.272 355.586 358.355C354.917 358.587 354.178 358.422 353.686 357.941C353.299 357.56 314.793 319.272 304.767 307.636C290.026 290.547 272.822 291.525 251.027 292.752C224.8 294.26 207.438 285.094 187.455 272.961C158.396 255.325 139.151 235.303 130.233 213.457C128.562 209.363 127.331 204.556 126.011 199.468C123.214 188.661 120.33 177.506 113.117 171.655C94.0845 183.788 81.0147 185.445 60.0292 178.567C53.7669 176.511 25.5341 170.942 -7.14915 164.494C-62.0317 153.671 -110.371 143.925 -135.965 137.046V133.632C-108.013 141.207 -50.9145 152.478 -6.42795 161.246C27.7329 167.992 54.7168 173.312 61.1901 175.434C81.5424 182.097 93.4512 180.423 112.203 168.224C112.818 167.826 113.645 167.843 114.261 168.257C123.197 174.572 126.504 187.368 129.424 198.672C130.708 203.661 131.922 208.368 133.522 212.264C142.159 233.446 160.946 252.922 189.372 270.176C209.461 282.376 225.609 290.895 250.834 289.453C272.717 288.21 291.626 287.133 307.511 305.547C315.989 315.376 345.119 344.548 353.809 353.217C354.97 349.438 357.591 347.979 359.28 347.416C364.645 345.626 372.367 348.659 378.084 354.775C378.664 355.405 378.664 356.333 378.084 356.946C377.503 357.576 376.536 357.709 375.797 357.245C371.575 354.643 365.26 352.488 362.024 353.383C361.127 353.631 360.546 354.079 360.194 354.808C358.717 357.924 360.546 362.549 365.647 368.532C366.21 369.195 366.158 370.14 365.524 370.737C365.19 371.052 364.733 371.218 364.275 371.218C363.888 371.218 363.501 371.101 363.185 370.853C359.491 368.068 355.375 364.869 350.256 360.759C347.336 358.422 343.571 356.399 339.596 354.261C334.424 351.477 329.077 348.609 325.013 344.698C314.195 334.272 303.254 328.52 291.697 322.421C287 319.951 282.145 317.399 277.079 314.415C269.005 309.691 254.387 306.724 240.28 303.84C232.733 302.299 224.923 300.724 217.904 298.835C214.826 298.006 211.906 297.243 209.127 296.514C178.466 288.475 164.464 284.812 121.719 251.795C115.721 248.596 112.414 245.811 109.74 243.59C108.667 242.695 107.647 241.833 106.609 241.087C86.2391 226.419 -80.9415 208.103 -135.947 202.418V199.07L-135.965 199.12Z" fill="#303030"/>
<path d="M476.222 279.409C475.659 273.425 477.629 275.563 474.48 270.259C472.651 267.176 468.834 265.005 466.688 262.419C460.672 255.143 456.52 245.662 452.861 236.662C449.748 229.021 446.845 221.231 444.664 213.788C441.902 204.357 443.697 199.783 432.228 199.932C423.626 200.031 336.658 190.003 316.271 181.335C300.844 174.771 276.674 168.837 271.257 190.401C260.509 233.082 303.553 265.519 333.703 288.061C352.191 301.884 366.439 321.144 385.454 334.438C387.002 335.532 388.48 336.559 389.94 337.603C388.867 335.714 387.812 333.808 386.422 331.935C371.769 312.012 342.182 288.641 320.58 273.11C302.673 260.248 295.813 241.767 300.58 210.125C304.344 184.964 337.978 204.921 353.545 203.098C363.114 201.97 400.987 207.573 417.557 218.413C434.145 229.236 447.496 242.314 458.438 276.74C469.361 311.117 483.997 325.752 499.775 317.979C498.966 317.747 498.175 317.515 497.313 317.233C479.212 311.349 477.647 294.426 476.257 279.442L476.222 279.409Z" fill="#EBEBEB"/>
<path d="M389.289 338.184C387.864 337.173 386.457 336.161 384.944 335.101C374.883 328.073 366.035 319.255 357.468 310.735C349.798 303.111 341.883 295.221 333.158 288.707C303.817 266.779 259.471 233.629 270.395 190.202C272.066 183.589 275.584 178.998 280.879 176.544C291.275 171.738 306.051 176.08 316.623 180.589C336.553 189.059 423.098 199.12 432.069 199.12C432.122 199.12 432.157 199.12 432.193 199.12C442.131 198.954 442.94 202.617 444.26 208.634C444.576 210.092 444.946 211.75 445.491 213.573C447.444 220.22 450.117 227.678 453.653 236.364C457.136 244.916 461.358 254.629 467.356 261.906C468.2 262.933 469.326 263.895 470.522 264.906C472.264 266.397 474.076 267.939 475.219 269.845C477.26 273.276 477.295 273.84 477.101 275.398C477.013 276.16 476.873 277.188 477.084 279.326V279.392C478.456 294.061 480.004 310.702 497.559 316.404C498.368 316.669 499.125 316.885 500.004 317.15L502.045 317.747L500.145 318.675C495.044 321.194 489.978 321.476 485.087 319.537C474.603 315.376 465.069 300.641 457.541 276.939C447.057 243.922 434.251 230.314 416.994 219.059C400.67 208.385 363.202 202.766 353.598 203.893C348.532 204.49 341.795 202.899 334.671 201.208C324.222 198.722 313.404 196.169 306.983 200.23C303.94 202.153 302.128 205.418 301.407 210.208C296.833 240.623 302.726 259.237 321.073 272.414C338.998 285.293 371.417 310.089 387.108 331.421C388.515 333.327 389.606 335.266 390.679 337.173L392.42 340.388L389.254 338.134L389.289 338.184ZM335.128 199.617C342.094 201.274 348.655 202.832 353.404 202.269C363.202 201.125 401.391 206.844 418.015 217.717C435.57 229.17 448.605 242.994 459.247 276.475C466.617 299.68 475.8 314.05 485.791 318.028C489.52 319.504 493.39 319.537 497.313 318.095C497.207 318.062 497.102 318.028 496.996 317.995C478.368 311.929 476.767 294.741 475.36 279.558L476.222 279.425L475.342 279.492C475.131 277.204 475.272 276.011 475.377 275.232C475.518 274.055 475.553 273.79 473.706 270.674C472.704 269 471.015 267.541 469.379 266.149C468.183 265.121 466.934 264.06 466.002 262.933C459.845 255.491 455.57 245.629 452.052 236.977C448.499 228.242 445.808 220.733 443.837 214.037C443.292 212.164 442.905 210.473 442.589 208.982C441.252 202.932 440.777 200.661 432.263 200.777C422.465 200.91 336.236 190.733 315.937 182.097C307.563 178.533 291.978 173.263 281.688 178.036C276.886 180.257 273.666 184.484 272.136 190.6C261.459 232.999 305.277 265.751 334.266 287.414C343.079 294.011 351.047 301.934 358.752 309.608C367.266 318.078 376.061 326.83 386 333.775C386.404 334.056 386.809 334.338 387.196 334.62C386.739 333.874 386.246 333.145 385.701 332.416C370.133 311.266 337.89 286.586 320.035 273.773C301.108 260.182 295.021 241.104 299.683 210.009C300.474 204.722 302.55 201.092 306.015 198.888C308.777 197.131 312.19 196.468 315.954 196.468C321.794 196.468 328.531 198.059 335.11 199.617H335.128Z" fill="#EBEBEB"/>
<path d="M388.885 338.93C387.425 337.885 385.965 336.858 384.417 335.764C374.285 328.686 365.419 319.852 356.835 311.316C349.183 303.708 341.285 295.835 332.613 289.354C303.096 267.293 258.486 233.944 269.55 190.02C271.274 183.158 274.968 178.368 280.509 175.799C291.222 170.843 306.262 175.252 317.01 179.826C336.852 188.263 423.134 198.274 432.087 198.274C432.122 198.274 432.175 198.274 432.21 198.274C442.888 198.158 443.785 202.236 445.157 208.451C445.474 209.893 445.843 211.551 446.371 213.341C448.323 219.971 450.979 227.397 454.515 236.065C457.98 244.552 462.167 254.215 468.095 261.392C468.887 262.353 469.995 263.298 471.156 264.292C472.95 265.817 474.815 267.409 476.028 269.447C478.086 272.911 478.245 273.69 478.016 275.514C477.928 276.243 477.805 277.221 477.998 279.26V279.326C479.406 294.459 480.866 310.089 497.876 315.625C498.72 315.907 499.494 316.122 500.286 316.354C500.972 316.553 501.447 317.117 501.517 317.78C501.587 318.443 501.218 319.089 500.585 319.404C495.237 322.04 489.925 322.338 484.788 320.299C473.9 315.973 464.454 301.47 456.749 277.171C446.335 244.386 433.653 230.894 416.555 219.739C400.389 209.164 363.273 203.595 353.774 204.705C348.532 205.319 341.724 203.711 334.53 202.004C324.257 199.567 313.65 197.048 307.546 200.91C304.732 202.7 303.025 205.783 302.339 210.324C297.818 240.408 303.606 258.79 321.671 271.768C339.631 284.68 372.121 309.542 387.9 330.974C389.342 332.929 390.45 334.902 391.523 336.808C391.91 337.488 391.734 338.349 391.119 338.847C390.785 339.112 390.38 339.244 389.975 339.244C389.606 339.244 389.237 339.128 388.92 338.913L388.885 338.93ZM335.339 198.805C342.217 200.429 348.708 201.971 353.299 201.44C363.185 200.28 401.743 206.065 418.525 217.037C436.238 228.59 449.379 242.529 460.091 276.243C467.391 299.216 476.398 313.387 486.125 317.266C488.922 318.377 491.719 318.625 494.604 318.012C477.418 311.216 475.852 294.459 474.463 279.624L476.204 279.409L474.445 279.558C474.217 277.171 474.375 275.945 474.48 275.116C474.604 274.138 474.621 273.939 472.915 271.055C471.983 269.497 470.347 268.088 468.763 266.746C467.532 265.701 466.266 264.624 465.28 263.431C459.053 255.889 454.744 245.961 451.208 237.259C447.637 228.49 444.946 220.965 442.958 214.236C442.395 212.33 442.026 210.639 441.692 209.131C440.39 203.263 439.968 201.506 432.228 201.589C432.175 201.589 432.105 201.589 432.052 201.589C421.374 201.589 335.779 191.462 315.532 182.843C307.3 179.346 292.014 174.158 282.04 178.766C277.484 180.871 274.423 184.915 272.963 190.766C262.426 232.651 305.98 265.204 334.794 286.752C343.659 293.382 351.646 301.337 359.385 309.028C366.984 316.586 374.812 324.393 383.484 330.907C367.495 310.305 336.746 286.818 319.508 274.42C300.545 260.795 294.16 240.889 298.821 209.877C299.63 204.424 301.899 200.479 305.541 198.175C308.478 196.318 312.049 195.622 315.972 195.622C321.935 195.622 328.707 197.23 335.357 198.805H335.339Z" fill="#303030"/>
<path d="M358.418 362.482C358.418 362.482 357.978 361.853 357.186 360.759C356.606 359.582 355.41 357.825 355.48 355.306C355.392 352.836 357.239 349.62 360.564 348.56C362.147 347.946 363.906 347.714 365.682 347.913C367.459 348.013 369.271 348.874 370.537 349.571C373.37 350.963 376.166 352.786 378.488 354.576C380.775 356.482 382.745 358.438 384.205 360.278C387.143 363.958 388.181 366.858 388.181 366.858C388.181 366.858 387.706 366.262 386.861 365.201C386.087 364.123 384.768 362.715 383.115 361.156C381.514 359.549 379.421 357.875 377.046 356.283C374.689 354.609 372.173 353.068 369.324 351.775C367.811 351.062 366.703 350.582 365.331 350.383C363.994 350.184 362.604 350.3 361.408 350.714C358.963 351.51 357.397 353.383 357.098 355.422C356.694 359.565 358.593 362.499 358.382 362.482H358.418Z" fill="#EBEBEB"/>
<path d="M386.14 365.665C385.419 364.654 384.152 363.295 382.464 361.72C380.951 360.195 378.91 358.538 376.518 356.946C373.932 355.107 371.47 353.665 368.937 352.521C367.512 351.841 366.474 351.394 365.207 351.195C364.029 351.013 362.797 351.129 361.707 351.493C359.666 352.156 358.241 353.698 357.978 355.504C357.679 358.488 358.646 360.759 359.068 361.737C359.262 362.201 359.42 362.582 359.121 362.98L358.822 363.361L357.907 363.295L356.377 361.123C356.289 360.958 356.183 360.759 356.078 360.56C355.462 359.4 354.512 357.626 354.583 355.339C354.477 352.554 356.57 348.957 360.212 347.797C361.936 347.134 363.853 346.885 365.7 347.084C367.688 347.2 369.64 348.145 370.924 348.841C374.319 350.515 377.204 352.538 379.051 353.963C381.408 355.935 383.431 357.941 384.891 359.781C387.882 363.527 388.955 366.477 389.007 366.593L386.123 365.665H386.14ZM360.845 349.339C358.241 350.167 356.641 352.521 356.394 354.609C356.975 352.471 358.734 350.714 361.126 349.935C362.481 349.471 364.029 349.355 365.489 349.571C367.002 349.786 368.198 350.316 369.711 351.046C372.332 352.239 374.9 353.731 377.556 355.62C379.051 356.615 380.423 357.643 381.619 358.654C380.529 357.527 379.28 356.366 377.925 355.239C376.166 353.88 373.369 351.924 370.08 350.3C368.937 349.67 367.213 348.841 365.559 348.742C365.19 348.709 364.82 348.676 364.469 348.676C363.22 348.676 361.988 348.908 360.827 349.339H360.845Z" fill="#EBEBEB"/>
<path d="M364.469 347.847C364.873 347.847 365.26 347.863 365.665 347.913C367.441 348.012 369.253 348.874 370.52 349.571C373.352 350.963 376.149 352.786 378.471 354.576C380.758 356.482 382.728 358.438 384.188 360.278C387.125 363.958 388.163 366.858 388.163 366.858C388.163 366.858 387.688 366.262 386.844 365.201C386.07 364.123 384.751 362.714 383.097 361.156C381.496 359.549 379.403 357.875 377.028 356.283C374.671 354.609 372.156 353.068 369.306 351.775C367.793 351.062 366.685 350.582 365.313 350.383C364.891 350.316 364.469 350.283 364.046 350.283C363.132 350.283 362.217 350.432 361.39 350.714C358.945 351.51 357.38 353.383 357.081 355.422C356.676 359.549 358.576 362.482 358.382 362.482C358.382 362.482 357.943 361.853 357.151 360.759C356.57 359.582 355.374 357.825 355.445 355.305C355.357 352.836 357.204 349.62 360.528 348.559C361.742 348.095 363.079 347.847 364.433 347.847M364.469 344.532C362.692 344.532 360.951 344.847 359.332 345.46C354.424 347.084 351.891 351.709 351.962 355.305C351.891 358.223 353.052 360.377 353.738 361.67C353.826 361.853 353.914 362.002 354.002 362.168C354.073 362.317 354.161 362.466 354.266 362.615C356.025 365.085 356.5 365.748 358.294 365.814C358.33 365.814 358.382 365.814 358.418 365.814C359.578 365.814 360.687 365.267 361.338 364.355C362.411 362.864 361.795 361.438 361.531 360.825C361.197 360.029 360.405 358.173 360.616 355.836C360.775 354.957 361.513 354.212 362.622 353.847C363.061 353.698 363.572 353.615 364.082 353.615C364.328 353.615 364.557 353.631 364.82 353.665C365.63 353.781 366.351 354.079 367.828 354.775C370.186 355.836 372.508 357.195 374.953 358.935C374.988 358.952 375.005 358.969 375.041 358.985C377.257 360.477 379.174 362.002 380.564 363.411C380.599 363.444 380.634 363.477 380.652 363.51C382.692 365.433 383.607 366.56 383.977 367.057C384.012 367.107 384.047 367.14 384.065 367.19L385.384 368.847C386.07 369.709 387.125 370.173 388.198 370.173C388.744 370.173 389.307 370.057 389.834 369.792C391.365 369.03 392.086 367.339 391.541 365.797C391.417 365.449 390.239 362.267 387.037 358.272C385.454 356.267 383.361 354.195 380.828 352.09C380.793 352.057 380.758 352.024 380.722 352.007C378.805 350.532 375.797 348.427 372.244 346.67C370.731 345.858 368.462 344.78 365.999 344.615C365.506 344.565 364.996 344.532 364.486 344.532H364.469Z" fill="#303030"/>
</svg>
