<svg width="339" height="282" viewBox="0 0 339 282" fill="none" xmlns="http://www.w3.org/2000/svg">
<path d="M76.8001 73.0598L83.9301 70.9099C83.5801 68.2299 82.9801 65.6199 82.1201 63.0699L74.7201 64.0999C73.7001 61.4199 72.3401 58.8399 70.6501 56.4499L75.7001 51.0598C74.0701 48.9398 72.2201 46.9598 70.1601 45.1498L64.3201 49.6999C63.1901 48.7899 62.0301 47.9398 60.7701 47.1498C59.5201 46.3698 58.2401 45.6799 56.9301 45.0699L58.5601 37.8799C56.0301 36.8199 53.4301 36.0098 50.8001 35.4598L48.0701 42.2998C45.1501 41.8098 42.2301 41.6999 39.3601 41.9398L37.1201 34.8599C34.4301 35.1899 31.7901 35.7799 29.2001 36.6099L30.3101 43.9199C27.5901 44.9099 24.9901 46.2299 22.6001 47.8799L17.1001 42.8499C14.9801 44.4399 12.9801 46.2498 11.1601 48.2798L15.8101 54.0898C14.9001 55.1898 14.0301 56.3499 13.2501 57.5799C12.4701 58.8099 11.7901 60.0799 11.1801 61.3599L3.89013 59.6999C2.83013 62.1999 2.04013 64.7598 1.50013 67.3398L8.44012 70.1099C7.97012 72.9599 7.88013 75.8598 8.15013 78.7098L1.01013 80.8599C1.37013 83.5299 1.97013 86.1498 2.82013 88.6898L10.2301 87.6599C11.2501 90.3399 12.6001 92.9098 14.3001 95.2998L9.23013 100.69C10.8601 102.81 12.7101 104.79 14.7701 106.6L20.6201 102.06C21.7301 102.97 22.9101 103.82 24.1601 104.6C25.4201 105.39 26.6901 106.07 28.0101 106.69L26.3701 113.87C28.9001 114.94 31.5001 115.74 34.1301 116.29L36.8701 109.45C39.7601 109.94 42.6901 110.05 45.5801 109.81L47.8201 116.88C50.5101 116.55 53.1501 115.96 55.7301 115.14L54.6301 107.83C57.3401 106.85 59.9301 105.51 62.3301 103.87L67.8301 108.89C69.9501 107.3 71.9501 105.49 73.7601 103.47L69.1101 97.6498C70.0301 96.5598 70.8801 95.3999 71.6601 94.1699C72.4401 92.9399 73.1401 91.6699 73.7401 90.3799L81.0301 92.0498C82.1001 89.5498 82.8901 86.9798 83.4301 84.3998L76.4901 81.6299C76.9601 78.7799 77.0501 75.8898 76.7901 73.0298L76.8001 73.0598ZM56.1201 84.4398C51.4001 91.8498 41.4601 94.0399 33.9201 89.3199C26.3801 84.5999 24.1001 74.7598 28.8201 67.3398C33.5501 59.9198 43.4901 57.7398 51.0301 62.4598C58.5701 67.1798 60.8501 77.0199 56.1201 84.4398Z" fill="#245A7C"/>
<path d="M47.8201 117.9C47.3901 117.9 47.0001 117.62 46.8701 117.2L44.8701 110.88C42.4001 111.03 39.9401 110.93 37.5101 110.57L35.0701 116.67C34.8901 117.12 34.4101 117.38 33.9401 117.28C31.2401 116.72 28.5701 115.88 26.0001 114.8C25.5501 114.61 25.3001 114.13 25.4101 113.66L26.8701 107.26C25.7501 106.71 24.6901 106.12 23.6401 105.47C22.6101 104.82 21.6001 104.11 20.6201 103.35L15.3901 107.41C15.0101 107.7 14.4701 107.69 14.1201 107.37C12.0301 105.53 10.1201 103.49 8.4501 101.32C8.1501 100.93 8.18011 100.38 8.51011 100.03L13.0201 95.2299C11.6601 93.2199 10.5101 91.0599 9.58011 88.7799L2.9501 89.6999C2.4701 89.7699 2.02011 89.4799 1.86011 89.0299C1.00011 86.4499 0.380109 83.7499 0.0101086 81.0099C-0.0598914 80.5199 0.240106 80.0599 0.710106 79.9199L7.08011 77.9999C6.91011 75.5799 6.99011 73.1499 7.33011 70.7499L1.1301 68.2799C0.680104 68.0999 0.420103 67.6199 0.520103 67.1499C1.0901 64.4499 1.91011 61.8099 2.97011 59.3199C3.16011 58.8699 3.64011 58.6299 4.11011 58.7399L10.6301 60.2299C11.2001 59.0899 11.7901 58.0399 12.4101 57.0599C13.0401 56.0799 13.7301 55.1099 14.5301 54.1099L10.3801 48.9299C10.0701 48.5499 10.0901 47.9999 10.4201 47.6399C12.2401 45.6199 14.2801 43.7499 16.5001 42.0799C16.8801 41.7899 17.4201 41.8199 17.7801 42.1399L22.7001 46.6399C24.7201 45.3199 26.9001 44.1999 29.2001 43.2999L28.2101 36.7899C28.1401 36.2999 28.4201 35.8399 28.8901 35.6899C31.5201 34.8399 34.2501 34.2399 36.9901 33.8999C37.4701 33.8399 37.9201 34.1299 38.0701 34.5899L40.0801 40.9099C42.5501 40.7599 45.0201 40.8599 47.4501 41.2099L49.8801 35.1099C50.0601 34.6599 50.5401 34.3999 51.0101 34.4999C53.7001 35.0599 56.3801 35.8999 58.9501 36.9799C59.4001 37.1699 59.6401 37.6499 59.5401 38.1199L58.0901 44.5299C59.2301 45.0899 60.2901 45.6799 61.3101 46.3199C62.3201 46.9599 63.3201 47.6499 64.3401 48.4399L69.5601 44.3699C69.9401 44.0799 70.4701 44.0899 70.8401 44.4099C72.9301 46.2499 74.8401 48.2899 76.5101 50.4599C76.8101 50.8499 76.7801 51.3999 76.4501 51.7499L71.9501 56.5499C73.3101 58.5799 74.4601 60.7399 75.3801 62.9999L82.0001 62.0799C82.4701 62.0099 82.9301 62.2999 83.0901 62.7499C83.9501 65.3299 84.5801 68.0399 84.9401 70.7799C85.0001 71.2699 84.7101 71.7299 84.2401 71.8699L77.8801 73.7899C78.0401 76.2199 77.9601 78.6499 77.6301 81.0299L83.8301 83.4999C84.2801 83.6799 84.5401 84.1599 84.4401 84.6299C83.8701 87.3499 83.0401 89.9799 81.9801 92.4699C81.7901 92.9099 81.3101 93.1599 80.8401 93.0499L74.3301 91.5599C73.7901 92.6399 73.1901 93.7099 72.5401 94.7299C71.8901 95.7499 71.1801 96.7399 70.4301 97.6799L74.5701 102.86C74.8701 103.24 74.8601 103.79 74.5301 104.15C72.7301 106.16 70.6801 108.03 68.4601 109.71C68.0801 110 67.5401 109.97 67.1801 109.65L62.2601 105.15C60.2201 106.49 58.0401 107.61 55.7601 108.5L56.7401 115.02C56.8101 115.51 56.5201 115.97 56.0501 116.12C53.3801 116.97 50.6601 117.57 47.9601 117.9C47.9201 117.9 47.8801 117.9 47.8401 117.9H47.8201ZM45.5901 108.83C46.0201 108.83 46.4101 109.11 46.5401 109.53L48.5301 115.8C50.5701 115.51 52.6101 115.06 54.6301 114.46L53.6601 108C53.5901 107.53 53.8601 107.07 54.3101 106.91C56.9501 105.95 59.4701 104.66 61.7901 103.06C62.1701 102.8 62.6801 102.83 63.0301 103.15L67.9101 107.61C69.5501 106.33 71.0801 104.93 72.4701 103.45L68.3601 98.2999C68.0601 97.9299 68.0701 97.3999 68.3801 97.0299C69.2701 95.9699 70.1101 94.8299 70.8501 93.6599C71.6001 92.4799 72.2801 91.2399 72.8601 89.9899C73.0601 89.5599 73.5301 89.3299 73.9901 89.4399L80.4501 90.9199C81.2101 89.0399 81.8201 87.0699 82.2901 85.0499L76.1401 82.5999C75.7001 82.4299 75.4501 81.9699 75.5201 81.5099C75.9701 78.7799 76.0701 75.9699 75.8101 73.1699C75.7701 72.6999 76.0601 72.2599 76.5201 72.1199L82.8301 70.2199C82.5201 68.1699 82.0501 66.1499 81.4401 64.1899L74.8701 65.1099C74.4201 65.1799 73.9601 64.9099 73.8001 64.4799C72.8001 61.8499 71.4701 59.3499 69.8501 57.0499C69.5801 56.6599 69.6101 56.1399 69.9401 55.7899L74.4001 51.0299C73.1101 49.4199 71.6801 47.8999 70.1301 46.4799L64.9501 50.5199C64.5801 50.8099 64.0701 50.7999 63.7101 50.5099C62.5401 49.5599 61.4101 48.7499 60.2501 48.0299C59.0901 47.3099 57.8701 46.6499 56.5201 46.0099C56.1001 45.8099 55.8701 45.3399 55.9701 44.8799L57.4101 38.5199C55.4501 37.7399 53.4501 37.1199 51.4301 36.6499L49.0201 42.7099C48.8501 43.1499 48.3801 43.4099 47.9201 43.3299C45.1401 42.8599 42.3001 42.7399 39.4601 42.9799C39.0001 43.0199 38.5601 42.7299 38.4201 42.2899L36.4301 36.0199C34.3701 36.3199 32.3201 36.7699 30.3301 37.3699L31.3101 43.8299C31.3801 44.2999 31.1101 44.7599 30.6601 44.9199C27.9801 45.8999 25.4601 47.1899 23.1701 48.7599C22.7901 49.0199 22.2701 48.9899 21.9301 48.6699L17.0501 44.2099C15.4101 45.4899 13.8801 46.8899 12.4801 48.3799L16.6001 53.5199C16.9001 53.8899 16.8901 54.4199 16.6001 54.7799C15.6401 55.9399 14.8301 57.0499 14.1101 58.1699C13.4001 59.2799 12.7401 60.4799 12.1001 61.8399C11.9001 62.2599 11.4301 62.4899 10.9701 62.3899L4.50011 60.9099C3.75011 62.7999 3.1301 64.7599 2.6701 66.7699L8.82011 69.2199C9.26011 69.3899 9.5101 69.8499 9.4401 70.3099C8.9901 73.0599 8.8901 75.8699 9.1601 78.6599C9.2101 79.1299 8.9101 79.5699 8.4501 79.7099L2.1301 81.6099C2.4501 83.6599 2.9201 85.6699 3.5201 87.6299L10.1001 86.7199C10.5501 86.6599 11.0101 86.9199 11.1701 87.3599C12.1701 90.0099 13.5001 92.4999 15.1201 94.7799C15.4001 95.1699 15.3601 95.6999 15.0301 96.0499L10.5501 100.81C11.8401 102.42 13.2701 103.94 14.8201 105.36L20.0101 101.33C20.3801 101.04 20.8901 101.05 21.2601 101.34C22.3601 102.24 23.5201 103.07 24.7001 103.81C25.9001 104.56 27.1201 105.22 28.4401 105.84C28.8701 106.04 29.1001 106.51 28.9901 106.97L27.5401 113.33C29.4901 114.1 31.5001 114.73 33.5201 115.2L35.9401 109.14C36.1201 108.7 36.5801 108.45 37.0301 108.53C39.8101 109 42.6601 109.12 45.4901 108.88C45.5201 108.88 45.5501 108.88 45.5701 108.88L45.5901 108.83ZM42.5601 92.7999C39.4201 92.7999 36.2401 91.9499 33.3901 90.1599C29.4901 87.7099 26.7801 83.9099 25.7801 79.4599C24.7901 75.0799 25.5701 70.5799 27.9801 66.7999C32.9901 58.9299 43.5701 56.6099 51.5601 61.6099C55.4601 64.0499 58.1601 67.8499 59.1701 72.3099C60.1601 76.6899 59.3801 81.1899 56.9701 84.9799C53.7501 90.0399 48.2201 92.7999 42.5701 92.7999H42.5601ZM42.3801 60.9699C37.3801 60.9699 32.5101 63.4099 29.6701 67.8699C27.5501 71.1999 26.8601 75.1599 27.7301 79.0199C28.6201 82.9499 31.0001 86.2999 34.4501 88.4599C41.5101 92.8799 50.8601 90.8399 55.2801 83.8999C57.4001 80.5699 58.0901 76.6099 57.2201 72.7499C56.3301 68.8199 53.9501 65.4699 50.5001 63.3099C47.9801 61.7299 45.1601 60.9699 42.3801 60.9699Z" fill="#303030"/>
<path d="M134.56 216.58H240.43C245.27 216.58 247.98 212.65 246.49 207.81L190.86 9.75999C189.36 4.91999 184.22 0.98999 179.38 0.98999H73.5101C68.6701 0.98999 65.9602 4.91999 67.4502 9.75999L123.08 207.81C124.58 212.65 129.72 216.58 134.56 216.58Z" fill="white"/>
<path d="M240.43 217.58H134.56C129.32 217.58 123.74 213.33 122.12 208.11L66.4901 10.04C65.6701 7.38001 65.9901 4.74 67.4001 2.84C68.7501 1.01 70.9201 0.0100098 73.5101 0.0100098H179.38C184.62 0.0100098 190.2 4.26 191.82 9.48L247.45 207.55C248.27 210.22 247.95 212.85 246.54 214.76C245.19 216.59 243.02 217.59 240.43 217.59V217.58ZM73.5101 2C71.5701 2 69.9701 2.72 69.0101 4.02C67.9701 5.43 67.7601 7.36 68.4101 9.47L124.04 207.54C125.41 211.96 130.13 215.58 134.56 215.58H240.43C242.37 215.58 243.97 214.86 244.93 213.56C245.97 212.15 246.18 210.21 245.53 208.11L189.9 10.04C188.53 5.62001 183.81 2 179.38 2H73.5101Z" fill="#303030"/>
<path d="M247.14 216.57H141.28C139.78 216.57 138.26 216.2 136.83 215.53C133.61 214.06 130.84 211.15 129.8 207.8L74.1701 9.75999C72.6701 4.91999 75.3801 0.98999 80.2301 0.98999H186.09C188.89 0.98999 191.79 2.29999 194.03 4.34999C195.67 5.83999 196.95 7.71999 197.57 9.75999L253.2 207.8C254.7 212.65 251.99 216.57 247.14 216.57Z" fill="white"/>
<path d="M247.14 216.57H141.28C139.78 216.57 138.26 216.2 136.83 215.53C135.21 214.05 133.94 212.18 133.31 210.15L77.6901 12.1001C76.1901 7.26008 78.9001 3.33008 83.7401 3.33008H189.61C191.09 3.33008 192.6 3.70008 194.03 4.35008C195.67 5.84008 196.95 7.72009 197.57 9.76009L253.2 207.8C254.7 212.65 251.99 216.57 247.14 216.57Z" fill="#245A7C"/>
<path d="M247.14 217.58H141.27C136.03 217.58 130.45 213.33 128.83 208.11L73.2001 10.04C72.3801 7.38001 72.7001 4.74 74.1101 2.83C75.4601 1 77.6301 0 80.2201 0H186.09C191.33 0 196.91 4.25 198.53 9.47L254.16 207.54C254.98 210.21 254.66 212.84 253.25 214.75C251.9 216.58 249.73 217.58 247.14 217.58ZM80.2301 1.99001C78.2901 1.99001 76.6901 2.71001 75.7301 4.01001C74.6901 5.42001 74.4801 7.36001 75.1301 9.46001L130.76 207.53C132.13 211.95 136.85 215.57 141.28 215.57H247.15C249.09 215.57 250.69 214.85 251.65 213.55C252.69 212.14 252.9 210.21 252.25 208.1L196.62 10.03C195.25 5.61 190.53 1.99001 186.1 1.99001H80.2301Z" fill="#303030"/>
<path d="M84.5301 20.4901C84.0501 18.9401 84.1801 17.5401 84.8901 16.5401C85.5601 15.6101 86.7201 15.0901 88.1701 15.0901H185.6C189.17 15.0901 193.12 18.1301 194.23 21.7201L245.82 206.72C246.09 207.58 246.03 208.34 245.66 208.86C245.31 209.34 244.71 209.6 243.92 209.6H141.45C139.29 209.6 136.79 207.68 136.11 205.48L84.5201 20.4801L84.5301 20.4901Z" fill="white"/>
<path d="M243.93 210.61H141.46C138.86 210.61 135.98 208.4 135.17 205.79L83.5701 20.7801C83.0001 18.9301 83.1801 17.2201 84.0801 15.9701C84.9401 14.7701 86.4001 14.1001 88.1701 14.1001H185.6C189.63 14.1001 193.94 17.3901 195.19 21.4401L246.79 206.47C247.15 207.61 247.04 208.68 246.48 209.46C245.95 210.21 245.04 210.61 243.93 210.61ZM88.1701 16.0901C87.0601 16.0901 86.1801 16.4601 85.7101 17.1201C85.1801 17.8601 85.1101 18.9501 85.4901 20.1901C85.4901 20.1901 85.4901 20.2101 85.4901 20.2201L137.08 205.22C137.62 206.98 139.71 208.6 141.45 208.6H243.92C244.18 208.6 244.65 208.56 244.85 208.28C245.03 208.03 245.04 207.56 244.87 207.02L193.27 21.9901C192.3 18.8601 188.71 16.0901 185.6 16.0901H88.1701Z" fill="#303030"/>
<path d="M129.86 9.63011H143.27C143.97 9.63011 144.35 9.0701 144.14 8.3701C143.93 7.6701 143.19 7.11011 142.49 7.11011H129.08C128.38 7.11011 128 7.6701 128.21 8.3701C128.42 9.0701 129.16 9.63011 129.86 9.63011Z" fill="white"/>
<path d="M142.49 7.12012C143.18 7.12012 143.92 7.68013 144.14 8.38013C144.36 9.07013 143.97 9.64012 143.27 9.64012H129.86C129.16 9.64012 128.43 9.08013 128.21 8.38013C127.99 7.68013 128.38 7.12012 129.08 7.12012H142.49ZM142.49 5.12012H129.08C128.12 5.12012 127.25 5.54012 126.71 6.28012C126.15 7.03012 126.01 8.01012 126.3 8.97012C126.78 10.5201 128.27 11.6401 129.86 11.6401H143.27C144.23 11.6401 145.1 11.2201 145.64 10.4801C146.2 9.73012 146.34 8.75013 146.05 7.79013C145.57 6.24013 144.08 5.12012 142.49 5.12012Z" fill="#303030"/>
<path d="M119.53 49.6899C119.53 63.6599 108.21 74.9899 94.2401 74.9899C88.8701 74.9899 83.9001 73.3199 79.8101 70.4699C73.2401 65.8999 68.9401 58.2999 68.9401 49.6899C68.9401 35.7199 80.2701 24.3999 94.2401 24.3999C100.88 24.3999 106.92 26.9599 111.43 31.1499C116.41 35.7599 119.53 42.3599 119.53 49.6899Z" fill="white"/>
<path d="M119.53 49.6899C119.53 63.6599 108.21 74.9899 94.2401 74.9899C88.8701 74.9899 83.9001 73.3199 79.8101 70.4699C74.8301 65.8499 71.7101 59.2499 71.7101 51.9199C71.7101 37.9499 83.0401 26.6299 97.0101 26.6299C102.37 26.6299 107.34 28.2999 111.43 31.1499C116.41 35.7599 119.53 42.3599 119.53 49.6899Z" fill="#EBEBEB"/>
<path d="M94.2401 75.9899C79.7401 75.9899 67.9401 64.1899 67.9401 49.6999C67.9401 35.2099 79.7401 23.4099 94.2401 23.4099C108.74 23.4099 120.53 35.2099 120.53 49.6999C120.53 64.1899 108.73 75.9899 94.2401 75.9899ZM94.2401 25.3999C80.8401 25.3999 69.9401 36.2999 69.9401 49.6899C69.9401 63.0799 80.8401 73.9799 94.2401 73.9799C107.64 73.9799 118.53 63.0799 118.53 49.6899C118.53 36.2999 107.63 25.3999 94.2401 25.3999Z" fill="#303030"/>
<path d="M91.7901 54.91L79.8801 44.33V56.67L91.7901 66.91L110.34 40.76V34.54L91.7901 54.91Z" fill="white"/>
<path d="M91.7901 67.9099C91.5501 67.9099 91.3201 67.8299 91.1401 67.6699L79.2301 57.4299C79.0101 57.2399 78.8801 56.9599 78.8801 56.6699V44.3299C78.8801 43.9399 79.1101 43.5799 79.4701 43.4199C79.8301 43.2599 80.2501 43.3199 80.5401 43.5799L91.7201 53.5099L109.6 33.8699C109.88 33.5699 110.31 33.4599 110.7 33.6099C111.08 33.7599 111.34 34.1299 111.34 34.5399V40.7699C111.34 40.9799 111.28 41.1799 111.16 41.3499L92.6101 67.4899C92.4501 67.7199 92.2001 67.8699 91.9201 67.8999C91.8801 67.8999 91.8401 67.8999 91.8001 67.8999L91.7901 67.9099ZM80.8801 56.2099L91.6101 65.4299L109.34 40.4399V37.1199L92.5301 55.5799C92.1601 55.9799 91.5301 56.0199 91.1301 55.6499L80.8801 46.5499V56.1999V56.2099Z" fill="#303030"/>
<path d="M183.5 25.07C196.51 34.13 184.08 44.64 189.08 53.85C196.22 67 181.18 64.52 176.84 97.05C172.86 126.88 142.06 117.66 135.53 103.46C122.25 74.57 150.55 60.76 149.59 52.95C147.32 34.47 166.1 12.97 183.49 25.08L183.5 25.07Z" fill="#303030"/>
<path d="M158.08 117.77C148.68 117.77 138.26 111.8 134.62 103.87C125.18 83.33 136.16 70.21 143.42 61.53C146.33 58.05 148.84 55.05 148.6 53.06C147.23 41.92 153.34 29.22 162.81 23.51C169.79 19.3 177.34 19.56 184.06 24.25C192.34 30.01 190.94 36.59 189.7 42.39C188.87 46.28 188.09 49.96 189.94 53.37C193.72 60.33 191.56 63.54 188.31 68.4C185 73.33 180.01 80.78 177.82 97.18C175.7 113.04 166.46 116.75 161.13 117.55C160.13 117.7 159.11 117.77 158.07 117.77H158.08ZM172.92 22.56C169.87 22.56 166.8 23.45 163.85 25.23C155.01 30.56 149.31 42.42 150.59 52.83C150.94 55.67 148.3 58.83 144.96 62.82C138.02 71.12 127.53 83.65 136.44 103.04C140.15 111.11 151.55 116.97 160.84 115.57C169.08 114.33 174.4 107.71 175.84 96.91C178.09 80.05 183.24 72.36 186.65 67.28C189.9 62.43 191.39 60.22 188.19 54.32C185.99 50.26 186.88 46.04 187.75 41.97C188.96 36.27 190.1 30.89 182.92 25.89C179.73 23.67 176.34 22.56 172.92 22.56Z" fill="#303030"/>
<path d="M201.94 209.6H153.5C153.81 195.81 152.84 149.68 157.73 138.16C161.67 128.91 165.19 128.33 166.58 126.28C168.29 123.76 175.08 123.42 180.41 123.58H180.45C184.2 123.7 187.23 124.05 187.23 124.05C191.29 138.44 198.26 184.35 201.94 209.6Z" fill="white"/>
<path d="M201.94 209.6H157.53C157.85 195.81 156.87 149.68 161.77 138.16C165.7 128.91 169.23 128.33 170.62 126.28C171.91 124.37 176.12 123.71 180.41 123.58H180.45C184.2 123.7 187.23 124.05 187.23 124.05C191.29 138.44 198.26 184.35 201.94 209.6Z" fill="#EBEBEB"/>
<path d="M201.94 210.61H153.5C153.23 210.61 152.97 210.5 152.79 210.31C152.6 210.12 152.5 209.86 152.5 209.59C152.56 206.98 152.57 203.14 152.59 198.7C152.66 179.47 152.77 147.3 156.82 137.78C159.75 130.89 162.5 128.61 164.32 127.11C164.95 126.59 165.45 126.18 165.76 125.72C168.93 121.04 185.48 122.84 187.35 123.06C187.75 123.11 188.09 123.39 188.2 123.78C192.25 138.15 199.17 183.63 202.94 209.46C202.98 209.75 202.9 210.04 202.71 210.26C202.52 210.48 202.24 210.61 201.95 210.61H201.94ZM154.52 208.61H200.78C197.05 183.03 190.43 139.69 186.44 124.98C179.76 124.27 169.22 124.17 167.41 126.85C166.94 127.54 166.32 128.06 165.59 128.66C163.92 130.04 161.39 132.12 158.65 138.57C154.76 147.72 154.65 179.64 154.58 198.72C154.57 202.62 154.55 206.06 154.51 208.62L154.52 208.61Z" fill="#303030"/>
<path d="M171.25 69.0199C178.46 67.3399 195.51 91.7499 204.3 98.6499C204.3 98.6499 210.83 99.5199 232.57 107.43C232.57 107.43 232.94 112 229.99 111.69C227.04 111.39 204.07 108.91 199.59 106.62C197.13 105.36 178.46 89.8099 172.21 83.6499C166.44 77.9699 164.04 70.6899 171.25 69.0199Z" fill="white"/>
<path d="M230.26 112.71C230.14 112.71 230.01 112.71 229.89 112.69C228.84 112.58 204.02 110.01 199.14 107.51C196.41 106.12 177.56 90.3198 171.51 84.3598C167.19 80.1098 165.08 75.4398 166 72.1798C166.41 70.7298 167.61 68.8298 171.02 68.0398C176.24 66.8198 184.58 76.1398 193.4 85.9998C197.66 90.7598 201.69 95.2698 204.71 97.6998C206.18 97.9498 213.49 99.4198 232.9 106.49C233.27 106.62 233.52 106.96 233.56 107.35C233.59 107.66 233.77 110.47 232.31 111.9C231.76 112.44 231.06 112.71 230.26 112.71ZM171.48 69.9998C169.51 70.4598 168.31 71.3798 167.93 72.7398C167.22 75.2598 169.18 79.2698 172.92 82.9498C179.2 89.1298 197.71 104.54 200.05 105.74C203.82 107.67 223.02 109.98 230.09 110.71C230.55 110.76 230.77 110.61 230.91 110.48C231.39 110.01 231.55 108.94 231.58 108.15C210.8 100.62 204.23 99.6698 204.16 99.6598C203.98 99.6398 203.82 99.5598 203.68 99.4498C200.5 96.9498 196.33 92.2898 191.91 87.3498C184.62 79.1998 175.58 69.0598 171.47 70.0098L171.48 69.9998Z" fill="#303030"/>
<path d="M187.29 97.9897C187.29 97.9897 185.31 115 187.14 123.16C188.36 128.56 176.68 131.04 170.09 130.11C167.33 129.73 165.46 128.75 165.81 127.13C166.43 124.29 165.28 118.2 162.77 107.39C159.6 93.7897 152.17 83.5097 153.67 76.0997C154.58 71.5997 161.86 68.3297 173.32 66.7597C174.3 66.6197 175.32 67.2697 176.91 68.8597C178.92 70.8697 181.83 74.4097 186.67 79.7897C193.3 87.1697 191 91.5297 187.29 97.9897Z" fill="white"/>
<path d="M187.29 97.9899C187.29 97.9899 185.31 115 187.14 123.16C188.36 128.56 176.68 131.04 170.09 130.11C169.96 129.82 169.93 129.5 170.01 129.15C170.63 126.31 169.49 120.21 166.97 109.41C163.8 95.7999 156.37 85.5299 157.87 78.1199C158.76 73.6899 165.81 70.4699 176.91 68.8599C178.92 70.8699 181.83 74.4099 186.67 79.7899C193.3 87.1699 191 91.5299 187.29 97.9899Z" fill="#245A7C"/>
<path d="M173.03 131.33C170.18 131.33 167.63 130.87 166.17 129.88C165.06 129.13 164.59 128.08 164.84 126.92C165.43 124.22 164.17 117.8 161.8 107.62C160.49 101.99 158.41 96.8798 156.58 92.3698C154 85.9998 151.76 80.4998 152.69 75.9098C153.95 69.6798 164.53 66.9598 173.19 65.7698C175.42 65.4698 177.27 67.5898 182.23 73.2598C183.66 74.8998 185.37 76.8498 187.42 79.1298C194.59 87.0998 191.85 92.0798 188.27 98.3198C188.06 100.25 186.45 115.52 188.13 122.95C188.44 124.34 188.26 126.39 185.58 128.22C182.67 130.21 177.49 131.33 173.03 131.33ZM173.46 67.7498C162.3 69.2798 155.44 72.3998 154.65 76.3098C153.84 80.3198 155.97 85.5598 158.43 91.6298C160.29 96.2098 162.39 101.39 163.74 107.18C166.29 118.13 167.46 124.26 166.79 127.36C166.75 127.52 166.69 127.83 167.29 128.23C170.11 130.13 180.15 129.51 184.45 126.57C186.56 125.12 186.27 123.82 186.17 123.39C184.32 115.16 186.22 98.5898 186.3 97.8898C186.32 97.7598 186.36 97.6298 186.43 97.5098C190.03 91.2398 192.21 87.4498 185.93 80.4798C183.87 78.1898 182.16 76.2398 180.72 74.5898C176.78 70.0798 174.6 67.6098 173.46 67.7598V67.7498Z" fill="#303030"/>
<path d="M206.02 143.98L205.66 144.51L178.32 184.83C177.77 185.65 176.67 185.86 175.85 185.31L148.88 167.03L148.24 166.59C147.43 166.04 147.22 164.93 147.77 164.12L175.47 123.26C176.02 122.45 177.12 122.24 177.94 122.79L205.55 141.51C206.36 142.06 206.57 143.16 206.02 143.98Z" fill="white"/>
<path d="M205.66 144.51L178.32 184.83C177.77 185.65 176.67 185.86 175.85 185.31L148.88 167.03L176.22 126.7C176.77 125.89 177.87 125.67 178.68 126.22L205.66 144.51Z" fill="#245A7C"/>
<path d="M176.85 186.62C176.31 186.62 175.77 186.47 175.3 186.14L147.69 167.42C147.08 167 146.66 166.37 146.52 165.64C146.38 164.91 146.53 164.17 146.95 163.56L174.65 122.7C175.07 122.09 175.7 121.67 176.42 121.53C177.15 121.39 177.89 121.54 178.5 121.96L206.11 140.68C207.38 141.54 207.71 143.27 206.85 144.54L179.15 185.4C178.61 186.19 177.74 186.62 176.85 186.62ZM148.6 164.69C148.36 165.04 148.45 165.53 148.81 165.77L176.42 184.49C176.77 184.73 177.26 184.64 177.5 184.28L205.2 143.42C205.44 143.07 205.35 142.58 204.99 142.34L177.38 123.62C177.21 123.5 177 123.46 176.8 123.5C176.6 123.54 176.42 123.65 176.3 123.83L148.6 164.69Z" fill="#303030"/>
<path d="M180.531 130.138L197.689 141.772C197.981 141.971 198.379 141.894 198.578 141.602L201.614 137.124C201.812 136.832 201.736 136.434 201.443 136.235L184.286 124.601C183.993 124.403 183.595 124.479 183.397 124.772L180.361 129.25C180.162 129.542 180.239 129.94 180.531 130.138Z" fill="white"/>
<path d="M198.02 142.89C197.7 142.89 197.38 142.8 197.1 142.61L179.94 130.98C179.58 130.73 179.33 130.36 179.25 129.93C179.17 129.5 179.25 129.06 179.5 128.7L182.53 124.23C182.78 123.87 183.15 123.62 183.58 123.54C184.01 123.46 184.45 123.54 184.81 123.79L201.97 135.42C202.72 135.93 202.91 136.95 202.41 137.7L199.38 142.18C199.06 142.65 198.54 142.9 198.02 142.9V142.89ZM181.36 129.52L197.93 140.75L200.56 136.87L183.99 125.64L181.36 129.52Z" fill="#303030"/>
<path d="M175.21 145.57C177.35 142.42 181.65 141.6 184.8 143.73C187.95 145.87 188.78 150.17 186.64 153.32C184.5 156.47 180.2 157.3 177.05 155.16C173.9 153.02 173.07 148.72 175.21 145.57Z" fill="white"/>
<path d="M180.9 157.35C179.34 157.35 177.81 156.89 176.49 155.99C174.75 154.81 173.57 153.01 173.17 150.94C172.77 148.87 173.2 146.76 174.39 145.02C176.84 141.41 181.76 140.47 185.37 142.91C187.11 144.09 188.29 145.89 188.69 147.96C189.09 150.04 188.66 152.14 187.47 153.88C186.29 155.63 184.49 156.81 182.42 157.2C181.92 157.3 181.41 157.34 180.91 157.34L180.9 157.35ZM180.93 143.54C179.04 143.54 177.18 144.45 176.04 146.13C175.16 147.43 174.83 149 175.13 150.55C175.43 152.1 176.31 153.44 177.61 154.32C178.91 155.2 180.48 155.53 182.03 155.23C183.58 154.93 184.92 154.05 185.8 152.75C186.68 151.45 187.01 149.88 186.71 148.33C186.41 146.78 185.53 145.44 184.23 144.56C183.22 143.87 182.07 143.54 180.93 143.54Z" fill="#303030"/>
<path d="M185.2 149.78L184.4 152.01L178.27 152.76L177.08 139.47L179.02 137.91L180.28 150.22L185.2 149.78Z" fill="#303030"/>
<path d="M175.39 52.8198C173.92 59.2898 173.9 65.3998 174.36 66.7398C174.72 67.8198 179.52 74.3798 180.31 77.3798C181.1 80.3698 175.37 77.9898 171.18 74.6298C168.24 72.2698 165.89 70.6298 164.74 69.8598C164.28 69.5498 164.06 68.9998 164.18 68.4498L168.7 47.0698L175.39 52.8198Z" fill="white"/>
<path d="M179.33 79.7299C176.88 79.7299 172.88 77.2799 170.55 75.3999C167.64 73.0599 165.31 71.4399 164.18 70.6799C163.38 70.1399 163 69.1899 163.2 68.2399L167.72 46.8599C167.79 46.5099 168.04 46.2298 168.38 46.1198C168.71 46.0098 169.08 46.0799 169.35 46.3099L176.04 52.0599C176.32 52.2999 176.44 52.6799 176.36 53.0399C174.88 59.5599 174.95 65.3799 175.3 66.4199C175.41 66.7099 176.17 67.8999 176.84 68.9599C178.47 71.5199 180.72 75.0299 181.26 77.1199C181.63 78.5398 180.91 79.1899 180.58 79.4099C180.24 79.6299 179.81 79.7299 179.33 79.7299ZM169.33 48.9299L165.16 68.6599C165.13 68.8099 165.18 68.9499 165.3 69.0299C166.45 69.8099 168.83 71.4699 171.8 73.8499C175.11 76.5099 178.44 77.8199 179.36 77.7599C179.36 77.7299 179.35 77.6899 179.33 77.6399C178.86 75.8499 176.63 72.3499 175.15 70.0399C174.08 68.3599 173.56 67.5399 173.4 67.0699C172.85 65.4399 172.94 59.4499 174.28 53.1999L169.33 48.9399V48.9299Z" fill="#303030"/>
<path d="M165.23 43.65C164.98 40.06 166.08 36.85 168.62 34.77C173.1 31.11 179.95 32.24 182.39 41.51C184.5 49.51 184.69 62.05 180.49 62.82C174.85 63.85 165.81 50.84 165.23 43.65Z" fill="white"/>
<path d="M179.82 63.8799C178.31 63.8799 176.63 63.1799 174.83 61.7999C169.73 57.8799 164.67 49.2698 164.23 43.7298C164.23 43.7298 164.23 43.7299 164.23 43.7199C163.95 39.6599 165.28 36.1999 167.98 33.9999C170.46 31.9699 173.47 31.3298 176.23 32.2298C179.57 33.3198 182.1 36.5199 183.34 41.2599C185.16 48.1899 185.6 58.0899 183.11 61.9999C182.46 63.0199 181.64 63.6298 180.66 63.8098C180.38 63.8598 180.1 63.8899 179.82 63.8899V63.8799ZM166.23 43.5799C166.63 48.5599 171.41 56.6499 176.05 60.2099C177.71 61.4799 179.17 62.0398 180.3 61.8398C180.72 61.7598 181.09 61.4599 181.43 60.9198C183.52 57.6298 183.1 48.1799 181.41 41.7599C180.34 37.6999 178.28 34.9898 175.61 34.1198C173.5 33.4298 171.18 33.9499 169.24 35.5399C167.06 37.3199 165.99 40.1699 166.22 43.5699L166.23 43.5799Z" fill="#303030"/>
<path d="M157.93 129.9C160.89 130.86 165.32 134.06 166.84 135.93L165.61 137.81C165.61 137.81 168.3 141.13 168.72 143.72C169.14 146.31 164.58 145.38 161.68 142.42C156.05 136.69 155.11 131.14 155.11 131.14L157.93 129.91V129.9Z" fill="white"/>
<path d="M167.26 146.22C165.39 146.22 162.84 145.01 160.97 143.11C155.19 137.22 154.17 131.53 154.13 131.29C154.05 130.84 154.29 130.39 154.72 130.21L157.54 128.98C157.76 128.88 158.02 128.87 158.25 128.94C161.41 129.97 165.97 133.25 167.63 135.28C167.91 135.62 167.93 136.09 167.69 136.46L166.85 137.75C167.67 138.87 169.37 141.38 169.72 143.55C169.89 144.62 169.49 145.49 168.62 145.93C168.24 146.12 167.78 146.21 167.27 146.21L167.26 146.22ZM156.28 131.71C156.75 133.36 158.25 137.5 162.39 141.71C164.63 143.99 167.36 144.49 167.74 144.13C167.74 144.13 167.77 144.06 167.74 143.87C167.43 141.96 165.55 139.29 164.85 138.43C164.58 138.09 164.55 137.62 164.79 137.25L165.6 136.02C163.92 134.3 160.44 131.88 157.99 130.97L156.3 131.71H156.28Z" fill="#303030"/>
<path d="M163.47 77.51C165.09 84.73 145.25 108.59 145.25 108.59C145.25 108.59 155.11 124.1 157.92 129.9C157.92 129.9 157.11 135.01 155.17 132.77C153.22 130.53 136.09 114.9 135.38 109.93C134.98 107.16 145.34 86.49 149.88 79.49C155.96 70.12 161.67 69.47 163.47 77.52V77.51Z" fill="white"/>
<path d="M156.11 134.34C155.63 134.34 155.04 134.14 154.42 133.43C154.02 132.98 152.87 131.84 151.4 130.4C143.47 122.61 134.95 113.98 134.39 110.07C133.89 106.63 145.01 85.15 149.04 78.94C152.73 73.26 156.48 70.43 159.62 71C161.24 71.29 163.4 72.62 164.45 77.29C166.04 84.37 149.96 104.43 146.49 108.67C148.37 111.64 156.31 124.27 158.83 129.47C158.92 129.65 158.95 129.86 158.92 130.06C158.74 131.18 158.16 133.82 156.59 134.27C156.45 134.31 156.29 134.34 156.11 134.34ZM158.81 72.93C156.62 72.93 153.64 75.53 150.72 80.03C145.64 87.85 136.12 107.6 136.37 109.79C136.89 113.35 148.04 124.3 152.8 128.98C154.35 130.51 155.48 131.61 155.92 132.12C155.98 132.19 156.04 132.24 156.08 132.28C156.35 131.95 156.7 131 156.88 130.05C153.94 124.15 144.5 109.28 144.41 109.13C144.18 108.76 144.21 108.29 144.49 107.95C149.92 101.42 163.74 83.26 162.5 77.73C161.87 74.92 160.72 73.23 159.27 72.97C159.12 72.94 158.97 72.93 158.82 72.93H158.81Z" fill="#303030"/>
<path d="M235.98 104.39C232.94 104.67 230.86 106.2 229.82 106.44C228.77 106.68 227.82 110.74 229.31 111.65C230.8 112.56 234.76 114.63 237.53 113.64C242.75 111.76 235.99 104.39 235.99 104.39H235.98Z" fill="white"/>
<path d="M235.89 114.9C232.97 114.9 229.83 113.14 228.78 112.5C227.76 111.88 227.33 110.42 227.62 108.6C227.7 108.13 228.15 105.8 229.58 105.47C229.81 105.42 230.24 105.21 230.69 105C231.86 104.45 233.63 103.61 235.87 103.4C236.19 103.37 236.49 103.49 236.7 103.72C237.16 104.22 241.18 108.72 240.37 112.01C240.17 112.84 239.56 113.96 237.84 114.58C237.21 114.81 236.55 114.9 235.87 114.9H235.89ZM230.15 107.38C229.88 107.68 229.46 108.89 229.54 109.96C229.58 110.51 229.74 110.74 229.82 110.79C231.98 112.11 235.2 113.4 237.17 112.69C238.13 112.34 238.35 111.86 238.44 111.52C238.86 109.79 236.71 106.79 235.57 105.44C233.91 105.68 232.56 106.32 231.55 106.8C231 107.06 230.55 107.27 230.14 107.38H230.15Z" fill="#303030"/>
<path d="M337.83 106.76C336.69 99.0999 327.65 66.8799 322.84 64.5499C313.65 60.0999 310.59 67.4299 314.07 74.5799C316.75 80.0799 325.37 100.74 328.3 105.09C328.29 105.11 321.4 109.82 314.1 121.56C313.26 122.92 313.87 124.79 314.38 125.9C314.63 126.44 315.26 126.65 315.76 126.35C322.24 122.47 334 115.38 337.13 110.24C337.9 108.98 338.07 107.8 337.84 106.75L337.83 106.76Z" fill="#EBEBEB"/>
<path d="M315.26 127.49C315.07 127.49 314.88 127.46 314.69 127.4C314.15 127.23 313.7 126.84 313.46 126.32C312.78 124.84 312.19 122.72 313.24 121.03C319.13 111.57 324.81 106.55 326.96 104.85C324.78 101.14 320.71 91.91 317.38 84.39C315.59 80.34 314.05 76.84 313.16 75.03C311.05 70.69 311.19 66.2 313.53 63.86C314.76 62.62 317.67 60.95 323.27 63.66C328.93 66.4 337.88 100.37 338.81 106.59C339.1 107.98 338.81 109.38 337.97 110.78C334.67 116.18 322.69 123.37 316.26 127.23C315.95 127.41 315.61 127.51 315.26 127.51V127.49ZM317.83 64.2C316.64 64.2 315.66 64.55 314.95 65.27C313.24 66.98 313.25 70.63 314.96 74.15C315.86 76 317.41 79.51 319.21 83.58C322.78 91.66 327.22 101.71 329.12 104.54C329.32 104.84 329.35 105.23 329.18 105.56C329.11 105.7 328.96 105.85 328.84 105.94C327.67 106.8 321.47 111.6 314.94 122.1C314.31 123.12 314.97 124.81 315.28 125.5C321.07 122.01 333.23 114.72 336.27 109.74C336.85 108.79 337.05 107.86 336.85 106.99C336.85 106.97 336.85 106.95 336.84 106.92C335.54 98.12 326.48 67.44 322.4 65.47C320.67 64.63 319.12 64.21 317.83 64.21V64.2Z" fill="#303030"/>
<path d="M270.56 270.73C270.06 270.68 269.58 270.92 269.29 271.33C268.48 272.48 267.16 273.55 265.99 273.75C260.05 274.73 255.95 276.68 254.2 277.9C253.08 278.68 253.61 280.43 254.98 280.43H274.14C274.77 280.43 275.38 279.92 275.5 279.3C276.38 274.98 274.7 271.12 274.7 271.12L270.55 270.73H270.56Z" fill="#303030"/>
<path d="M274.15 281.44H254.98C253.91 281.44 253.02 280.78 252.7 279.77C252.38 278.75 252.74 277.7 253.62 277.08C255.71 275.62 260.02 273.72 265.82 272.77C266.63 272.64 267.74 271.79 268.46 270.77C268.96 270.06 269.79 269.67 270.64 269.75L274.79 270.14C275.15 270.17 275.47 270.4 275.61 270.74C275.68 270.91 277.4 274.94 276.47 279.52C276.25 280.6 275.22 281.45 274.13 281.45L274.15 281.44ZM270.44 271.73C270.32 271.73 270.2 271.79 270.12 271.91C269.32 273.05 267.81 274.47 266.17 274.74C260.69 275.64 256.61 277.45 254.78 278.72C254.57 278.87 254.59 279.06 254.62 279.17C254.66 279.29 254.75 279.44 254.99 279.44H274.15C274.3 279.44 274.5 279.27 274.53 279.11C275.15 276.06 274.38 273.22 273.99 272.06L270.47 271.73C270.47 271.73 270.45 271.73 270.44 271.73Z" fill="#303030"/>
<path d="M320.77 270.73C320.27 270.68 319.79 270.92 319.5 271.33C318.69 272.48 317.37 273.55 316.2 273.75C310.26 274.73 306.16 276.68 304.41 277.9C303.29 278.68 303.82 280.43 305.19 280.43H324.35C324.98 280.43 325.59 279.92 325.71 279.3C326.59 274.98 324.69 271.1 324.69 271.1L320.76 270.74L320.77 270.73Z" fill="#303030"/>
<path d="M324.36 281.44H305.19C304.13 281.44 303.23 280.78 302.91 279.77C302.59 278.75 302.95 277.7 303.83 277.08C305.92 275.62 310.23 273.72 316.03 272.77C316.84 272.64 317.95 271.79 318.67 270.77C319.17 270.06 320 269.67 320.85 269.75L324.78 270.11C325.13 270.14 325.43 270.35 325.59 270.67C325.67 270.84 327.63 274.91 326.69 279.51C326.47 280.59 325.44 281.44 324.35 281.44H324.36ZM320.65 271.73C320.53 271.73 320.41 271.79 320.33 271.91C319.53 273.05 318.02 274.47 316.38 274.74C310.9 275.64 306.82 277.45 304.99 278.72C304.78 278.87 304.8 279.06 304.83 279.17C304.87 279.29 304.96 279.44 305.2 279.44H324.36C324.51 279.44 324.71 279.27 324.74 279.11C325.36 276.05 324.45 273.17 324.01 272.05L320.68 271.74C320.68 271.74 320.66 271.74 320.65 271.74V271.73Z" fill="#303030"/>
<path d="M325.88 271.49C325.88 271.49 325.47 271.84 324.74 272.15C323.46 272.7 321.21 273.12 318.55 271.34C318.55 271.34 307.06 212.74 306.8 211.16C306.54 209.57 298.25 132.99 298.25 132.99L313.47 123.45C313.47 123.45 313.81 124.1 314.34 125.27C315.72 128.32 318.39 134.89 319.64 142.45C321.59 154.23 320.3 208.01 320.3 208.01C320.3 208.01 323.95 215.09 325.3 220.73C327.66 230.63 325.88 271.49 325.88 271.49Z" fill="white"/>
<path d="M325.88 271.49C325.88 271.49 325.47 271.84 324.74 272.15C324.08 271.95 323.38 271.63 322.65 271.14C322.65 271.14 311.16 212.54 310.9 210.95C310.64 209.37 302.35 132.79 302.35 132.79L314.34 125.27C315.72 128.32 318.39 134.89 319.64 142.45C321.59 154.23 320.3 208.01 320.3 208.01C320.3 208.01 323.95 215.09 325.3 220.73C327.66 230.63 325.88 271.49 325.88 271.49Z" fill="#245A7C"/>
<path d="M322.45 273.62C321.12 273.62 319.59 273.24 318 272.18C317.78 272.03 317.63 271.8 317.57 271.54C317.1 269.15 306.07 212.9 305.81 211.32C305.55 209.73 297.6 136.23 297.26 133.1C297.22 132.72 297.4 132.35 297.72 132.14L312.93 122.6C313.17 122.45 313.45 122.41 313.72 122.48C313.99 122.55 314.22 122.74 314.34 122.98C314.52 123.33 318.88 131.79 320.61 142.28C322.5 153.73 321.39 203.29 321.29 207.77C321.94 209.06 325.01 215.29 326.25 220.49C328.62 230.41 326.93 269.85 326.86 271.53C326.85 271.81 326.72 272.07 326.5 272.25C325.75 272.88 324.27 273.6 322.42 273.6L322.45 273.62ZM319.45 270.73C322.07 272.3 324.12 271.42 324.9 270.96C325.09 266.28 326.49 230.03 324.32 220.97C323.02 215.51 319.44 208.54 319.41 208.47C319.33 208.32 319.29 208.16 319.3 207.99C319.31 207.45 320.56 154.17 318.65 142.62C317.3 134.47 314.23 127.41 313.05 124.89L299.31 133.51C302.19 160.14 307.58 209.75 307.78 211C308.02 212.48 318.4 265.43 319.44 270.73H319.45Z" fill="#303030"/>
<path d="M315.08 148.67C313.09 160.44 290.71 210.61 290.71 210.61C290.71 210.61 291.65 218.51 290.94 224.27C289.68 234.37 275.31 273 275.31 273C275.31 273 275.27 273.08 275.12 273.16C274.69 273.4 273.3 273.6 269.29 271.33C269.29 271.33 276.65 210.4 276.97 208.82C277.28 207.25 292.56 130.67 292.56 130.67L309.72 124.61C309.72 124.61 310.29 125.18 311.07 126.33C313.25 129.48 317.06 136.96 315.08 148.67Z" fill="white"/>
<path d="M315.08 148.67C313.09 160.44 290.71 210.61 290.71 210.61C290.71 210.61 291.65 218.51 290.94 224.27C289.68 234.37 275.31 273 275.31 273C275.31 273 275.27 273.08 275.12 273.16C274.56 272.89 273.92 272.56 273.19 272.15C273.19 272.15 280.55 211.22 280.86 209.64C281.17 208.07 296.45 131.49 296.45 131.49L311.07 126.33C313.25 129.48 317.06 136.96 315.08 148.67Z" fill="#245A7C"/>
<path d="M274.43 274.3C273.14 274.3 271.28 273.61 268.8 272.2C268.45 272 268.25 271.61 268.3 271.21C268.6 268.72 275.67 210.22 275.98 208.63C276.3 207.06 291.57 130.48 291.57 130.48C291.64 130.13 291.88 129.85 292.22 129.73L309.38 123.67C309.74 123.54 310.15 123.63 310.42 123.91C310.76 124.26 318.81 132.57 316.06 148.83C314.12 160.29 293.63 206.49 291.73 210.76C291.89 212.24 292.58 219.12 291.92 224.39C290.67 234.49 276.82 271.76 276.24 273.34C276.23 273.38 276.21 273.42 276.19 273.45C276.11 273.61 275.85 273.99 275.22 274.18C274.99 274.25 274.72 274.28 274.43 274.28V274.3ZM270.37 270.78C272.99 272.19 274.11 272.3 274.51 272.29C275.96 268.37 288.79 233.5 289.95 224.15C290.64 218.58 289.73 210.8 289.72 210.72C289.7 210.54 289.72 210.36 289.8 210.19C290.02 209.69 312.15 160.01 314.1 148.49C316.33 135.31 310.97 127.66 309.42 125.77L293.43 131.42C292.05 138.35 278.25 207.51 277.95 209.01C277.7 210.3 272.93 249.58 270.37 270.77V270.78Z" fill="#303030"/>
<path d="M315.01 129.53C315.4 132.06 305.63 135.31 299.03 134.95C298.63 134.93 298.24 134.89 297.88 134.83C294.32 134.3 292.6 132.34 292.56 130.67C292.5 127.85 288.79 94.65 291.03 79.74C293.28 64.77 311.7 60.47 313.21 60.43C317.07 60.32 319.75 61.54 321.57 63.26C324.24 65.77 325.12 69.35 325.27 71.41C326.16 83.89 313.41 119.02 315.01 129.53Z" fill="white"/>
<path d="M315.01 129.53C315.4 132.06 305.63 135.31 299.03 134.95C298.63 134.93 298.24 134.89 297.88 134.83C297.51 134.29 297.32 133.71 297.31 133.17C297.25 130.35 293.54 97.1499 295.78 82.2399C298.03 67.2699 316.45 62.9699 317.96 62.9299C319.31 62.8899 320.51 63.0099 321.57 63.2599C324.24 65.7699 325.12 69.3499 325.27 71.4099C326.16 83.8899 313.41 119.02 315.01 129.53Z" fill="#EBEBEB"/>
<path d="M300.08 135.98C299.7 135.98 299.34 135.98 298.98 135.95C294.18 135.69 291.62 133.11 291.56 130.7C291.55 130.21 291.41 128.6 291.21 126.37C290.31 116.04 288.19 91.8499 290.03 79.5999C292.35 64.1499 310.78 59.4999 313.17 59.4299C313.34 59.4299 313.51 59.4299 313.67 59.4299C322.91 59.4299 325.92 66.8799 326.25 71.3499C326.7 77.6599 323.78 89.5199 320.95 100.99C318.13 112.43 315.21 124.26 315.99 129.39C316.06 129.86 315.99 130.59 315.25 131.41C313.06 133.82 305.7 135.99 300.06 135.99L300.08 135.98ZM313.69 61.4199C313.54 61.4199 313.39 61.4199 313.24 61.4199C311.35 61.4899 294.11 65.9599 292.02 79.8799C290.21 91.8999 292.31 115.92 293.21 126.18C293.42 128.53 293.55 130.08 293.56 130.64C293.59 131.8 295.11 133.72 299.09 133.94C304.32 134.21 311.57 132.1 313.61 130.22C313.94 129.92 314.02 129.72 314.02 129.67C313.18 124.15 316.02 112.66 319.02 100.49C321.81 89.1699 324.7 77.4699 324.27 71.4699C324.19 70.4299 323.27 61.4099 313.69 61.4099V61.4199Z" fill="#303030"/>
<path d="M318.43 51.2499L318.89 63.2999C318.89 63.2999 319.35 65.4199 313.29 63.6999C307.24 61.9899 306.15 62.5199 306.15 62.5199L311.26 39.9199L318.43 51.2499Z" fill="white"/>
<path d="M317.07 65.37C316.03 65.37 314.69 65.13 313.02 64.66C308.05 63.25 306.65 63.43 306.49 63.46C306.17 63.57 305.81 63.52 305.54 63.3C305.24 63.06 305.1 62.67 305.18 62.29L310.29 39.69C310.38 39.3 310.7 38.99 311.1 38.93C311.5 38.86 311.9 39.04 312.11 39.38L319.27 50.71C319.36 50.86 319.42 51.03 319.42 51.21L319.88 63.2C319.93 63.62 319.82 64.21 319.32 64.68C318.83 65.14 318.09 65.37 317.06 65.37H317.07ZM307.42 61.46C308.83 61.56 310.92 61.99 313.56 62.73C316.62 63.6 317.62 63.36 317.88 63.25L317.43 51.55L311.7 42.49L307.41 61.46H307.42Z" fill="#303030"/>
<path d="M315.18 43.4999C308.68 53.3899 297.7 53.4699 296.23 51.2799C294.76 49.0899 298.91 32.0199 307.32 25.1199C311.59 21.6199 315.19 43.4999 315.19 43.4999H315.18Z" fill="white"/>
<path d="M300.04 53.4299C297.78 53.4299 296.09 52.8499 295.4 51.8299C293.52 49.0499 297.91 31.5299 306.68 24.3399C307.41 23.7399 308.25 23.5799 309.06 23.8799C313.03 25.3799 315.68 40.3399 316.17 43.3199C316.21 43.5699 316.16 43.8199 316.02 44.0299C311.49 50.9099 304.83 53.3899 300.11 53.4199H300.04V53.4299ZM308.26 25.7399C308.19 25.7399 308.1 25.7699 307.95 25.8899C299.7 32.6599 296.04 48.8699 297.06 50.7199C297.21 50.9499 298.15 51.4299 300.03 51.4299H300.09C304.22 51.4099 310.04 49.2499 314.13 43.2699C312.79 35.3199 310.23 26.4699 308.35 25.7599C308.32 25.7599 308.29 25.7399 308.25 25.7399H308.26Z" fill="#303030"/>
<path d="M318.98 52.2299C318.19 53.3699 316.25 53.55 314.37 51.52C313.77 50.87 309.3 46.27 310.64 44.36C314.76 38.47 310.7 37.29 308.48 39.36C307.74 40.05 306.4 40.01 306.6 39.04C307.12 36.58 307.26 32.98 305.96 32C298.98 26.76 308.92 12.96 308.92 12.96C308.92 12.96 312.52 14.8999 318.15 16.2299C325.75 18.03 331.55 23.08 332.82 29.4799C334.53 38.09 321.81 48.14 318.98 52.24V52.2299Z" fill="#303030"/>
<path d="M317.29 54.0799C316.05 54.0799 314.77 53.4199 313.64 52.2099L313.54 52.1099C309.86 48.1999 308.65 45.4799 309.82 43.7999C311.55 41.3199 311.6 39.9199 311.21 39.5799C310.89 39.2999 309.95 39.3599 309.16 40.0999C308.37 40.8399 307.17 41.0599 306.37 40.6099C305.75 40.2599 305.47 39.5899 305.62 38.8399C306.25 35.8699 305.99 33.2699 305.36 32.7999C297.68 27.0399 307.68 12.9699 308.11 12.3699C308.4 11.9599 308.95 11.8399 309.4 12.0699C309.44 12.0899 312.97 13.9699 318.39 15.2499C326.57 17.1799 332.47 22.5599 333.81 29.2799C335.2 36.2899 327.99 43.8999 323.23 48.9399C321.75 50.5099 320.47 51.8599 319.82 52.7999C319.31 53.5399 318.48 53.9999 317.55 54.0599C317.47 54.0599 317.38 54.0599 317.3 54.0599L317.29 54.0799ZM310.69 37.4199C311.38 37.4199 312.03 37.6299 312.52 38.0599C313.22 38.6699 314.52 40.5599 311.46 44.9399C311.46 44.9499 310.69 46.1599 315 50.7399L315.11 50.8499C315.88 51.6799 316.72 52.1199 317.4 52.0699C317.73 52.0499 318 51.9099 318.17 51.6599C318.91 50.5899 320.24 49.1899 321.78 47.5599C326.27 42.8199 333.04 35.6599 331.86 29.6699C330.7 23.8199 325.24 18.9199 317.94 17.1999C313.74 16.2099 310.66 14.8899 309.28 14.2399C307.46 17.0099 301.29 27.2299 306.58 31.1999C308.55 32.6699 307.98 37.1199 307.7 38.7199C307.74 38.6999 307.78 38.6699 307.82 38.6299C308.67 37.8399 309.74 37.4199 310.71 37.4199H310.69Z" fill="#303030"/>
<path d="M231.23 112.8C232.34 110 235.5 106.16 237.33 105.65C240.08 104.87 244.83 106.54 246.29 107.79C253.35 109.84 243.76 112.27 243.63 112.15C240.71 114.22 238.75 114.83 237.11 114.83C235.18 114.83 230.32 115.11 231.23 112.8Z" fill="white"/>
<path d="M235.81 115.83C233.42 115.83 231.3 115.65 230.46 114.42C230.19 114.02 229.94 113.35 230.3 112.43C231.47 109.47 234.82 105.31 237.06 104.68C240.12 103.82 245.01 105.54 246.76 106.88C248.19 107.31 249.76 107.98 249.87 109.32C249.99 110.76 248.29 111.59 247.72 111.87C247.69 111.88 245.5 112.92 244.03 113.08C241.32 114.98 239.17 115.83 237.1 115.83H236.55C236.3 115.83 236.04 115.83 235.79 115.83H235.81ZM232.16 113.16C232.12 113.27 232.12 113.32 232.12 113.32C232.3 113.55 233.23 113.86 236.54 113.82H237.11C238.78 113.82 240.61 113.04 243.05 111.31C243.23 111.18 243.43 111.12 243.65 111.13C244.53 111 247.16 110.11 247.79 109.48C247.6 109.33 247.12 109.06 246.01 108.73C245.87 108.69 245.75 108.62 245.64 108.53C244.39 107.46 239.98 105.92 237.6 106.6C236.26 106.98 233.27 110.36 232.16 113.16Z" fill="#303030"/>
<path d="M309.24 75.9399C307.92 83.4899 287.91 112.09 282.73 115.92C282.73 115.92 282.62 115.85 282.45 115.72C281.92 116.16 281.27 116.5 280.44 116.71C275.17 118.02 256.24 114.99 246.96 113.05C245.85 112.81 244.87 112.59 244.08 112.4C243.51 112.26 243.21 111.66 243.41 111.1C243.83 109.93 244.68 107.9 246.29 107.77C263.85 106.43 277.69 105.7 277.71 105.69C277.96 105.43 278.21 105.23 278.46 105.08C281.49 97.8899 293.3 71.3499 297.19 67.6499C300.97 64.0399 306.5 65.0599 308.6 69.5299C309.39 71.1999 309.69 73.3599 309.24 75.9399Z" fill="white"/>
<path d="M309.24 75.9401C307.92 83.4901 287.91 112.09 282.73 115.92C282.73 115.92 282.62 115.85 282.45 115.72C281.92 116.16 281.27 116.5 280.44 116.71C275.17 118.02 256.24 114.99 246.96 113.05C247.46 112.07 248.2 111.11 249.29 111.02C266.85 109.68 280.69 108.95 280.71 108.94C280.96 108.68 281.21 108.48 281.46 108.33C284.49 101.14 296.3 74.6001 300.19 70.9001C302.73 68.4801 306.05 68.1401 308.6 69.5301C309.39 71.2001 309.69 73.3601 309.24 75.9401Z" fill="#EBEBEB"/>
<path d="M276.63 118.03C267.31 118.03 249.26 114.69 243.84 113.37C243.3 113.24 242.84 112.88 242.58 112.39C242.31 111.89 242.27 111.29 242.47 110.75C242.81 109.81 243.84 106.96 246.21 106.77C256.23 106 267.2 105.27 277.11 104.72H277.28C277.4 104.6 277.53 104.5 277.66 104.4C280.21 98.36 292.3 70.91 296.49 66.91C299.2 64.32 302.95 63.71 306.02 65.36C308.71 66.8 311.22 70.38 310.22 76.1C308.85 83.88 288.53 112.85 283.32 116.71C283.09 116.88 282.8 116.94 282.53 116.89C281.98 117.24 281.36 117.5 280.68 117.67C279.69 117.92 278.3 118.02 276.63 118.02V118.03ZM297.88 68.38C294.42 71.68 283.4 95.92 279.39 105.48C279.31 105.68 279.16 105.85 278.97 105.96C278.78 106.07 278.62 106.21 278.45 106.38C278.33 106.51 278.17 106.61 278 106.66C277.92 106.68 277.66 106.703 277.22 106.73C267.33 107.28 256.37 108.01 246.36 108.78C245.64 108.84 244.97 109.73 244.35 111.44C252.31 113.37 274.72 117.11 280.19 115.74C280.83 115.58 281.36 115.32 281.81 114.95C282.04 114.77 282.32 114.7 282.6 114.73C288.09 109.9 307 82.93 308.25 75.77C308.95 71.8 307.76 68.57 305.08 67.14C302.78 65.91 299.95 66.39 297.87 68.37L297.88 68.38Z" fill="#303030"/>
</svg>
