<svg width="273" height="282" viewBox="0 0 273 282" fill="none" xmlns="http://www.w3.org/2000/svg">
<path d="M68.5602 216.58H174.43C179.27 216.58 181.98 212.65 180.49 207.81L124.86 9.75999C123.36 4.91999 118.22 0.98999 113.38 0.98999H7.51015C2.67015 0.98999 -0.0398483 4.91999 1.45015 9.75999L57.0801 207.81C58.5801 212.65 63.7201 216.58 68.5602 216.58Z" fill="white"/>
<path d="M174.43 217.58H68.5601C63.3201 217.58 57.7401 213.33 56.1201 208.11L0.490131 10.04C-0.329869 7.38001 -0.00986493 4.74 1.40014 2.84C2.75013 1.01 4.92014 0.0100098 7.51014 0.0100098H113.38C118.62 0.0100098 124.2 4.26 125.82 9.48L181.45 207.55C182.27 210.22 181.95 212.85 180.54 214.76C179.19 216.59 177.02 217.59 174.43 217.59V217.58ZM7.51014 2C5.57014 2 3.97014 2.72 3.01014 4.02C1.97014 5.43 1.76013 7.36 2.41013 9.47L58.0401 207.54C59.4101 211.96 64.1301 215.58 68.5601 215.58H174.43C176.37 215.58 177.97 214.86 178.93 213.56C179.97 212.15 180.18 210.21 179.53 208.11L123.9 10.04C122.53 5.62001 117.81 2 113.38 2H7.51014Z" fill="#303030"/>
<path d="M181.14 216.57H75.2801C73.7801 216.57 72.2601 216.2 70.8301 215.53C67.6101 214.06 64.8401 211.15 63.8001 207.8L8.17009 9.75999C6.67009 4.91999 9.38009 0.98999 14.2301 0.98999H120.09C122.89 0.98999 125.79 2.29999 128.03 4.34999C129.67 5.83999 130.95 7.71999 131.57 9.75999L187.2 207.8C188.7 212.65 185.99 216.57 181.14 216.57Z" fill="white"/>
<path d="M181.14 216.57H75.2801C73.7801 216.57 72.2601 216.2 70.8301 215.53C69.2101 214.05 67.9401 212.18 67.3101 210.15L11.6901 12.1001C10.1901 7.26008 12.9001 3.33008 17.7401 3.33008H123.61C125.09 3.33008 126.6 3.70008 128.03 4.35008C129.67 5.84008 130.95 7.72009 131.57 9.76009L187.2 207.8C188.7 212.65 185.99 216.57 181.14 216.57Z" fill="#245A7C"/>
<path d="M181.14 217.58H75.2701C70.0301 217.58 64.4501 213.33 62.8301 208.11L7.2001 10.04C6.3801 7.38001 6.70009 4.74 8.11009 2.83C9.46009 1 11.6301 0 14.2201 0H120.09C125.33 0 130.91 4.25 132.53 9.47L188.16 207.54C188.98 210.21 188.66 212.84 187.25 214.75C185.9 216.58 183.73 217.58 181.14 217.58ZM14.2301 1.99001C12.2901 1.99001 10.6901 2.71001 9.7301 4.01001C8.6901 5.42001 8.48009 7.36001 9.13009 9.46001L64.7601 207.53C66.1301 211.95 70.8501 215.57 75.2801 215.57H181.15C183.09 215.57 184.69 214.85 185.65 213.55C186.69 212.14 186.9 210.21 186.25 208.1L130.62 10.03C129.25 5.61 124.53 1.99001 120.1 1.99001H14.2301Z" fill="#303030"/>
<path d="M18.5301 20.4901C18.0501 18.9401 18.1801 17.5401 18.8901 16.5401C19.5601 15.6101 20.7201 15.0901 22.1701 15.0901H119.6C123.17 15.0901 127.12 18.1301 128.23 21.7201L179.82 206.72C180.09 207.58 180.03 208.34 179.66 208.86C179.31 209.34 178.71 209.6 177.92 209.6H75.4501C73.2901 209.6 70.7901 207.68 70.1101 205.48L18.5201 20.4801L18.5301 20.4901Z" fill="white"/>
<path d="M177.93 210.61H75.4601C72.8601 210.61 69.9801 208.4 69.1701 205.79L17.5701 20.7801C17.0001 18.9301 17.1801 17.2201 18.0801 15.9701C18.9401 14.7701 20.4001 14.1001 22.1701 14.1001H119.6C123.63 14.1001 127.94 17.3901 129.19 21.4401L180.79 206.47C181.15 207.61 181.04 208.68 180.48 209.46C179.95 210.21 179.04 210.61 177.93 210.61ZM22.1701 16.0901C21.0601 16.0901 20.1801 16.4601 19.7101 17.1201C19.1801 17.8601 19.1101 18.9501 19.4901 20.1901C19.4901 20.1901 19.4901 20.2101 19.4901 20.2201L71.0801 205.22C71.6201 206.98 73.7101 208.6 75.4501 208.6H177.92C178.18 208.6 178.65 208.56 178.85 208.28C179.03 208.03 179.04 207.56 178.87 207.02L127.27 21.9901C126.3 18.8601 122.71 16.0901 119.6 16.0901H22.1701Z" fill="#303030"/>
<path d="M63.8601 9.63011H77.2701C77.9701 9.63011 78.3501 9.0701 78.1401 8.3701C77.9301 7.6701 77.1901 7.11011 76.4901 7.11011H63.0801C62.3801 7.11011 62.0001 7.6701 62.2101 8.3701C62.4201 9.0701 63.1601 9.63011 63.8601 9.63011Z" fill="white"/>
<path d="M76.4901 7.12012C77.1801 7.12012 77.9201 7.68013 78.1401 8.38013C78.3601 9.07013 77.9701 9.64012 77.2701 9.64012H63.8601C63.1601 9.64012 62.4302 9.08013 62.2102 8.38013C61.9902 7.68013 62.3801 7.12012 63.0801 7.12012H76.4901ZM76.4901 5.12012H63.0801C62.1201 5.12012 61.2502 5.54012 60.7102 6.28012C60.1502 7.03012 60.0101 8.01012 60.3001 8.97012C60.7801 10.5201 62.2701 11.6401 63.8601 11.6401H77.2701C78.2301 11.6401 79.1001 11.2201 79.6401 10.4801C80.2001 9.73012 80.3401 8.75013 80.0501 7.79013C79.5701 6.24013 78.0801 5.12012 76.4901 5.12012Z" fill="#303030"/>
<path d="M53.5301 49.6899C53.5301 63.6599 42.2101 74.9899 28.2401 74.9899C22.8701 74.9899 17.9001 73.3199 13.8101 70.4699C7.24013 65.8999 2.94012 58.2999 2.94012 49.6899C2.94012 35.7199 14.2701 24.3999 28.2401 24.3999C34.8801 24.3999 40.9201 26.9599 45.4301 31.1499C50.4101 35.7599 53.5301 42.3599 53.5301 49.6899Z" fill="white"/>
<path d="M53.5301 49.6899C53.5301 63.6599 42.2101 74.9899 28.2401 74.9899C22.8701 74.9899 17.9001 73.3199 13.8101 70.4699C8.83009 65.8499 5.71008 59.2499 5.71008 51.9199C5.71008 37.9499 17.0401 26.6299 31.0101 26.6299C36.3701 26.6299 41.3401 28.2999 45.4301 31.1499C50.4101 35.7599 53.5301 42.3599 53.5301 49.6899Z" fill="#EBEBEB"/>
<path d="M28.2401 75.9899C13.7401 75.9899 1.94012 64.1899 1.94012 49.6999C1.94012 35.2099 13.7401 23.4099 28.2401 23.4099C42.7401 23.4099 54.5301 35.2099 54.5301 49.6999C54.5301 64.1899 42.7301 75.9899 28.2401 75.9899ZM28.2401 25.3999C14.8401 25.3999 3.94012 36.2999 3.94012 49.6899C3.94012 63.0799 14.8401 73.9799 28.2401 73.9799C41.6401 73.9799 52.5301 63.0799 52.5301 49.6899C52.5301 36.2999 41.6301 25.3999 28.2401 25.3999Z" fill="#303030"/>
<path d="M25.7901 54.91L13.8801 44.33V56.67L25.7901 66.91L44.3401 40.76V34.54L25.7901 54.91Z" fill="white"/>
<path d="M25.7901 67.9099C25.5501 67.9099 25.3201 67.8299 25.1401 67.6699L13.2301 57.4299C13.0101 57.2399 12.8801 56.9599 12.8801 56.6699V44.3299C12.8801 43.9399 13.1101 43.5799 13.4701 43.4199C13.8301 43.2599 14.2501 43.3199 14.5401 43.5799L25.7201 53.5099L43.6001 33.8699C43.8801 33.5699 44.3101 33.4599 44.7001 33.6099C45.0801 33.7599 45.3401 34.1299 45.3401 34.5399V40.7699C45.3401 40.9799 45.2801 41.1799 45.1601 41.3499L26.6101 67.4899C26.4501 67.7199 26.2001 67.8699 25.9201 67.8999C25.8801 67.8999 25.8401 67.8999 25.8001 67.8999L25.7901 67.9099ZM14.8801 56.2099L25.6101 65.4299L43.3401 40.4399V37.1199L26.5301 55.5799C26.1601 55.9799 25.5301 56.0199 25.1301 55.6499L14.8801 46.5499V56.1999V56.2099Z" fill="#303030"/>
<path d="M117.5 25.07C130.51 34.13 118.08 44.64 123.08 53.85C130.22 67 115.18 64.52 110.84 97.05C106.86 126.88 76.0601 117.66 69.5301 103.46C56.2501 74.57 84.5501 60.76 83.5901 52.95C81.3201 34.47 100.1 12.97 117.49 25.08L117.5 25.07Z" fill="#303030"/>
<path d="M92.0801 117.77C82.6801 117.77 72.2601 111.8 68.6201 103.87C59.1801 83.33 70.1601 70.21 77.4201 61.53C80.3301 58.05 82.8401 55.05 82.6001 53.06C81.2301 41.92 87.3401 29.22 96.8101 23.51C103.79 19.3 111.34 19.56 118.06 24.25C126.34 30.01 124.94 36.59 123.7 42.39C122.87 46.28 122.09 49.96 123.94 53.37C127.72 60.33 125.56 63.54 122.31 68.4C119 73.33 114.01 80.78 111.82 97.18C109.7 113.04 100.46 116.75 95.1301 117.55C94.1301 117.7 93.1101 117.77 92.0701 117.77H92.0801ZM106.92 22.56C103.87 22.56 100.8 23.45 97.8501 25.23C89.0101 30.56 83.3101 42.42 84.5901 52.83C84.9401 55.67 82.3001 58.83 78.9601 62.82C72.0201 71.12 61.5301 83.65 70.4401 103.04C74.1501 111.11 85.5501 116.97 94.8401 115.57C103.08 114.33 108.4 107.71 109.84 96.91C112.09 80.05 117.24 72.36 120.65 67.28C123.9 62.43 125.39 60.22 122.19 54.32C119.99 50.26 120.88 46.04 121.75 41.97C122.96 36.27 124.1 30.89 116.92 25.89C113.73 23.67 110.34 22.56 106.92 22.56Z" fill="#303030"/>
<path d="M135.94 209.6H87.5001C87.8101 195.81 86.8401 149.68 91.7301 138.16C95.6701 128.91 99.1901 128.33 100.58 126.28C102.29 123.76 109.08 123.42 114.41 123.58H114.45C118.2 123.7 121.23 124.05 121.23 124.05C125.29 138.44 132.26 184.35 135.94 209.6Z" fill="white"/>
<path d="M135.94 209.6H91.5302C91.8502 195.81 90.8702 149.68 95.7702 138.16C99.7002 128.91 103.23 128.33 104.62 126.28C105.91 124.37 110.12 123.71 114.41 123.58H114.45C118.2 123.7 121.23 124.05 121.23 124.05C125.29 138.44 132.26 184.35 135.94 209.6Z" fill="#EBEBEB"/>
<path d="M135.94 210.61H87.5001C87.2301 210.61 86.9701 210.5 86.7901 210.31C86.6001 210.12 86.5001 209.86 86.5001 209.59C86.5601 206.98 86.5701 203.14 86.5901 198.7C86.6601 179.47 86.7701 147.3 90.8201 137.78C93.7501 130.89 96.5001 128.61 98.3201 127.11C98.9501 126.59 99.4501 126.18 99.7601 125.72C102.93 121.04 119.48 122.84 121.35 123.06C121.75 123.11 122.09 123.39 122.2 123.78C126.25 138.15 133.17 183.63 136.94 209.46C136.98 209.75 136.9 210.04 136.71 210.26C136.52 210.48 136.24 210.61 135.95 210.61H135.94ZM88.5201 208.61H134.78C131.05 183.03 124.43 139.69 120.44 124.98C113.76 124.27 103.22 124.17 101.41 126.85C100.94 127.54 100.32 128.06 99.5901 128.66C97.9201 130.04 95.3901 132.12 92.6501 138.57C88.7601 147.72 88.6501 179.64 88.5801 198.72C88.5701 202.62 88.5501 206.06 88.5101 208.62L88.5201 208.61Z" fill="#303030"/>
<path d="M105.25 69.0199C112.46 67.3399 129.51 91.7499 138.3 98.6499C138.3 98.6499 144.83 99.5199 166.57 107.43C166.57 107.43 166.94 112 163.99 111.69C161.04 111.39 138.07 108.91 133.59 106.62C131.13 105.36 112.46 89.8099 106.21 83.6499C100.44 77.9699 98.04 70.6899 105.25 69.0199Z" fill="white"/>
<path d="M164.26 112.71C164.14 112.71 164.01 112.71 163.89 112.69C162.84 112.58 138.02 110.01 133.14 107.51C130.41 106.12 111.56 90.3198 105.51 84.3598C101.19 80.1098 99.0801 75.4398 100 72.1798C100.41 70.7298 101.61 68.8298 105.02 68.0398C110.24 66.8198 118.58 76.1398 127.4 85.9998C131.66 90.7598 135.69 95.2698 138.71 97.6998C140.18 97.9498 147.49 99.4198 166.9 106.49C167.27 106.62 167.52 106.96 167.56 107.35C167.59 107.66 167.77 110.47 166.31 111.9C165.76 112.44 165.06 112.71 164.26 112.71ZM105.48 69.9998C103.51 70.4598 102.31 71.3798 101.93 72.7398C101.22 75.2598 103.18 79.2698 106.92 82.9498C113.2 89.1298 131.71 104.54 134.05 105.74C137.82 107.67 157.02 109.98 164.09 110.71C164.55 110.76 164.77 110.61 164.91 110.48C165.39 110.01 165.55 108.94 165.58 108.15C144.8 100.62 138.23 99.6698 138.16 99.6598C137.98 99.6398 137.82 99.5598 137.68 99.4498C134.5 96.9498 130.33 92.2898 125.91 87.3498C118.62 79.1998 109.58 69.0598 105.47 70.0098L105.48 69.9998Z" fill="#303030"/>
<path d="M121.29 97.9897C121.29 97.9897 119.31 115 121.14 123.16C122.36 128.56 110.68 131.04 104.09 130.11C101.33 129.73 99.46 128.75 99.81 127.13C100.43 124.29 99.28 118.2 96.77 107.39C93.6 93.7897 86.17 83.5097 87.67 76.0997C88.58 71.5997 95.86 68.3297 107.32 66.7597C108.3 66.6197 109.32 67.2697 110.91 68.8597C112.92 70.8697 115.83 74.4097 120.67 79.7897C127.3 87.1697 125 91.5297 121.29 97.9897Z" fill="white"/>
<path d="M121.29 97.9899C121.29 97.9899 119.31 115 121.14 123.16C122.36 128.56 110.68 131.04 104.09 130.11C103.96 129.82 103.93 129.5 104.01 129.15C104.63 126.31 103.49 120.21 100.97 109.41C97.8 95.7999 90.37 85.5299 91.87 78.1199C92.76 73.6899 99.81 70.4699 110.91 68.8599C112.92 70.8699 115.83 74.4099 120.67 79.7899C127.3 87.1699 125 91.5299 121.29 97.9899Z" fill="#245A7C"/>
<path d="M107.03 131.33C104.18 131.33 101.63 130.87 100.17 129.88C99.0601 129.13 98.59 128.08 98.84 126.92C99.43 124.22 98.17 117.8 95.8 107.62C94.49 101.99 92.41 96.8798 90.58 92.3698C88 85.9998 85.76 80.4998 86.69 75.9098C87.95 69.6798 98.53 66.9598 107.19 65.7698C109.42 65.4698 111.27 67.5898 116.23 73.2598C117.66 74.8998 119.37 76.8498 121.42 79.1298C128.59 87.0998 125.85 92.0798 122.27 98.3198C122.06 100.25 120.45 115.52 122.13 122.95C122.44 124.34 122.26 126.39 119.58 128.22C116.67 130.21 111.49 131.33 107.03 131.33ZM107.46 67.7498C96.3 69.2798 89.44 72.3998 88.65 76.3098C87.84 80.3198 89.97 85.5598 92.43 91.6298C94.29 96.2098 96.39 101.39 97.74 107.18C100.29 118.13 101.46 124.26 100.79 127.36C100.75 127.52 100.69 127.83 101.29 128.23C104.11 130.13 114.15 129.51 118.45 126.57C120.56 125.12 120.27 123.82 120.17 123.39C118.32 115.16 120.22 98.5898 120.3 97.8898C120.32 97.7598 120.36 97.6298 120.43 97.5098C124.03 91.2398 126.21 87.4498 119.93 80.4798C117.87 78.1898 116.16 76.2398 114.72 74.5898C110.78 70.0798 108.6 67.6098 107.46 67.7598V67.7498Z" fill="#303030"/>
<path d="M140.02 143.98L139.66 144.51L112.32 184.83C111.77 185.65 110.67 185.86 109.85 185.31L82.8801 167.03L82.2401 166.59C81.4301 166.04 81.2201 164.93 81.7701 164.12L109.47 123.26C110.02 122.45 111.12 122.24 111.94 122.79L139.55 141.51C140.36 142.06 140.57 143.16 140.02 143.98Z" fill="white"/>
<path d="M139.66 144.51L112.32 184.83C111.77 185.65 110.67 185.86 109.85 185.31L82.8801 167.03L110.22 126.7C110.77 125.89 111.87 125.67 112.68 126.22L139.66 144.51Z" fill="#245A7C"/>
<path d="M110.85 186.62C110.31 186.62 109.77 186.47 109.3 186.14L81.6901 167.42C81.0801 167 80.6601 166.37 80.5201 165.64C80.3801 164.91 80.5301 164.17 80.9501 163.56L108.65 122.7C109.07 122.09 109.7 121.67 110.42 121.53C111.15 121.39 111.89 121.54 112.5 121.96L140.11 140.68C141.38 141.54 141.71 143.27 140.85 144.54L113.15 185.4C112.61 186.19 111.74 186.62 110.85 186.62ZM82.6001 164.69C82.3601 165.04 82.4501 165.53 82.8101 165.77L110.42 184.49C110.77 184.73 111.26 184.64 111.5 184.28L139.2 143.42C139.44 143.07 139.35 142.58 138.99 142.34L111.38 123.62C111.21 123.5 111 123.46 110.8 123.5C110.6 123.54 110.42 123.65 110.3 123.83L82.6001 164.69Z" fill="#303030"/>
<path d="M114.531 130.138L131.689 141.772C131.981 141.971 132.379 141.894 132.578 141.602L135.614 137.124C135.812 136.832 135.736 136.434 135.443 136.235L118.286 124.601C117.993 124.403 117.595 124.479 117.397 124.772L114.361 129.25C114.162 129.542 114.239 129.94 114.531 130.138Z" fill="white"/>
<path d="M132.02 142.89C131.7 142.89 131.38 142.8 131.1 142.61L113.94 130.98C113.58 130.73 113.33 130.36 113.25 129.93C113.17 129.5 113.25 129.06 113.5 128.7L116.53 124.23C116.78 123.87 117.15 123.62 117.58 123.54C118.01 123.46 118.45 123.54 118.81 123.79L135.97 135.42C136.72 135.93 136.91 136.95 136.41 137.7L133.38 142.18C133.06 142.65 132.54 142.9 132.02 142.9V142.89ZM115.36 129.52L131.93 140.75L134.56 136.87L117.99 125.64L115.36 129.52Z" fill="#303030"/>
<path d="M109.21 145.57C111.35 142.42 115.65 141.6 118.8 143.73C121.95 145.87 122.78 150.17 120.64 153.32C118.5 156.47 114.2 157.3 111.05 155.16C107.9 153.02 107.07 148.72 109.21 145.57Z" fill="white"/>
<path d="M114.9 157.35C113.34 157.35 111.81 156.89 110.49 155.99C108.75 154.81 107.57 153.01 107.17 150.94C106.77 148.87 107.2 146.76 108.39 145.02C110.84 141.41 115.76 140.47 119.37 142.91C121.11 144.09 122.29 145.89 122.69 147.96C123.09 150.04 122.66 152.14 121.47 153.88C120.29 155.63 118.49 156.81 116.42 157.2C115.92 157.3 115.41 157.34 114.91 157.34L114.9 157.35ZM114.93 143.54C113.04 143.54 111.18 144.45 110.04 146.13C109.16 147.43 108.83 149 109.13 150.55C109.43 152.1 110.31 153.44 111.61 154.32C112.91 155.2 114.48 155.53 116.03 155.23C117.58 154.93 118.92 154.05 119.8 152.75C120.68 151.45 121.01 149.88 120.71 148.33C120.41 146.78 119.53 145.44 118.23 144.56C117.22 143.87 116.07 143.54 114.93 143.54Z" fill="#303030"/>
<path d="M119.2 149.78L118.4 152.01L112.27 152.76L111.08 139.47L113.02 137.91L114.28 150.22L119.2 149.78Z" fill="#303030"/>
<path d="M109.39 52.8198C107.92 59.2898 107.9 65.3998 108.36 66.7398C108.72 67.8198 113.52 74.3798 114.31 77.3798C115.1 80.3698 109.37 77.9898 105.18 74.6298C102.24 72.2698 99.89 70.6298 98.74 69.8598C98.28 69.5498 98.06 68.9998 98.18 68.4498L102.7 47.0698L109.39 52.8198Z" fill="white"/>
<path d="M113.33 79.7299C110.88 79.7299 106.88 77.2799 104.55 75.3999C101.64 73.0599 99.31 71.4399 98.18 70.6799C97.38 70.1399 97 69.1899 97.2 68.2399L101.72 46.8599C101.79 46.5099 102.04 46.2298 102.38 46.1198C102.71 46.0098 103.08 46.0799 103.35 46.3099L110.04 52.0599C110.32 52.2999 110.44 52.6799 110.36 53.0399C108.88 59.5599 108.95 65.3799 109.3 66.4199C109.41 66.7099 110.17 67.8999 110.84 68.9599C112.47 71.5199 114.72 75.0299 115.26 77.1199C115.63 78.5398 114.91 79.1899 114.58 79.4099C114.24 79.6299 113.81 79.7299 113.33 79.7299ZM103.33 48.9299L99.16 68.6599C99.13 68.8099 99.18 68.9499 99.3 69.0299C100.45 69.8099 102.83 71.4699 105.8 73.8499C109.11 76.5099 112.44 77.8199 113.36 77.7599C113.36 77.7299 113.35 77.6899 113.33 77.6399C112.86 75.8499 110.63 72.3499 109.15 70.0399C108.08 68.3599 107.56 67.5399 107.4 67.0699C106.85 65.4399 106.94 59.4499 108.28 53.1999L103.33 48.9399V48.9299Z" fill="#303030"/>
<path d="M99.2301 43.65C98.9801 40.06 100.08 36.85 102.62 34.77C107.1 31.11 113.95 32.24 116.39 41.51C118.5 49.51 118.69 62.05 114.49 62.82C108.85 63.85 99.8101 50.84 99.2301 43.65Z" fill="white"/>
<path d="M113.82 63.8799C112.31 63.8799 110.63 63.1799 108.83 61.7999C103.73 57.8799 98.67 49.2698 98.23 43.7298C98.23 43.7298 98.23 43.7299 98.23 43.7199C97.95 39.6599 99.28 36.1999 101.98 33.9999C104.46 31.9699 107.47 31.3298 110.23 32.2298C113.57 33.3198 116.1 36.5199 117.34 41.2599C119.16 48.1899 119.6 58.0899 117.11 61.9999C116.46 63.0199 115.64 63.6298 114.66 63.8098C114.38 63.8598 114.1 63.8899 113.82 63.8899V63.8799ZM100.23 43.5799C100.63 48.5599 105.41 56.6499 110.05 60.2099C111.71 61.4799 113.17 62.0398 114.3 61.8398C114.72 61.7598 115.09 61.4599 115.43 60.9198C117.52 57.6298 117.1 48.1799 115.41 41.7599C114.34 37.6999 112.28 34.9898 109.61 34.1198C107.5 33.4298 105.18 33.9499 103.24 35.5399C101.06 37.3199 99.99 40.1699 100.22 43.5699L100.23 43.5799Z" fill="#303030"/>
<path d="M91.9301 129.9C94.8901 130.86 99.3201 134.06 100.84 135.93L99.6101 137.81C99.6101 137.81 102.3 141.13 102.72 143.72C103.14 146.31 98.5801 145.38 95.6801 142.42C90.0501 136.69 89.1101 131.14 89.1101 131.14L91.9301 129.91V129.9Z" fill="white"/>
<path d="M101.26 146.22C99.3901 146.22 96.8401 145.01 94.9701 143.11C89.1901 137.22 88.1701 131.53 88.1301 131.29C88.0501 130.84 88.2901 130.39 88.7201 130.21L91.5401 128.98C91.7601 128.88 92.0201 128.87 92.2501 128.94C95.4101 129.97 99.9701 133.25 101.63 135.28C101.91 135.62 101.93 136.09 101.69 136.46L100.85 137.75C101.67 138.87 103.37 141.38 103.72 143.55C103.89 144.62 103.49 145.49 102.62 145.93C102.24 146.12 101.78 146.21 101.27 146.21L101.26 146.22ZM90.2801 131.71C90.7501 133.36 92.2501 137.5 96.3901 141.71C98.6301 143.99 101.36 144.49 101.74 144.13C101.74 144.13 101.77 144.06 101.74 143.87C101.43 141.96 99.5501 139.29 98.8501 138.43C98.5801 138.09 98.5501 137.62 98.7901 137.25L99.6001 136.02C97.9201 134.3 94.4401 131.88 91.9901 130.97L90.3001 131.71H90.2801Z" fill="#303030"/>
<path d="M97.4702 77.51C99.0902 84.73 79.2502 108.59 79.2502 108.59C79.2502 108.59 89.1102 124.1 91.9202 129.9C91.9202 129.9 91.1102 135.01 89.1702 132.77C87.2202 130.53 70.0902 114.9 69.3802 109.93C68.9802 107.16 79.3402 86.49 83.8802 79.49C89.9602 70.12 95.6702 69.47 97.4702 77.52V77.51Z" fill="white"/>
<path d="M90.1101 134.34C89.6301 134.34 89.0401 134.14 88.4201 133.43C88.0201 132.98 86.8701 131.84 85.4001 130.4C77.4701 122.61 68.9501 113.98 68.3901 110.07C67.8901 106.63 79.0101 85.15 83.0401 78.94C86.7301 73.26 90.4801 70.43 93.6201 71C95.2401 71.29 97.4001 72.62 98.4501 77.29C100.04 84.37 83.9601 104.43 80.4901 108.67C82.3701 111.64 90.3101 124.27 92.8301 129.47C92.9201 129.65 92.9501 129.86 92.9201 130.06C92.7401 131.18 92.1601 133.82 90.5901 134.27C90.4501 134.31 90.2901 134.34 90.1101 134.34ZM92.8101 72.93C90.6201 72.93 87.6401 75.53 84.7201 80.03C79.6401 87.85 70.1201 107.6 70.3701 109.79C70.8901 113.35 82.0401 124.3 86.8001 128.98C88.3501 130.51 89.4801 131.61 89.9201 132.12C89.9801 132.19 90.0401 132.24 90.0801 132.28C90.3501 131.95 90.7001 131 90.8801 130.05C87.9401 124.15 78.5001 109.28 78.4101 109.13C78.1801 108.76 78.2101 108.29 78.4901 107.95C83.9201 101.42 97.7401 83.26 96.5001 77.73C95.8701 74.92 94.7201 73.23 93.2701 72.97C93.1201 72.94 92.9701 72.93 92.8201 72.93H92.8101Z" fill="#303030"/>
<path d="M169.98 104.39C166.94 104.67 164.86 106.2 163.82 106.44C162.77 106.68 161.82 110.74 163.31 111.65C164.8 112.56 168.76 114.63 171.53 113.64C176.75 111.76 169.99 104.39 169.99 104.39H169.98Z" fill="white"/>
<path d="M169.89 114.9C166.97 114.9 163.83 113.14 162.78 112.5C161.76 111.88 161.33 110.42 161.62 108.6C161.7 108.13 162.15 105.8 163.58 105.47C163.81 105.42 164.24 105.21 164.69 105C165.86 104.45 167.63 103.61 169.87 103.4C170.19 103.37 170.49 103.49 170.7 103.72C171.16 104.22 175.18 108.72 174.37 112.01C174.17 112.84 173.56 113.96 171.84 114.58C171.21 114.81 170.55 114.9 169.87 114.9H169.89ZM164.15 107.38C163.88 107.68 163.46 108.89 163.54 109.96C163.58 110.51 163.74 110.74 163.82 110.79C165.98 112.11 169.2 113.4 171.17 112.69C172.13 112.34 172.35 111.86 172.44 111.52C172.86 109.79 170.71 106.79 169.57 105.44C167.91 105.68 166.56 106.32 165.55 106.8C165 107.06 164.55 107.27 164.14 107.38H164.15Z" fill="#303030"/>
<path d="M271.83 106.76C270.69 99.0999 261.65 66.8799 256.84 64.5499C247.65 60.0999 244.59 67.4299 248.07 74.5799C250.75 80.0799 259.37 100.74 262.3 105.09C262.29 105.11 255.4 109.82 248.1 121.56C247.26 122.92 247.87 124.79 248.38 125.9C248.63 126.44 249.26 126.65 249.76 126.35C256.24 122.47 268 115.38 271.13 110.24C271.9 108.98 272.07 107.8 271.84 106.75L271.83 106.76Z" fill="#EBEBEB"/>
<path d="M249.26 127.49C249.07 127.49 248.88 127.46 248.69 127.4C248.15 127.23 247.7 126.84 247.46 126.32C246.78 124.84 246.19 122.72 247.24 121.03C253.13 111.57 258.81 106.55 260.96 104.85C258.78 101.14 254.71 91.91 251.38 84.39C249.59 80.34 248.05 76.84 247.16 75.03C245.05 70.69 245.19 66.2 247.53 63.86C248.76 62.62 251.67 60.95 257.27 63.66C262.93 66.4 271.88 100.37 272.81 106.59C273.1 107.98 272.81 109.38 271.97 110.78C268.67 116.18 256.69 123.37 250.26 127.23C249.95 127.41 249.61 127.51 249.26 127.51V127.49ZM251.83 64.2C250.64 64.2 249.66 64.55 248.95 65.27C247.24 66.98 247.25 70.63 248.96 74.15C249.86 76 251.41 79.51 253.21 83.58C256.78 91.66 261.22 101.71 263.12 104.54C263.32 104.84 263.35 105.23 263.18 105.56C263.11 105.7 262.96 105.85 262.84 105.94C261.67 106.8 255.47 111.6 248.94 122.1C248.31 123.12 248.97 124.81 249.28 125.5C255.07 122.01 267.23 114.72 270.27 109.74C270.85 108.79 271.05 107.86 270.85 106.99C270.85 106.97 270.85 106.95 270.84 106.92C269.54 98.12 260.48 67.44 256.4 65.47C254.67 64.63 253.12 64.21 251.83 64.21V64.2Z" fill="#303030"/>
<path d="M204.56 270.73C204.06 270.68 203.58 270.92 203.29 271.33C202.48 272.48 201.16 273.55 199.99 273.75C194.05 274.73 189.95 276.68 188.2 277.9C187.08 278.68 187.61 280.43 188.98 280.43H208.14C208.77 280.43 209.38 279.92 209.5 279.3C210.38 274.98 208.7 271.12 208.7 271.12L204.55 270.73H204.56Z" fill="#303030"/>
<path d="M208.15 281.44H188.98C187.91 281.44 187.02 280.78 186.7 279.77C186.38 278.75 186.74 277.7 187.62 277.08C189.71 275.62 194.02 273.72 199.82 272.77C200.63 272.64 201.74 271.79 202.46 270.77C202.96 270.06 203.79 269.67 204.64 269.75L208.79 270.14C209.15 270.17 209.47 270.4 209.61 270.74C209.68 270.91 211.4 274.94 210.47 279.52C210.25 280.6 209.22 281.45 208.13 281.45L208.15 281.44ZM204.44 271.73C204.32 271.73 204.2 271.79 204.12 271.91C203.32 273.05 201.81 274.47 200.17 274.74C194.69 275.64 190.61 277.45 188.78 278.72C188.57 278.87 188.59 279.06 188.62 279.17C188.66 279.29 188.75 279.44 188.99 279.44H208.15C208.3 279.44 208.5 279.27 208.53 279.11C209.15 276.06 208.38 273.22 207.99 272.06L204.47 271.73C204.47 271.73 204.45 271.73 204.44 271.73Z" fill="#303030"/>
<path d="M254.77 270.73C254.27 270.68 253.79 270.92 253.5 271.33C252.69 272.48 251.37 273.55 250.2 273.75C244.26 274.73 240.16 276.68 238.41 277.9C237.29 278.68 237.82 280.43 239.19 280.43H258.35C258.98 280.43 259.59 279.92 259.71 279.3C260.59 274.98 258.69 271.1 258.69 271.1L254.76 270.74L254.77 270.73Z" fill="#303030"/>
<path d="M258.36 281.44H239.19C238.13 281.44 237.23 280.78 236.91 279.77C236.59 278.75 236.95 277.7 237.83 277.08C239.92 275.62 244.23 273.72 250.03 272.77C250.84 272.64 251.95 271.79 252.67 270.77C253.17 270.06 254 269.67 254.85 269.75L258.78 270.11C259.13 270.14 259.43 270.35 259.59 270.67C259.67 270.84 261.63 274.91 260.69 279.51C260.47 280.59 259.44 281.44 258.35 281.44H258.36ZM254.65 271.73C254.53 271.73 254.41 271.79 254.33 271.91C253.53 273.05 252.02 274.47 250.38 274.74C244.9 275.64 240.82 277.45 238.99 278.72C238.78 278.87 238.8 279.06 238.83 279.17C238.87 279.29 238.96 279.44 239.2 279.44H258.36C258.51 279.44 258.71 279.27 258.74 279.11C259.36 276.05 258.45 273.17 258.01 272.05L254.68 271.74C254.68 271.74 254.66 271.74 254.65 271.74V271.73Z" fill="#303030"/>
<path d="M259.88 271.49C259.88 271.49 259.47 271.84 258.74 272.15C257.46 272.7 255.21 273.12 252.55 271.34C252.55 271.34 241.06 212.74 240.8 211.16C240.54 209.57 232.25 132.99 232.25 132.99L247.47 123.45C247.47 123.45 247.81 124.1 248.34 125.27C249.72 128.32 252.39 134.89 253.64 142.45C255.59 154.23 254.3 208.01 254.3 208.01C254.3 208.01 257.95 215.09 259.3 220.73C261.66 230.63 259.88 271.49 259.88 271.49Z" fill="white"/>
<path d="M259.88 271.49C259.88 271.49 259.47 271.84 258.74 272.15C258.08 271.95 257.38 271.63 256.65 271.14C256.65 271.14 245.16 212.54 244.9 210.95C244.64 209.37 236.35 132.79 236.35 132.79L248.34 125.27C249.72 128.32 252.39 134.89 253.64 142.45C255.59 154.23 254.3 208.01 254.3 208.01C254.3 208.01 257.95 215.09 259.3 220.73C261.66 230.63 259.88 271.49 259.88 271.49Z" fill="#245A7C"/>
<path d="M256.45 273.62C255.12 273.62 253.59 273.24 252 272.18C251.78 272.03 251.63 271.8 251.57 271.54C251.1 269.15 240.07 212.9 239.81 211.32C239.55 209.73 231.6 136.23 231.26 133.1C231.22 132.72 231.4 132.35 231.72 132.14L246.93 122.6C247.17 122.45 247.45 122.41 247.72 122.48C247.99 122.55 248.22 122.74 248.34 122.98C248.52 123.33 252.88 131.79 254.61 142.28C256.5 153.73 255.39 203.29 255.29 207.77C255.94 209.06 259.01 215.29 260.25 220.49C262.62 230.41 260.93 269.85 260.86 271.53C260.85 271.81 260.72 272.07 260.5 272.25C259.75 272.88 258.27 273.6 256.42 273.6L256.45 273.62ZM253.45 270.73C256.07 272.3 258.12 271.42 258.9 270.96C259.09 266.28 260.49 230.03 258.32 220.97C257.02 215.51 253.44 208.54 253.41 208.47C253.33 208.32 253.29 208.16 253.3 207.99C253.31 207.45 254.56 154.17 252.65 142.62C251.3 134.47 248.23 127.41 247.05 124.89L233.31 133.51C236.19 160.14 241.58 209.75 241.78 211C242.02 212.48 252.4 265.43 253.44 270.73H253.45Z" fill="#303030"/>
<path d="M249.08 148.67C247.09 160.44 224.71 210.61 224.71 210.61C224.71 210.61 225.65 218.51 224.94 224.27C223.68 234.37 209.31 273 209.31 273C209.31 273 209.27 273.08 209.12 273.16C208.69 273.4 207.3 273.6 203.29 271.33C203.29 271.33 210.65 210.4 210.97 208.82C211.28 207.25 226.56 130.67 226.56 130.67L243.72 124.61C243.72 124.61 244.29 125.18 245.07 126.33C247.25 129.48 251.06 136.96 249.08 148.67Z" fill="white"/>
<path d="M249.08 148.67C247.09 160.44 224.71 210.61 224.71 210.61C224.71 210.61 225.65 218.51 224.94 224.27C223.68 234.37 209.31 273 209.31 273C209.31 273 209.27 273.08 209.12 273.16C208.56 272.89 207.92 272.56 207.19 272.15C207.19 272.15 214.55 211.22 214.86 209.64C215.17 208.07 230.45 131.49 230.45 131.49L245.07 126.33C247.25 129.48 251.06 136.96 249.08 148.67Z" fill="#245A7C"/>
<path d="M208.43 274.3C207.14 274.3 205.28 273.61 202.8 272.2C202.45 272 202.25 271.61 202.3 271.21C202.6 268.72 209.67 210.22 209.98 208.63C210.3 207.06 225.57 130.48 225.57 130.48C225.64 130.13 225.88 129.85 226.22 129.73L243.38 123.67C243.74 123.54 244.15 123.63 244.42 123.91C244.76 124.26 252.81 132.57 250.06 148.83C248.12 160.29 227.63 206.49 225.73 210.76C225.89 212.24 226.58 219.12 225.92 224.39C224.67 234.49 210.82 271.76 210.24 273.34C210.23 273.38 210.21 273.42 210.19 273.45C210.11 273.61 209.85 273.99 209.22 274.18C208.99 274.25 208.72 274.28 208.43 274.28V274.3ZM204.37 270.78C206.99 272.19 208.11 272.3 208.51 272.29C209.96 268.37 222.79 233.5 223.95 224.15C224.64 218.58 223.73 210.8 223.72 210.72C223.7 210.54 223.72 210.36 223.8 210.19C224.02 209.69 246.15 160.01 248.1 148.49C250.33 135.31 244.97 127.66 243.42 125.77L227.43 131.42C226.05 138.35 212.25 207.51 211.95 209.01C211.7 210.3 206.93 249.58 204.37 270.77V270.78Z" fill="#303030"/>
<path d="M249.01 129.53C249.4 132.06 239.63 135.31 233.03 134.95C232.63 134.93 232.24 134.89 231.88 134.83C228.32 134.3 226.6 132.34 226.56 130.67C226.5 127.85 222.79 94.65 225.03 79.74C227.28 64.77 245.7 60.47 247.21 60.43C251.07 60.32 253.75 61.54 255.57 63.26C258.24 65.77 259.12 69.35 259.27 71.41C260.16 83.89 247.41 119.02 249.01 129.53Z" fill="white"/>
<path d="M249.01 129.53C249.4 132.06 239.63 135.31 233.03 134.95C232.63 134.93 232.24 134.89 231.88 134.83C231.51 134.29 231.32 133.71 231.31 133.17C231.25 130.35 227.54 97.1499 229.78 82.2399C232.03 67.2699 250.45 62.9699 251.96 62.9299C253.31 62.8899 254.51 63.0099 255.57 63.2599C258.24 65.7699 259.12 69.3499 259.27 71.4099C260.16 83.8899 247.41 119.02 249.01 129.53Z" fill="#EBEBEB"/>
<path d="M234.08 135.98C233.7 135.98 233.34 135.98 232.98 135.95C228.18 135.69 225.62 133.11 225.56 130.7C225.55 130.21 225.41 128.6 225.21 126.37C224.31 116.04 222.19 91.8499 224.03 79.5999C226.35 64.1499 244.78 59.4999 247.17 59.4299C247.34 59.4299 247.51 59.4299 247.67 59.4299C256.91 59.4299 259.92 66.8799 260.25 71.3499C260.7 77.6599 257.78 89.5199 254.95 100.99C252.13 112.43 249.21 124.26 249.99 129.39C250.06 129.86 249.99 130.59 249.25 131.41C247.06 133.82 239.7 135.99 234.06 135.99L234.08 135.98ZM247.69 61.4199C247.54 61.4199 247.39 61.4199 247.24 61.4199C245.35 61.4899 228.11 65.9599 226.02 79.8799C224.21 91.8999 226.31 115.92 227.21 126.18C227.42 128.53 227.55 130.08 227.56 130.64C227.59 131.8 229.11 133.72 233.09 133.94C238.32 134.21 245.57 132.1 247.61 130.22C247.94 129.92 248.02 129.72 248.02 129.67C247.18 124.15 250.02 112.66 253.02 100.49C255.81 89.1699 258.7 77.4699 258.27 71.4699C258.19 70.4299 257.27 61.4099 247.69 61.4099V61.4199Z" fill="#303030"/>
<path d="M252.43 51.2499L252.89 63.2999C252.89 63.2999 253.35 65.4199 247.29 63.6999C241.24 61.9899 240.15 62.5199 240.15 62.5199L245.26 39.9199L252.43 51.2499Z" fill="white"/>
<path d="M251.07 65.37C250.03 65.37 248.69 65.13 247.02 64.66C242.05 63.25 240.65 63.43 240.49 63.46C240.17 63.57 239.81 63.52 239.54 63.3C239.24 63.06 239.1 62.67 239.18 62.29L244.29 39.69C244.38 39.3 244.7 38.99 245.1 38.93C245.5 38.86 245.9 39.04 246.11 39.38L253.27 50.71C253.36 50.86 253.42 51.03 253.42 51.21L253.88 63.2C253.93 63.62 253.82 64.21 253.32 64.68C252.83 65.14 252.09 65.37 251.06 65.37H251.07ZM241.42 61.46C242.83 61.56 244.92 61.99 247.56 62.73C250.62 63.6 251.62 63.36 251.88 63.25L251.43 51.55L245.7 42.49L241.41 61.46H241.42Z" fill="#303030"/>
<path d="M249.18 43.4999C242.68 53.3899 231.7 53.4699 230.23 51.2799C228.76 49.0899 232.91 32.0199 241.32 25.1199C245.59 21.6199 249.19 43.4999 249.19 43.4999H249.18Z" fill="white"/>
<path d="M234.04 53.4299C231.78 53.4299 230.09 52.8499 229.4 51.8299C227.52 49.0499 231.91 31.5299 240.68 24.3399C241.41 23.7399 242.25 23.5799 243.06 23.8799C247.03 25.3799 249.68 40.3399 250.17 43.3199C250.21 43.5699 250.16 43.8199 250.02 44.0299C245.49 50.9099 238.83 53.3899 234.11 53.4199H234.04V53.4299ZM242.26 25.7399C242.19 25.7399 242.1 25.7699 241.95 25.8899C233.7 32.6599 230.04 48.8699 231.06 50.7199C231.21 50.9499 232.15 51.4299 234.03 51.4299H234.09C238.22 51.4099 244.04 49.2499 248.13 43.2699C246.79 35.3199 244.23 26.4699 242.35 25.7599C242.32 25.7599 242.29 25.7399 242.25 25.7399H242.26Z" fill="#303030"/>
<path d="M252.98 52.2299C252.19 53.3699 250.25 53.55 248.37 51.52C247.77 50.87 243.3 46.27 244.64 44.36C248.76 38.47 244.7 37.29 242.48 39.36C241.74 40.05 240.4 40.01 240.6 39.04C241.12 36.58 241.26 32.98 239.96 32C232.98 26.76 242.92 12.96 242.92 12.96C242.92 12.96 246.52 14.8999 252.15 16.2299C259.75 18.03 265.55 23.08 266.82 29.4799C268.53 38.09 255.81 48.14 252.98 52.24V52.2299Z" fill="#303030"/>
<path d="M251.29 54.0799C250.05 54.0799 248.77 53.4199 247.64 52.2099L247.54 52.1099C243.86 48.1999 242.65 45.4799 243.82 43.7999C245.55 41.3199 245.6 39.9199 245.21 39.5799C244.89 39.2999 243.95 39.3599 243.16 40.0999C242.37 40.8399 241.17 41.0599 240.37 40.6099C239.75 40.2599 239.47 39.5899 239.62 38.8399C240.25 35.8699 239.99 33.2699 239.36 32.7999C231.68 27.0399 241.68 12.9699 242.11 12.3699C242.4 11.9599 242.95 11.8399 243.4 12.0699C243.44 12.0899 246.97 13.9699 252.39 15.2499C260.57 17.1799 266.47 22.5599 267.81 29.2799C269.2 36.2899 261.99 43.8999 257.23 48.9399C255.75 50.5099 254.47 51.8599 253.82 52.7999C253.31 53.5399 252.48 53.9999 251.55 54.0599C251.47 54.0599 251.38 54.0599 251.3 54.0599L251.29 54.0799ZM244.69 37.4199C245.38 37.4199 246.03 37.6299 246.52 38.0599C247.22 38.6699 248.52 40.5599 245.46 44.9399C245.46 44.9499 244.69 46.1599 249 50.7399L249.11 50.8499C249.88 51.6799 250.72 52.1199 251.4 52.0699C251.73 52.0499 252 51.9099 252.17 51.6599C252.91 50.5899 254.24 49.1899 255.78 47.5599C260.27 42.8199 267.04 35.6599 265.86 29.6699C264.7 23.8199 259.24 18.9199 251.94 17.1999C247.74 16.2099 244.66 14.8899 243.28 14.2399C241.46 17.0099 235.29 27.2299 240.58 31.1999C242.55 32.6699 241.98 37.1199 241.7 38.7199C241.74 38.6999 241.78 38.6699 241.82 38.6299C242.67 37.8399 243.74 37.4199 244.71 37.4199H244.69Z" fill="#303030"/>
<path d="M165.23 112.8C166.34 110 169.5 106.16 171.33 105.65C174.08 104.87 178.83 106.54 180.29 107.79C187.35 109.84 177.76 112.27 177.63 112.15C174.71 114.22 172.75 114.83 171.11 114.83C169.18 114.83 164.32 115.11 165.23 112.8Z" fill="white"/>
<path d="M169.81 115.83C167.42 115.83 165.3 115.65 164.46 114.42C164.19 114.02 163.94 113.35 164.3 112.43C165.47 109.47 168.82 105.31 171.06 104.68C174.12 103.82 179.01 105.54 180.76 106.88C182.19 107.31 183.76 107.98 183.87 109.32C183.99 110.76 182.29 111.59 181.72 111.87C181.69 111.88 179.5 112.92 178.03 113.08C175.32 114.98 173.17 115.83 171.1 115.83H170.55C170.3 115.83 170.04 115.83 169.79 115.83H169.81ZM166.16 113.16C166.12 113.27 166.12 113.32 166.12 113.32C166.3 113.55 167.23 113.86 170.54 113.82H171.11C172.78 113.82 174.61 113.04 177.05 111.31C177.23 111.18 177.43 111.12 177.65 111.13C178.53 111 181.16 110.11 181.79 109.48C181.6 109.33 181.12 109.06 180.01 108.73C179.87 108.69 179.75 108.62 179.64 108.53C178.39 107.46 173.98 105.92 171.6 106.6C170.26 106.98 167.27 110.36 166.16 113.16Z" fill="#303030"/>
<path d="M243.24 75.9399C241.92 83.4899 221.91 112.09 216.73 115.92C216.73 115.92 216.62 115.85 216.45 115.72C215.92 116.16 215.27 116.5 214.44 116.71C209.17 118.02 190.24 114.99 180.96 113.05C179.85 112.81 178.87 112.59 178.08 112.4C177.51 112.26 177.21 111.66 177.41 111.1C177.83 109.93 178.68 107.9 180.29 107.77C197.85 106.43 211.69 105.7 211.71 105.69C211.96 105.43 212.21 105.23 212.46 105.08C215.49 97.8899 227.3 71.3499 231.19 67.6499C234.97 64.0399 240.5 65.0599 242.6 69.5299C243.39 71.1999 243.69 73.3599 243.24 75.9399Z" fill="white"/>
<path d="M243.24 75.9401C241.92 83.4901 221.91 112.09 216.73 115.92C216.73 115.92 216.62 115.85 216.45 115.72C215.92 116.16 215.27 116.5 214.44 116.71C209.17 118.02 190.24 114.99 180.96 113.05C181.46 112.07 182.2 111.11 183.29 111.02C200.85 109.68 214.69 108.95 214.71 108.94C214.96 108.68 215.21 108.48 215.46 108.33C218.49 101.14 230.3 74.6001 234.19 70.9001C236.73 68.4801 240.05 68.1401 242.6 69.5301C243.39 71.2001 243.69 73.3601 243.24 75.9401Z" fill="#EBEBEB"/>
<path d="M210.63 118.03C201.31 118.03 183.26 114.69 177.84 113.37C177.3 113.24 176.84 112.88 176.58 112.39C176.31 111.89 176.27 111.29 176.47 110.75C176.81 109.81 177.84 106.96 180.21 106.77C190.23 106 201.2 105.27 211.11 104.72H211.28C211.4 104.6 211.53 104.5 211.66 104.4C214.21 98.36 226.3 70.91 230.49 66.91C233.2 64.32 236.95 63.71 240.02 65.36C242.71 66.8 245.22 70.38 244.22 76.1C242.85 83.88 222.53 112.85 217.32 116.71C217.09 116.88 216.8 116.94 216.53 116.89C215.98 117.24 215.36 117.5 214.68 117.67C213.69 117.92 212.3 118.02 210.63 118.02V118.03ZM231.88 68.38C228.42 71.68 217.4 95.92 213.39 105.48C213.31 105.68 213.16 105.85 212.97 105.96C212.78 106.07 212.62 106.21 212.45 106.38C212.33 106.51 212.17 106.61 212 106.66C211.92 106.68 211.66 106.703 211.22 106.73C201.33 107.28 190.37 108.01 180.36 108.78C179.64 108.84 178.97 109.73 178.35 111.44C186.31 113.37 208.72 117.11 214.19 115.74C214.83 115.58 215.36 115.32 215.81 114.95C216.04 114.77 216.32 114.7 216.6 114.73C222.09 109.9 241 82.93 242.25 75.77C242.95 71.8 241.76 68.57 239.08 67.14C236.78 65.91 233.95 66.39 231.87 68.37L231.88 68.38Z" fill="#303030"/>
</svg>
