<svg width="273" height="280" viewBox="0 0 273 280" fill="none" xmlns="http://www.w3.org/2000/svg">
<path d="M212.283 7.82518L195.288 37.2556C194.537 38.5481 194.537 40.155 195.288 41.4475L212.283 70.878C213.034 72.1704 214.414 72.9739 215.916 72.9739H249.905C251.407 72.9739 252.787 72.1704 253.538 70.878L270.532 41.4475C271.283 40.155 271.283 38.5481 270.532 37.2556L253.538 7.82518C252.787 6.53269 251.407 5.72925 249.905 5.72925H215.916C214.414 5.72925 213.034 6.53269 212.283 7.82518Z" fill="#EBEBEB"/>
<path d="M249.905 74.7204H215.916C213.802 74.7204 211.846 73.5851 210.781 71.7512L193.786 42.3207C192.738 40.4868 192.738 38.2162 193.786 36.3997L210.781 6.96924C211.846 5.13529 213.802 4 215.916 4H249.905C252.018 4 253.992 5.13529 255.04 6.96924L272.034 36.3997C273.082 38.2336 273.082 40.5042 272.034 42.3207L255.04 71.7512C253.992 73.5851 252.018 74.7204 249.905 74.7204ZM213.785 8.68094L196.79 38.1114C196.354 38.8799 196.354 39.8231 196.79 40.5741L213.785 70.0046C214.221 70.7731 215.042 71.2446 215.916 71.2446H249.905C250.778 71.2446 251.599 70.7731 252.036 70.0046L269.03 40.5741C269.467 39.8056 269.467 38.8624 269.03 38.1114L252.036 8.68094C251.599 7.91243 250.778 7.44083 249.905 7.44083H215.916C215.042 7.44083 214.221 7.91243 213.785 8.68094Z" fill="#303030"/>
<path d="M124.084 226.403L96.6617 273.893C95.4566 275.989 93.2209 277.264 90.7932 277.264H35.9495C34.7967 277.264 33.6614 276.967 32.7008 276.426C31.6353 275.832 30.7096 274.976 30.0808 273.876L2.67646 226.385C1.47129 224.289 1.47129 221.704 2.67646 219.608L30.0808 172.118C31.286 170.022 33.5391 168.747 35.9495 168.747H90.7932C93.2209 168.747 95.4391 170.022 96.6617 172.118L99.6135 177.218L124.084 219.608C125.289 221.704 125.289 224.289 124.084 226.385V226.403Z" fill="white"/>
<path d="M124.084 226.402L96.6621 273.893C95.4569 275.989 93.2213 277.264 90.7935 277.264H35.9498C34.797 277.264 33.6617 276.967 32.7011 276.425L8.23102 234.035C7.02586 231.939 7.02586 229.372 8.23102 227.258L35.6529 179.785C36.858 177.672 39.0937 176.397 41.5215 176.397H96.3477C97.5005 176.397 98.6357 176.694 99.6138 177.235L124.084 219.625C125.289 221.721 125.289 224.306 124.084 226.402Z" fill="#245A7C"/>
<path d="M90.7759 279.01H35.9322C32.9106 279.01 30.0811 277.386 28.5615 274.749L1.13967 227.258C-0.379888 224.638 -0.379888 221.372 1.13967 218.752L28.5615 171.262C30.0811 168.642 32.8931 167 35.9322 167H90.7759C93.7975 167 96.627 168.624 98.1466 171.262L125.568 218.752C127.088 221.372 127.088 224.638 125.568 227.258L98.1466 274.749C96.627 277.369 93.815 279.01 90.7759 279.01ZM31.5657 172.991L4.14384 220.481C3.25307 222.036 3.25307 223.975 4.14384 225.529L31.5657 273.019C32.4564 274.574 34.1332 275.535 35.9322 275.535H90.7759C92.5749 275.535 94.2516 274.574 95.1424 273.019L122.564 225.529C123.455 223.975 123.455 222.036 122.564 220.481L95.1424 172.991C94.2516 171.436 92.5749 170.476 90.7759 170.476H35.9322C34.1332 170.476 32.4564 171.436 31.5657 172.991Z" fill="#303030"/>
<path d="M250.865 102.536L223.461 150.026C222.256 152.122 220.003 153.415 217.575 153.415H162.749C161.194 153.415 159.727 152.873 158.539 151.93C157.876 151.424 157.317 150.777 156.88 150.026L129.458 102.536C128.253 100.44 128.253 97.8725 129.458 95.7591L156.88 48.2861C158.085 46.1727 160.321 44.8977 162.749 44.8977H217.575C220.003 44.8977 222.238 46.1727 223.461 48.2861L225.959 52.6003L250.883 95.7766C252.088 97.89 252.088 100.457 250.883 102.553L250.865 102.536Z" fill="white"/>
<path d="M250.866 102.536L223.461 150.026C222.256 152.122 220.003 153.415 217.575 153.415H162.749C161.195 153.415 159.727 152.873 158.54 151.93L133.615 108.789C132.41 106.693 132.41 104.108 133.615 102.012L161.037 54.5216C162.242 52.4257 164.478 51.1506 166.906 51.1506H221.75C223.287 51.1506 224.754 51.6746 225.941 52.5829L250.866 95.7592C252.071 97.8726 252.071 100.44 250.866 102.536Z" fill="#EBEBEB"/>
<path d="M217.575 155.144H162.732C159.71 155.144 156.88 153.52 155.361 150.882L127.939 103.392C126.419 100.772 126.419 97.5056 127.939 94.8857L155.361 47.3953C156.88 44.7754 159.692 43.1335 162.732 43.1335H217.575C220.597 43.1335 223.426 44.7579 224.946 47.3953L252.368 94.8857C253.887 97.5056 253.887 100.772 252.368 103.392L224.946 150.882C223.426 153.502 220.614 155.144 217.575 155.144ZM162.732 46.6093C160.933 46.6093 159.256 47.5699 158.365 49.1244L130.943 96.6149C130.052 98.1693 130.052 100.108 130.943 101.663L158.365 149.153C159.256 150.708 160.933 151.668 162.732 151.668H217.575C219.374 151.668 221.051 150.708 221.942 149.153L249.364 101.663C250.254 100.108 250.254 98.1693 249.364 96.6149L221.942 49.1244C221.051 47.5699 219.374 46.6093 217.575 46.6093H162.732Z" fill="#303030"/>
<path d="M180.425 207.35H135.449C131.607 207.35 128.026 205.289 126.105 201.953L103.609 163.003C101.687 159.667 101.687 155.545 103.609 152.209L126.105 113.26C128.026 109.924 131.607 107.863 135.449 107.863H180.425C184.267 107.863 187.848 109.924 189.769 113.26L212.266 152.209C214.187 155.545 214.187 159.667 212.266 163.003L189.769 201.953C187.848 205.289 184.267 207.35 180.425 207.35ZM135.449 111.321C132.83 111.321 130.402 112.718 129.092 114.989L106.595 153.938C105.285 156.192 105.285 159.004 106.595 161.274L129.092 200.224C130.402 202.494 132.83 203.892 135.449 203.892H180.425C183.027 203.892 185.473 202.494 186.782 200.224L209.279 161.274C210.589 159.004 210.589 156.209 209.279 153.938L186.782 114.989C185.473 112.736 183.045 111.321 180.442 111.321H135.467H135.449ZM180.425 200.346H135.449C134.105 200.346 132.847 199.63 132.166 198.46L109.669 159.51C108.988 158.34 109.006 156.89 109.669 155.72L132.166 116.771C132.83 115.6 134.087 114.884 135.449 114.884H180.425C181.77 114.884 183.027 115.618 183.708 116.771L206.205 155.72C206.886 156.89 206.886 158.34 206.205 159.493L183.708 198.442C183.027 199.612 181.787 200.329 180.425 200.329V200.346ZM135.449 118.325C135.345 118.325 135.222 118.377 135.17 118.482L112.674 157.449C112.621 157.554 112.621 157.676 112.674 157.781L135.17 196.731C135.222 196.835 135.327 196.888 135.449 196.888H180.425C180.53 196.888 180.652 196.818 180.704 196.731L203.201 157.781C203.253 157.676 203.253 157.554 203.201 157.467L180.704 118.517C180.652 118.412 180.53 118.36 180.425 118.36H135.449V118.325Z" fill="#303030"/>
<path d="M142.094 48.0667L120.052 86.2302C119.074 87.9244 117.275 88.9724 115.336 88.9724H71.2516C70.4831 88.9724 69.767 88.8152 69.0858 88.5182C68.0204 88.0641 67.1121 87.2782 66.5183 86.2477L44.476 48.0667C43.4979 46.3725 43.4979 44.294 44.476 42.6172L66.5183 4.43629C67.4789 2.74207 69.2954 1.69409 71.2341 1.69409H115.319C117.257 1.69409 119.056 2.72461 120.034 4.43629L122.34 8.41857L142.077 42.6347C143.037 44.3115 143.037 46.3899 142.077 48.0842L142.094 48.0667Z" fill="white"/>
<path d="M142.094 48.0667L120.052 86.2302C119.074 87.9245 117.275 88.9724 115.336 88.9724H71.2514C70.4829 88.9724 69.7668 88.8152 69.0856 88.5183L49.3488 54.3021C48.3882 52.6254 48.3882 50.5469 49.3488 48.8527L71.3911 10.6892C72.3693 8.99498 74.1508 7.94702 76.107 7.94702H120.191C120.96 7.94702 121.676 8.10421 122.357 8.40113L142.094 42.6173C143.055 44.294 143.055 46.3725 142.094 48.0667Z" fill="#245A7C"/>
<path d="M115.319 90.7017H71.2165C68.6665 90.7017 66.2736 89.3218 64.9986 87.1211L42.9563 48.9401C41.6812 46.7219 41.6812 43.9797 42.9563 41.7615L64.9986 3.58056C66.2736 1.36236 68.6665 0 71.2165 0H115.319C117.869 0 120.261 1.37982 121.536 3.59802L143.579 41.779C144.854 43.9972 144.854 46.7394 143.579 48.9576L121.536 87.1386C120.261 89.3568 117.869 90.7191 115.319 90.7191V90.7017ZM71.2165 3.44083C69.8891 3.44083 68.6665 4.15694 68.0028 5.29224L45.9604 43.4732C45.2967 44.626 45.2967 46.0407 45.9604 47.1935L68.0028 85.3745C68.6665 86.5273 69.9066 87.2259 71.2165 87.2259H115.319C116.646 87.2259 117.869 86.5098 118.532 85.3745L140.575 47.1935C141.238 46.0407 141.238 44.626 140.575 43.4732L118.532 5.29224C117.869 4.13947 116.628 3.42338 115.319 3.42338H71.2165V3.44083Z" fill="#303030"/>
</svg>
