<?xml version="1.0" encoding="UTF-8"?>
<svg id="Layer_2" data-name="Layer 2" xmlns="http://www.w3.org/2000/svg" viewBox="0 0 183.55 130.12">
  <defs>
    <style>
      .cls-1 {
        fill: #fff;
        stroke-width: 0px;
      }

      .cls-2 {
        fill: none;
        fill-rule: evenodd;
        opacity: .54;
        stroke: #fff;
        stroke-miterlimit: 10;
        stroke-width: .5px;
      }
    </style>
  </defs>
  <g id="Layer_1-2" data-name="Layer 1">
    <path class="cls-2" d="m147.12,18.88c2.06.67,3.4,2.28,3.4,4.07v49.12c0,29.51-49.75,49.2-59.85,57.21-.99.79-2.56.79-3.56,0-10.1-8.01-59.85-27.7-59.85-57.21V22.95c0-1.79,1.35-3.4,3.4-4.07L86.86.57c1.31-.43,2.76-.43,4.07,0l56.19,18.31Z"/>
    <path class="cls-2" d="m179.9,18.88c2.06.67,3.4,2.28,3.4,4.07v49.12c0,29.51-49.75,49.2-59.85,57.21-.99.79-2.56.79-3.56,0-10.1-8.01-59.85-27.7-59.85-57.21V22.95c0-1.79,1.35-3.4,3.4-4.07L119.63.57c1.31-.43,2.76-.43,4.07,0l56.19,18.31Z"/>
    <g>
      <path class="cls-1" d="m78.69,63.71v4.35h-5.35v27.91h-4.62v-27.91h-5.35v-4.35h15.31Z"/>
      <path class="cls-1" d="m88.25,63.71c5.03,0,8.06,2.9,8.06,9.47,0,3.76-1.09,6.43-3.99,8.06l4.98,14.72h-4.89l-4.3-13.77h-2.76v13.77h-4.62v-32.26h7.52Zm-2.9,14.41h2.49c2.31,0,3.67-.77,3.81-3.71,0-.45.04-.95.04-1.45,0-2.85-.36-4.89-3.99-4.89h-2.36v10.06Z"/>
      <path class="cls-1" d="m104.65,63.71v24.64c0,2.04,1.18,3.26,2.85,3.26s2.85-1.22,2.85-3.26v-24.64h4.62v25.14c0,4.08-3.4,7.38-7.48,7.38s-7.47-3.31-7.47-7.43v-25.1h4.62Z"/>
      <path class="cls-1" d="m129.66,73v-.86c0-2.95-1.36-4.08-3.26-4.08-2.04,0-3.13,1.31-3.13,4.21s.54,3.44,3.17,4.48c1.04.41,2.45.95,3.22,1.27,4.08,1.68,4.62,4.35,4.62,8.7,0,6.52-2.85,9.51-7.97,9.51-3.22,0-7.88-2.04-7.88-7.93v-1.45h4.62v1.5c0,1.59.91,3.26,3.26,3.26,1.59,0,2.67-.41,3.13-1.99.23-.82.23-1.81.23-2.81,0-2.9-.27-3.81-2.04-4.62-1.22-.54-3.13-1.22-4.76-1.99-2.99-1.4-4.21-3.81-4.21-7.93,0-5.3,2.94-8.83,7.93-8.83,1.68,0,3.4.5,4.71,1.54,2.4,1.9,2.99,4.03,2.99,5.93v2.08h-4.62Z"/>
      <path class="cls-1" d="m150.72,63.71v4.35h-5.35v27.91h-4.62v-27.91h-5.35v-4.35h15.31Z"/>
      <path class="cls-1" d="m166.53,63.71v4.35h-9.15v9.47h7.97v4.35h-7.97v9.47h9.15v4.62h-13.77v-32.26h13.77Z"/>
      <path class="cls-1" d="m183.3,63.71v4.35h-9.15v9.47h7.97v4.35h-7.97v9.47h9.15v4.62h-13.77v-32.26h13.77Z"/>
    </g>
    <g>
      <path class="cls-1" d="m4.62,25.42v14.72h.09l6.75-14.72h4.62l-6.3,12.91,7.48,19.34h-4.89l-5.25-14.32-2.49,4.67v9.65H0V25.42h4.62Z"/>
      <path class="cls-1" d="m24.06,25.42v32.26h-4.62V25.42h4.62Z"/>
      <path class="cls-1" d="m38.6,34.66v-1.27c0-2.95-1.77-3.62-2.85-3.62-2.49,0-2.85,1.9-2.85,3.62v16.76c0,1.5.63,3.17,2.81,3.17.91,0,2.9-.36,2.9-3.4v-1.45h4.62v1.86c0,4.26-3.31,7.61-7.34,7.61-4.76,0-7.61-2.9-7.61-7.43v-18.03c0-4.03,2.99-7.34,7.52-7.34,2.31,0,4.12.95,5.35,2.22,1.27,1.36,2.08,2.94,2.08,5.89v1.41h-4.62Z"/>
      <path class="cls-1" d="m51.6,25.42v14.72h.09l6.75-14.72h4.62l-6.3,12.91,7.48,19.34h-4.89l-5.25-14.32-2.49,4.67v9.65h-4.62V25.42h4.62Z"/>
      <path class="cls-1" d="m76.61,34.71v-.86c0-2.95-1.36-4.08-3.26-4.08-2.04,0-3.13,1.31-3.13,4.21s.54,3.44,3.17,4.48c1.04.41,2.45.95,3.22,1.27,4.08,1.68,4.62,4.35,4.62,8.7,0,6.52-2.85,9.51-7.97,9.51-3.22,0-7.88-2.04-7.88-7.93v-1.45h4.62v1.5c0,1.59.91,3.26,3.26,3.26,1.59,0,2.67-.41,3.13-1.99.23-.82.23-1.81.23-2.81,0-2.9-.27-3.81-2.04-4.62-1.22-.54-3.13-1.22-4.76-1.99-2.99-1.4-4.21-3.81-4.21-7.93,0-5.3,2.94-8.83,7.93-8.83,1.68,0,3.4.5,4.71,1.54,2.4,1.9,2.99,4.03,2.99,5.93v2.08h-4.62Z"/>
      <path class="cls-1" d="m97.68,25.42v4.35h-5.35v27.91h-4.62v-27.91h-5.35v-4.35h15.31Z"/>
      <path class="cls-1" d="m106.2,25.42l7.2,32.26h-4.62l-1.36-6.93h-6.3l-1.36,6.93h-4.62l7.2-32.26h3.85Zm-4.26,20.98h4.62l-2.26-11.69h-.09l-2.27,11.69Z"/>
      <path class="cls-1" d="m123.19,25.42c5.03,0,8.06,2.9,8.06,9.47,0,3.76-1.09,6.43-3.99,8.06l4.98,14.72h-4.89l-4.3-13.77h-2.76v13.77h-4.62V25.42h7.52Zm-2.9,14.41h2.49c2.31,0,3.67-.77,3.81-3.71,0-.45.04-.95.04-1.45,0-2.85-.36-4.89-3.99-4.89h-2.36v10.06Z"/>
      <path class="cls-1" d="m147.15,25.42v4.35h-5.35v27.91h-4.62v-27.91h-5.35v-4.35h15.31Z"/>
    </g>
  </g>
</svg>