<svg width="100" height="68" viewBox="0 0 100 68" fill="none" xmlns="http://www.w3.org/2000/svg">
<path d="M74.355 35.5958L57.923 64.0535C57.2008 65.3095 55.8611 66.0736 54.4063 66.0736H21.5422C20.8515 66.0736 20.1712 65.8956 19.5955 65.5712C18.9571 65.2153 18.4024 64.7025 18.0256 64.0431L1.60401 35.5853C0.881835 34.3294 0.881835 32.7803 1.60401 31.5244L18.0256 3.06661C18.7478 1.81066 20.0979 1.04663 21.5422 1.04663H54.4063C55.8611 1.04663 57.1903 1.81066 57.923 3.06661L59.6918 6.12278L74.355 31.5244C75.0772 32.7803 75.0772 34.3294 74.355 35.5853V35.5958Z" fill="#FDFDFD"/>
<path d="M74.3549 35.5956L57.9228 64.0534C57.2007 65.3094 55.861 66.0734 54.4062 66.0734H21.5421C20.8513 66.0734 20.171 65.8955 19.5954 65.571L4.93213 40.1694C4.20996 38.9135 4.20996 37.3749 4.93213 36.1085L21.3642 7.66116C22.0863 6.39475 23.426 5.63074 24.8808 5.63074H57.7345C58.4252 5.63074 59.1055 5.80864 59.6916 6.1331L74.3549 31.5347C75.0771 32.7907 75.0771 34.3397 74.3549 35.5956Z" fill="#245A7C"/>
<path d="M54.3958 67.1202H21.5317C19.7211 67.1202 18.0255 66.1468 17.115 64.5664L0.682924 36.1086C-0.227641 34.5387 -0.227641 32.5815 0.682924 31.0116L17.115 2.55377C18.0255 0.983832 19.7106 0 21.5317 0H54.3958C56.2065 0 57.902 0.973365 58.8126 2.55377L75.2446 31.0116C76.1552 32.5815 76.1552 34.5387 75.2446 36.1086L58.8126 64.5664C57.902 66.1363 56.2169 67.1202 54.3958 67.1202ZM18.9152 3.58992L2.48312 32.0477C1.94934 32.9792 1.94934 34.1409 2.48312 35.0724L18.9152 63.5302C19.4489 64.4617 20.4537 65.0374 21.5317 65.0374H54.3958C55.4738 65.0374 56.4786 64.4617 57.0124 63.5302L73.4444 35.0724C73.9782 34.1409 73.9782 32.9792 73.4444 32.0477L57.0124 3.58992C56.4786 2.65842 55.4738 2.08278 54.3958 2.08278H21.5317C20.4537 2.08278 19.4489 2.65842 18.9152 3.58992Z" fill="#4A4A4A"/>
<path d="M25.6555 31.744L42.077 3.28625C42.7992 2.0303 44.1494 1.25579 45.6042 1.25579H78.4578C79.3893 1.25579 80.2685 1.58025 80.9802 2.14543C81.3779 2.44896 81.7128 2.8362 81.9745 3.28625L98.4065 31.744C99.1287 33 99.1287 34.5385 98.4065 35.805L81.9745 64.2523C81.2523 65.5187 79.9126 66.2827 78.4578 66.2827H45.6042C44.1494 66.2827 42.8097 65.5187 42.077 64.2523L40.5804 61.6671L25.645 35.7945C24.9228 34.5281 24.9228 32.9895 25.645 31.7336L25.6555 31.744Z" fill="#FDFDFD"/>
<path d="M25.6555 31.7439L42.077 3.28608C42.7992 2.03013 44.1494 1.25563 45.6042 1.25563H78.4578C79.3893 1.25563 80.2685 1.58009 80.9802 2.14526L95.9155 27.997C96.6377 29.2529 96.6377 30.8019 95.9155 32.0579L79.4835 60.5157C78.7613 61.7716 77.4216 62.5356 75.9668 62.5356H43.1027C42.1817 62.5356 41.3026 62.2216 40.5908 61.6774L25.6555 35.8048C24.9333 34.5384 24.9333 32.9998 25.6555 31.7439Z" fill="#48B8EF"/>
<path d="M45.6042 0.219666H78.4683C80.279 0.219666 81.9745 1.19303 82.8851 2.77344L99.3171 31.2312C100.228 32.8012 100.228 34.7584 99.3171 36.3283L82.8851 64.7861C81.9745 66.356 80.2894 67.3398 78.4683 67.3398H45.6042C43.7935 67.3398 42.098 66.3665 41.1874 64.7861L24.7554 36.3283C23.8448 34.7584 23.8448 32.8012 24.7554 31.2312L41.1874 2.77344C42.098 1.2035 43.7831 0.219666 45.6042 0.219666ZM78.4683 65.2571C79.5463 65.2571 80.5511 64.6814 81.0849 63.7499L97.5169 35.2921C98.0507 34.3606 98.0507 33.1989 97.5169 32.2674L81.0849 3.80959C80.5511 2.87809 79.5463 2.30244 78.4683 2.30244H45.6042C44.5262 2.30244 43.5214 2.87809 42.9876 3.80959L26.5556 32.2674C26.0218 33.1989 26.0218 34.3606 26.5556 35.2921L42.9876 63.7499C43.5214 64.6814 44.5262 65.2571 45.6042 65.2571H78.4683Z" fill="#4A4A4A"/>
</svg>
