<svg width="90" height="90" viewBox="0 0 90 90" fill="none" xmlns="http://www.w3.org/2000/svg">
<path d="M85.0663 49.9338C87.7911 27.8058 72.0617 7.65862 49.9337 4.9338C27.8057 2.20898 7.65854 17.9384 4.93372 40.0664C2.2089 62.1944 17.9383 82.3416 40.0663 85.0664C62.1943 87.7912 82.3415 72.0618 85.0663 49.9338Z" fill="#245A7C"/>
<path d="M44.9865 86.2362C22.2432 86.2362 3.73669 67.7298 3.73669 44.9865C3.73669 22.2432 22.2432 3.73669 44.9865 3.73669C67.7297 3.73669 86.2362 22.2432 86.2362 44.9865C86.2362 67.7298 67.7297 86.2362 44.9865 86.2362ZM44.9865 5.50719C23.2121 5.50719 5.49837 23.2209 5.49837 44.9953C5.49837 66.7696 23.2121 84.4833 44.9865 84.4833C66.7608 84.4833 84.4745 66.7696 84.4745 44.9953C84.4745 23.2209 66.7608 5.50719 44.9865 5.50719Z" fill="#4A4A4A"/>
<path d="M66.1883 62.4183C72.7241 55.8825 74.8557 46.616 72.6008 38.2833C71.8785 35.6055 68.4873 34.7511 66.523 36.7066L53.6451 49.5933C52.227 51.0114 49.9279 51.0114 48.5098 49.5933L40.3884 41.4719C38.9703 40.0538 38.9703 37.7548 40.3884 36.3366L53.2664 23.4588C55.2306 21.4945 54.3674 18.1121 51.6896 17.381C43.3657 15.1172 34.0993 17.2488 27.5546 23.7935C21.0188 30.3293 18.8959 39.6046 21.1509 47.9285L7.97351 61.1059C9.37405 64.3209 11.1798 67.307 13.329 70.02L24.6919 58.6571C26.524 56.825 29.4924 56.825 31.3246 58.6571C33.1567 60.4893 33.1567 63.4577 31.3246 65.2899L19.9617 76.6527C22.6747 78.8019 25.6696 80.6077 28.8759 82.0082L42.0532 68.8309C50.386 71.0858 59.6524 68.963 66.1883 62.4271V62.4183Z" fill="#FDFDFD"/>
<path d="M28.876 82.8804C28.7615 82.8804 28.6382 82.854 28.5236 82.81C25.2822 81.3918 22.208 79.5508 19.4157 77.3399C19.2219 77.1814 19.0986 76.9524 19.081 76.6969C19.0634 76.4503 19.1603 76.2037 19.3365 76.0275L30.6993 64.6647C31.4216 63.9424 31.818 62.9911 31.818 61.9693C31.818 60.9475 31.4216 59.9962 30.6993 59.2739C29.977 58.5516 29.0257 58.1552 28.0039 58.1552C26.9821 58.1552 26.0308 58.5516 25.3086 59.2739L13.9457 70.6368C13.7696 70.8129 13.5229 70.9098 13.2763 70.8922C13.0209 70.8746 12.7919 70.7601 12.6333 70.5575C10.4136 67.7564 8.57261 64.6911 7.16327 61.4496C7.02234 61.1149 7.09282 60.7273 7.34827 60.4718L20.1645 47.6556C17.98 38.8913 20.5432 29.5456 26.9293 23.1595C33.4387 16.65 43.0135 14.1044 51.9188 16.5179C53.469 16.9407 54.6406 18.121 55.0545 19.6801C55.4773 21.2656 55.0369 22.904 53.883 24.0579L41.0051 36.9358C39.9305 38.0104 39.9305 39.7545 41.0051 40.8291L49.1265 48.9505C50.2011 50.0251 51.9452 50.0251 53.0198 48.9505L65.8977 36.0726C67.0516 34.9187 68.69 34.4782 70.2755 34.901C71.8346 35.315 73.0237 36.4866 73.4377 38.0368C75.8512 46.9421 73.3144 56.5169 66.7962 63.0263C60.4101 69.4124 51.0732 71.9756 42.3 69.7912L29.4838 82.6074C29.3164 82.7747 29.0874 82.8628 28.8584 82.8628L28.876 82.8804ZM21.2831 76.5648C23.5909 78.3001 26.0661 79.7711 28.6734 80.9514L41.4192 68.2056C41.6394 67.9854 41.9653 67.8973 42.2735 67.9766C50.5711 70.2228 59.494 67.8533 65.5541 61.8019C71.6143 55.7417 73.9838 46.8188 71.7377 38.5213C71.4822 37.5876 70.7687 36.8741 69.8174 36.6275C68.8397 36.372 67.8444 36.6363 67.1309 37.341L54.253 50.2189C52.4913 51.9806 49.6286 51.9806 47.8669 50.2189L39.7455 42.0975C37.9839 40.3358 37.9839 37.4731 39.7455 35.7114L52.6234 22.8336C53.3281 22.1289 53.6012 21.1247 53.3369 20.1558C53.0815 19.2045 52.3768 18.491 51.4431 18.2356C43.1456 15.9894 34.2315 18.3501 28.1625 24.4191C22.0935 30.488 19.7329 39.4021 21.9878 47.6997C22.0671 48.008 21.9878 48.3339 21.7588 48.5541L9.01301 61.2998C10.1933 63.9071 11.6732 66.3823 13.3996 68.6901L24.0578 58.0319C26.2246 55.8651 29.7656 55.8563 31.9325 58.0319C34.1082 60.2076 34.1082 63.7398 31.9325 65.9066L21.2743 76.5648H21.2831Z" fill="#4A4A4A"/>
<path d="M25.0459 59.0109C26.6827 57.3743 29.3339 57.3743 30.9707 59.0109C32.6076 60.6477 32.6076 63.2998 30.9707 64.9366L19.9248 75.9825C17.7497 74.22 15.7615 72.2319 13.999 70.0568L25.0459 59.0109Z" fill="#48B8EF" stroke="#4A4A4A"/>
<path d="M24.4204 58.3859C26.3929 56.4133 29.6169 56.4063 31.5874 58.3849V58.3859C33.5682 60.3666 33.5673 63.5808 31.5884 65.5519L31.5874 65.5529L20.2251 76.9161C20.1568 76.9844 20.0574 77.0244 19.9536 77.0245H19.8735C19.8184 77.013 19.7686 76.9907 19.7271 76.9562L19.6704 77.0245H19.6694L19.7271 76.9552L19.7173 76.9474L19.2544 76.5773C17.1096 74.8321 15.1411 72.8637 13.396 70.7189L13.0259 70.256C12.9074 70.0993 12.9225 69.8828 13.0571 69.7482L24.4204 58.3859ZM31.0435 58.9279C29.3589 57.2443 26.6296 57.2552 24.9556 58.9288L13.8345 70.0499L14.1235 70.3995C15.7645 72.3883 17.5935 74.2174 19.5737 75.8497L19.9243 76.1388L20.2446 75.8175L31.0444 65.0177C32.6749 63.3869 32.727 60.7733 31.1958 59.088L31.0435 58.9279Z" fill="#48B8EF" stroke="#4A4A4A"/>
</svg>
