<svg width="100" height="82" viewBox="0 0 100 82" fill="none" xmlns="http://www.w3.org/2000/svg">
<path d="M73.5735 46.813C75.9749 27.6969 62.4249 10.2536 43.3088 7.85223C24.1927 5.45087 6.74942 19.0008 4.34806 38.1169C1.94669 57.233 15.4966 74.6763 34.6127 77.0777C53.7288 79.479 71.1721 65.9291 73.5735 46.813Z" fill="#FDFDFD"/>
<path d="M38.9615 78.2936C19.1969 78.2936 3.12695 62.2142 3.12695 42.4591C3.12695 22.7041 19.2064 6.62463 38.9615 6.62463C58.7165 6.62463 74.796 22.7041 74.796 42.4591C74.796 62.2142 58.7165 78.2936 38.9615 78.2936ZM38.9615 8.52416C20.2512 8.52416 5.02648 23.7488 5.02648 42.4591C5.02648 61.1694 20.2512 76.3941 38.9615 76.3941C57.6718 76.3941 72.8965 61.1694 72.8965 42.4591C72.8965 23.7488 57.6718 8.52416 38.9615 8.52416Z" fill="#4A4A4A"/>
<path d="M38.9615 69.9454C54.1416 69.9454 66.4476 57.6394 66.4476 42.4592C66.4476 27.2791 54.1416 14.9731 38.9615 14.9731C23.7813 14.9731 11.4753 27.2791 11.4753 42.4592C11.4753 57.6394 23.7813 69.9454 38.9615 69.9454Z" fill="#245A7C"/>
<path d="M58.7417 43.5389C59.3391 32.6133 50.9665 23.2721 40.041 22.6747C29.1154 22.0772 19.7742 30.4498 19.1767 41.3754C18.5793 52.3009 26.9519 61.6422 37.8774 62.2396C48.803 62.8371 58.1442 54.4645 58.7417 43.5389Z" fill="#FDFDFD"/>
<path fill-rule="evenodd" clip-rule="evenodd" d="M38.9615 30.739C32.4841 30.739 27.2319 35.9912 27.2319 42.4686C27.2319 48.9459 32.4841 54.1981 38.9615 54.1981C45.4389 54.1981 50.6911 48.9459 50.6911 42.4686C50.6911 35.9912 45.4389 30.739 38.9615 30.739Z" fill="#48B8EF"/>
<path fill-rule="evenodd" clip-rule="evenodd" d="M38.9615 38.4417C36.739 38.4417 34.944 40.2367 34.944 42.4591C34.944 44.6816 36.739 46.4766 38.9615 46.4766C41.1839 46.4766 42.979 44.6816 42.979 42.4591C42.979 40.2367 41.1839 38.4417 38.9615 38.4417Z" fill="#FDFDFD"/>
<path d="M75.9072 17.8795V11.0697C75.9072 10.8417 76.0212 10.6328 76.2112 10.5093L90.5146 1.0592C90.9989 0.736278 91.6258 1.13518 91.5593 1.70504L90.581 9.64504C90.5526 9.84449 90.4386 10.0249 90.2676 10.1389L76.952 18.4588C76.5056 18.7438 75.9167 18.4208 75.9167 17.889L75.9072 17.8795Z" fill="#FDFDFD"/>
<path d="M76.5815 19.5131C76.3061 19.5131 76.0401 19.4466 75.7932 19.3136C75.2803 19.0287 74.9574 18.4778 74.9574 17.889V11.0792C74.9574 10.5283 75.2328 10.0249 75.6887 9.72101L89.9921 0.270879C90.524 -0.0805325 91.1983 -0.0900289 91.7492 0.242388C92.2906 0.584302 92.585 1.18265 92.509 1.82849L91.5307 9.7685C91.4643 10.2624 91.1983 10.6898 90.7804 10.9462L77.4648 19.2661C77.1988 19.4276 76.9044 19.5131 76.6005 19.5131H76.5815ZM76.8569 11.2216V17.3951L89.6502 9.40759L90.543 2.1799L76.8664 11.2216H76.8569Z" fill="#4A4A4A"/>
<path d="M76.9995 19.4276L83.1159 22.4289C83.3154 22.5238 83.5528 22.5238 83.7523 22.4099L98.711 13.7955C99.2144 13.5106 99.1384 12.7603 98.5971 12.5703L90.8565 9.892C90.6665 9.82552 90.4481 9.84451 90.2771 9.95848L76.9425 18.2499C76.4961 18.5348 76.5246 19.1997 76.9995 19.4276Z" fill="#FDFDFD"/>
<path d="M83.4198 23.445C83.1729 23.445 82.9259 23.388 82.7075 23.2741L76.591 20.2728C76.0592 20.0164 75.7173 19.4845 75.6793 18.8957C75.6508 18.3068 75.9452 17.7465 76.4486 17.433L89.7832 9.14162C90.2011 8.88518 90.7045 8.8282 91.1699 8.98966L98.9104 11.668C99.5183 11.8769 99.9362 12.4088 99.9932 13.0546C100.05 13.691 99.7462 14.2893 99.1859 14.6122L84.2271 23.2266C83.9802 23.369 83.6953 23.445 83.4198 23.445ZM77.8637 18.7912L83.4103 21.5075L97.7137 13.2636L90.6665 10.8227L77.8637 18.7912Z" fill="#4A4A4A"/>
<path d="M39.047 43.9123C38.5247 43.9123 38.0118 43.6464 37.7174 43.1715C37.2615 42.4402 37.4799 41.4714 38.2207 41.0155L88.9285 9.07503C89.6598 8.61915 90.6286 8.83759 91.0845 9.57841C91.5404 10.3097 91.3219 11.2785 90.5811 11.7344L39.8733 43.6749C39.6169 43.8363 39.332 43.9123 39.047 43.9123Z" fill="#FDFDFD"/>
<path d="M39.047 44.8622C38.1732 44.8622 37.3754 44.4158 36.91 43.675C36.5491 43.1052 36.4446 42.4308 36.5966 41.7755C36.7486 41.1202 37.1475 40.5598 37.7173 40.2084L88.4251 8.27741C88.995 7.9165 89.6693 7.80253 90.3246 7.95449C90.98 8.10645 91.5403 8.50535 91.9012 9.07521C92.2621 9.64507 92.3666 10.3194 92.2146 10.9747C92.0627 11.6301 91.6638 12.1904 91.0939 12.5418L40.3861 44.4728C39.9872 44.7293 39.5219 44.8622 39.0565 44.8622H39.047ZM89.7548 9.78753C89.6408 9.78753 89.5268 9.81602 89.4318 9.88251L38.7241 41.823C38.5816 41.9085 38.4866 42.0509 38.4486 42.2124C38.4106 42.3739 38.4486 42.5353 38.5246 42.6778C38.6956 42.9532 39.0945 43.0577 39.3699 42.8772L90.0777 10.9367C90.2201 10.8513 90.3151 10.7088 90.3531 10.5473C90.3911 10.3859 90.3531 10.2244 90.2771 10.082C90.1917 9.9395 90.0492 9.84452 89.8877 9.80653C89.8402 9.79703 89.7928 9.78753 89.7453 9.78753H89.7548Z" fill="#4A4A4A"/>
</svg>
