<svg width="445" height="173" viewBox="0 0 445 173" fill="none" xmlns="http://www.w3.org/2000/svg">
<path d="M190.683 93.4635V104.004H177.718V171.636H166.523V104.004H153.559V93.4635H190.658H190.683Z" fill="#245A7C"/>
<path d="M213.849 93.4636C226.037 93.4636 233.38 100.491 233.38 116.411C233.38 125.523 230.738 131.993 223.711 135.942L235.779 171.612H223.929L213.509 138.245H206.821V171.612H195.626V93.4393H213.849V93.4636ZM206.821 128.382H212.855C218.453 128.382 221.748 126.516 222.087 119.392C222.087 118.301 222.184 117.09 222.184 115.878C222.184 108.972 221.312 104.029 212.516 104.029H206.797V128.406L206.821 128.382Z" fill="#245A7C"/>
<path d="M253.589 93.4636V153.172C253.589 158.115 256.449 161.071 260.495 161.071C264.542 161.071 267.402 158.115 267.402 153.172V93.4636H278.597V154.383C278.597 164.27 270.358 172.266 260.471 172.266C250.584 172.266 242.37 164.246 242.37 154.262V93.4393H253.565L253.589 93.4636Z" fill="#245A7C"/>
<path d="M314.194 115.975V113.891C314.194 106.743 310.898 104.004 306.294 104.004C301.351 104.004 298.709 107.179 298.709 114.206C298.709 121.233 300.018 122.542 306.391 125.062C308.911 126.056 312.328 127.364 314.194 128.14C324.08 132.211 325.389 138.681 325.389 149.222C325.389 165.021 318.483 172.266 306.076 172.266C298.273 172.266 286.981 167.323 286.981 153.05V149.537H298.176V153.171C298.176 157.024 300.381 161.071 306.076 161.071C309.929 161.071 312.546 160.078 313.661 156.249C314.218 154.262 314.218 151.863 314.218 149.44C314.218 142.412 313.564 140.207 309.275 138.244C306.318 136.936 301.69 135.288 297.74 133.422C290.495 130.03 287.538 124.19 287.538 114.206C287.538 101.363 294.663 92.8092 306.754 92.8092C310.825 92.8092 314.993 94.0208 318.168 96.541C323.984 101.145 325.413 106.307 325.413 110.911V115.951H314.218L314.194 115.975Z" fill="#245A7C"/>
<path d="M365.227 93.4635V104.004H352.262V171.636H341.067V104.004H328.103V93.4635H365.202H365.227Z" fill="#245A7C"/>
<path d="M403.538 93.4635V104.004H381.365V126.952H400.678V137.493H381.365V160.441H403.538V171.636H370.17V93.4635H403.538Z" fill="#48B8EF"/>
<path d="M444.175 93.4635V104.004H422.002V126.952H441.315V137.493H422.002V160.441H444.175V171.636H410.807V93.4635H444.175Z" fill="#48B8EF"/>
<path d="M11.1952 0.678589V36.3483H11.4133L27.77 0.678589H38.9653L23.699 31.9623L41.8246 78.8272H29.9751L17.2533 44.1268L11.2195 55.4432V78.8272H0V0.678589H11.1952Z" fill="#48B8EF"/>
<path d="M58.3024 0.678589V78.8514H47.1072V0.678589H58.3024Z" fill="#48B8EF"/>
<path d="M93.5361 23.069V19.9915C93.5361 12.843 89.247 11.2195 86.63 11.2195C80.5962 11.2195 79.7238 15.8236 79.7238 19.9915V60.6045C79.7238 64.2394 81.2504 68.2861 86.533 68.2861C88.7382 68.2861 93.5604 67.4138 93.5604 60.0472V56.5336H104.756V61.0407C104.756 71.3636 96.7348 79.4814 86.9692 79.4814C75.4347 79.4814 68.5286 72.4541 68.5286 61.4769V17.7864C68.5286 8.02083 75.774 0 86.7511 0C92.3487 0 96.7348 2.30205 99.7153 5.37953C102.793 8.6751 104.756 12.5038 104.756 19.6523V23.069H93.5604H93.5361Z" fill="#48B8EF"/>
<path d="M125.038 0.678589V36.3483H125.256L141.613 0.678589H152.808L137.542 31.9623L155.667 78.8272H143.818L131.096 44.1268L125.062 55.4432V78.8272H113.867V0.678589H125.062H125.038Z" fill="#48B8EF"/>
<path d="M185.642 23.1902V21.1062C185.642 13.9578 182.347 11.2195 177.743 11.2195C172.799 11.2195 170.158 14.3939 170.158 21.4213C170.158 28.4486 171.466 29.7571 177.84 32.2772C180.36 33.2708 183.776 34.5793 185.642 35.3547C195.529 39.4257 196.837 45.8957 196.837 56.4367C196.837 72.236 189.931 79.4814 177.524 79.4814C169.722 79.4814 158.43 74.5381 158.43 60.2654V56.7517H169.625V60.3865C169.625 64.2394 171.83 68.2862 177.524 68.2862C181.377 68.2862 183.994 67.2927 185.109 63.464C185.666 61.477 185.666 59.078 185.666 56.6548C185.666 49.6275 185.012 47.4223 180.723 45.4595C177.767 44.151 173.138 42.5032 169.189 40.6373C161.943 37.2448 158.987 31.4049 158.987 21.4213C158.987 8.57823 166.111 0.024292 178.203 0.024292C182.274 0.024292 186.442 1.2359 189.616 3.75604C195.432 8.36015 196.862 13.5216 196.862 18.1257V23.166H185.666L185.642 23.1902Z" fill="#245A7C"/>
<path d="M236.699 0.678589V11.2196H223.735V78.8514H212.54V11.2196H199.576V0.678589H236.675H236.699Z" fill="#245A7C"/>
<path d="M257.345 0.678589L274.792 78.8514H263.597L260.301 62.0586H245.035L241.74 78.8514H230.544L247.992 0.678589H257.321H257.345ZM247.022 51.5176H258.218L252.741 23.1902H252.523L247.022 51.5176Z" fill="#245A7C"/>
<path d="M298.516 0.678589C310.704 0.678589 318.047 7.7059 318.047 23.6264C318.047 32.7377 315.405 39.2077 308.378 43.1575L320.446 78.8272H308.596L298.176 45.4596H291.488V78.8272H280.293V0.678589H298.516ZM291.488 35.5971H297.522C303.12 35.5971 306.415 33.7312 306.754 26.607C306.754 25.5165 306.851 24.3049 306.851 23.0933C306.851 16.1871 305.979 11.2438 297.183 11.2438H291.464V35.6213L291.488 35.5971Z" fill="#245A7C"/>
<path d="M356.576 0.678589V11.2196H343.611V78.8514H332.416V11.2196H319.452V0.678589H356.551H356.576Z" fill="#245A7C"/>
</svg>
