<svg width="89" height="63" viewBox="0 0 89 63" fill="none" xmlns="http://www.w3.org/2000/svg">
<g clip-path="url(#clip0_360_4785)">
<path opacity="0.54" fill-rule="evenodd" clip-rule="evenodd" d="M71.3358 9.14108C72.3346 9.46547 72.9844 10.245 72.9844 11.1116V34.894C72.9844 49.1818 48.8615 58.7151 43.9642 62.5933C43.4842 62.9758 42.7229 62.9758 42.2381 62.5933C37.3407 58.7151 13.2179 49.1818 13.2179 34.894V11.1116C13.2179 10.245 13.8725 9.46547 14.8665 9.14108L42.1168 0.275956C42.752 0.0677639 43.4551 0.0677639 44.0903 0.275956L71.3358 9.14108Z" stroke="#48B8EF" stroke-width="0.5" stroke-miterlimit="10"/>
<path opacity="0.54" fill-rule="evenodd" clip-rule="evenodd" d="M87.2302 9.14108C88.2291 9.46547 88.8788 10.245 88.8788 11.1116V34.894C88.8788 49.1818 64.7559 58.7151 59.8586 62.5933C59.3786 62.9758 58.6173 62.9758 58.1325 62.5933C53.2352 58.7151 29.1123 49.1818 29.1123 34.894V11.1116C29.1123 10.245 29.7669 9.46547 30.7609 9.14108L58.0064 0.275956C58.6416 0.0677639 59.3447 0.0677639 59.9799 0.275956L87.2254 9.14108H87.2302Z" stroke="#48B8EF" stroke-width="0.5" stroke-miterlimit="10"/>
<path d="M38.1553 30.8464V32.9525H35.5612V46.4657H33.321V32.9525H30.7269V30.8464H38.1505H38.1553Z" fill="#245A7C"/>
<path d="M42.7908 30.8464C45.2297 30.8464 46.6989 32.2505 46.6989 35.4315C46.6989 37.2519 46.1704 38.5447 44.7642 39.3339L47.179 46.4608H44.8079L42.7229 39.7938H41.3846V46.4608H39.1445V30.8416H42.7908V30.8464ZM41.3846 37.8233H42.592C43.712 37.8233 44.3715 37.4505 44.4394 36.027C44.4394 35.8091 44.4588 35.567 44.4588 35.325C44.4588 33.9451 44.2842 32.9574 42.5241 32.9574H41.3798V37.8281L41.3846 37.8233Z" fill="#245A7C"/>
<path d="M50.7428 30.8464V42.7763C50.7428 43.764 51.315 44.3547 52.1247 44.3547C52.9345 44.3547 53.5066 43.764 53.5066 42.7763V30.8464H55.7468V43.0184C55.7468 44.9938 54.0982 46.5916 52.1199 46.5916C50.1416 46.5916 48.4978 44.989 48.4978 42.9942V30.8416H50.738L50.7428 30.8464Z" fill="#245A7C"/>
<path d="M62.8697 35.3443V34.9279C62.8697 33.4996 62.2103 32.9525 61.289 32.9525C60.2998 32.9525 59.7713 33.5868 59.7713 34.9908C59.7713 36.3949 60.0332 36.6564 61.3084 37.1599C61.8127 37.3584 62.4964 37.6199 62.8697 37.7748C64.848 38.5882 65.1099 39.8809 65.1099 41.9871C65.1099 45.1439 63.728 46.5915 61.2454 46.5915C59.684 46.5915 57.4245 45.6038 57.4245 42.7521V42.05H59.6647V42.7763C59.6647 43.5461 60.1059 44.3547 61.2454 44.3547C62.0163 44.3547 62.54 44.1562 62.763 43.3912C62.8746 42.9942 62.8746 42.5148 62.8746 42.0307C62.8746 40.6266 62.7436 40.186 61.8854 39.7938C61.2939 39.5323 60.3677 39.2031 59.5774 38.8303C58.1276 38.1525 57.536 36.9856 57.536 34.9908C57.536 32.4248 58.9616 30.7156 61.3811 30.7156C62.1957 30.7156 63.0297 30.9577 63.6649 31.4613C64.8286 32.3812 65.1147 33.4125 65.1147 34.3324V35.3394H62.8746L62.8697 35.3443Z" fill="#245A7C"/>
<path d="M73.0813 30.8464V32.9525H70.4872V46.4657H68.2471V32.9525H65.653V30.8464H73.0765H73.0813Z" fill="#245A7C"/>
<path d="M80.7473 30.8464V32.9525H76.3107V37.5376H80.1752V39.6437H76.3107V44.2288H80.7473V46.4657H74.0705V30.8464H80.7473Z" fill="#48B8EF"/>
<path d="M88.8788 30.8464V32.9525H84.4421V37.5376H88.3066V39.6437H84.4421V44.2288H88.8788V46.4657H82.202V30.8464H88.8788Z" fill="#48B8EF"/>
<path d="M2.24015 12.3076V19.4345H2.28379L5.55674 12.3076H7.79689L4.74214 18.5582L8.36905 27.922H5.99798L3.45236 20.9887L2.245 23.2498V27.922H0V12.3076H2.24015Z" fill="#48B8EF"/>
<path d="M11.6662 12.3076V27.9268H9.42609V12.3076H11.6662Z" fill="#48B8EF"/>
<path d="M18.7164 16.7813V16.1664C18.7164 14.7381 17.8582 14.4137 17.3345 14.4137C16.1272 14.4137 15.9526 15.3336 15.9526 16.1664V24.2811C15.9526 25.0073 16.2581 25.8159 17.3151 25.8159C17.7564 25.8159 18.7213 25.6416 18.7213 24.1697V23.4676H20.9614V24.3682C20.9614 26.4308 19.3565 28.0527 17.4024 28.0527C15.0944 28.0527 13.7125 26.6486 13.7125 24.4554V15.7258C13.7125 13.7746 15.1623 12.172 17.3588 12.172C18.4788 12.172 19.3565 12.632 19.9529 13.2469C20.5687 13.9053 20.9614 14.6703 20.9614 16.0986V16.7813H18.7213H18.7164Z" fill="#48B8EF"/>
<path d="M25.0199 12.3076V19.4345H25.0635L28.3365 12.3076H30.5767L27.5219 18.5582L31.1488 27.922H28.7777L26.2321 20.9887L25.0248 23.2498V27.922H22.7846V12.3076H25.0248H25.0199Z" fill="#48B8EF"/>
<path d="M37.1468 16.8055V16.3891C37.1468 14.9608 36.4873 14.4137 35.566 14.4137C34.5769 14.4137 34.0484 15.0479 34.0484 16.452C34.0484 17.8561 34.3102 18.1176 35.5854 18.6211C36.0897 18.8196 36.7734 19.0811 37.1468 19.236C39.1251 20.0494 39.3869 21.3421 39.3869 23.4483C39.3869 26.605 38.005 28.0527 35.5224 28.0527C33.9611 28.0527 31.7015 27.065 31.7015 24.2132V23.5112H33.9417V24.2375C33.9417 25.0073 34.3829 25.8158 35.5224 25.8158C36.2934 25.8158 36.817 25.6173 37.0401 24.8524C37.1516 24.4553 37.1516 23.976 37.1516 23.4918C37.1516 22.0877 37.0207 21.6472 36.1624 21.255C35.5709 20.9935 34.6448 20.6643 33.8544 20.2915C32.4046 19.6136 31.8131 18.4468 31.8131 16.452C31.8131 13.8859 33.2386 12.1768 35.6582 12.1768C36.4728 12.1768 37.3068 12.4189 37.942 12.9224C39.1057 13.8424 39.3918 14.8736 39.3918 15.7936V16.8006H37.1516L37.1468 16.8055Z" fill="#245A7C"/>
<path d="M47.3632 12.3076V14.4137H44.7691V27.9268H42.5289V14.4137H39.9348V12.3076H47.3583H47.3632Z" fill="#245A7C"/>
<path d="M51.4944 12.3076L54.9856 27.9268H52.7454L52.086 24.5715H49.0312L48.3718 27.9268H46.1317L49.6228 12.3076H51.4896H51.4944ZM49.4288 22.4654H51.669L50.5732 16.8055H50.5295L49.4288 22.4654Z" fill="#245A7C"/>
<path d="M59.7326 12.3076C62.1715 12.3076 63.6407 13.7116 63.6407 16.8926C63.6407 18.7131 63.1122 20.0058 61.706 20.795L64.1207 27.922H61.7497L59.6647 21.255H58.3264V27.922H56.0862V12.3076H59.7326ZM58.3264 19.2844H59.5338C60.6538 19.2844 61.3133 18.9116 61.3811 17.4882C61.3811 17.2703 61.4005 17.0282 61.4005 16.7861C61.4005 15.4062 61.226 14.4185 59.4659 14.4185H58.3215V19.2893L58.3264 19.2844Z" fill="#245A7C"/>
<path d="M71.3503 12.3076V14.4137H68.7562V27.9268H66.516V14.4137H63.9219V12.3076H71.3455H71.3503Z" fill="#245A7C"/>
</g>
<defs>
<clipPath id="clip0_360_4785">
<rect width="89" height="63" fill="white"/>
</clipPath>
</defs>
</svg>
