<svg width="184" height="131" viewBox="0 0 184 131" fill="none" xmlns="http://www.w3.org/2000/svg">
<g clip-path="url(#clip0_360_4808)">
<path fill-rule="evenodd" clip-rule="evenodd" d="M147.12 18.8801C149.18 19.5501 150.52 21.1601 150.52 22.9501V72.0701C150.52 101.58 100.77 121.27 90.67 129.28C89.68 130.07 88.11 130.07 87.11 129.28C77.01 121.27 27.26 101.58 27.26 72.0701V22.9501C27.26 21.1601 28.61 19.5501 30.66 18.8801L86.86 0.570059C88.17 0.140059 89.62 0.140059 90.93 0.570059L147.12 18.8801Z" fill="#FDFDFD" stroke="#48B8EF" stroke-width="0.5" stroke-miterlimit="10"/>
<path fill-rule="evenodd" clip-rule="evenodd" d="M179.9 18.8801C181.96 19.5501 183.3 21.1601 183.3 22.9501V72.0701C183.3 101.58 133.55 121.27 123.45 129.28C122.46 130.07 120.89 130.07 119.89 129.28C109.79 121.27 60.04 101.58 60.04 72.0701V22.9501C60.04 21.1601 61.39 19.5501 63.44 18.8801L91.535 9.72506L119.63 0.570059C120.94 0.140059 122.39 0.140059 123.7 0.570059L179.89 18.8801H179.9Z" fill="#FDFDFD" stroke="#48B8EF" stroke-width="0.5" stroke-miterlimit="10"/>
<path d="M78.69 63.71V68.06H73.34V95.97H68.72V68.06H63.37V63.71H78.68H78.69Z" fill="#245A7C"/>
<path d="M88.25 63.7099C93.28 63.7099 96.31 66.61 96.31 73.18C96.31 76.94 95.22 79.6099 92.32 81.2399L97.3 95.9599H92.41L88.11 82.19H85.35V95.9599H80.73V63.7H88.25V63.7099ZM85.35 78.12H87.84C90.15 78.12 91.51 77.35 91.65 74.41C91.65 73.96 91.69 73.4599 91.69 72.9599C91.69 70.1099 91.33 68.07 87.7 68.07H85.34V78.1299L85.35 78.12Z" fill="#245A7C"/>
<path d="M104.65 63.7099V88.3499C104.65 90.3899 105.83 91.61 107.5 91.61C109.17 91.61 110.35 90.3899 110.35 88.3499V63.7099H114.97V88.8499C114.97 92.9299 111.57 96.23 107.49 96.23C103.41 96.23 100.02 92.92 100.02 88.8V63.7H104.64L104.65 63.7099Z" fill="#245A7C"/>
<path d="M129.66 72.9999V72.1399C129.66 69.1899 128.3 68.0599 126.4 68.0599C124.36 68.0599 123.27 69.3699 123.27 72.2699C123.27 75.1699 123.81 75.7099 126.44 76.7499C127.48 77.1599 128.89 77.6999 129.66 78.0199C133.74 79.6999 134.28 82.3699 134.28 86.7199C134.28 93.2399 131.43 96.2299 126.31 96.2299C123.09 96.2299 118.43 94.1899 118.43 88.2999V86.8499H123.05V88.3499C123.05 89.9399 123.96 91.6099 126.31 91.6099C127.9 91.6099 128.98 91.1999 129.44 89.6199C129.67 88.7999 129.67 87.8099 129.67 86.8099C129.67 83.9099 129.4 82.9999 127.63 82.1899C126.41 81.6499 124.5 80.9699 122.87 80.1999C119.88 78.7999 118.66 76.3899 118.66 72.2699C118.66 66.9699 121.6 63.4399 126.59 63.4399C128.27 63.4399 129.99 63.9399 131.3 64.9799C133.7 66.8799 134.29 69.0099 134.29 70.9099V72.9899H129.67L129.66 72.9999Z" fill="#245A7C"/>
<path d="M150.72 63.71V68.06H145.37V95.97H140.75V68.06H135.4V63.71H150.71H150.72Z" fill="#245A7C"/>
<path d="M166.53 63.71V68.06H157.38V77.53H165.35V81.88H157.38V91.35H166.53V95.97H152.76V63.71H166.53Z" fill="#48B8EF"/>
<path d="M183.3 63.71V68.06H174.15V77.53H182.12V81.88H174.15V91.35H183.3V95.97H169.53V63.71H183.3Z" fill="#48B8EF"/>
<path d="M4.62 25.4199V40.1399H4.71L11.46 25.4199H16.08L9.78 38.3299L17.26 57.6699H12.37L7.12 43.3499L4.63 48.0199V57.6699H0V25.4199H4.62Z" fill="#48B8EF"/>
<path d="M24.0599 25.4199V57.6799H19.4399V25.4199H24.0599Z" fill="#48B8EF"/>
<path d="M38.6 34.6599V33.3899C38.6 30.4399 36.83 29.7699 35.75 29.7699C33.26 29.7699 32.9 31.6699 32.9 33.3899V50.1499C32.9 51.6499 33.53 53.3199 35.71 53.3199C36.62 53.3199 38.61 52.9599 38.61 49.9199V48.4699H43.23V50.3299C43.23 54.5899 39.92 57.9399 35.89 57.9399C31.13 57.9399 28.28 55.0399 28.28 50.5099V32.4799C28.28 28.4499 31.27 25.1399 35.8 25.1399C38.11 25.1399 39.92 26.0899 41.15 27.3599C42.42 28.7199 43.23 30.2999 43.23 33.2499V34.6599H38.61H38.6Z" fill="#48B8EF"/>
<path d="M51.6 25.4199V40.1399H51.69L58.44 25.4199H63.06L56.76 38.3299L64.24 57.6699H59.35L54.1 43.3499L51.61 48.0199V57.6699H46.99V25.4199H51.61H51.6Z" fill="#48B8EF"/>
<path d="M76.61 34.7099V33.8499C76.61 30.8999 75.25 29.7699 73.35 29.7699C71.31 29.7699 70.22 31.0799 70.22 33.9799C70.22 36.8799 70.76 37.4199 73.39 38.4599C74.43 38.8699 75.84 39.4099 76.61 39.7299C80.69 41.4099 81.23 44.0799 81.23 48.4299C81.23 54.9499 78.38 57.9399 73.26 57.9399C70.04 57.9399 65.38 55.8999 65.38 50.0099V48.5599H70V50.0599C70 51.6499 70.91 53.3199 73.26 53.3199C74.85 53.3199 75.93 52.9099 76.39 51.3299C76.62 50.5099 76.62 49.5199 76.62 48.5199C76.62 45.6199 76.35 44.7099 74.58 43.8999C73.36 43.3599 71.45 42.6799 69.82 41.9099C66.83 40.5099 65.61 38.0999 65.61 33.9799C65.61 28.6799 68.55 25.1499 73.54 25.1499C75.22 25.1499 76.94 25.6499 78.25 26.6899C80.65 28.5899 81.24 30.7199 81.24 32.6199V34.6999H76.62L76.61 34.7099Z" fill="#245A7C"/>
<path d="M97.68 25.4199V29.7699H92.33V57.6799H87.71V29.7699H82.36V25.4199H97.67H97.68Z" fill="#245A7C"/>
<path d="M106.2 25.4199L113.4 57.6799H108.78L107.42 50.7499H101.12L99.76 57.6799H95.14L102.34 25.4199H106.19H106.2ZM101.94 46.3999H106.56L104.3 34.7099H104.21L101.94 46.3999Z" fill="#245A7C"/>
<path d="M123.19 25.4199C128.22 25.4199 131.25 28.3199 131.25 34.8899C131.25 38.6499 130.16 41.3199 127.26 42.9499L132.24 57.6699H127.35L123.05 43.8999H120.29V57.6699H115.67V25.4199H123.19ZM120.29 39.8299H122.78C125.09 39.8299 126.45 39.0599 126.59 36.1199C126.59 35.6699 126.63 35.1699 126.63 34.6699C126.63 31.8199 126.27 29.7799 122.64 29.7799H120.28V39.8399L120.29 39.8299Z" fill="#245A7C"/>
<path d="M147.15 25.4199V29.7699H141.8V57.6799H137.18V29.7699H131.83V25.4199H147.14H147.15Z" fill="#245A7C"/>
</g>
<defs>
<clipPath id="clip0_360_4808">
<rect width="183.55" height="130.12" fill="white"/>
</clipPath>
</defs>
</svg>
