<svg width="441" height="466" viewBox="0 0 441 466" fill="none" xmlns="http://www.w3.org/2000/svg">
<path d="M110.52 358.594H281.296C289.103 358.594 293.475 352.087 291.071 344.074L201.336 16.16C198.916 8.14636 190.625 1.6394 182.818 1.6394H12.0413C4.23399 1.6394 -0.13744 8.14636 2.26604 16.16L92.0014 344.074C94.4211 352.087 102.712 358.594 110.52 358.594Z" fill="white"/>
<path d="M281.296 360.25H110.519C102.067 360.25 93.066 353.213 90.4528 344.57L0.717369 16.6234C-0.605353 12.2192 -0.0891629 7.8481 2.18527 4.70224C4.36293 1.67229 7.8633 0.0166016 12.0412 0.0166016H182.818C191.27 0.0166016 200.271 7.05336 202.884 15.6962L292.62 343.643C293.942 348.064 293.426 352.418 291.152 355.581C288.974 358.611 285.474 360.266 281.296 360.266V360.25ZM12.0412 3.31145C8.9118 3.31145 6.33088 4.50357 4.78233 6.656C3.10473 8.99055 2.76597 12.1861 3.81447 15.6796L93.5499 343.627C95.7598 350.945 103.374 356.939 110.519 356.939H281.296C284.425 356.939 287.006 355.746 288.555 353.594C290.232 351.259 290.571 348.047 289.522 344.57L199.787 16.6234C197.577 9.30515 189.963 3.31145 182.818 3.31145H12.0412Z" fill="#303030"/>
<path d="M292.12 358.578H121.359C118.94 358.578 116.488 357.965 114.181 356.856C108.987 354.422 104.519 349.604 102.841 344.057L13.1058 16.16C10.6862 8.14636 15.0576 1.6394 22.881 1.6394H193.641C198.158 1.6394 202.836 3.80839 206.449 7.2026C209.094 9.66961 211.159 12.7824 212.159 16.16L301.895 344.057C304.314 352.087 299.943 358.578 292.12 358.578Z" fill="white"/>
<path d="M292.119 358.578H121.359C118.94 358.578 116.488 357.965 114.181 356.856C111.568 354.406 109.519 351.309 108.503 347.948L18.7837 20.0345C16.3641 12.0209 20.7356 5.51392 28.5429 5.51392H199.319C201.707 5.51392 204.142 6.12654 206.449 7.20275C209.094 9.66976 211.159 12.7825 212.159 16.1602L301.895 344.057C304.314 352.088 299.943 358.578 292.119 358.578Z" fill="#245A7C"/>
<path d="M292.12 360.25H121.343C112.891 360.25 103.89 353.213 101.276 344.57L11.5411 16.6234C10.2184 12.2192 10.7346 7.84808 13.009 4.68567C15.1866 1.65572 18.687 0 22.8649 0H193.641C202.094 0 211.095 7.03678 213.708 15.6796L303.443 343.626C304.766 348.047 304.25 352.402 301.975 355.564C299.798 358.594 296.297 360.25 292.12 360.25ZM22.881 3.29488C19.7517 3.29488 17.1707 4.487 15.6222 6.63942C13.9446 8.97398 13.6058 12.1861 14.6543 15.663L104.39 343.61C106.6 350.928 114.213 356.922 121.359 356.922H292.136C295.265 356.922 297.846 355.73 299.394 353.577C301.072 351.243 301.411 348.047 300.362 344.554L210.627 16.6068C208.417 9.28854 200.803 3.29488 193.657 3.29488H22.881Z" fill="#303030"/>
<path d="M29.8172 33.9257C29.043 31.3594 29.2527 29.0414 30.3979 27.3857C31.4787 25.8459 33.3499 24.9849 35.6889 24.9849H192.851C198.609 24.9849 204.981 30.0182 206.772 35.9622L289.99 342.269C290.426 343.693 290.329 344.951 289.732 345.812C289.168 346.607 288.2 347.037 286.925 347.037H121.634C118.149 347.037 114.117 343.859 113.02 340.216L29.8011 33.9092L29.8172 33.9257Z" fill="white"/>
<path d="M286.942 348.709H121.65C117.456 348.709 112.81 345.05 111.503 340.729L28.2687 34.4056C27.3493 31.3425 27.6396 28.5113 29.0914 26.4416C30.4786 24.4548 32.8337 23.3455 35.6889 23.3455H192.851C199.352 23.3455 206.304 28.7927 208.32 35.4984L291.555 341.855C292.136 343.742 291.958 345.514 291.055 346.805C290.2 348.047 288.732 348.709 286.942 348.709ZM35.6889 26.6403C33.8984 26.6403 32.4788 27.2529 31.7207 28.3457C30.8658 29.5709 30.7529 31.3757 31.3658 33.4287C31.3658 33.4287 31.3658 33.4619 31.3658 33.4784L114.584 339.785C115.455 342.699 118.827 345.381 121.634 345.381H286.925C287.345 345.381 288.103 345.315 288.426 344.852C288.716 344.438 288.732 343.659 288.458 342.765L205.223 36.409C203.658 31.2266 197.868 26.6403 192.851 26.6403H35.6889Z" fill="#303030"/>
<path d="M102.938 15.9451H124.569C125.699 15.9451 126.312 15.0179 125.973 13.8589C125.634 12.6999 124.44 11.7727 123.311 11.7727H101.68C100.551 11.7727 99.9378 12.6999 100.277 13.8589C100.615 15.0179 101.809 15.9451 102.938 15.9451Z" fill="white"/>
<path d="M123.311 11.789C124.424 11.789 125.618 12.7162 125.973 13.8752C126.328 15.0176 125.698 15.9614 124.569 15.9614H102.938C101.809 15.9614 100.631 15.0342 100.276 13.8752C99.9215 12.7162 100.551 11.789 101.68 11.789H123.311ZM123.311 8.47754H101.68C100.131 8.47754 98.7278 9.17294 97.8567 10.3982C96.9534 11.64 96.7276 13.2626 97.1954 14.852C97.9696 17.4184 100.373 19.2728 102.938 19.2728H124.569C126.118 19.2728 127.521 18.5774 128.392 17.3522C129.296 16.1104 129.521 14.4878 129.054 12.8983C128.279 10.332 125.876 8.47754 123.311 8.47754Z" fill="#303030"/>
<path d="M86.2749 82.2721C86.2749 105.402 68.0149 124.162 45.4803 124.162C36.818 124.162 28.8011 121.397 22.2036 116.678C11.6057 109.111 4.66943 96.5278 4.66943 82.2721C4.66943 59.1418 22.9456 40.3992 45.4803 40.3992C56.1911 40.3992 65.9341 44.6378 73.209 51.5752C81.2422 59.2081 86.2749 70.1358 86.2749 82.2721Z" fill="white"/>
<path d="M86.2748 82.2723C86.2748 105.403 68.0148 124.162 45.4802 124.162C36.818 124.162 28.801 121.397 22.2035 116.678C14.1704 109.029 9.13757 98.1009 9.13757 85.9645C9.13757 62.8342 27.4137 44.0916 49.9484 44.0916C58.5945 44.0916 66.6115 46.8566 73.2089 51.5754C81.2421 59.2082 86.2748 70.1359 86.2748 82.2723Z" fill="#EBEBEB"/>
<path d="M45.4802 125.817C22.0906 125.817 3.05627 106.28 3.05627 82.2887C3.05627 58.2974 22.0906 38.76 45.4802 38.76C68.8698 38.76 87.8879 58.2974 87.8879 82.2887C87.8879 106.28 68.8536 125.817 45.4802 125.817ZM45.4802 42.0549C23.865 42.0549 6.28243 60.1021 6.28243 82.2721C6.28243 104.442 23.865 122.489 45.4802 122.489C67.0954 122.489 84.6618 104.442 84.6618 82.2721C84.6618 60.1021 67.0793 42.0549 45.4802 42.0549Z" fill="#303030"/>
<path d="M41.5283 90.9151L22.3165 73.3976V93.8291L41.5283 110.784L71.4508 67.4868V57.1882L41.5283 90.9151Z" fill="white"/>
<path d="M41.5283 112.439C41.1412 112.439 40.7701 112.307 40.4798 112.042L21.2681 95.0876C20.9132 94.773 20.7035 94.3094 20.7035 93.8292V73.3977C20.7035 72.752 21.0745 72.156 21.6552 71.891C22.2359 71.6261 22.9134 71.7255 23.3812 72.156L41.4154 88.5972L70.2572 56.079C70.7088 55.5823 71.4025 55.4002 72.0316 55.6485C72.6445 55.8969 73.0639 56.5095 73.0639 57.1883V67.5034C73.0639 67.8511 72.9671 68.1823 72.7736 68.4637L42.851 111.744C42.5929 112.125 42.1897 112.373 41.738 112.423C41.6735 112.423 41.6089 112.423 41.5444 112.423L41.5283 112.439ZM23.9296 93.0676L41.2379 108.333L69.8378 66.957V61.46L42.722 92.0245C42.1251 92.6868 41.1089 92.753 40.4637 92.1404L23.9296 77.0734V93.051V93.0676Z" fill="#303030"/>
<path d="M189.463 41.5088C210.449 56.5096 190.399 73.9111 198.464 89.1602C209.982 110.933 185.721 106.827 178.72 160.687C172.3 210.077 122.617 194.811 112.084 171.3C90.6623 123.467 136.312 100.601 134.764 87.67C131.102 57.0725 161.396 21.4747 189.447 41.5254L189.463 41.5088Z" fill="#303030"/>
<path d="M148.459 194.993C133.296 194.993 116.488 185.108 110.616 171.979C95.3888 137.97 113.1 116.247 124.811 101.876C129.505 96.1139 133.554 91.1468 133.167 87.8519C130.957 69.4073 140.813 48.3798 156.089 38.9256C167.348 31.9551 179.527 32.3856 190.367 40.1509C203.723 49.6878 201.465 60.5823 199.464 70.1855C198.126 76.6262 196.867 82.7192 199.852 88.3652C205.949 99.8889 202.465 105.204 197.222 113.251C191.883 121.413 183.834 133.748 180.301 160.902C176.881 187.162 161.977 193.304 153.379 194.629C151.766 194.877 150.12 194.993 148.443 194.993H148.459ZM172.397 37.3527C167.477 37.3527 162.525 38.8263 157.766 41.7734C143.507 50.5984 134.312 70.2352 136.377 87.4711C136.942 92.1733 132.683 97.4054 127.295 104.012C116.101 117.754 99.1795 138.5 113.552 170.604C119.536 183.966 137.926 193.668 152.911 191.35C166.203 189.297 174.784 178.337 177.107 160.455C180.737 132.54 189.044 119.807 194.545 111.396C199.787 103.366 202.191 99.7068 197.029 89.9381C193.48 83.2159 194.916 76.2288 196.319 69.4901C198.271 60.0525 200.11 51.1448 188.528 42.8662C183.382 39.1905 177.914 37.3527 172.397 37.3527Z" fill="#303030"/>
<path d="M219.208 347.037H141.071C141.571 324.205 140.006 247.827 147.894 228.753C154.25 213.438 159.928 212.477 162.17 209.083C164.928 204.911 175.881 204.348 184.479 204.613H184.543C190.592 204.812 195.48 205.391 195.48 205.391C202.029 229.217 213.272 305.23 219.208 347.037Z" fill="white"/>
<path d="M219.208 347.037H147.572C148.088 324.205 146.507 247.827 154.411 228.753C160.751 213.438 166.445 212.478 168.687 209.083C170.768 205.921 177.559 204.828 184.479 204.613H184.543C190.593 204.812 195.48 205.391 195.48 205.391C202.029 229.217 213.272 305.231 219.208 347.037Z" fill="#EBEBEB"/>
<path d="M219.208 348.71H141.071C140.635 348.71 140.216 348.527 139.926 348.213C139.619 347.898 139.458 347.468 139.458 347.021C139.555 342.699 139.571 336.341 139.603 328.99C139.716 297.151 139.893 243.886 146.426 228.124C151.153 216.716 155.589 212.941 158.524 210.458C159.541 209.597 160.347 208.918 160.847 208.156C165.961 200.407 192.657 203.388 195.674 203.752C196.319 203.835 196.867 204.298 197.045 204.944C203.578 228.737 214.74 304.038 220.821 346.805C220.886 347.286 220.757 347.766 220.45 348.13C220.144 348.494 219.692 348.71 219.225 348.71H219.208ZM142.716 345.398H217.337C211.32 303.045 200.642 231.286 194.206 206.931C183.43 205.755 166.429 205.59 163.509 210.027C162.751 211.17 161.751 212.031 160.573 213.024C157.879 215.309 153.798 218.753 149.378 229.432C143.103 244.582 142.926 297.432 142.813 329.023C142.797 335.48 142.765 341.176 142.7 345.415L142.716 345.398Z" fill="#303030"/>
<path d="M169.703 114.277C181.333 111.495 208.836 151.911 223.015 163.336C223.015 163.336 233.549 164.776 268.617 177.873C268.617 177.873 269.214 185.439 264.455 184.926C259.697 184.43 222.644 180.323 215.418 176.532C211.449 174.446 181.333 148.699 171.252 138.5C161.944 129.096 158.073 117.042 169.703 114.277Z" fill="white"/>
<path d="M264.891 186.615C264.697 186.615 264.488 186.615 264.294 186.582C262.6 186.4 222.564 182.145 214.692 178.005C210.288 175.704 179.882 149.544 170.123 139.676C163.154 132.639 159.751 124.907 161.235 119.509C161.896 117.108 163.832 113.963 169.332 112.655C177.752 110.635 191.206 126.066 205.433 142.391C212.305 150.272 218.805 157.74 223.677 161.763C226.048 162.177 237.84 164.611 269.149 176.317C269.746 176.532 270.149 177.095 270.214 177.741C270.262 178.254 270.553 182.906 268.198 185.274C267.31 186.168 266.181 186.615 264.891 186.615ZM170.074 115.9C166.896 116.661 164.961 118.185 164.348 120.436C163.203 124.609 166.364 131.248 172.397 137.341C182.527 147.573 212.385 173.088 216.16 175.075C222.241 178.27 253.212 182.095 264.617 183.304C265.359 183.387 265.713 183.138 265.939 182.923C266.714 182.145 266.972 180.373 267.02 179.065C233.5 166.598 222.902 165.025 222.79 165.008C222.499 164.975 222.241 164.843 222.015 164.66C216.886 160.521 210.159 152.806 203.029 144.626C191.27 131.132 176.688 114.343 170.058 115.916L170.074 115.9Z" fill="#303030"/>
<path d="M195.577 162.243C195.577 162.243 192.383 190.407 195.335 203.917C197.303 212.858 178.462 216.964 167.832 215.424C163.38 214.795 160.364 213.173 160.928 210.49C161.928 205.788 160.073 195.705 156.024 177.807C150.911 155.289 138.926 138.268 141.345 125.999C142.813 118.549 154.556 113.135 173.042 110.535C174.623 110.303 176.268 111.379 178.833 114.012C182.076 117.34 186.77 123.201 194.577 132.109C205.272 144.328 201.561 151.547 195.577 162.243Z" fill="white"/>
<path d="M195.577 162.243C195.577 162.243 192.383 190.407 195.335 203.917C197.303 212.858 178.462 216.964 167.832 215.425C167.622 214.944 167.574 214.415 167.703 213.835C168.703 209.133 166.864 199.033 162.799 181.151C157.686 158.617 145.701 141.613 148.12 129.344C149.556 122.009 160.928 116.678 178.833 114.012C182.076 117.34 186.77 123.201 194.577 132.109C205.272 144.328 201.562 151.547 195.577 162.243Z" fill="#245A7C"/>
<path d="M172.575 217.444C167.977 217.444 163.864 216.683 161.509 215.044C159.718 213.802 158.96 212.063 159.363 210.143C160.315 205.672 158.283 195.043 154.46 178.187C152.347 168.866 148.991 160.405 146.039 152.938C141.878 142.391 138.264 133.284 139.765 125.685C141.797 115.37 158.863 110.866 172.833 108.896C176.43 108.399 179.414 111.909 187.415 121.297C189.722 124.013 192.48 127.241 195.787 131.016C207.352 144.212 202.933 152.458 197.158 162.789C196.819 165.985 194.222 191.268 196.932 203.569C197.432 205.871 197.142 209.265 192.819 212.295C188.125 215.59 179.769 217.444 172.575 217.444ZM173.268 112.174C155.266 114.707 144.201 119.873 142.926 126.347C141.62 132.986 145.055 141.662 149.024 151.713C152.024 159.296 155.411 167.872 157.589 177.459C161.702 195.589 163.59 205.738 162.509 210.871C162.444 211.136 162.348 211.649 163.316 212.312C167.864 215.457 184.06 214.431 190.996 209.563C194.399 207.162 193.932 205.01 193.77 204.298C190.786 190.671 193.851 163.236 193.98 162.077C194.012 161.862 194.077 161.647 194.19 161.448C199.997 151.067 203.513 144.792 193.383 133.251C190.06 129.46 187.302 126.231 184.979 123.499C178.624 116.032 175.107 111.942 173.268 112.191V112.174Z" fill="#303030"/>
<path d="M225.79 238.389L225.209 239.267L181.108 306.025C180.221 307.383 178.446 307.731 177.124 306.82L133.619 276.554L132.587 275.825C131.28 274.914 130.941 273.077 131.828 271.736L176.511 204.083C177.398 202.742 179.172 202.394 180.495 203.305L225.032 234.3C226.339 235.211 226.677 237.032 225.79 238.389Z" fill="white"/>
<path d="M225.209 239.267L181.108 306.025C180.22 307.383 178.446 307.73 177.123 306.82L133.619 276.553L177.72 209.779C178.607 208.437 180.382 208.073 181.688 208.984L225.209 239.267Z" fill="#245A7C"/>
<path d="M178.736 308.989C177.865 308.989 176.994 308.74 176.236 308.194L131.699 277.199C130.715 276.504 130.038 275.461 129.812 274.252C129.586 273.043 129.828 271.818 130.505 270.808L175.188 203.156C175.865 202.146 176.881 201.45 178.043 201.218C179.22 200.987 180.414 201.235 181.398 201.93L225.935 232.925C227.984 234.349 228.516 237.214 227.129 239.316L182.446 306.969C181.575 308.277 180.172 308.989 178.736 308.989ZM133.167 272.679C132.78 273.258 132.925 274.07 133.506 274.467L178.043 305.462C178.607 305.859 179.398 305.71 179.785 305.114L224.467 237.462C224.854 236.882 224.709 236.071 224.128 235.674L179.591 204.679C179.317 204.48 178.978 204.414 178.656 204.48C178.333 204.546 178.043 204.729 177.849 205.027L133.167 272.679Z" fill="#303030"/>
<path d="M184.675 215.472L212.351 234.734C212.823 235.063 213.465 234.936 213.785 234.452L218.682 227.038C219.002 226.554 218.879 225.895 218.407 225.567L190.731 206.304C190.259 205.976 189.617 206.102 189.297 206.586L184.399 214C184.079 214.484 184.203 215.143 184.675 215.472Z" fill="white"/>
<path d="M212.885 236.585C212.369 236.585 211.853 236.436 211.401 236.121L183.721 216.865C183.14 216.452 182.737 215.839 182.608 215.127C182.479 214.415 182.608 213.687 183.011 213.09L187.899 205.689C188.302 205.093 188.899 204.679 189.592 204.547C190.286 204.415 190.996 204.547 191.577 204.961L219.257 224.217C220.467 225.061 220.773 226.75 219.967 227.992L215.079 235.409C214.563 236.188 213.724 236.602 212.885 236.602V236.585ZM186.011 214.448L212.74 233.042L216.982 226.618L190.254 208.024L186.011 214.448Z" fill="#303030"/>
<path d="M176.091 241.022C179.543 235.807 186.479 234.449 191.561 237.976C196.642 241.519 197.981 248.638 194.529 253.854C191.077 259.069 184.14 260.444 179.059 256.9C173.978 253.357 172.639 246.238 176.091 241.022Z" fill="white"/>
<path d="M185.269 260.526C182.753 260.526 180.285 259.765 178.156 258.275C175.349 256.321 173.446 253.341 172.8 249.913C172.155 246.486 172.849 242.992 174.768 240.111C178.72 234.134 186.657 232.578 192.48 236.618C195.287 238.572 197.19 241.552 197.835 244.979C198.481 248.423 197.787 251.9 195.867 254.781C193.964 257.678 191.06 259.632 187.721 260.278C186.915 260.444 186.092 260.51 185.286 260.51L185.269 260.526ZM185.318 237.661C182.269 237.661 179.269 239.168 177.43 241.949C176.01 244.102 175.478 246.701 175.962 249.267C176.446 251.834 177.865 254.052 179.962 255.51C182.059 256.967 184.592 257.513 187.092 257.016C189.592 256.519 191.754 255.062 193.174 252.91C194.593 250.758 195.125 248.158 194.641 245.592C194.157 243.025 192.738 240.807 190.641 239.35C189.012 238.207 187.157 237.661 185.318 237.661Z" fill="#303030"/>
<path d="M192.206 247.992L190.915 251.685L181.027 252.926L179.108 230.922L182.237 228.339L184.269 248.721L192.206 247.992Z" fill="#303030"/>
<path d="M176.381 87.4544C174.01 98.1669 173.978 108.283 174.72 110.502C175.301 112.29 183.043 123.152 184.318 128.119C185.592 133.069 176.349 129.129 169.59 123.566C164.848 119.658 161.057 116.943 159.202 115.668C158.46 115.154 158.105 114.244 158.299 113.333L165.59 77.9341L176.381 87.4544Z" fill="white"/>
<path d="M182.737 132.01C178.785 132.01 172.333 127.953 168.574 124.84C163.88 120.966 160.122 118.284 158.299 117.025C157.008 116.131 156.395 114.558 156.718 112.985L164.009 77.5863C164.122 77.0068 164.525 76.5432 165.074 76.3611C165.606 76.1789 166.203 76.2948 166.638 76.6756L177.43 86.196C177.882 86.5934 178.075 87.2225 177.946 87.8186C175.559 98.6138 175.672 108.25 176.236 109.972C176.414 110.452 177.64 112.422 178.72 114.178C181.35 118.416 184.979 124.228 185.85 127.688C186.447 130.039 185.286 131.115 184.753 131.48C184.205 131.844 183.511 132.01 182.737 132.01ZM166.606 81.0136L159.88 113.681C159.831 113.929 159.912 114.161 160.105 114.293C161.96 115.585 165.8 118.333 170.59 122.274C175.93 126.678 181.301 128.847 182.785 128.748C182.785 128.698 182.769 128.632 182.737 128.549C181.979 125.585 178.382 119.79 175.994 115.966C174.268 113.184 173.429 111.826 173.171 111.048C172.284 108.349 172.429 98.4317 174.591 88.0835L166.606 81.0302V81.0136Z" fill="#303030"/>
<path d="M159.992 72.2717C159.589 66.3277 161.364 61.0128 165.461 57.5689C172.687 51.509 183.737 53.38 187.673 68.7284C191.076 81.9741 191.383 102.737 184.608 104.012C175.51 105.717 160.928 84.1762 159.992 72.2717Z" fill="white"/>
<path d="M183.527 105.767C181.092 105.767 178.382 104.608 175.478 102.323C167.251 95.8324 159.089 81.5767 158.379 72.404C158.379 72.404 158.379 72.404 158.379 72.3875C157.928 65.6653 160.073 59.9365 164.429 56.294C168.429 52.9329 173.284 51.8732 177.736 53.3633C183.124 55.1681 187.205 60.4664 189.205 68.3144C192.141 79.7885 192.851 96.1801 188.834 102.654C187.786 104.343 186.463 105.353 184.882 105.651C184.431 105.734 183.979 105.783 183.527 105.783V105.767ZM161.606 72.1557C162.251 80.4011 169.961 93.7958 177.446 99.6902C180.124 101.793 182.479 102.72 184.302 102.389C184.979 102.257 185.576 101.76 186.124 100.866C189.496 95.4184 188.818 79.772 186.092 69.1423C184.366 62.4201 181.043 57.9331 176.736 56.4926C173.333 55.3502 169.59 56.2112 166.461 58.8438C162.945 61.7909 161.218 66.5097 161.589 72.1391L161.606 72.1557Z" fill="#303030"/>
<path d="M148.217 215.077C152.992 216.666 160.138 221.965 162.59 225.061L160.606 228.174C160.606 228.174 164.945 233.671 165.622 237.959C166.3 242.247 158.944 240.707 154.266 235.806C145.185 226.319 143.668 217.13 143.668 217.13L148.217 215.093V215.077Z" fill="white"/>
<path d="M163.267 242.098C160.25 242.098 156.137 240.095 153.121 236.949C143.797 227.197 142.152 217.776 142.087 217.378C141.958 216.633 142.345 215.888 143.039 215.59L147.588 213.554C147.943 213.388 148.362 213.371 148.733 213.487C153.83 215.193 161.186 220.623 163.864 223.985C164.315 224.547 164.348 225.326 163.961 225.938L162.606 228.074C163.928 229.929 166.671 234.084 167.235 237.677C167.509 239.449 166.864 240.889 165.461 241.618C164.848 241.932 164.106 242.081 163.283 242.081L163.267 242.098ZM145.555 218.074C146.313 220.806 148.733 227.66 155.411 234.631C159.025 238.406 163.428 239.234 164.041 238.638C164.041 238.638 164.09 238.522 164.041 238.207C163.541 235.045 160.509 230.624 159.379 229.2C158.944 228.637 158.896 227.859 159.283 227.246L160.589 225.21C157.879 222.362 152.266 218.355 148.314 216.848L145.588 218.074H145.555Z" fill="#303030"/>
<path d="M157.153 128.334C159.766 140.289 127.763 179.794 127.763 179.794C127.763 179.794 143.668 205.474 148.201 215.077C148.201 215.077 146.894 223.538 143.765 219.829C140.619 216.12 112.987 190.241 111.842 182.013C111.197 177.426 127.908 143.203 135.232 131.613C145.039 116.099 154.25 115.022 157.153 128.351V128.334Z" fill="white"/>
<path d="M145.281 222.429C144.507 222.429 143.555 222.098 142.555 220.922C141.91 220.177 140.055 218.289 137.684 215.905C124.892 203.007 111.149 188.718 110.245 182.245C109.439 176.549 127.376 140.984 133.877 130.702C139.829 121.298 145.878 116.612 150.943 117.556C153.556 118.036 157.041 120.238 158.734 127.97C161.299 139.693 135.361 172.906 129.763 179.927C132.796 184.844 145.604 205.756 149.669 214.365C149.814 214.663 149.862 215.011 149.814 215.342C149.524 217.197 148.588 221.568 146.056 222.313C145.83 222.379 145.572 222.429 145.281 222.429ZM149.637 120.752C146.104 120.752 141.297 125.056 136.587 132.507C128.392 145.455 113.036 178.155 113.439 181.781C114.278 187.675 132.264 205.805 139.942 213.554C142.442 216.087 144.265 217.909 144.975 218.753C145.072 218.869 145.168 218.952 145.233 219.018C145.668 218.472 146.233 216.899 146.523 215.326C141.781 205.557 126.553 180.937 126.408 180.688C126.037 180.076 126.086 179.297 126.537 178.735C135.296 167.923 157.589 137.855 155.589 128.699C154.573 124.046 152.718 121.248 150.379 120.818C150.137 120.768 149.895 120.752 149.653 120.752H149.637Z" fill="#303030"/>
<path d="M274.117 172.84C269.214 173.304 265.858 175.837 264.181 176.234C262.487 176.632 260.955 183.354 263.358 184.861C265.762 186.367 272.149 189.795 276.618 188.155C285.038 185.043 274.134 172.84 274.134 172.84H274.117Z" fill="white"/>
<path d="M273.972 190.242C269.262 190.242 264.197 187.327 262.504 186.268C260.858 185.241 260.165 182.824 260.632 179.811C260.761 179.032 261.487 175.175 263.794 174.628C264.165 174.545 264.859 174.198 265.584 173.85C267.472 172.939 270.327 171.549 273.94 171.201C274.456 171.151 274.94 171.35 275.279 171.731C276.021 172.559 282.506 180.009 281.199 185.457C280.876 186.831 279.892 188.685 277.118 189.712C276.102 190.093 275.037 190.242 273.94 190.242H273.972ZM264.713 177.791C264.278 178.287 263.6 180.291 263.729 182.062C263.794 182.973 264.052 183.354 264.181 183.437C267.665 185.622 272.859 187.758 276.037 186.582C277.586 186.003 277.941 185.208 278.086 184.645C278.763 181.781 275.295 176.814 273.456 174.579C270.779 174.976 268.601 176.036 266.972 176.83C266.085 177.261 265.359 177.608 264.697 177.791H264.713Z" fill="#303030"/>
<path d="M438.409 176.764C436.57 164.081 421.988 110.734 414.229 106.876C399.405 99.5083 394.469 111.645 400.083 123.483C404.406 132.589 418.31 166.796 423.037 173.999C423.021 174.032 411.907 181.83 400.131 201.268C398.776 203.52 399.76 206.616 400.583 208.454C400.986 209.348 402.002 209.696 402.809 209.199C413.262 202.775 432.231 191.036 437.28 182.526C438.522 180.44 438.797 178.486 438.425 176.747L438.409 176.764Z" fill="#EBEBEB"/>
<path d="M402.002 211.087C401.696 211.087 401.389 211.037 401.083 210.938C400.212 210.657 399.486 210.011 399.099 209.15C398.002 206.699 397.05 203.189 398.744 200.391C408.245 184.728 417.407 176.416 420.875 173.602C417.359 167.459 410.794 152.177 405.422 139.726C402.535 133.02 400.051 127.225 398.615 124.228C395.211 117.043 395.437 109.608 399.212 105.734C401.196 103.681 405.89 100.916 414.923 105.403C424.053 109.94 438.49 166.184 439.99 176.483C440.458 178.784 439.99 181.102 438.635 183.42C433.312 192.361 413.988 204.265 403.615 210.657C403.115 210.955 402.567 211.12 402.002 211.12V211.087ZM406.148 106.297C404.228 106.297 402.648 106.876 401.502 108.069C398.744 110.9 398.76 116.943 401.518 122.771C402.97 125.834 405.47 131.646 408.374 138.385C414.133 151.763 421.295 168.403 424.36 173.088C424.682 173.585 424.731 174.231 424.456 174.777C424.343 175.009 424.101 175.257 423.908 175.406C422.021 176.83 412.02 184.778 401.486 202.163C400.47 203.852 401.535 206.65 402.035 207.792C411.374 202.014 430.989 189.944 435.893 181.698C436.829 180.125 437.151 178.585 436.829 177.145C436.829 177.112 436.829 177.079 436.813 177.029C434.716 162.459 420.101 111.661 413.52 108.4C410.729 107.009 408.229 106.314 406.148 106.314V106.297Z" fill="#303030"/>
<path d="M329.898 448.251C329.091 448.169 328.317 448.566 327.849 449.245C326.543 451.149 324.413 452.92 322.526 453.252C312.944 454.874 306.331 458.103 303.508 460.123C301.701 461.414 302.556 464.312 304.766 464.312H335.673C336.689 464.312 337.673 463.467 337.866 462.441C339.286 455.288 336.576 448.897 336.576 448.897L329.882 448.251H329.898Z" fill="#303030"/>
<path d="M335.688 465.984H304.766C303.04 465.984 301.604 464.891 301.088 463.219C300.572 461.53 301.153 459.791 302.572 458.765C305.943 456.347 312.896 453.202 322.252 451.629C323.558 451.413 325.349 450.006 326.51 448.317C327.317 447.142 328.656 446.496 330.027 446.628L336.721 447.274C337.302 447.324 337.818 447.705 338.044 448.268C338.157 448.549 340.931 455.222 339.431 462.805C339.076 464.593 337.414 466 335.656 466L335.688 465.984ZM329.704 449.907C329.51 449.907 329.317 450.006 329.188 450.205C327.897 452.092 325.462 454.443 322.816 454.89C313.977 456.381 307.395 459.377 304.443 461.48C304.104 461.728 304.137 462.043 304.185 462.225C304.25 462.424 304.395 462.672 304.782 462.672H335.688C335.93 462.672 336.253 462.391 336.301 462.126C337.302 457.076 336.06 452.374 335.43 450.453L329.752 449.907C329.752 449.907 329.72 449.907 329.704 449.907Z" fill="#303030"/>
<path d="M410.89 448.251C410.084 448.169 409.309 448.566 408.842 449.245C407.535 451.149 405.406 452.92 403.518 453.252C393.937 454.874 387.323 458.103 384.5 460.123C382.694 461.414 383.549 464.312 385.758 464.312H416.665C417.681 464.312 418.665 463.467 418.859 462.441C420.278 455.288 417.213 448.864 417.213 448.864L410.874 448.268L410.89 448.251Z" fill="#303030"/>
<path d="M416.681 465.984H385.759C384.049 465.984 382.597 464.891 382.081 463.219C381.565 461.53 382.145 459.791 383.565 458.765C386.936 456.347 393.888 453.202 403.244 451.629C404.551 451.413 406.341 450.006 407.503 448.317C408.309 447.142 409.648 446.496 411.019 446.628L417.359 447.224C417.923 447.274 418.407 447.622 418.665 448.152C418.794 448.433 421.956 455.172 420.44 462.788C420.085 464.576 418.423 465.984 416.665 465.984H416.681ZM410.697 449.907C410.503 449.907 410.31 450.006 410.181 450.205C408.89 452.092 406.454 454.443 403.809 454.89C394.969 456.381 388.388 459.377 385.436 461.48C385.097 461.728 385.129 462.043 385.178 462.225C385.242 462.424 385.388 462.672 385.775 462.672H416.681C416.923 462.672 417.246 462.391 417.294 462.126C418.294 457.059 416.826 452.291 416.117 450.437L410.745 449.923C410.745 449.923 410.713 449.923 410.697 449.923V449.907Z" fill="#303030"/>
<path d="M419.133 449.509C419.133 449.509 418.472 450.089 417.294 450.602C415.229 451.512 411.6 452.208 407.309 449.261C407.309 449.261 388.775 352.236 388.356 349.62C387.936 346.987 374.564 220.193 374.564 220.193L399.115 204.397C399.115 204.397 399.663 205.474 400.518 207.411C402.744 212.461 407.051 223.339 409.067 235.856C412.213 255.36 410.132 344.404 410.132 344.404C410.132 344.404 416.02 356.127 418.197 365.465C422.004 381.857 419.133 449.509 419.133 449.509Z" fill="white"/>
<path d="M419.133 449.509C419.133 449.509 418.472 450.089 417.294 450.602C416.23 450.271 415.1 449.741 413.923 448.93C413.923 448.93 395.389 351.905 394.969 349.272C394.55 346.656 381.177 219.862 381.177 219.862L400.518 207.411C402.744 212.461 407.051 223.339 409.068 235.856C412.213 255.36 410.132 344.405 410.132 344.405C410.132 344.405 416.02 356.127 418.198 365.465C422.004 381.857 419.133 449.509 419.133 449.509Z" fill="#245A7C"/>
<path d="M413.6 453.035C411.455 453.035 408.987 452.406 406.422 450.651C406.067 450.403 405.825 450.022 405.728 449.592C404.97 445.634 387.178 352.501 386.759 349.885C386.339 347.252 373.515 225.557 372.967 220.375C372.902 219.746 373.193 219.133 373.709 218.785L398.244 202.99C398.631 202.741 399.083 202.675 399.518 202.791C399.954 202.907 400.325 203.222 400.518 203.619C400.809 204.199 407.842 218.206 410.632 235.574C413.681 254.532 411.89 336.589 411.729 344.007C412.778 346.143 417.73 356.458 419.73 365.067C423.553 381.492 420.827 446.793 420.714 449.575C420.698 450.039 420.488 450.469 420.133 450.767C418.923 451.81 416.536 453.002 413.552 453.002L413.6 453.035ZM408.761 448.251C412.987 450.85 416.294 449.393 417.552 448.631C417.859 440.883 420.117 380.863 416.617 365.862C414.52 356.822 408.745 345.282 408.697 345.166C408.567 344.917 408.503 344.653 408.519 344.371C408.535 343.477 410.552 255.261 407.471 236.137C405.293 222.643 400.341 210.954 398.437 206.781L376.274 221.054C380.919 265.145 389.614 347.285 389.936 349.355C390.324 351.805 407.067 439.475 408.745 448.251H408.761Z" fill="#303030"/>
<path d="M401.712 246.155C398.502 265.642 362.401 348.709 362.401 348.709C362.401 348.709 363.917 361.789 362.772 371.326C360.739 388.049 337.56 452.009 337.56 452.009C337.56 452.009 337.495 452.142 337.253 452.274C336.559 452.672 334.317 453.003 327.849 449.244C327.849 449.244 339.721 348.362 340.237 345.746C340.737 343.146 365.385 216.352 365.385 216.352L393.066 206.318C393.066 206.318 393.985 207.262 395.243 209.166C398.76 214.381 404.906 226.766 401.712 246.155Z" fill="white"/>
<path d="M401.712 246.155C398.502 265.643 362.401 348.71 362.401 348.71C362.401 348.71 363.918 361.79 362.772 371.327C360.74 388.05 337.56 452.01 337.56 452.01C337.56 452.01 337.495 452.142 337.253 452.275C336.35 451.828 335.318 451.281 334.14 450.602C334.14 450.602 346.012 349.72 346.512 347.104C347.013 344.504 371.66 217.71 371.66 217.71L395.243 209.167C398.76 214.382 404.906 226.767 401.712 246.155Z" fill="#245A7C"/>
<path d="M336.14 454.162C334.06 454.162 331.059 453.019 327.059 450.685C326.494 450.354 326.172 449.708 326.252 449.045C326.736 444.923 338.141 348.064 338.641 345.431C339.157 342.832 363.789 216.037 363.789 216.037C363.901 215.458 364.289 214.994 364.837 214.795L392.517 204.762C393.098 204.547 393.759 204.696 394.195 205.159C394.743 205.739 407.729 219.498 403.293 246.419C400.163 265.394 367.111 341.888 364.047 348.958C364.305 351.408 365.418 362.799 364.353 371.525C362.337 388.248 339.996 449.956 339.06 452.572C339.044 452.638 339.012 452.705 338.979 452.754C338.85 453.019 338.431 453.648 337.415 453.963C337.044 454.079 336.608 454.129 336.14 454.129V454.162ZM329.591 448.334C333.818 450.668 335.624 450.85 336.269 450.834C338.608 444.343 359.304 386.609 361.175 371.128C362.288 361.905 360.82 349.024 360.804 348.891C360.772 348.593 360.804 348.295 360.933 348.014C361.288 347.186 396.986 264.93 400.131 245.856C403.728 224.034 395.082 211.368 392.582 208.239L366.789 217.594C364.563 229.068 342.302 343.577 341.818 346.06C341.415 348.196 333.721 413.232 329.591 448.317V448.334Z" fill="#303030"/>
<path d="M401.599 214.464C402.228 218.653 386.468 224.034 375.822 223.438C375.177 223.405 374.548 223.339 373.967 223.239C368.225 222.362 365.45 219.117 365.385 216.352C365.289 211.682 359.304 156.713 362.917 132.026C366.547 107.24 396.26 100.121 398.695 100.054C404.922 99.8722 409.245 101.892 412.181 104.74C416.488 108.896 417.907 114.823 418.149 118.234C419.585 138.897 399.018 197.063 401.599 214.464Z" fill="white"/>
<path d="M401.599 214.464C402.228 218.653 386.469 224.034 375.822 223.438C375.177 223.405 374.548 223.339 373.967 223.24C373.37 222.346 373.064 221.385 373.048 220.491C372.951 215.822 366.967 160.852 370.58 136.166C374.209 111.38 403.922 104.26 406.358 104.194C408.535 104.128 410.471 104.326 412.181 104.74C416.488 108.896 417.908 114.824 418.149 118.234C419.585 138.898 399.018 197.063 401.599 214.464Z" fill="#EBEBEB"/>
<path d="M377.516 225.144C376.903 225.144 376.322 225.144 375.742 225.094C367.999 224.664 363.869 220.392 363.772 216.402C363.756 215.59 363.531 212.925 363.208 209.232C361.756 192.129 358.336 152.077 361.304 131.795C365.047 106.214 394.776 98.5148 398.631 98.3989C398.905 98.3989 399.18 98.3989 399.438 98.3989C414.342 98.3989 419.198 110.734 419.73 118.135C420.456 128.583 415.746 148.219 411.181 167.21C406.632 186.152 401.922 205.739 403.18 214.233C403.293 215.011 403.18 216.219 401.986 217.577C398.454 221.567 386.581 225.16 377.484 225.16L377.516 225.144ZM399.47 101.694C399.228 101.694 398.986 101.694 398.744 101.694C395.695 101.81 367.886 109.211 364.515 132.258C361.595 152.16 364.982 191.93 366.434 208.918C366.773 212.809 366.982 215.375 366.999 216.302C367.047 218.223 369.499 221.402 375.919 221.766C384.355 222.213 396.05 218.72 399.341 215.607C399.873 215.11 400.002 214.779 400.002 214.696C398.647 205.557 403.228 186.532 408.068 166.382C412.568 147.64 417.23 128.268 416.536 118.334C416.407 116.612 414.923 101.677 399.47 101.677V101.694Z" fill="#303030"/>
<path d="M407.116 84.8549L407.858 104.806C407.858 104.806 408.6 108.316 398.825 105.469C389.065 102.637 387.307 103.515 387.307 103.515L395.55 66.0957L407.116 84.8549Z" fill="white"/>
<path d="M404.922 108.234C403.244 108.234 401.083 107.836 398.389 107.058C390.372 104.724 388.114 105.022 387.856 105.071C387.339 105.253 386.759 105.171 386.323 104.806C385.839 104.409 385.613 103.763 385.742 103.134L393.985 65.715C394.13 65.0693 394.647 64.556 395.292 64.4566C395.937 64.3407 396.582 64.6388 396.921 65.2017L408.471 83.9609C408.616 84.2093 408.713 84.4908 408.713 84.7888L409.455 104.641C409.535 105.336 409.358 106.313 408.551 107.091C407.761 107.853 406.567 108.234 404.906 108.234H404.922ZM389.356 101.76C391.63 101.925 395.001 102.637 399.26 103.863C404.196 105.303 405.809 104.906 406.228 104.724L405.503 85.3517L396.26 70.351L389.34 101.76H389.356Z" fill="#303030"/>
<path d="M401.873 72.0232C391.388 88.3982 373.677 88.5307 371.305 84.9047C368.934 81.2787 375.628 53.0157 389.194 41.5912C396.082 35.7962 401.889 72.0232 401.889 72.0232H401.873Z" fill="white"/>
<path d="M377.451 88.4646C373.806 88.4646 371.08 87.5043 369.967 85.8155C366.934 81.2126 374.015 52.2045 388.162 40.2999C389.34 39.3065 390.695 39.0416 392.001 39.5383C398.405 42.0219 402.68 66.7913 403.47 71.7254C403.535 72.1393 403.454 72.5532 403.228 72.9009C395.921 84.2922 385.178 88.3984 377.564 88.448H377.451V88.4646ZM390.711 42.6179C390.598 42.6179 390.453 42.6676 390.211 42.8663C376.903 54.0755 370.999 80.9146 372.644 83.9776C372.886 84.3584 374.402 85.1532 377.435 85.1532H377.532C384.194 85.1201 393.582 81.5437 400.179 71.6426C398.018 58.4797 393.888 43.8266 390.856 42.6511C390.807 42.6511 390.759 42.6179 390.695 42.6179H390.711Z" fill="#303030"/>
<path d="M408.003 86.4778C406.729 88.3653 403.599 88.6634 400.567 85.3023C399.599 84.2261 392.389 76.6098 394.55 73.4474C401.196 63.6952 394.647 61.7415 391.066 65.1688C389.872 66.3112 387.711 66.245 388.033 64.639C388.872 60.5659 389.098 54.6054 387.001 52.9828C375.742 44.3068 391.776 21.458 391.776 21.458C391.776 21.458 397.583 24.6701 406.664 26.8722C418.924 29.8525 428.279 38.2138 430.328 48.8104C433.086 63.066 412.568 79.706 408.003 86.4944V86.4778Z" fill="#303030"/>
<path d="M405.277 89.5408C403.277 89.5408 401.212 88.448 399.389 86.4446L399.228 86.279C393.292 79.8052 391.34 75.3017 393.227 72.5201C396.018 68.4139 396.099 66.0959 395.469 65.533C394.953 65.0694 393.437 65.1687 392.163 66.394C390.888 67.6192 388.953 67.9834 387.662 67.2384C386.662 66.6589 386.21 65.5495 386.452 64.3077C387.469 59.3903 387.049 55.0854 386.033 54.3072C373.645 44.7703 389.775 21.4745 390.469 20.481C390.937 19.8022 391.824 19.6035 392.55 19.9843C392.614 20.0175 398.309 23.1302 407.051 25.2495C420.246 28.445 429.763 37.3527 431.925 48.4791C434.167 60.0857 422.537 72.6857 414.859 81.0304C412.471 83.6299 410.407 85.8651 409.358 87.4215C408.535 88.6467 407.197 89.4083 405.696 89.5077C405.567 89.5077 405.422 89.5077 405.293 89.5077L405.277 89.5408ZM394.631 61.9566C395.744 61.9566 396.792 62.3043 397.583 63.0163C398.712 64.0263 400.809 67.1556 395.873 74.4076C395.873 74.4242 394.631 76.4276 401.583 84.0107L401.76 84.1929C403.003 85.5671 404.358 86.2956 405.454 86.2128C405.987 86.1797 406.422 85.9479 406.696 85.534C407.89 83.7624 410.036 81.4444 412.52 78.7456C419.762 70.8975 430.683 59.0426 428.78 49.1249C426.908 39.4389 418.101 31.326 406.325 28.4781C399.551 26.839 394.582 24.6534 392.356 23.5772C389.42 28.1636 379.468 45.0849 388.001 51.6581C391.179 54.092 390.259 61.4599 389.808 64.1091C389.872 64.0759 389.937 64.0263 390.001 63.9601C391.372 62.652 393.098 61.9566 394.663 61.9566H394.631Z" fill="#303030"/>
<path d="M266.456 186.764C268.246 182.128 273.343 175.77 276.295 174.926C280.731 173.634 288.393 176.399 290.749 178.469C302.137 181.863 286.667 185.887 286.458 185.688C281.748 189.115 278.586 190.125 275.941 190.125C272.827 190.125 264.988 190.589 266.456 186.764Z" fill="white"/>
<path d="M273.843 191.781C269.988 191.781 266.568 191.483 265.213 189.447C264.778 188.784 264.375 187.675 264.955 186.152C266.843 181.251 272.246 174.363 275.86 173.32C280.796 171.896 288.684 174.744 291.507 176.963C293.813 177.675 296.346 178.784 296.523 181.002C296.717 183.387 293.975 184.761 293.055 185.225C293.007 185.241 289.474 186.963 287.103 187.228C282.731 190.374 279.263 191.781 275.924 191.781H275.037C274.634 191.781 274.214 191.781 273.811 191.781H273.843ZM267.956 187.36C267.891 187.543 267.891 187.625 267.891 187.625C268.182 188.006 269.682 188.519 275.021 188.453H275.94C278.634 188.453 281.586 187.162 285.522 184.297C285.812 184.082 286.135 183.983 286.49 183.999C287.909 183.784 292.152 182.31 293.168 181.267C292.862 181.019 292.087 180.572 290.297 180.026C290.071 179.959 289.877 179.843 289.7 179.694C287.684 177.923 280.57 175.373 276.731 176.499C274.569 177.128 269.746 182.724 267.956 187.36Z" fill="#303030"/>
<path d="M392.291 125.735C390.162 138.235 357.885 185.589 349.529 191.93C349.529 191.93 349.351 191.814 349.077 191.599C348.222 192.327 347.174 192.89 345.835 193.238C337.334 195.407 306.798 190.39 291.829 187.178C290.039 186.781 288.458 186.417 287.183 186.102C286.264 185.87 285.78 184.877 286.103 183.949C286.78 182.012 288.151 178.651 290.748 178.436C319.074 176.217 341.399 175.009 341.431 174.992C341.834 174.562 342.238 174.23 342.641 173.982C347.529 162.078 366.579 118.135 372.854 112.009C378.951 106.032 387.872 107.72 391.259 115.122C392.533 117.887 393.017 121.463 392.291 125.735Z" fill="white"/>
<path d="M392.292 125.735C390.162 138.235 357.885 185.589 349.529 191.93C349.529 191.93 349.351 191.814 349.077 191.599C348.222 192.328 347.174 192.89 345.835 193.238C337.334 195.407 306.798 190.39 291.829 187.178C292.636 185.556 293.829 183.966 295.588 183.817C323.913 181.599 346.238 180.39 346.27 180.373C346.674 179.943 347.077 179.612 347.48 179.363C352.368 167.459 371.418 123.516 377.693 117.39C381.79 113.383 387.146 112.82 391.259 115.122C392.533 117.887 393.017 121.463 392.292 125.735Z" fill="#EBEBEB"/>
<path d="M339.689 195.424C324.655 195.424 295.539 189.894 286.796 187.708C285.925 187.493 285.183 186.897 284.764 186.085C284.328 185.258 284.264 184.264 284.586 183.37C285.135 181.814 286.796 177.095 290.619 176.78C306.782 175.505 324.478 174.297 340.463 173.386H340.738C340.931 173.187 341.141 173.022 341.35 172.856C345.464 162.856 364.966 117.406 371.725 110.784C376.096 106.495 382.145 105.485 387.097 108.217C391.437 110.601 395.485 116.529 393.872 126C391.662 138.881 358.885 186.847 350.481 193.238C350.109 193.52 349.642 193.619 349.206 193.536C348.319 194.116 347.319 194.546 346.222 194.828C344.625 195.242 342.383 195.407 339.689 195.407V195.424ZM373.967 113.218C368.386 118.681 350.61 158.816 344.141 174.644C344.012 174.976 343.77 175.257 343.464 175.439C343.157 175.621 342.899 175.853 342.625 176.135C342.431 176.35 342.173 176.515 341.899 176.598C341.77 176.631 341.35 176.67 340.641 176.714C324.687 177.625 307.008 178.833 290.861 180.108C289.7 180.208 288.619 181.681 287.619 184.512C300.459 187.708 336.608 193.9 345.432 191.632C346.464 191.367 347.319 190.937 348.045 190.324C348.416 190.026 348.867 189.91 349.319 189.96C358.175 181.963 388.678 137.308 390.694 125.453C391.824 118.88 389.904 113.532 385.581 111.164C381.871 109.128 377.306 109.923 373.951 113.201L373.967 113.218Z" fill="#303030"/>
</svg>
