<svg width="28" height="26" viewBox="0 0 28 26" fill="none" xmlns="http://www.w3.org/2000/svg">
<path d="M27.9 13.4L21.9 25.4C21.7 25.7 21.4 26 21 26H8C7.4 26 7 25.6 7 25C7 24.4 7.4 24 8 24H20.4L25.9 13L20.4 2H8C7.4 2 7 1.6 7 1C7 0.4 7.4 0 8 0H21C21.4 0 21.7 0.2 21.9 0.6L27.9 12.6C28 12.9 28 13.2 27.9 13.5V13.4ZM8 19C8 19.6 8.4 20 9 20H20V18H9C8.4 18 8 18.4 8 19ZM16 12H5C4.4 12 4 12.4 4 13C4 13.6 4.4 14 5 14H16V12ZM20 8V6H9C8.4 6 8 6.4 8 7C8 7.6 8.4 8 9 8H20ZM1 12C0.4 12 0 12.4 0 13C0 13.6 0.4 14 1 14C1.6 14 2 13.6 2 13C2 12.4 1.6 12 1 12ZM4 18C3.4 18 3 18.4 3 19C3 19.6 3.4 20 4 20C4.6 20 5 19.6 5 19C5 18.4 4.6 18 4 18ZM4 8C4.6 8 5 7.6 5 7C5 6.4 4.6 6 4 6C3.4 6 3 6.4 3 7C3 7.6 3.4 8 4 8Z" fill="black"/>
</svg>
